<svg width="116" height="96" fill="none" xmlns="http://www.w3.org/2000/svg"><path d="M94.932 46.438c0 13.574-10.987 24.577-24.54 24.577-13.553 0-24.54-11.003-24.54-24.577 0-13.573 10.987-24.576 24.54-24.576 13.553 0 24.54 11.003 24.54 24.576Z" fill="#FFC700"/><path d="M51.615 62.262a24.64 24.64 0 0 1-2.253-3.152 1.95 1.95 0 0 1 .947-.244 1.95 1.95 0 0 1 1.953 1.947 1.94 1.94 0 0 1-.647 1.449Zm4.311 4.031a24.7 24.7 0 0 1-3.097-2.69 2.054 2.054 0 0 1 1.49-.638c1.135 0 2.056.918 2.056 2.05 0 .483-.168.927-.449 1.278Zm31.078-1.764a24.65 24.65 0 0 1-2.255 1.843 1.744 1.744 0 0 1-1.232-1.665c0-.962.783-1.742 1.748-1.742.905 0 1.649.686 1.739 1.564Zm3.464-3.953c-.431.613-.89 1.205-1.373 1.774h-.026c-.795 0-1.44-.642-1.44-1.434 0-.792.645-1.435 1.44-1.435a1.44 1.44 0 0 1 1.399 1.095Zm2.536-4.571a24.48 24.48 0 0 1-.917 1.93 1.122 1.122 0 0 1-.345-.81 1.13 1.13 0 0 1 1.262-1.12ZM53.702 34.17a.513.513 0 1 0 1.026-.001.513.513 0 0 0-1.026.001Zm4.523 4.407a.821.821 0 0 0 .823-.82.821.821 0 0 0-.823-.82.821.821 0 0 0-.822.82c0 .453.368.82.822.82Zm1.44 6.968c0 .792-.645 1.434-1.44 1.434a1.436 1.436 0 0 1-1.439-1.434c0-.792.644-1.435 1.44-1.435.794 0 1.439.643 1.439 1.435Zm-1.44 9.222c.909 0 1.645-.734 1.645-1.64 0-.905-.736-1.639-1.645-1.639-.908 0-1.645.734-1.645 1.64 0 .905.737 1.64 1.645 1.64Zm0 8.198a2.053 2.053 0 0 0 2.057-2.05 2.053 2.053 0 0 0-2.057-2.049 2.053 2.053 0 0 0-2.056 2.05c0 1.132.92 2.05 2.056 2.05Zm-3.906-3.894a1.848 1.848 0 0 1-1.851-1.844c0-1.019.828-1.845 1.85-1.845 1.023 0 1.851.826 1.851 1.845a1.848 1.848 0 0 1-1.85 1.844Zm-.103-7.993a1.54 1.54 0 0 0 1.542-1.537 1.54 1.54 0 0 0-1.542-1.537 1.54 1.54 0 0 0-1.543 1.537c0 .85.691 1.538 1.543 1.538Zm-2.159 2.152c0 .963-.783 1.742-1.748 1.742s-1.748-.78-1.748-1.742.783-1.742 1.748-1.742 1.748.78 1.748 1.742Zm-1.748-6.25c.738 0 1.336-.597 1.336-1.333 0-.735-.598-1.332-1.336-1.332-.738 0-1.337.597-1.337 1.332 0 .736.599 1.333 1.337 1.333Zm4.01-4.1a1.026 1.026 0 0 1-1.029-1.024c0-.566.46-1.025 1.029-1.025.567 0 1.028.459 1.028 1.025 0 .566-.46 1.025-1.029 1.025Zm-3.29-5.02a.719.719 0 1 1-1.438-.003.719.719 0 0 1 1.438.002Zm12.954 27.155c0 1.132-.92 2.05-2.056 2.05a2.053 2.053 0 0 1-2.057-2.05c0-1.132.921-2.05 2.057-2.05 1.135 0 2.056.918 2.056 2.05Zm0-4.202a1.95 1.95 0 0 0 1.953 1.947 1.95 1.95 0 0 0 1.954-1.947 1.95 1.95 0 0 0-1.954-1.947 1.95 1.95 0 0 0-1.953 1.947Zm-.206-3.586a1.848 1.848 0 0 1-1.85 1.844 1.848 1.848 0 0 1-1.851-1.844c0-1.019.828-1.845 1.85-1.845 1.023 0 1.851.826 1.851 1.845Zm-3.29-7.686c0 .85.69 1.538 1.542 1.538a1.54 1.54 0 0 0 1.543-1.538 1.54 1.54 0 0 0-1.543-1.537 1.54 1.54 0 0 0-1.542 1.537Zm5.449 5.431c-.965 0-1.748-.78-1.748-1.742s.783-1.742 1.748-1.742 1.748.78 1.748 1.742c0 .963-.782 1.742-1.748 1.742Zm1.954 2.05c0 1.019.828 1.844 1.85 1.844 1.022 0 1.85-.825 1.85-1.844a1.848 1.848 0 0 0-1.85-1.845c-1.022 0-1.85.826-1.85 1.845Zm5.654-2.255a1.54 1.54 0 0 1-1.542-1.537c0-.848.69-1.537 1.542-1.537a1.54 1.54 0 0 1 1.543 1.537 1.54 1.54 0 0 1-1.543 1.538Zm-5.037-5.328c0 .792.644 1.434 1.439 1.434s1.44-.642 1.44-1.434c0-.792-.645-1.435-1.44-1.435-.795 0-1.44.643-1.44 1.435Zm-2.571-2.459a1.334 1.334 0 0 1-1.336-1.333c0-.735.598-1.332 1.336-1.332.738 0 1.337.597 1.337 1.332 0 .736-.599 1.333-1.337 1.333Zm-4.009-4.1c.567 0 1.028-.458 1.028-1.024 0-.566-.46-1.025-1.028-1.025-.568 0-1.029.459-1.029 1.025 0 .566.46 1.025 1.029 1.025Zm.617-8.71a.513.513 0 1 1-1.027-.001.513.513 0 0 1 1.026.001Zm6.374 7.583c0 .51.414.923.925.923a.924.924 0 0 0 .925-.923.924.924 0 0 0-.925-.922.924.924 0 0 0-.925.922Zm-2.982-3.176a.719.719 0 1 1-.002-1.437.719.719 0 0 1 .002 1.437Zm6.683 6.865a1.13 1.13 0 0 0 1.131 1.128c.625 0 1.13-.505 1.13-1.128a1.13 1.13 0 0 0-1.13-1.127 1.13 1.13 0 0 0-1.131 1.127Zm4.935 5.022c-.681 0-1.234-.55-1.234-1.23 0-.68.553-1.23 1.234-1.23.681 0 1.234.55 1.234 1.23 0 .68-.553 1.23-1.234 1.23Zm2.879-5.022c0 .51.414.923.925.923a.924.924 0 0 0 .925-.923.924.924 0 0 0-.925-.922.924.924 0 0 0-.925.922Zm-2.776-2.972a.719.719 0 1 1 .72-.717.719.719 0 0 1-.72.718Zm-4.627-4.508a.616.616 0 1 0 1.232-.002.616.616 0 0 0-1.232.002Zm8.43.41a.41.41 0 1 1 0-.821.41.41 0 0 1 0 .82Zm3.29 3.176a.513.513 0 1 0 1.027-.001.513.513 0 0 0-1.026.001ZM67.89 64.707a1.95 1.95 0 0 0 1.953 1.947 1.95 1.95 0 0 0 1.953-1.947 1.95 1.95 0 0 0-1.953-1.947 1.95 1.95 0 0 0-1.953 1.947Zm5.757-1.947a1.848 1.848 0 0 1-1.85-1.844c0-1.019.828-1.845 1.85-1.845 1.022 0 1.85.826 1.85 1.845a1.848 1.848 0 0 1-1.85 1.844Zm3.907-4.099a1.642 1.642 0 0 1-1.645-1.64c0-.905.736-1.639 1.645-1.639s1.645.734 1.645 1.64c0 .905-.736 1.64-1.645 1.64Zm3.804-4.098a1.334 1.334 0 0 1-1.337-1.333c0-.735.599-1.332 1.337-1.332s1.337.597 1.337 1.332c0 .736-.599 1.333-1.337 1.333Zm3.804-4.099a1.026 1.026 0 0 1-1.028-1.025c0-.566.46-1.025 1.028-1.025.568 0 1.028.459 1.028 1.025 0 .566-.46 1.025-1.028 1.025Zm3.29-4.919a.616.616 0 1 0 1.232-.002.616.616 0 0 0-1.232.002ZM77.657 66.654a1.95 1.95 0 0 1-1.954-1.947 1.95 1.95 0 0 1 1.954-1.947 1.95 1.95 0 0 1 1.953 1.947 1.95 1.95 0 0 1-1.953 1.947Zm2.159-5.943c0 .906.736 1.64 1.645 1.64.908 0 1.645-.734 1.645-1.64 0-.905-.737-1.64-1.645-1.64-.909 0-1.645.735-1.645 1.64Zm5.449-2.459a1.334 1.334 0 0 1-1.337-1.333c0-.735.599-1.332 1.337-1.332s1.337.597 1.337 1.332c0 .736-.599 1.333-1.337 1.333Zm2.775-5.022a1.13 1.13 0 0 0 1.132 1.128 1.13 1.13 0 0 0 1.13-1.128 1.13 1.13 0 0 0-1.13-1.127 1.13 1.13 0 0 0-1.131 1.127Zm4.936-3.176a.821.821 0 0 1-.823-.82c0-.453.368-.82.823-.82a.82.82 0 1 1 0 1.64Z" fill="#FFE600"/><path d="M75.84 59.627c2.823-4.139 7.483-7.443 14.382-7.28 10.583.25 20.261 9.994 16.739 22.773-5.292 19.207-32.66 19.752-55.75 19.207-18.743-.442-40.91-.001-44.877-15.52-2-7.825 2.727-13.625 7.578-15.246 4.036-1.348 7.121-.797 9.28.588 1.178-9.97 7.556-24.042 25.463-24.834 16.498-.73 24.35 10.305 27.184 20.312Z" fill="#E5F9FF"/><path d="M12.856 88.052c-.583-.4-1.136-.828-1.658-1.284a1.484 1.484 0 0 1 1.658 1.285Zm13.478 4.772a54.023 54.023 0 0 1-3.99-.812 2.056 2.056 0 0 1 3.99.812Zm8.328.937c-1.285-.09-2.558-.2-3.81-.332a2.168 2.168 0 1 1 3.81.332Zm8.726.392c-1.198-.033-2.398-.07-3.595-.117a2.282 2.282 0 1 1 3.595.117Zm8.079.18-.255-.006a871.05 871.05 0 0 0-2.358-.052 2.168 2.168 0 1 1 2.613.058Zm8.357.113c-.715 0-1.43-.004-2.143-.01a2.054 2.054 0 1 1 2.143.01Zm17.372-.844c-.795.093-1.596.177-2.404.252a1.598 1.598 0 1 1 2.404-.252Zm8.344-1.419c-.77.18-1.551.346-2.343.5a1.256 1.256 0 0 1 2.342-.5ZM37.184 63.482a.57.57 0 1 1 0-1.141.57.57 0 0 1 0 1.141Zm5.366 3.423a.913.913 0 1 1-1.826-.001.913.913 0 0 1 1.826 0Zm-.914 10.268a1.598 1.598 0 1 0 .001-3.196 1.598 1.598 0 0 0 0 3.196Zm1.827 6.845a1.826 1.826 0 1 1-3.652-.001 1.826 1.826 0 0 1 3.652.001Zm-6.165 6.617a2.054 2.054 0 1 1 0-4.109 2.054 2.054 0 0 1 0 4.11Zm-.114-8.899a1.712 1.712 0 1 0 .001-3.424 1.712 1.712 0 0 0 0 3.424Zm-2.397 2.396a1.94 1.94 0 1 1-3.88-.001 1.94 1.94 0 0 1 3.88.001Zm-6.165 6.275a2.054 2.054 0 1 0 .001-4.108 2.054 2.054 0 0 0-.001 4.108Zm-2.512-6.275a1.712 1.712 0 1 1-3.423-.001 1.712 1.712 0 0 1 3.423.001Zm2.284-2.624a1.598 1.598 0 1 0 0-3.196 1.598 1.598 0 0 0 0 3.196Zm5.936-5.818a1.484 1.484 0 1 1-2.967-.001 1.484 1.484 0 0 1 2.967 0Zm1.827-4.222a1.141 1.141 0 1 0 2.282 0 1.141 1.141 0 0 0-2.282 0Zm-7.649.912a1.027 1.027 0 1 0 0-2.053 1.027 1.027 0 0 0 0 2.054Zm5.137-5.361a.799.799 0 1 1-1.597 0 .799.799 0 0 1 1.597 0Zm-9.475 9.697a1.255 1.255 0 1 0 0-2.51 1.255 1.255 0 0 0 0 2.51Zm-2.854 2.967a1.37 1.37 0 1 1-2.74-.001 1.37 1.37 0 0 1 2.74 0Zm-5.594-3.195a1.027 1.027 0 1 0 0-2.054 1.027 1.027 0 0 0 0 2.054Zm4.908-5.134a.799.799 0 1 1-1.597 0 .799.799 0 0 1 1.598 0Zm3.654-3.537a.685.685 0 1 0 0-1.369.685.685 0 0 0 0 1.37Zm-8.22-.684a.457.457 0 1 1-.913 0 .457.457 0 0 1 .913 0Zm-4.681 4.563a.57.57 0 1 0 0-1.141.57.57 0 0 0 0 1.141Zm8.563 18.483a1.826 1.826 0 1 0 0-3.652 1.826 1.826 0 0 0 0 3.652Zm-4.224-4.564a1.484 1.484 0 1 0 0-2.967 1.484 1.484 0 0 0 0 2.967ZM12.64 79.91a1.141 1.141 0 1 1-2.283 0 1.141 1.141 0 0 1 2.282 0Zm-5.48-3.65a.685.685 0 1 0 0-1.37.685.685 0 0 0 0 1.37Zm40.641 12.322a2.054 2.054 0 1 1-4.108-.002 2.054 2.054 0 0 1 4.108.002Zm-3.653-8.557a1.712 1.712 0 1 0 3.424-.001 1.712 1.712 0 0 0-3.424 0Zm6.051 6.047a1.94 1.94 0 1 1-.002-3.88 1.94 1.94 0 0 1 .002 3.88Zm2.169 2.281a2.054 2.054 0 1 0 4.108-.001 2.054 2.054 0 0 0-4.108.001Zm6.279-2.51a1.712 1.712 0 1 1-.001-3.423 1.712 1.712 0 0 1 0 3.423Zm-5.594-5.933a1.598 1.598 0 1 0 3.195 0 1.598 1.598 0 0 0-3.195 0Zm-2.854-2.737a1.484 1.484 0 1 1-.001-2.968 1.484 1.484 0 0 1 0 2.968Zm-4.453-4.563a1.141 1.141 0 1 0 .001-2.283 1.141 1.141 0 0 0 0 2.282Zm.685-9.699a.57.57 0 1 1-1.141 0 .57.57 0 0 1 1.141 0Zm7.079 8.443a1.027 1.027 0 1 0 2.054 0 1.027 1.027 0 0 0-2.055 0Zm-3.311-3.537a.799.799 0 1 1 0-1.597.799.799 0 0 1 0 1.597Zm7.421 7.644a1.255 1.255 0 1 0 2.51 0 1.255 1.255 0 0 0-2.51 0Zm5.479 5.591a1.37 1.37 0 1 1 0-2.74 1.37 1.37 0 0 1 0 2.74Zm3.197-5.591a1.027 1.027 0 1 0 2.054 0 1.027 1.027 0 0 0-2.054 0Zm-3.083-3.308a.799.799 0 1 1 0-1.598.799.799 0 0 1 0 1.598Zm-5.137-5.02a.685.685 0 1 0 1.37 0 .685.685 0 0 0-1.37 0Zm9.361.457a.456.456 0 1 1 0-.914.456.456 0 0 1 0 .913Zm3.653 3.536a.57.57 0 1 0 1.142 0 .57.57 0 0 0-1.142 0Zm17.695 18.14a.799.799 0 1 1 0-1.598.799.799 0 0 1 0 1.598Zm-25.686.913a1.826 1.826 0 1 1-.001-3.652 1.826 1.826 0 0 1 0 3.652Zm4.224-4.564a1.484 1.484 0 1 1-.001-2.967 1.484 1.484 0 0 1 0 2.967Zm11.53 2.853a1.255 1.255 0 1 0 2.51-.001 1.255 1.255 0 0 0-2.51 0Zm-7.306-7.416a1.141 1.141 0 1 1 0-2.283 1.141 1.141 0 0 1 0 2.283Zm12.101 3.08a.799.799 0 1 0 1.598 0 .799.799 0 0 0-1.598 0Zm-7.763-7.872a.685.685 0 1 1 0-1.37.685.685 0 0 1 0 1.37ZM65.61 92.46a1.826 1.826 0 1 0 3.652 0 1.826 1.826 0 0 0-3.651 0Zm6.051-2.738a1.484 1.484 0 1 1-.001-2.967 1.484 1.484 0 0 1 .001 2.967Zm3.082-5.59a1.255 1.255 0 1 0 2.511 0 1.255 1.255 0 0 0-2.51 0Zm5.48-3.537a.913.913 0 1 1 0-1.826.913.913 0 0 1 0 1.826Z" fill="#A0CEFF"/><path fill-rule="evenodd" clip-rule="evenodd" d="M72.503 72.974c-.43 1.063-1.23 2.213-2.573 2.182-1.09-.026-1.9-.663-2.42-1.508-.505-.82-.786-1.899-.895-3.07-.219-2.356.23-5.397 1.419-8.384a21.25 21.25 0 0 1 1.904-3.696 34.02 34.02 0 0 0-.788-2.34c-1.68-4.44-4.413-8.797-8.493-11.962-4.065-3.152-9.526-5.166-16.77-4.846-13.685.606-20.348 9.213-23.108 17.607a32.793 32.793 0 0 0-1.33 5.752 9.435 9.435 0 0 1 2.334 2.525c1.027 1.626 1.51 3.47 1.401 5.06-.106 1.567-.834 3.141-2.483 3.648-.618.19-1.206.038-1.668-.314-.42-.32-.723-.79-.946-1.274-.45-.979-.736-2.365-.854-3.962-.101-1.373-.084-2.959.084-4.671a7.383 7.383 0 0 0-1.046-.453c-1.728-.596-3.994-.678-6.854.278C5.01 65.018.634 70.33 2.491 77.596c1.843 7.21 7.9 10.83 16.148 12.685 7.35 1.653 16.158 1.837 24.652 2.015 1.05.021 2.095.043 3.132.068 11.555.272 24.047.265 34.294-2.17 10.244-2.434 17.965-7.22 20.468-16.304 3.325-12.063-5.771-21.27-15.799-21.507-6.275-.148-10.58 2.733-13.27 6.466.947 3.517 1.296 6.897 1.19 9.618-.069 1.787-.336 3.354-.803 4.507Zm-1.862-11.699a19.796 19.796 0 0 0-.75 1.659c-1.091 2.743-1.47 5.467-1.284 7.459.093 1.003.322 1.744.607 2.207.27.44.53.55.763.556h.001c.01 0 .066.004.184-.112.139-.135.314-.391.487-.82.346-.855.594-2.167.659-3.834.079-2.03-.118-4.492-.667-7.114Zm.763-4.757c3.041-3.6 7.625-6.286 14.03-6.135 11.138.263 21.398 10.544 17.68 24.039-2.79 10.123-11.399 15.214-21.934 17.718-10.533 2.503-23.27 2.495-34.804 2.223a1330.44 1330.44 0 0 0-3.13-.068c-8.458-.175-17.485-.362-25.046-2.062C9.686 90.318 2.677 86.4.553 78.09c-2.144-8.386 2.934-14.673 8.23-16.442 3.204-1.07 5.928-1.035 8.14-.272.228.079.45.165.665.258.276-1.708.698-3.5 1.29-5.303 2.943-8.945 10.18-18.328 24.92-18.98 7.694-.34 13.626 1.807 18.084 5.264 4.442 3.444 7.363 8.144 9.138 12.835.135.356.263.712.384 1.067Zm-52.192 8.648a24.106 24.106 0 0 0 .016 3.079c.11 1.489.368 2.604.675 3.272.125.27.233.414.3.482.494-.198.913-.764.986-1.84.076-1.117-.268-2.545-1.096-3.856a7.533 7.533 0 0 0-.881-1.137Z" fill="#6FAEFF"/><path fill-rule="evenodd" clip-rule="evenodd" d="M68.411 14.151V.658h3v13.493h-3ZM38.65 13.007l9.526 9.541-2.122 2.12-9.527-9.541 2.123-2.12Zm52.996 9.541 9.526-9.541 2.123 2.12-9.526 9.54-2.123-2.119Zm10.504 22.39h13.472v3H102.15v-3Z" fill="#FFD600"/></svg>