<svg width="74" height="75" fill="none" xmlns="http://www.w3.org/2000/svg"><path fill-rule="evenodd" clip-rule="evenodd" d="M31.85 0c-1.135 0-2.055.92-2.055 2.055v23.63a2.055 2.055 0 1 0 4.11 0V2.055A2.056 2.056 0 0 0 31.85 0Zm27.232 7.617a2.055 2.055 0 0 0-2.906 0l-16.71 16.71a2.055 2.055 0 0 0 2.907 2.905l16.709-16.71a2.055 2.055 0 0 0 0-2.905Zm12.836 23.205a2.055 2.055 0 1 1 0 4.11h-23.63a2.055 2.055 0 0 1 0-4.11h23.63ZM67.3 60.11a2.055 2.055 0 0 0 0-2.906l-16.71-16.71a2.055 2.055 0 1 0-2.905 2.906l16.709 16.71a2.055 2.055 0 0 0 2.906 0ZM44.178 72.945a2.055 2.055 0 1 1-4.11 0v-23.63a2.055 2.055 0 1 1 4.11 0v23.63Zm-29.37-5.644a2.055 2.055 0 0 0 2.907 0l16.709-16.71a2.055 2.055 0 0 0-2.906-2.905l-16.71 16.709a2.055 2.055 0 0 0 0 2.906ZM2.056 45.205a2.055 2.055 0 0 1 0-4.11h23.63a2.055 2.055 0 1 1 0 4.11H2.055ZM6.59 15.836a2.055 2.055 0 0 0 0 2.906l16.709 16.709a2.055 2.055 0 1 0 2.906-2.906L9.495 15.836a2.055 2.055 0 0 0-2.905 0Z" fill="#fff"/></svg>