<svg width="64" height="64" fill="none" xmlns="http://www.w3.org/2000/svg"><circle cx="32" cy="32" r="32" fill="#39393E"/><path d="m36.51 25.01-1.96-1.96c-1.4-1.4-3.7-1.4-5.1 0l-1.96 1.96c-.39.39-.39 1.03 0 1.42l3.81 3.81c.39.39 1.02.39 1.41 0l3.81-3.81c.38-.39.38-1.03-.01-1.42Zm-11.5 2.48-1.96 1.96c-1.4 1.4-1.4 3.7 0 5.1l1.96 1.96c.39.39 1.02.39 1.41 0l3.81-3.81a.996.996 0 0 0 0-1.41l-3.8-3.8c-.39-.39-1.03-.39-1.42 0Zm15.94 1.96-1.96-1.96a.996.996 0 0 0-1.41 0l-3.81 3.81a.996.996 0 0 0 0 1.41l3.81 3.81c.39.39 1.02.39 1.41 0l1.96-1.96c1.4-1.41 1.4-3.71 0-5.11Zm-13.46 9.54 1.96 1.96c1.4 1.4 3.7 1.4 5.1 0l1.96-1.96a.996.996 0 0 0 0-1.41l-3.81-3.81a.996.996 0 0 0-1.41 0l-3.81 3.81c-.38.38-.38 1.02.01 1.41Z" fill="#fff"/></svg>