<svg width="24" height="18" fill="none" xmlns="http://www.w3.org/2000/svg"><path d="M17.695 7.995a6.38 6.38 0 0 1-5.693 9.255 6.38 6.38 0 0 1-6.374-6.375A6.38 6.38 0 0 1 12.003 4.5c.052 0 .18 0 .315.045.255.083.442.3.495.563a3.289 3.289 0 0 0 3.202 2.61c.285 0 .563-.038.803-.106a.76.76 0 0 1 .877.383ZM12.003.75C6.873.75 1.615 5.25.76 10.373a.753.753 0 0 0 .615.862.753.753 0 0 0 .863-.615c.667-3.952 4.98-8.37 9.765-8.37s9.097 4.418 9.757 8.37c.06.368.383.63.743.63.037 0 .082 0 .127-.008a.753.753 0 0 0 .615-.862C22.39 5.25 17.133.75 12.003.75Z" fill="#fff"/></svg>