<svg width="20" height="20" fill="none" xmlns="http://www.w3.org/2000/svg"><path d="M17.166 3.417V5.25c0 .667-.417 1.5-.834 1.917l-3.583 3.166c-.5.417-.833 1.25-.833 1.917v3.583c0 .5-.334 1.167-.75 1.417L9.999 18c-1.083.667-2.583-.083-2.583-1.417v-4.416c0-.584-.334-1.334-.667-1.75l-.392-.409a.83.83 0 0 1-.1-1.016l4.267-6.85a.832.832 0 0 1 .708-.392H15.5c.917 0 1.667.75 1.667 1.667Zm-8.54-.392L5.667 7.767A.835.835 0 0 1 4.36 7.9l-.775-.817c-.417-.416-.75-1.166-.75-1.666V3.5c0-1 .75-1.75 1.667-1.75h3.416c.65 0 1.05.717.709 1.275Z" fill="#1F1F22"/></svg>