<svg width="20" height="20" fill="none" xmlns="http://www.w3.org/2000/svg"><path d="M17.257 19.5h-.127C2.392 18.652.3 6.218.007 2.422A2.25 2.25 0 0 1 2.077 0H6.21a1.5 1.5 0 0 1 1.395.945l1.14 2.805a1.5 1.5 0 0 1-.33 1.62L6.817 6.982a7.027 7.027 0 0 0 5.685 5.7l1.628-1.612a1.5 1.5 0 0 1 1.627-.308l2.828 1.133a1.5 1.5 0 0 1 .922 1.395v3.96a2.25 2.25 0 0 1-2.25 2.25Zm-15-18a.75.75 0 0 0-.75.75v.06C1.852 6.75 4.065 17.25 17.212 18a.75.75 0 0 0 .795-.705V13.29l-2.827-1.132-2.153 2.137-.36-.045c-6.525-.818-7.41-7.343-7.41-7.41l-.045-.36 2.13-2.153L6.217 1.5h-3.96Z" fill="#fff"/></svg>