<svg width="72" height="87" fill="none" xmlns="http://www.w3.org/2000/svg"><path d="M70.5 36c0 9.473-4.662 19.403-11.56 28.286-6.658 8.574-15.28 16.017-23.386 20.934-8.152-5.62-16.562-13.085-22.987-21.488C5.922 55.042 1.5 45.484 1.5 36 1.5 16.946 16.946 1.5 36 1.5c19.054 0 34.5 15.446 34.5 34.5Z" fill="#1F1F22" stroke="#fff" stroke-width="3"/><path d="M11.52 31.808V36H9.552V24.8c.555 0 1.157-.005 1.808-.016.65-.01 1.184-.016 1.6-.016 2.71 0 4.064 1.152 4.064 3.456 0 .853-.219 1.557-.656 2.112-.437.533-.939.896-1.504 1.088L18.368 36h-2.384l-3.088-4.192H11.52Zm1.344-5.2c-.053 0-.139.005-.256.016-.117 0-.283.005-.496.016h-.592v3.328h1.28c.63 0 1.141-.155 1.536-.464.405-.31.608-.73.608-1.264 0-1.088-.693-1.632-2.08-1.632Zm11.683 7.376.528 1.296c-.715.597-1.632.896-2.752.896-1.152 0-2.09-.347-2.816-1.04-.704-.683-1.056-1.595-1.056-2.736 0-1.067.347-1.963 1.04-2.688.693-.725 1.616-1.088 2.768-1.088.95 0 1.755.315 2.416.944.661.63.992 1.43.992 2.4 0 .427-.037.757-.112.992h-5.2c.075.523.304.933.688 1.232.395.299.885.448 1.472.448.8 0 1.477-.219 2.032-.656Zm-2.368-3.824c-1.045 0-1.675.523-1.888 1.568h3.536c.01-.459-.139-.832-.448-1.12-.299-.299-.699-.448-1.2-.448Zm11.835 9.04h-1.84v-3.568a3.188 3.188 0 0 1-1.776.544c-1.141 0-2.053-.341-2.736-1.024-.672-.693-1.008-1.61-1.008-2.752 0-1.077.39-1.973 1.168-2.688.79-.725 1.776-1.088 2.96-1.088 1.238 0 2.315.288 3.232.864V39.2Zm-3.376-4.736c.619 0 1.13-.219 1.536-.656v-3.104c-.48-.235-.95-.352-1.408-.352-.661 0-1.184.203-1.568.608-.384.395-.576.901-.576 1.52 0 .576.181 1.05.544 1.424.373.373.864.56 1.472.56ZM40.712 28.8h1.84V36h-1.84v-.88c-.576.704-1.344 1.056-2.304 1.056-.768 0-1.382-.256-1.84-.768-.459-.512-.688-1.248-.688-2.208v-4.4h1.84v4.016c0 1.099.458 1.648 1.376 1.648.629 0 1.168-.293 1.616-.88V28.8Zm9.538 5.184.528 1.296c-.715.597-1.632.896-2.752.896-1.152 0-2.09-.347-2.816-1.04-.704-.683-1.056-1.595-1.056-2.736 0-1.067.347-1.963 1.04-2.688.694-.725 1.616-1.088 2.768-1.088.95 0 1.755.315 2.416.944.661.63.992 1.43.992 2.4 0 .427-.037.757-.112.992h-5.2c.075.523.304.933.688 1.232.395.299.886.448 1.472.448.8 0 1.477-.219 2.032-.656Zm-2.368-3.824c-1.045 0-1.674.523-1.888 1.568h3.536c.01-.459-.139-.832-.448-1.12-.299-.299-.699-.448-1.2-.448Zm4.73.656c0-.672.245-1.205.736-1.6.49-.395 1.126-.592 1.904-.592 1.173 0 2.085.304 2.736.912l-.688 1.312a3.094 3.094 0 0 0-1.952-.688c-.256 0-.47.064-.64.192-.17.117-.256.261-.256.432 0 .352.454.645 1.36.88.33.075.624.16.88.256.256.085.517.213.784.384.278.16.49.373.64.64.15.267.224.576.224.928 0 .704-.267 1.264-.8 1.68-.523.416-1.227.624-2.112.624a4.47 4.47 0 0 1-1.84-.4c-.608-.277-.997-.555-1.168-.832l.896-1.2c.203.245.539.453 1.008.624.48.181.89.272 1.232.272.416.043.71-.09.88-.4.17-.32.059-.581-.336-.784a4.033 4.033 0 0 0-.752-.272c-.33-.096-.64-.192-.928-.288a7.673 7.673 0 0 1-.864-.4 1.847 1.847 0 0 1-.688-.656 1.98 1.98 0 0 1-.256-1.024Zm7.19 2.448V26.8h1.84v2h2.32v1.728h-2.32v2.624c0 .864.287 1.296.863 1.296.363 0 .731-.139 1.104-.416l.56 1.424c-.586.47-1.295.704-2.127.704-.78 0-1.35-.235-1.712-.704-.352-.48-.529-1.21-.529-2.192Z" fill="#fff"/><path d="M22.096 54h-1.984l4.736-11.232h1.728L31.312 54h-2.096l-1.168-2.864h-4.784L22.096 54Zm5.2-4.704-1.632-3.984-1.648 3.984h3.28Zm7.662.512V54H32.99V42.8c.554 0 1.157-.005 1.807-.016.651-.01 1.184-.016 1.6-.016 2.71 0 4.065 1.152 4.065 3.456 0 .853-.22 1.557-.657 2.112-.437.533-.938.896-1.504 1.088L41.806 54h-2.384l-3.088-4.192h-1.377Zm1.343-5.2c-.053 0-.138.005-.256.016-.117 0-.282.005-.495.016h-.592v3.328h1.28c.629 0 1.14-.155 1.535-.464.406-.31.608-.73.608-1.264 0-1.088-.693-1.632-2.08-1.632Zm8.882.032H41.55V42.8h9.232v1.84H47.15V54h-1.968v-9.36Z" fill="#C9FB40"/></svg>