<svg width="1920" height="659" viewBox="0 0 1920 659" fill="none" xmlns="http://www.w3.org/2000/svg">
<path d="M-0.0753293 651.198C92.6449 463.054 327.332 73.2249 524.363 19.0512C770.649 -48.6486 660.173 205.272 650.453 239.232C642.674 266.387 572.431 444.454 538.276 530.091C628.358 422.83 839.097 207.343 918.48 142.05C1032.05 48.6542 1103.37 40.4786 1023.76 207.847C960.05 341.73 887.534 454.922 859.25 494.789C979.803 344.197 1263.91 49.5199 1435.92 75.4623C1650.94 107.916 1467.02 419.052 1287.4 490.251C1226.62 514.342 1155.94 483.432 1260.03 346.262C1364.12 209.092 1662.16 17.7064 1954.42 18.436" stroke="#CAD2F4" stroke-width="15" stroke-linecap="round" stroke-linejoin="round"/>
</svg>
