<svg width="74" height="75" viewBox="0 0 74 75" fill="none" xmlns="http://www.w3.org/2000/svg">
<path fill-rule="evenodd" clip-rule="evenodd" d="M31.8634 0C30.7286 0 29.8086 0.919962 29.8086 2.05479V25.6849C29.8086 26.8198 30.7286 27.7397 31.8634 27.7397C32.9982 27.7397 33.9182 26.8198 33.9182 25.6849V2.05479C33.9182 0.919963 32.9982 0 31.8634 0ZM59.0955 7.61733C58.2931 6.81488 56.9921 6.81488 56.1896 7.61733L39.4806 24.3264C38.6781 25.1288 38.6781 26.4298 39.4806 27.2323C40.283 28.0347 41.5841 28.0347 42.3865 27.2323L59.0955 10.5232C59.898 9.7208 59.898 8.41977 59.0955 7.61733ZM71.9315 30.8219C73.0663 30.8219 73.9863 31.7419 73.9863 32.8767C73.9863 34.0115 73.0663 34.9315 71.9315 34.9315H48.3013C47.1665 34.9315 46.2465 34.0115 46.2465 32.8767C46.2465 31.7419 47.1665 30.8219 48.3013 30.8219L71.9315 30.8219ZM67.3146 60.1089C68.1171 59.3065 68.1171 58.0054 67.3146 57.203L50.6056 40.494C49.8031 39.6915 48.5021 39.6915 47.6997 40.494C46.8972 41.2964 46.8972 42.5974 47.6997 43.3999L64.4087 60.1089C65.2112 60.9114 66.5122 60.9114 67.3146 60.1089ZM44.1914 72.9452C44.1914 74.08 43.2714 75 42.1366 75C41.0018 75 40.0818 74.08 40.0818 72.9452V49.3151C40.0818 48.1802 41.0018 47.2603 42.1366 47.2603C43.2714 47.2603 44.1914 48.1802 44.1914 49.3151L44.1914 72.9452ZM14.8225 67.3009C15.6249 68.1033 16.926 68.1033 17.7284 67.3009L34.4374 50.5919C35.2399 49.7894 35.2399 48.4884 34.4374 47.6859C33.635 46.8835 32.334 46.8835 31.5315 47.6859L14.8225 64.395C14.02 65.1974 14.02 66.4984 14.8225 67.3009ZM2.06846 45.2055C0.933633 45.2055 0.0136719 44.2855 0.0136719 43.1507C0.0136719 42.0159 0.933635 41.0959 2.06847 41.0959L25.6986 41.0959C26.8334 41.0959 27.7534 42.0159 27.7534 43.1507C27.7534 44.2855 26.8334 45.2055 25.6986 45.2055L2.06846 45.2055ZM6.60335 15.8365C5.8009 16.6389 5.8009 17.9399 6.60335 18.7424L23.3124 35.4514C24.1148 36.2539 25.4159 36.2539 26.2183 35.4514C27.0207 34.649 27.0207 33.3479 26.2183 32.5455L9.50927 15.8365C8.70682 15.034 7.4058 15.034 6.60335 15.8365Z" fill="white"/>
</svg>
