<svg width="160" height="160" viewBox="0 0 160 160" fill="none" xmlns="http://www.w3.org/2000/svg">
<circle cx="80" cy="80" r="80" fill="#FAD85D"/>
<path d="M86.388 70.0974L83.6114 67.3208C81.628 65.3374 78.3697 65.3374 76.3864 67.3208L73.6097 70.0974C73.0572 70.6499 73.0572 71.5566 73.6097 72.1091L79.0072 77.5066C79.5597 78.0591 80.4522 78.0591 81.0047 77.5066L86.4022 72.1091C86.9405 71.5566 86.9405 70.6499 86.388 70.0974Z" fill="white"/>
<path d="M70.0962 73.6109L67.3195 76.3876C65.3362 78.3709 65.3362 81.6292 67.3195 83.6126L70.0962 86.3892C70.6487 86.9417 71.5412 86.9417 72.0937 86.3892L77.4912 80.9917C78.0437 80.4392 78.0437 79.5467 77.4912 78.9942L72.1079 73.6109C71.5554 73.0584 70.6487 73.0584 70.0962 73.6109Z" fill="white"/>
<path d="M92.6798 76.3876L89.9031 73.6109C89.3506 73.0584 88.4581 73.0584 87.9056 73.6109L82.5081 79.0084C81.9556 79.5609 81.9556 80.4534 82.5081 81.0059L87.9056 86.4034C88.4581 86.9559 89.3506 86.9559 89.9031 86.4034L92.6798 83.6267C94.6631 81.6292 94.6631 78.3709 92.6798 76.3876Z" fill="white"/>
<path d="M73.6115 89.9026L76.3881 92.6793C78.3715 94.6626 81.6298 94.6626 83.6131 92.6793L86.3898 89.9026C86.9423 89.3501 86.9423 88.4576 86.3898 87.9051L80.9923 82.5076C80.4398 81.9551 79.5473 81.9551 78.9948 82.5076L73.5973 87.9051C73.059 88.4435 73.059 89.3501 73.6115 89.9026Z" fill="white"/>
<path d="M145.9 82.475L141.81 82.1905L141.768 82.7891C141.73 83.3344 142.064 83.6316 142.769 83.6807L144.844 83.825C145.19 83.849 145.439 83.813 145.593 83.7167C145.747 83.6205 145.835 83.4061 145.858 83.0736L145.9 82.475ZM139.695 82.0434L133.071 81.5827L133.228 79.3282L148.072 80.3606L147.818 84.0118C147.764 84.7833 147.545 85.3361 147.161 85.6702C146.79 86.0186 146.191 86.1641 145.367 86.1068L142.733 85.9236C141.736 85.8542 141.126 85.4844 140.906 84.8141C140.568 85.4455 140.006 85.7339 139.222 85.6794L134.014 85.3172C133.602 85.2885 133.231 85.3362 132.902 85.4603L132.802 85.4534L132.957 83.2188C133.207 83.0891 133.618 83.0442 134.19 83.084L138.659 83.3948C139.005 83.4189 139.248 83.3823 139.388 83.2851C139.542 83.1889 139.631 82.9679 139.655 82.6221L139.695 82.0434Z" fill="white"/>
<path d="M147.214 90.2789L146.154 95.3085L144.041 94.8634L144.634 92.0452L140.818 91.2415L140.352 93.453L138.141 92.9872L138.606 90.7758L134.399 89.8896L133.78 92.8252L131.569 92.3595L132.653 87.2124L147.214 90.2789Z" fill="white"/>
<path d="M140.177 103.549L132.363 100.751C130.468 100.072 129.633 99.0221 129.859 97.6016L126.684 97.5691L127.594 95.0272L130.381 96.0253C131.108 94.5865 132.464 94.2222 134.447 94.9326L142.242 97.7246C144.389 98.4934 145.136 99.7879 144.484 101.608L144.356 101.966C144.005 102.945 143.48 103.543 142.779 103.759C142.074 103.988 141.207 103.918 140.177 103.549ZM132.988 98.5314L141.047 101.418C141.762 101.674 142.208 101.557 142.383 101.068C142.563 100.566 142.295 100.187 141.58 99.9304L133.521 97.0439C132.806 96.7877 132.356 96.9169 132.171 97.4315C132 97.9085 132.273 98.2751 132.988 98.5314Z" fill="white"/>
<path d="M131.564 102.687L141.838 108.158L140.757 110.189L130.359 104.652C129.735 104.32 129.31 104.365 129.085 104.789C128.853 105.224 129.049 105.608 129.673 105.94L140.07 111.477L138.989 113.507L128.715 108.036C126.703 106.965 126.141 105.593 127.031 103.922L127.219 103.569C128.103 101.91 129.551 101.616 131.564 102.687Z" fill="white"/>
<path d="M136.972 116.923L133.948 121.079L132.202 119.809L133.896 117.48L130.742 115.186L129.413 117.013L127.585 115.684L128.914 113.856L125.437 111.327L123.672 113.753L121.845 112.423L124.939 108.17L136.972 116.923Z" fill="white"/>
<path d="M129.918 126.076L129.627 126.38C128.991 127.044 128.385 127.378 127.81 127.381C127.235 127.384 126.625 127.077 125.979 126.459L124.217 124.772L125.724 123.197L127.27 124.677C127.694 125.083 128.053 125.131 128.348 124.823C128.524 124.64 128.586 124.46 128.535 124.282C128.484 124.104 128.323 123.886 128.054 123.627L127.851 123.434C127.543 123.139 127.237 122.928 126.932 122.803C126.628 122.678 126.173 122.584 125.568 122.522L123.229 122.276C122.378 122.181 121.705 122.026 121.21 121.81C120.725 121.604 120.183 121.215 119.586 120.643L119.239 120.311C117.563 118.707 117.399 117.202 118.745 115.796L119.049 115.478C120.321 114.149 121.637 114.134 122.995 115.434L125.147 117.495L123.598 119.113L121.72 117.315C121.219 116.836 120.798 116.774 120.457 117.13C120.273 117.323 120.211 117.522 120.272 117.729C120.334 117.954 120.533 118.227 120.87 118.55L121.116 118.785C121.511 119.163 121.851 119.415 122.137 119.541C122.422 119.667 122.896 119.77 123.558 119.849L125.883 120.082C126.648 120.169 127.289 120.329 127.803 120.563C128.318 120.816 128.849 121.205 129.398 121.731L129.745 122.063C131.142 123.4 131.199 124.738 129.918 126.076Z" fill="white"/>
<path d="M124.915 130.938L120.15 134.65L118.822 132.945L120.321 131.778L112.505 121.743L114.272 120.366L122.088 130.402L123.587 129.234L124.915 130.938Z" fill="white"/>
<path d="M100.725 128.734L102.101 131.191L103.628 130.539L102.785 127.854L104.642 127.06L108.816 141.458L106.352 142.511L98.7204 129.591L100.725 128.734ZM105.908 137.96L104.279 132.674L103.194 133.138L105.908 137.96Z" fill="white"/>
<path d="M98.1372 143.324L97.0949 139.359L96.5146 139.511C95.9859 139.65 95.8113 140.062 95.991 140.745L96.5198 142.757C96.6079 143.092 96.7222 143.317 96.8626 143.432C97.0031 143.547 97.2345 143.562 97.5569 143.477L98.1372 143.324ZM96.5559 137.309L94.8678 130.887L97.0536 130.312L100.836 144.703L97.2967 145.634C96.5488 145.83 95.955 145.8 95.5153 145.544C95.0661 145.303 94.7364 144.783 94.5262 143.984L93.8551 141.431C93.6009 140.464 93.7558 139.768 94.3199 139.344C93.6134 139.226 93.1602 138.787 92.9602 138.026L91.6331 132.978C91.5281 132.578 91.3639 132.242 91.1407 131.97L91.1153 131.873L93.2817 131.304C93.4846 131.499 93.6589 131.873 93.8046 132.428L94.9436 136.76C95.0317 137.096 95.1443 137.314 95.2814 137.416C95.4218 137.531 95.6597 137.544 95.9949 137.456L96.5559 137.309Z" fill="white"/>
<path d="M91.4713 147.054L85.469 147.728L85.2281 145.581L87.1162 145.369L85.6973 132.729L87.9233 132.479L89.3423 145.119L91.2304 144.907L91.4713 147.054Z" fill="white"/>
<path d="M67.9148 138.939L59.621 136.59L60.0462 135.089L68.3399 137.438L67.9148 138.939Z" fill="white"/>
<path d="M39.9629 132.845L42.4941 129.62L42.0221 129.249C41.592 128.912 41.1589 129.021 40.7226 129.577L39.4385 131.213C39.2245 131.486 39.1142 131.713 39.1075 131.894C39.1009 132.075 39.2287 132.269 39.4909 132.475L39.9629 132.845ZM43.8029 127.952L47.9021 122.728L49.68 124.124L40.4938 135.829L37.6145 133.57C37.0062 133.093 36.6715 132.601 36.6105 132.096C36.5309 131.592 36.7462 131.016 37.2565 130.365L38.8864 128.289C39.5037 127.502 40.1517 127.205 40.8303 127.399C40.4974 126.765 40.5738 126.138 41.0594 125.519L44.282 121.413C44.5372 121.088 44.7059 120.754 44.7881 120.412L44.8498 120.333L46.612 121.716C46.5792 121.995 46.3858 122.36 46.0319 122.812L43.2661 126.336C43.0521 126.609 42.9459 126.83 42.9475 127.001C42.9409 127.182 43.0739 127.38 43.3466 127.594L43.8029 127.952Z" fill="white"/>
<path d="M32.8005 129.579L29.2326 125.879L30.7874 124.38L32.7866 126.453L35.5939 123.746L34.0252 122.119L35.652 120.55L37.2208 122.177L40.316 119.192L38.2336 117.033L39.8604 115.464L43.5116 119.25L32.8005 129.579Z" fill="white"/>
<path d="M25.7537 116.303L32.4479 111.396C34.0717 110.206 35.4089 110.102 36.4595 111.084L38.2643 108.472L39.8605 110.65L37.4732 112.4C38.2578 113.808 37.8006 115.135 36.1015 116.381L29.4234 121.276C27.5846 122.624 26.0936 122.518 24.9507 120.959L24.726 120.652C24.1111 119.814 23.9102 119.043 24.1233 118.342C24.3284 117.629 24.8719 116.95 25.7537 116.303ZM33.9367 113.157L27.0328 118.218C26.4199 118.667 26.2671 119.101 26.5745 119.521C26.8898 119.951 27.3539 119.941 27.9669 119.492L34.8708 114.431C35.4837 113.982 35.6286 113.537 35.3054 113.096C35.0059 112.687 34.5496 112.708 33.9367 113.157Z" fill="white"/>
<path d="M31.3268 109.708L21.0527 115.179L19.9717 113.149L30.3693 107.612C30.9931 107.28 31.1921 106.902 30.9665 106.478C30.7346 106.043 30.3068 105.991 29.6831 106.323L19.2854 111.86L18.2044 109.83L28.4785 104.359C30.4909 103.287 31.9421 103.587 32.832 105.258L33.02 105.611C33.9037 107.27 33.3393 108.636 31.3268 109.708Z" fill="white"/>
<path d="M16.5508 106.366L14.7813 101.54L16.8092 100.796L17.8007 103.5L21.4623 102.158L20.6843 100.036L22.8061 99.2576L23.5842 101.379L27.6213 99.8991L26.5885 97.0825L28.7104 96.3045L30.5212 101.243L16.5508 106.366Z" fill="white"/>
<path d="M12.8547 95.281L12.7665 94.8704C12.5735 93.9708 12.6371 93.2822 12.9573 92.8044C13.2775 92.3265 13.8744 91.9939 14.7478 91.8065L17.1335 91.2945L17.5909 93.426L15.4985 93.875C14.9249 93.9981 14.6829 94.2682 14.7724 94.6854C14.8255 94.9331 14.9401 95.0858 15.1161 95.1435C15.2922 95.2012 15.5627 95.1908 15.9277 95.1125L16.2015 95.0538C16.6186 94.9642 16.9646 94.8286 17.2392 94.647C17.5139 94.4653 17.8467 94.1416 18.2377 93.6759L19.7542 91.8777C20.3099 91.2266 20.8159 90.7566 21.2721 90.4678C21.7153 90.1818 22.3411 89.952 23.1493 89.7786L23.6186 89.6779C25.887 89.1911 27.2254 89.8994 27.6338 91.8027L27.7262 92.233C28.1122 94.032 27.3862 95.1287 25.548 95.5232L22.6343 96.1484L22.1644 93.9583L24.7065 93.4128C25.3844 93.2673 25.6716 92.9534 25.5681 92.471C25.5121 92.2103 25.3817 92.0474 25.1768 91.9823C24.9561 91.9069 24.6176 91.9182 24.1613 92.0161L23.8289 92.0874C23.2944 92.2021 22.8949 92.3424 22.6305 92.5082C22.3661 92.674 22.0151 93.0085 21.5775 93.5115L20.0806 95.3055C19.5789 95.8904 19.0868 96.3301 18.6045 96.6245C18.1064 96.9087 17.4858 97.1305 16.7427 97.29L16.2734 97.3907C14.3831 97.7963 13.2435 97.0931 12.8547 95.281Z" fill="white"/>
<path d="M11.6271 88.4227L11.2312 82.3956L13.3866 82.2541L13.5111 84.15L26.2038 83.3163L26.3506 85.5515L13.6579 86.3852L13.7824 88.2811L11.6271 88.4227Z" fill="white"/>
<path d="M27.0048 69.5724L24.1991 69.3318L23.8818 70.9612L26.5767 71.7711L26.1907 73.7539L11.9327 69.1237L12.4449 66.4931L27.4214 67.4326L27.0048 69.5724ZM16.4608 68.6809L21.7486 70.3013L21.9741 69.1431L16.4608 68.6809Z" fill="white"/>
<path d="M16.4001 59.1327L20.2652 60.5007L20.4654 59.935C20.6478 59.4197 20.4059 59.0441 19.7397 58.8084L17.7789 58.1143C17.4521 57.9987 17.2018 57.9666 17.028 58.0183C16.8541 58.0699 16.7116 58.2528 16.6003 58.567L16.4001 59.1327ZM22.2637 61.208L28.5232 63.4235L27.7691 65.554L13.7418 60.5891L14.963 57.1389C15.2211 56.4099 15.5798 55.9357 16.0393 55.7165C16.4907 55.4802 17.106 55.5 17.8853 55.7758L20.374 56.6567C21.3167 56.9903 21.8047 57.5096 21.8381 58.2145C22.3327 57.6965 22.9507 57.5687 23.6923 57.8312L28.6132 59.5729C29.0028 59.7108 29.3729 59.764 29.7235 59.7325L29.8178 59.7659L29.0704 61.8775C28.7952 61.9357 28.3874 61.8691 27.8469 61.6778L23.6236 60.183C23.2968 60.0674 23.0528 60.0376 22.8915 60.0936C22.7177 60.1452 22.5729 60.3345 22.4572 60.6613L22.2637 61.208Z" fill="white"/>
<path d="M17.0214 51.5686L19.8406 46.2269L21.7509 47.2351L20.8641 48.9155L32.1134 54.8526L31.0679 56.8336L19.8185 50.8965L18.9317 52.5768L17.0214 51.5686Z" fill="white"/>
<path d="M36.8615 36.7247L43.4646 31.1837L44.4674 32.3787L37.8642 37.9197L36.8615 36.7247Z" fill="white"/>
<path d="M57.5995 16.9155L58.8504 20.82L59.4218 20.6369C59.9424 20.4701 60.0949 20.0503 59.8793 19.3773L59.2447 17.3965C59.1389 17.0663 59.0129 16.8477 58.8666 16.7406C58.7202 16.6334 58.4884 16.6307 58.1709 16.7324L57.5995 16.9155ZM59.4972 22.8389L61.5231 29.1623L59.3709 29.8518L54.831 15.6813L58.3165 14.5646C59.0529 14.3287 59.6475 14.3272 60.1002 14.5602C60.5615 14.7765 60.9182 15.2782 61.1704 16.0655L61.9759 18.5796C62.281 19.5319 62.1631 20.2347 61.6223 20.688C62.334 20.768 62.8098 21.1826 63.0499 21.9317L64.6425 26.9029C64.7686 27.2965 64.9503 27.6233 65.1876 27.8833L65.2181 27.9785L63.0849 28.6619C62.872 28.4781 62.6781 28.1132 62.5032 27.5672L61.1363 23.3008C61.0306 22.9707 60.9065 22.7584 60.7643 22.664C60.618 22.5569 60.3797 22.5562 60.0496 22.6619L59.4972 22.8389Z" fill="white"/>
<path d="M64.1465 12.844L69.2097 11.9583L69.5818 14.086L66.7449 14.5823L67.4169 18.4239L69.6431 18.0345L70.0325 20.2607L67.8063 20.6501L68.5473 24.8858L71.5024 24.3689L71.8918 26.5951L66.7105 27.5014L64.1465 12.844Z" fill="white"/>
<path d="M78.8842 14.4307L79.2045 22.7245C79.2822 24.7364 78.62 25.9028 77.218 26.2238L78.373 29.1814L75.675 29.2856L75.5608 26.3278C73.9543 26.1897 73.1104 25.0681 73.0291 22.963L72.7096 14.6891C72.6216 12.4108 73.5436 11.2344 75.4755 11.1598L75.8552 11.1451C76.8944 11.105 77.6452 11.3696 78.1075 11.9388C78.5832 12.5076 78.8421 13.3382 78.8842 14.4307ZM76.9124 22.9732L76.5821 14.4195C76.5528 13.6601 76.2783 13.2904 75.7587 13.3105C75.2258 13.331 74.974 13.7211 75.0033 14.4805L75.3335 23.0341C75.3629 23.7935 75.6507 24.1627 76.1969 24.1416C76.7032 24.1221 76.9417 23.7326 76.9124 22.9732Z" fill="white"/>
<path d="M81.9137 22.7337L83.2121 11.1663L85.4978 11.4229L84.1837 23.1294C84.1049 23.8316 84.3039 24.2095 84.7809 24.2631C85.2712 24.3181 85.5557 23.9945 85.6346 23.2922L86.9487 11.5858L89.2343 11.8423L87.9358 23.4097C87.6815 25.6754 86.6136 26.7027 84.732 26.4915L84.3345 26.4469C82.4663 26.2372 81.6593 24.9994 81.9137 22.7337Z" fill="white"/>
<path d="M93.063 12.4306L98.0439 13.6996L97.5107 15.7927L94.7198 15.0817L93.757 18.861L95.9471 19.4189L95.3891 21.609L93.1991 21.051L92.1375 25.218L95.0447 25.9586L94.4867 28.1486L89.3895 26.8501L93.063 12.4306Z" fill="white"/>
<path d="M103.945 15.4995L104.334 15.6573C105.187 16.003 105.721 16.4425 105.936 16.9758C106.152 17.5092 106.092 18.1898 105.756 19.0177L104.839 21.2789L102.819 20.4598L103.623 18.4766C103.843 17.9329 103.756 17.5809 103.361 17.4206C103.126 17.3254 102.935 17.3344 102.788 17.4476C102.642 17.5608 102.498 17.7904 102.358 18.1364L102.253 18.3959C102.093 18.7913 102.01 19.1536 102.006 19.4829C102.002 19.8122 102.083 20.2694 102.249 20.8545L102.884 23.1193C103.111 23.9448 103.215 24.6274 103.198 25.1671C103.186 25.6944 103.024 26.3411 102.713 27.1072L102.533 27.5521C101.661 29.7021 100.324 30.4113 98.5195 29.6799L98.1118 29.5146C96.4066 28.8232 95.9072 27.6064 96.6136 25.8642L97.7333 23.1025L99.8091 23.9442L98.8322 26.3537C98.5717 26.9962 98.67 27.4102 99.1272 27.5955C99.3744 27.6957 99.5824 27.6794 99.7514 27.5464C99.9378 27.4062 100.119 27.1198 100.294 26.6874L100.422 26.3723C100.627 25.8657 100.735 25.4564 100.747 25.1445C100.758 24.8326 100.679 24.3543 100.508 23.7098L99.8653 21.4635C99.6633 20.7198 99.576 20.0657 99.6034 19.5013C99.6482 18.9296 99.8134 18.2916 100.099 17.5873L100.279 17.1424C101.006 15.3508 102.228 14.8031 103.945 15.4995Z" fill="white"/>
<path d="M110.201 18.2523L115.413 21.3052L114.321 23.169L112.681 22.2086L106.252 33.1841L104.319 32.0519L110.749 21.0764L109.109 20.116L110.201 18.2523Z" fill="white"/>
<path d="M117.313 41.6501L119.089 39.4645L117.92 38.2865L115.735 40.0605L114.312 38.6269L126.154 29.4351L128.042 31.337L118.849 43.1972L117.313 41.6501ZM123.976 33.4294L119.664 36.8927L120.496 37.7302L123.976 33.4294Z" fill="white"/>
<path d="M131.919 38.7414L128.621 41.1773L128.977 41.6599C129.302 42.0997 129.749 42.1096 130.317 41.6897L131.99 40.4539C132.269 40.248 132.436 40.0585 132.49 39.8856C132.545 39.7126 132.473 39.4921 132.275 39.224L131.919 38.7414ZM126.916 42.4369L121.575 46.382L120.232 44.5641L132.201 35.7233L134.375 38.6673C134.835 39.2893 135.027 39.8521 134.951 40.3555C134.894 40.8618 134.533 41.3605 133.868 41.8517L131.745 43.4202C130.94 44.0143 130.237 44.1279 129.634 43.7608C129.786 44.4606 129.546 45.0442 128.913 45.5116L124.715 48.613C124.382 48.8586 124.131 49.1354 123.96 49.4435L123.88 49.5029L122.549 47.7011C122.655 47.4406 122.939 47.14 123.4 46.7993L127.003 44.1376C127.282 43.9316 127.443 43.7461 127.487 43.5811C127.542 43.4082 127.466 43.1823 127.26 42.9034L126.916 42.4369Z" fill="white"/>
<path d="M137.772 43.3895L140.631 48.7102L138.728 49.7325L137.829 48.0587L126.624 54.0789L125.564 52.1056L136.769 46.0855L135.87 44.4118L137.772 43.3895Z" fill="white"/>
<path d="M138.986 61.9544L139.881 70.5277L138.33 70.6898L137.434 62.1165L138.986 61.9544Z" fill="white"/>
</svg>
