<svg width="46" height="46" viewBox="0 0 46 46" fill="none" xmlns="http://www.w3.org/2000/svg">
<path fill-rule="evenodd" clip-rule="evenodd" d="M1.60707 21.393C0.719517 22.2805 0.719518 23.7195 1.60707 24.6071L21.393 44.393C22.2805 45.2805 23.7195 45.2805 24.6071 44.3929L44.393 24.6071C45.2805 23.7195 45.2805 22.2805 44.3929 21.393L24.6071 1.60707C23.7195 0.719517 22.2805 0.719518 21.393 1.60707L1.60707 21.393ZM23.0521 36.1707C30.327 36.1707 36.2244 30.2732 36.2244 22.9984C36.2244 15.7236 30.327 9.82618 23.0521 9.82618C15.7773 9.82618 9.87989 15.7236 9.87989 22.9984C9.87989 30.2732 15.7773 36.1707 23.0521 36.1707Z" fill="#1F1F22"/>
<path fill-rule="evenodd" clip-rule="evenodd" d="M17.0916 14.7676C15.8364 14.7676 14.8188 15.7851 14.8188 17.0403V29.0772C14.8188 30.3324 15.8364 31.3499 17.0916 31.3499H29.1285C30.3837 31.3499 31.4012 30.3324 31.4012 29.0772V17.0403C31.4012 15.7851 30.3837 14.7676 29.1285 14.7676H17.0916ZM23.0286 28.7184C26.1988 28.7184 28.7687 26.1485 28.7687 22.9783C28.7687 19.8082 26.1988 17.2383 23.0286 17.2383C19.8585 17.2383 17.2886 19.8082 17.2886 22.9783C17.2886 26.1485 19.8585 28.7184 23.0286 28.7184Z" fill="#1F1F22"/>
<rect x="20.5819" y="23" width="3.72064" height="3.72064" rx="0.757576" transform="rotate(-45 20.5819 23)" fill="#1F1F22"/>
</svg>
