<svg
        width="800"
        height="528"
        viewBox="0 0 800 528"
        fill="none"
        xmlns="http://www.w3.org/2000/svg"
>
    <mask
            id="mask0_819_215831"
            style="mask-type: alpha"
            maskUnits="userSpaceOnUse"
            x="0"
            y="0"
            width="800"
            height="528"
    >
        <rect width="800" height="528" fill="#201F1F" />
    </mask>
    <g mask="url(#mask0_819_215831)">
        <circle cx="400.002" cy="400" r="389.5" fill="#171717" stroke="#C9FB40" />
        <circle cx="400.002" cy="400" r="294.5" stroke="#C9FB40" />
        <path
                d="M96.1055 532.678L86.5457 536.722L83.9509 530.589L93.4554 526.568C99.3866 524.059 103.404 525.291 105.508 530.264L106.092 531.646C108.259 536.766 106.45 540.55 100.666 542.997L75.5785 553.61C73.2208 554.607 71.0189 554.844 68.973 554.319C66.8902 553.811 65.2956 552.248 64.1891 549.633L63.5813 548.196C62.8956 546.575 62.5662 545.129 62.5932 543.858C62.6046 542.55 62.9695 541.462 63.6879 540.594C64.4062 539.725 65.1763 539.03 65.9981 538.509C66.7675 537.966 67.7416 537.446 68.9205 536.947L76.2699 533.838L78.8647 539.972L71.6258 543.034C69.8207 543.798 69.2142 544.879 69.8064 546.279C70.1181 547.016 70.5573 547.438 71.1241 547.546C71.6384 547.632 72.3745 547.473 73.3323 547.068L97.7567 536.736C99.6355 535.941 100.294 534.88 99.7334 533.554C99.1567 532.191 97.9474 531.899 96.1055 532.678Z"
                fill="#C9FB40"
        />
        <path
                d="M97.494 510.774L61.5256 523.52L62.8483 527.253C77.8917 521.922 87.7424 518.643 92.4003 517.417C94.7159 516.766 96.6008 516.756 98.0549 517.387C99.4579 517.993 100.567 519.446 101.382 521.746L101.943 523.329L95.4393 525.634L95.279 525.182C95.0252 524.465 94.6441 524.049 94.1359 523.932C93.6276 523.815 92.8323 523.906 91.7499 524.204C89.1303 524.836 78.1686 528.571 58.8647 535.412L53.1532 519.294L95.2295 504.384L97.494 510.774Z"
                fill="#C9FB40"
        />
        <path
                d="M47.405 499.759L86.4234 495.08C88.6359 494.807 90.2712 494.911 91.3294 495.393C92.3492 495.886 93.1009 496.958 93.5845 498.609L94.8159 502.812L88.1943 504.752L87.7557 503.255C87.6545 502.909 87.5182 502.658 87.3468 502.499C87.1641 502.303 86.9656 502.194 86.7512 502.174C86.5367 502.153 86.2647 502.15 85.9352 502.163L84.5602 502.378C83.8355 502.465 82.7064 502.879 81.1729 503.62L52.5333 517.263L50.5933 510.641L68.8286 502.673L49.21 505.92L47.405 499.759Z"
                fill="#C9FB40"
        />
        <path
                d="M90.1358 486.466L46.7065 496.792L43.556 483.541L49.8603 482.043L51.4424 488.697L88.5675 479.87L90.1358 486.466Z"
                fill="#C9FB40"
        />
        <path
                d="M84.721 461.218L60.9408 465.597L85.6011 465.998L86.8289 472.665L42.9269 480.749L41.6992 474.081L65.4794 469.703L40.8191 469.302L39.5913 462.634L83.4932 454.55L84.721 461.218Z"
                fill="#C9FB40"
        />
        <path
                d="M60.2003 404.569L79.8198 404.712L79.7705 411.492L35.1317 411.167L35.1809 404.387L53.0605 404.517L53.094 399.897L35.2145 399.767L35.2638 392.988L79.9026 393.312L79.8533 400.092L60.2338 399.949L60.2003 404.569Z"
                fill="#C9FB40"
        />
        <path
                d="M80.6908 380.766L72.2513 381.146L71.9438 386.116L80.2759 387.473L79.9017 393.522L35.684 385.316L36.1804 377.291L81.0946 374.239L80.6908 380.766ZM48.9799 382.231L65.341 384.987L65.5595 381.453L48.9799 382.231Z"
                fill="#C9FB40"
        />
        <path
                d="M80.9262 374.642L36.69 368.651L37.5998 361.932L75.1174 367.013L75.6327 363.208L38.1152 358.127L39.025 351.408L76.5426 356.489L77.0579 352.684L39.5404 347.603L40.4502 340.884L84.6864 346.875L80.9262 374.642Z"
                fill="#C9FB40"
        />
        <path
                d="M87.4396 334.613L63.7795 329.626L86.4373 339.368L85.039 346.002L41.3587 336.796L42.757 330.162L66.4171 335.149L43.7593 325.406L45.1577 318.772L88.8379 327.978L87.4396 334.613Z"
                fill="#C9FB40"
        />
        <path
                d="M55.3399 283.812L90.3262 301.709C92.3144 302.717 93.613 303.717 94.222 304.707C94.7929 305.686 94.8183 306.995 94.2982 308.634L92.9738 312.809L86.3968 310.723L86.8685 309.236C86.9773 308.893 87.0048 308.608 86.9509 308.381C86.9091 308.116 86.805 307.915 86.6385 307.778C86.4721 307.641 86.2484 307.486 85.9676 307.313L84.7066 306.725C84.0566 306.393 82.8886 306.106 81.2026 305.865L49.8247 301.199L51.911 294.622L71.489 298.188L53.3987 289.932L55.3399 283.812Z"
                fill="#C9FB40"
        />
        <path
                d="M93.3309 283.82L83.6132 280.172L85.954 273.937L95.6156 277.564C101.645 279.827 103.71 283.487 101.812 288.542L101.285 289.947C99.3308 295.152 95.414 296.651 89.5347 294.444L64.0327 284.869C61.6361 283.969 59.8763 282.625 58.7534 280.836C57.593 279.033 57.5119 276.803 58.5101 274.144L59.0584 272.683C59.6771 271.036 60.4336 269.76 61.3282 268.857C62.2368 267.916 63.2505 267.378 64.3695 267.243C65.4885 267.108 66.5254 267.134 67.4804 267.321C68.412 267.458 69.477 267.751 70.6753 268.2L78.1462 271.005L75.8053 277.24L68.4468 274.478C66.6119 273.789 65.4273 274.156 64.893 275.579C64.6118 276.328 64.6397 276.936 64.9766 277.405C65.2901 277.821 65.9337 278.213 66.9073 278.578L91.7352 287.899C93.6451 288.616 94.8531 288.301 95.3592 286.953C95.8794 285.567 95.2033 284.523 93.3309 283.82Z"
                fill="#C9FB40"
        />
        <path
                d="M109.531 268.804L74.7291 253.15L73.1046 256.762C87.6601 263.309 97.0445 267.749 101.258 270.083C103.381 271.213 104.75 272.509 105.365 273.969C105.96 275.377 105.757 277.194 104.756 279.419L104.067 280.951L97.774 278.121L97.9709 277.683C98.2827 276.99 98.2953 276.426 98.0089 275.99C97.7225 275.554 97.085 275.07 96.0964 274.537C93.7671 273.183 83.2636 268.305 64.586 259.904L71.6005 244.309L112.312 262.62L109.531 268.804Z"
                fill="#C9FB40"
        />
        <path
                d="M81.0881 225.955L112.496 249.574C114.283 250.908 115.391 252.115 115.822 253.195C116.217 254.257 116.018 255.551 115.225 257.077L113.205 260.964L107.082 257.783L107.802 256.399C107.968 256.079 108.043 255.803 108.029 255.57C108.033 255.302 107.965 255.086 107.824 254.923C107.684 254.76 107.49 254.569 107.243 254.35L106.101 253.554C105.518 253.116 104.416 252.634 102.796 252.108L72.6793 242.141L75.8602 236.018L94.5392 242.882L78.1284 231.652L81.0881 225.955Z"
                fill="#C9FB40"
        />
        <path
                d="M120.908 246.339L82.3555 223.836L89.2215 212.073L94.8179 215.339L91.3698 221.247L124.326 240.483L120.908 246.339Z"
                fill="#C9FB40"
        />
        <path
                d="M134.531 224.201L114.327 210.916L131.861 228.261L128.136 233.927L90.8368 209.401L94.5618 203.736L114.766 217.021L97.2319 199.675L100.957 194.01L138.256 218.536L134.531 224.201Z"
                fill="#C9FB40"
        />
        <path
                d="M155.843 166.522L169.929 180.18L165.21 185.047L133.161 153.973L137.881 149.106L150.717 161.552L153.933 158.235L141.097 145.789L145.816 140.921L177.865 171.995L173.145 176.863L159.059 163.205L155.843 166.522Z"
                fill="#C9FB40"
        />
        <path
                d="M188.212 162.466L181.867 156.889L178.199 160.257L183.263 167.012L178.8 171.111L152.624 134.542L158.545 129.103L193.029 158.042L188.212 162.466ZM164.344 141.536L174.224 154.865L176.831 152.471L164.344 141.536Z"
                fill="#C9FB40"
        />
        <path
                d="M192.502 158.333L164.789 123.337L170.105 119.128L193.608 148.809L196.619 146.425L173.115 116.744L178.43 112.535L201.934 142.216L204.944 139.832L181.441 110.151L186.756 105.942L214.469 140.938L192.502 158.333Z"
                fill="#C9FB40"
        />
        <path
                d="M224.991 133.99L211.399 113.991L220.971 136.722L215.363 140.533L190.271 103.612L195.879 99.8012L209.47 119.8L199.898 97.0694L205.506 93.2583L230.598 130.179L224.991 133.99Z"
                fill="#C9FB40"
        />
        <path
                d="M237.018 75.1905L249.84 112.338C250.575 114.442 250.819 116.063 250.571 117.199C250.305 118.3 249.416 119.261 247.905 120.083L244.057 122.175L240.761 116.113L242.132 115.368C242.448 115.196 242.665 115.01 242.784 114.809C242.937 114.589 243.001 114.372 242.976 114.158C242.951 113.944 242.897 113.677 242.814 113.358L242.313 112.06C242.075 111.37 241.431 110.354 240.383 109.011L220.993 83.9036L227.055 80.6075L238.699 96.7458L231.378 78.2573L237.018 75.1905Z"
                fill="#C9FB40"
        />
        <path
                d="M264.444 101.55L260.009 92.1648L266.03 89.3193L270.439 98.6499C273.191 104.473 272.126 108.537 267.243 110.845L265.887 111.485C260.86 113.861 257.005 112.21 254.322 106.532L242.683 81.9034C241.59 79.5888 241.263 77.3986 241.702 75.3328C242.124 73.2308 243.62 71.5731 246.187 70.3597L247.598 69.6932C249.189 68.9412 250.62 68.5525 251.891 68.527C253.198 68.4844 254.3 68.8041 255.198 69.4861C256.095 70.1681 256.821 70.9088 257.376 71.7084C257.95 72.4548 258.511 73.4066 259.057 74.5639L262.467 81.7789L256.445 84.6244L253.087 77.5179C252.25 75.7458 251.144 75.1845 249.77 75.8339C249.046 76.1757 248.643 76.632 248.558 77.2027C248.493 77.7201 248.683 78.449 249.127 79.3893L260.458 103.367C261.329 105.211 262.416 105.826 263.718 105.211C265.056 104.578 265.298 103.358 264.444 101.55Z"
                fill="#C9FB40"
        />
        <path
                d="M286.478 102.002L272.27 66.5855L268.595 68.0599C274.537 82.8724 278.216 92.5805 279.632 97.1843C280.378 99.4713 280.465 101.354 279.894 102.833C279.346 104.26 277.94 105.427 275.675 106.336L274.116 106.961L271.547 100.557L271.992 100.379C272.698 100.096 273.098 99.6978 273.195 99.1852C273.291 98.6726 273.167 97.8817 272.824 96.8124C272.086 94.2208 267.905 83.4213 260.279 64.4138L276.15 58.047L292.771 99.4774L286.478 102.002Z"
                fill="#C9FB40"
        />
        <path
                d="M295.659 51.4343L301.922 90.23C302.285 92.4295 302.247 94.0677 301.809 95.1447C301.358 96.1837 300.317 96.9784 298.688 97.5287L294.538 98.9302L292.33 92.393L293.808 91.8938C294.149 91.7786 294.395 91.6322 294.546 91.4545C294.735 91.264 294.836 91.0613 294.848 90.8462C294.859 90.6311 294.852 90.3592 294.825 90.0304L294.554 88.6653C294.438 87.9448 293.978 86.8335 293.175 85.3314L278.378 57.2707L284.916 55.0629L293.619 72.9587L289.577 53.4886L295.659 51.4343Z"
                fill="#C9FB40"
        />
        <path
                d="M310.207 93.758L297.973 50.8272L311.071 47.0945L312.847 53.3264L306.269 55.2009L316.727 91.8999L310.207 93.758Z"
                fill="#C9FB40"
        />
        <path
                d="M335.414 87.2413L330.08 63.6569L330.674 88.3133L324.061 89.8089L314.214 46.2684L320.827 44.7728L326.161 68.3573L325.567 43.7008L332.18 42.2053L342.027 85.7458L335.414 87.2413Z"
                fill="#C9FB40"
        />
        <path
                d="M390.583 60.467L391.296 80.074L384.52 80.3203L382.899 35.7098L389.674 35.4635L390.324 53.3317L394.941 53.1639L394.291 35.2957L401.067 35.0494L402.688 79.6599L395.913 79.9062L395.2 60.2992L390.583 60.467Z"
                fill="#C9FB40"
        />
        <path
                d="M415.478 79.9521L414.761 71.5345L409.783 71.426L408.76 79.8057L402.701 79.6736L409.133 35.1632L417.171 35.3384L422.017 80.0947L415.478 79.9521ZM412.747 48.3251L410.648 64.7832L414.187 64.8604L412.747 48.3251Z"
                fill="#C9FB40"
        />
        <path
                d="M421.267 79.9404L425.319 35.4846L432.071 36.1L428.634 73.8037L432.459 74.1522L435.895 36.4485L442.647 37.0638L439.211 74.7676L443.035 75.1161L446.471 37.4124L453.223 38.0277L449.171 82.4835L421.267 79.9404Z"
                fill="#C9FB40"
        />
        <path
                d="M461.811 84.791L465.841 60.9493L457.019 83.9809L450.334 82.8508L457.775 38.8353L464.46 39.9654L460.429 63.8071L469.252 40.7755L475.937 41.9056L468.496 85.9211L461.811 84.791Z"
                fill="#C9FB40"
        />
        <path
                d="M414.032 383.611L397.703 419.355C396.784 421.386 395.843 422.728 394.88 423.38C393.928 423.994 392.622 424.077 390.961 423.63L386.731 422.492L388.524 415.829L390.031 416.235C390.378 416.328 390.664 416.343 390.889 416.279C391.152 416.225 391.348 416.113 391.477 415.94C391.606 415.768 391.751 415.538 391.911 415.249L392.444 413.964C392.747 413.299 392.981 412.12 393.147 410.425L396.419 378.871L403.082 380.664L400.386 400.381L407.833 381.942L414.032 383.611Z"
                fill="#C9FB40"
        />
        <path
                d="M526.846 54.7222L508.561 89.5075C507.531 91.4843 506.517 92.7717 505.52 93.3697C504.535 93.9297 503.226 93.9405 501.593 93.4022L497.433 92.0316L499.592 85.4781L501.074 85.9663C501.415 86.079 501.7 86.1096 501.928 86.0582C502.193 86.0194 502.395 85.9175 502.534 85.7526C502.672 85.5876 502.83 85.3657 503.006 85.0868L503.609 83.8325C503.948 83.1862 504.247 82.0214 504.507 80.3382L509.522 49.0141L516.075 51.1734L512.291 70.7105L520.748 52.7131L526.846 54.7222Z"
                fill="#C9FB40"
        />
        <path
                d="M528.022 93.3772L531.85 83.7292L538.041 86.1859L534.234 95.7781C531.859 101.764 528.161 103.761 523.142 101.769L521.748 101.216C516.58 99.1649 515.154 95.2209 517.471 89.3838L527.518 64.0646C528.463 61.6852 529.84 59.9507 531.649 58.8614C533.473 57.7348 535.705 57.6953 538.345 58.7429L539.795 59.3183C541.431 59.9675 542.692 60.7477 543.578 61.6589C544.502 62.5849 545.021 63.6085 545.135 64.7298C545.25 65.8511 545.204 66.8874 544.999 67.8387C544.846 68.7676 544.533 69.827 544.061 71.0167L541.117 78.434L534.927 75.9773L537.826 68.6716C538.549 66.8498 538.204 65.6586 536.791 65.0979C536.048 64.8028 535.439 64.8193 534.964 65.1474C534.542 65.4531 534.138 66.0893 533.755 67.056L523.973 91.7059C523.22 93.602 523.513 94.8157 524.851 95.3468C526.227 95.8927 527.284 95.2362 528.022 93.3772Z"
                fill="#C9FB40"
        />
        <path
                d="M545.271 111.589L561.445 77.026L557.858 75.3476C551.093 89.803 546.513 99.1197 544.116 103.298C542.954 105.404 541.638 106.753 540.168 107.346C538.751 107.92 536.938 107.689 534.728 106.655L533.206 105.943L536.131 99.6934L536.566 99.8969C537.254 100.219 537.818 100.24 538.258 99.9603C538.698 99.6805 539.192 99.0503 539.739 98.0698C541.129 95.7611 546.164 85.3321 554.844 66.7827L570.332 74.0306L551.411 114.462L545.271 111.589Z"
                fill="#C9FB40"
        />
        <path
                d="M553.218 115.459L574.096 76.0019L586.134 82.3719L583.104 88.0995L577.058 84.9005L559.21 118.63L553.218 115.459Z"
                fill="#C9FB40"
        />
        <path
                d="M575.851 128.1L588.277 107.357L571.682 125.602L565.865 122.118L588.807 83.8237L594.623 87.308L582.196 108.051L598.792 89.8057L604.608 93.2901L581.667 131.584L575.851 128.1Z"
                fill="#C9FB40"
        />
        <path
                d="M632.089 145.704L619.042 160.357L613.978 155.848L643.665 122.51L648.728 127.018L636.838 140.372L640.288 143.444L652.179 130.091L657.242 134.6L627.555 167.938L622.492 163.429L635.54 148.776L632.089 145.704Z"
                fill="#C9FB40"
        />
        <path
                d="M637.816 178.187L643.145 171.631L639.637 168.096L633.083 173.417L628.815 169.115L664.347 141.548L670.01 147.255L642.423 182.829L637.816 178.187ZM657.81 153.529L644.872 163.916L647.365 166.429L657.81 153.529Z"
                fill="#C9FB40"
        />
        <path
                d="M641.926 182.071L675.718 152.902L680.148 158.034L651.489 182.773L653.998 185.68L682.657 160.941L687.088 166.073L658.428 190.812L660.937 193.719L689.597 168.98L694.027 174.112L660.235 203.281L641.926 182.071Z"
                fill="#C9FB40"
        />
        <path
                d="M667.371 213.136L686.779 198.714L664.472 209.235L660.428 203.793L696.259 177.168L700.303 182.61L680.895 197.032L703.202 186.511L707.246 191.953L671.415 218.578L667.371 213.136Z"
                fill="#C9FB40"
        />
        <path
                d="M726.715 222.676L690.135 237.036C688.063 237.858 686.454 238.169 685.308 237.969C684.197 237.749 683.2 236.901 682.316 235.426L680.065 231.668L685.984 228.122L686.786 229.461C686.971 229.769 687.166 229.979 687.372 230.089C687.598 230.233 687.818 230.288 688.03 230.254C688.243 230.22 688.507 230.155 688.823 230.059L690.099 229.504C690.778 229.237 691.767 228.552 693.064 227.448L717.341 207.029L720.887 212.948L705.249 225.254L723.416 217.168L726.715 222.676Z"
                fill="#C9FB40"
        />
        <path
                d="M701.981 251.939L711.174 247.119L714.267 253.017L705.127 257.81C699.424 260.8 695.318 259.904 692.81 255.122L692.114 253.793C689.532 248.869 691.022 244.949 696.584 242.032L720.709 229.383C722.976 228.195 725.151 227.777 727.233 228.131C729.351 228.466 731.069 229.891 732.388 232.406L733.112 233.787C733.93 235.346 734.377 236.76 734.456 238.029C734.552 239.333 734.278 240.448 733.634 241.373C732.99 242.297 732.28 243.054 731.504 243.641C730.782 244.245 729.854 244.845 728.721 245.439L721.653 249.145L718.561 243.246L725.522 239.596C727.258 238.686 727.773 237.558 727.067 236.212C726.695 235.503 726.223 235.119 725.649 235.058C725.129 235.015 724.409 235.234 723.488 235.717L700.001 248.032C698.194 248.979 697.625 250.091 698.294 251.366C698.981 252.677 700.21 252.868 701.981 251.939Z"
                fill="#C9FB40"
        />
        <path
                d="M702.406 273.873L737.207 258.22L735.583 254.608C721.027 261.155 711.479 265.23 706.937 266.835C704.683 267.673 702.805 267.838 701.304 267.329C699.856 266.84 698.632 265.483 697.631 263.257L696.942 261.725L703.234 258.895L703.431 259.333C703.743 260.026 704.157 260.41 704.673 260.485C705.189 260.559 705.974 260.404 707.029 260.017C709.588 259.173 720.206 254.551 738.884 246.15L745.898 261.745L705.187 280.056L702.406 273.873Z"
                fill="#C9FB40"
        />
        <path
                d="M753.097 280.363L714.589 288.207C712.407 288.66 710.768 288.689 709.674 288.295C708.618 287.886 707.781 286.879 707.165 285.274L705.595 281.185L712.036 278.711L712.595 280.168C712.724 280.504 712.881 280.744 713.064 280.887C713.262 281.068 713.469 281.16 713.685 281.163C713.9 281.166 714.171 281.148 714.499 281.108L715.852 280.781C716.567 280.635 717.658 280.13 719.126 279.267L746.559 263.335L749.032 269.777L731.507 279.205L750.795 274.37L753.097 280.363Z"
                fill="#C9FB40"
        />
        <path
                d="M711.377 296.392L753.775 282.422L758.037 295.358L751.883 297.386L749.742 290.89L713.499 302.832L711.377 296.392Z"
                fill="#C9FB40"
        />
        <path
                d="M718.805 320.622L742.131 314.253L717.524 315.933L715.739 309.393L758.802 297.634L760.588 304.175L737.262 310.544L761.868 308.863L763.654 315.404L720.59 327.162L718.805 320.622Z"
                fill="#C9FB40"
        />
        <path
                d="M748.24 375.738L728.677 377.234L728.16 370.474L772.67 367.07L773.187 373.83L755.359 375.193L755.711 379.8L773.539 378.436L774.056 385.197L729.546 388.601L729.029 381.84L748.592 380.344L748.24 375.738Z"
                fill="#C9FB40"
        />
        <path
                d="M729.833 402.067L738.215 401.015L738.124 396.036L729.711 395.349L729.6 389.29L774.332 393.938L774.478 401.976L729.951 408.606L729.833 402.067ZM761.325 398.075L744.796 396.635L744.861 400.174L761.325 398.075Z"
                fill="#C9FB40"
        />
        <path
                d="M730.145 406.926L774.728 409.196L774.383 415.967L736.572 414.042L736.377 417.877L774.188 419.802L773.843 426.573L736.032 424.648L735.837 428.483L773.648 430.408L773.303 437.18L728.721 434.91L730.145 406.926Z"
                fill="#C9FB40"
        />
        <path
                d="M727.14 446.696L751.135 449.678L727.739 441.873L728.575 435.144L772.875 440.651L772.038 447.379L748.043 444.396L771.439 452.202L770.602 458.93L726.303 453.424L727.14 446.696Z"
                fill="#C9FB40"
        />
        <path
                d="M763.5 494.787L727.125 479.917C725.058 479.08 723.68 478.194 722.989 477.259C722.337 476.332 722.201 475.03 722.58 473.353L723.547 469.081L730.277 470.603L729.933 472.124C729.853 472.475 729.85 472.762 729.923 472.983C729.987 473.244 730.108 473.435 730.285 473.557C730.463 473.679 730.699 473.815 730.993 473.963L732.299 474.443C732.975 474.719 734.163 474.906 735.864 475.003L767.524 476.996L766.002 483.726L746.192 481.83L764.917 488.525L763.5 494.787Z"
                fill="#C9FB40"
        />
        <path
                d="M725.534 498.564L735.517 501.409L733.691 507.814L723.767 504.985C717.573 503.22 715.216 499.741 716.696 494.548L717.107 493.105C718.631 487.758 722.413 485.945 728.452 487.666L754.649 495.132C757.111 495.833 758.975 497.03 760.24 498.721C761.543 500.424 761.806 502.64 761.027 505.372L760.6 506.872C760.117 508.565 759.467 509.897 758.649 510.87C757.82 511.882 756.854 512.501 755.749 512.727C754.645 512.953 753.61 513.011 752.642 512.902C751.703 512.842 750.618 512.637 749.387 512.286L741.712 510.099L743.537 503.694L751.096 505.848C752.981 506.385 754.132 505.923 754.549 504.461C754.768 503.692 754.691 503.088 754.317 502.648C753.97 502.258 753.297 501.921 752.297 501.636L726.792 494.368C724.83 493.809 723.652 494.222 723.257 495.607C722.852 497.03 723.611 498.016 725.534 498.564Z"
                fill="#C9FB40"
        />
        <path
                d="M710.93 514.275L746.945 526.887L748.254 523.15C733.191 517.875 723.46 514.255 719.062 512.291C716.85 511.347 715.375 510.174 714.637 508.771C713.924 507.419 713.97 505.592 714.777 503.289L715.332 501.703L721.844 503.984L721.686 504.437C721.434 505.154 721.47 505.718 721.793 506.127C722.116 506.537 722.792 506.965 723.823 507.41C726.26 508.56 737.143 512.52 756.472 519.289L750.82 535.428L708.689 520.674L710.93 514.275Z"
                fill="#C9FB40"
        />
        <path
                d="M742.384 555.926L709.133 534.981C707.243 533.799 706.039 532.688 705.52 531.647C705.039 530.622 705.13 529.316 705.795 527.729L707.486 523.689L713.851 526.353L713.248 527.792C713.109 528.124 713.057 528.406 713.09 528.637C713.108 528.904 713.194 529.114 713.347 529.265C713.501 529.416 713.71 529.59 713.974 529.787L715.178 530.486C715.796 530.875 716.933 531.265 718.591 531.655L749.428 539.101L746.763 545.465L727.582 540.167L744.864 550.004L742.384 555.926Z"
                fill="#C9FB40"
        />
    </g>
</svg>