<svg width="180" height="46" fill="none" xmlns="http://www.w3.org/2000/svg"><path fill-rule="evenodd" clip-rule="evenodd" d="M1.607 21.393a2.273 2.273 0 0 0 0 3.214l19.786 19.786a2.273 2.273 0 0 0 3.214 0l19.786-19.786a2.273 2.273 0 0 0 0-3.214L24.607 1.607a2.273 2.273 0 0 0-3.214 0L1.607 21.393Zm21.444 14.778c7.275 0 13.172-5.898 13.172-13.173 0-7.274-5.897-13.172-13.172-13.172S9.88 15.724 9.88 22.998c0 7.275 5.897 13.173 13.172 13.173Z" fill="#C9FB40"/><path fill-rule="evenodd" clip-rule="evenodd" d="M17.093 14.768a2.273 2.273 0 0 0-2.273 2.272v12.037a2.273 2.273 0 0 0 2.273 2.273H29.13a2.273 2.273 0 0 0 2.273-2.273V17.04a2.273 2.273 0 0 0-2.273-2.272H17.093Zm5.936 13.95a5.74 5.74 0 1 0 0-11.48 5.74 5.74 0 0 0 0 11.48Z" fill="#C9FB40"/><rect x="20.582" y="23" width="3.721" height="3.721" rx=".758" transform="rotate(-45 20.582 23)" fill="#C9FB40"/><path d="M56.248 24.123v5.24h-2.46v-14c.693 0 1.446-.006 2.26-.02.813-.013 1.48-.02 2-.02 3.386 0 5.08 1.44 5.08 4.32 0 1.067-.274 1.947-.82 2.64-.547.667-1.174 1.12-1.88 1.36l4.38 5.72h-2.98l-3.86-5.24h-1.72Zm1.68-6.5a3.94 3.94 0 0 0-.32.02c-.147 0-.354.007-.62.02h-.74v4.16h1.6c.786 0 1.426-.193 1.92-.58.506-.386.76-.913.76-1.58 0-1.36-.867-2.04-2.6-2.04Zm14.603 9.22.66 1.62c-.893.747-2.04 1.12-3.44 1.12-1.44 0-2.613-.433-3.52-1.3-.88-.853-1.32-1.993-1.32-3.42 0-1.333.434-2.453 1.3-3.36.867-.906 2.02-1.36 3.46-1.36 1.187 0 2.194.394 3.02 1.18.827.787 1.24 1.787 1.24 3 0 .534-.046.947-.14 1.24h-6.5c.094.654.38 1.167.86 1.54.494.374 1.107.56 1.84.56 1 0 1.847-.273 2.54-.82Zm-2.96-4.78c-1.306 0-2.093.654-2.36 1.96h4.42c.014-.573-.173-1.04-.56-1.4-.373-.373-.873-.56-1.5-.56Zm14.794 11.3h-2.3v-4.46a3.985 3.985 0 0 1-2.22.68c-1.426 0-2.566-.426-3.42-1.28-.84-.866-1.26-2.013-1.26-3.44 0-1.346.487-2.466 1.46-3.36.987-.906 2.22-1.36 3.7-1.36 1.547 0 2.894.36 4.04 1.08v12.14Zm-4.22-5.92c.774 0 1.414-.273 1.92-.82v-3.88c-.6-.293-1.186-.44-1.76-.44-.826 0-1.48.254-1.96.76-.48.494-.72 1.127-.72 1.9 0 .72.227 1.314.68 1.78.467.467 1.08.7 1.84.7Zm12.592-7.08h2.3v9h-2.3v-1.1c-.72.88-1.68 1.32-2.88 1.32-.96 0-1.727-.32-2.3-.96-.573-.64-.86-1.56-.86-2.76v-5.5h2.3v5.02c0 1.374.573 2.06 1.72 2.06.787 0 1.46-.366 2.02-1.1v-5.98Zm11.923 6.48.66 1.62c-.893.747-2.04 1.12-3.44 1.12-1.44 0-2.613-.433-3.52-1.3-.88-.853-1.32-1.993-1.32-3.42 0-1.333.434-2.453 1.3-3.36.867-.906 2.02-1.36 3.46-1.36 1.187 0 2.194.394 3.02 1.18.827.787 1.24 1.787 1.24 3 0 .534-.046.947-.14 1.24h-6.5c.094.654.38 1.167.86 1.54.494.374 1.107.56 1.84.56 1 0 1.847-.273 2.54-.82Zm-2.96-4.78c-1.306 0-2.093.654-2.36 1.96h4.42c.014-.573-.173-1.04-.56-1.4-.373-.373-.873-.56-1.5-.56Zm5.913.82c0-.84.306-1.506.92-2 .613-.493 1.406-.74 2.38-.74 1.466 0 2.606.38 3.42 1.14l-.86 1.64c-.734-.573-1.547-.86-2.44-.86-.32 0-.587.08-.8.24-.214.147-.32.327-.32.54 0 .44.566.807 1.7 1.1.413.094.78.2 1.1.32.32.107.646.267.98.48.346.2.613.467.8.8.186.334.28.72.28 1.16 0 .88-.334 1.58-1 2.1-.654.52-1.534.78-2.64.78a5.584 5.584 0 0 1-2.3-.5c-.76-.346-1.247-.693-1.46-1.04l1.12-1.5c.253.307.673.567 1.26.78.6.227 1.113.34 1.54.34.52.054.886-.113 1.1-.5.213-.4.073-.726-.42-.98-.2-.106-.514-.22-.94-.34-.414-.12-.8-.24-1.16-.36a9.535 9.535 0 0 1-1.08-.5c-.36-.2-.647-.473-.86-.82-.214-.36-.32-.786-.32-1.28Zm8.987 3.06v-8.08h2.3v2.5h2.9v2.16h-2.9v3.28c0 1.08.36 1.62 1.08 1.62.453 0 .913-.173 1.38-.52l.7 1.78c-.734.587-1.62.88-2.66.88-.974 0-1.687-.293-2.14-.88-.44-.6-.66-1.513-.66-2.74Z" fill="#fff"/><path d="M129.468 29.363h-2.48l5.92-14.04h2.16l5.92 14.04h-2.62l-1.46-3.58h-5.98l-1.46 3.58Zm6.5-5.88-2.04-4.98-2.06 4.98h4.1Zm9.577.64v5.24h-2.46v-14c.693 0 1.446-.006 2.26-.02.813-.013 1.48-.02 2-.02 3.386 0 5.08 1.44 5.08 4.32 0 1.067-.274 1.947-.82 2.64-.547.667-1.174 1.12-1.88 1.36l4.38 5.72h-2.98l-3.86-5.24h-1.72Zm1.68-6.5c-.067 0-.174.007-.32.02-.147 0-.354.007-.62.02h-.74v4.16h1.6c.786 0 1.426-.193 1.92-.58.506-.386.76-.913.76-1.58 0-1.36-.867-2.04-2.6-2.04Zm11.101.04h-4.54v-2.3h11.54v2.3h-4.54v11.7h-2.46v-11.7Z" fill="#C9FB40"/></svg>