<svg width="46" height="46" fill="none" xmlns="http://www.w3.org/2000/svg"><path fill-rule="evenodd" clip-rule="evenodd" d="M1.607 21.393a2.273 2.273 0 0 0 0 3.214l19.786 19.786a2.273 2.273 0 0 0 3.214 0l19.786-19.786a2.273 2.273 0 0 0 0-3.214L24.607 1.607a2.273 2.273 0 0 0-3.214 0L1.607 21.393Zm21.445 14.778c7.275 0 13.172-5.898 13.172-13.173 0-7.274-5.897-13.172-13.172-13.172S9.88 15.724 9.88 22.998c0 7.275 5.897 13.173 13.172 13.173Z" fill="#1F1F22"/><path fill-rule="evenodd" clip-rule="evenodd" d="M17.092 14.768a2.273 2.273 0 0 0-2.273 2.272v12.037a2.273 2.273 0 0 0 2.273 2.273h12.037a2.273 2.273 0 0 0 2.272-2.273V17.04a2.273 2.273 0 0 0-2.273-2.272H17.093Zm5.937 13.95a5.74 5.74 0 1 0 0-11.48 5.74 5.74 0 0 0 0 11.48Z" fill="#1F1F22"/><rect x="20.582" y="23" width="3.721" height="3.721" rx=".758" transform="rotate(-45 20.582 23)" fill="#1F1F22"/></svg>