<svg width="321" height="15" fill="none" xmlns="http://www.w3.org/2000/svg"><path d="M.004 7.5a3.5 3.5 0 0 1 3.5-3.5h313a3.5 3.5 0 1 1 0 7h-313a3.5 3.5 0 0 1-3.5-3.5Z" fill="#F7F7F7"/><path fill-rule="evenodd" clip-rule="evenodd" d="M316.504 5h-313a2.5 2.5 0 1 0 0 5h313a2.5 2.5 0 1 0 0-5Zm-313-1a3.5 3.5 0 1 0 0 7h313a3.5 3.5 0 1 0 0-7h-313Z" fill="#E2E2E2"/><path d="M0 7.5A3.5 3.5 0 0 1 3.5 4h266a3.5 3.5 0 1 1 0 7H3.5A3.5 3.5 0 0 1 0 7.5Z" fill="#ED89FB"/><path d="M281.004 7.5a7.5 7.5 0 1 1-15 0 7.5 7.5 0 0 1 15 0Z" fill="#ED89FB"/><path fill-rule="evenodd" clip-rule="evenodd" d="M273.504 14a6.5 6.5 0 1 0 0-13 6.5 6.5 0 0 0 0 13Zm0 1a7.5 7.5 0 1 0 0-15 7.5 7.5 0 0 0 0 15Z" fill="#fff"/></svg>