<svg width="31" height="31" viewBox="0 0 31 31" fill="none" xmlns="http://www.w3.org/2000/svg">
<path d="M30.8333 4V8.5C30.8333 11.5667 29.9 12.5 26.8333 12.5H22.3333C19.2667 12.5 18.3333 11.5667 18.3333 8.5V4C18.3333 0.933333 19.2667 0 22.3333 0H26.8333C29.9 0 30.8333 0.933333 30.8333 4Z" fill="white"/>
<path d="M12.5 22.3331V26.8331C12.5 29.8998 11.5667 30.8331 8.5 30.8331H4C0.933333 30.8331 0 29.8998 0 26.8331V22.3331C0 19.2665 0.933333 18.3331 4 18.3331H8.5C11.5667 18.3331 12.5 19.2665 12.5 22.3331Z" fill="white"/>
<path d="M22.3333 15.0002C22.7752 15.0002 23.1333 15.3584 23.1333 15.8002V18.1169C23.1333 21.9169 21.9167 23.1335 18.1167 23.1335H15.8C15.3582 23.1335 15 22.7754 15 22.3335C15 17.9002 12.9333 15.8335 8.50001 15.8335C8.05818 15.8335 7.70001 15.4754 7.70001 15.0335V12.7169C7.70001 8.91686 8.91668 7.7002 12.7167 7.7002H15.0333C15.4752 7.7002 15.8333 8.05837 15.8333 8.5002L15.8 9.28052C15.8 13.7139 17.9 15.0002 22.3333 15.0002Z" fill="white"/>
</svg>
