<svg width="34" height="34" viewBox="0 0 34 34" fill="none" xmlns="http://www.w3.org/2000/svg">
<path d="M24.1833 5.03254L20.9166 1.75554C18.5833 -0.585179 14.75 -0.585179 12.4166 1.75554L9.14998 5.03254C8.49998 5.6846 8.49998 6.75464 9.14998 7.4067L15.5 13.7768C16.15 14.4288 17.2 14.4288 17.85 13.7768L24.2 7.4067C24.8333 6.75464 24.8333 5.6846 24.1833 5.03254Z" fill="white"/>
<path d="M5.01667 9.17898L1.75 12.456C-0.583333 14.7967 -0.583333 18.6422 1.75 20.9829L5.01667 24.2599C5.66667 24.9119 6.71667 24.9119 7.36667 24.2599L13.7167 17.8898C14.3667 17.2377 14.3667 16.1844 13.7167 15.5324L7.38333 9.17898C6.73333 8.52693 5.66667 8.52693 5.01667 9.17898Z" fill="white"/>
<path d="M31.5833 12.456L28.3166 9.17898C27.6666 8.52693 26.6166 8.52693 25.9666 9.17898L19.6167 15.5491C18.9667 16.2011 18.9667 17.2545 19.6167 17.9065L25.9666 24.2766C26.6166 24.9287 27.6666 24.9287 28.3166 24.2766L31.5833 20.9996C33.9167 18.6422 33.9167 14.7967 31.5833 12.456Z" fill="white"/>
<path d="M9.15 28.4065L12.4167 31.6835C14.75 34.0242 18.5833 34.0242 20.9167 31.6835L24.1833 28.4065C24.8333 27.7545 24.8333 26.7011 24.1833 26.0491L17.8333 19.679C17.1833 19.0269 16.1333 19.0269 15.4833 19.679L9.13334 26.0491C8.5 26.6844 8.5 27.7545 9.15 28.4065Z" fill="white"/>
</svg>
