<svg width="35" height="34" viewBox="0 0 35 34" fill="none" xmlns="http://www.w3.org/2000/svg">
<path d="M29.8106 18.8133L28.5072 17.5383L17.5281 28.5033L18.8456 29.8208C19.9506 30.9258 21.0981 31.4783 22.2314 31.4783C23.3647 31.4783 24.5122 30.9258 25.6172 29.8208L29.8106 25.6275C32.0631 23.3608 32.0631 21.08 29.8106 18.8133Z" fill="#ED89FB"/>
<path d="M15.1481 4.15082C12.9239 1.92665 10.5864 1.92665 8.36225 4.15082L4.15475 8.34415C1.94475 10.5683 1.94475 12.9058 4.15475 15.13L5.45809 16.4333L16.4373 5.45415L15.1481 4.15082Z" fill="#ED89FB"/>
<path d="M30.9014 5.58166C29.0456 10.2142 24.8098 16.2633 20.7723 20.2158C20.1914 16.5608 17.2731 13.6992 13.5898 13.1892C17.5564 9.1375 23.6481 4.84499 28.2948 2.97499C29.1164 2.66333 29.9381 2.90416 30.4481 3.41416C30.9864 3.95249 31.2414 4.75999 30.9014 5.58166Z" fill="#ED89FB"/>
<path d="M19.5256 21.3775C19.2423 21.6183 18.9589 21.8592 18.6756 22.0858L16.1398 24.1117C16.1398 24.0692 16.1256 24.0125 16.1256 23.9558C15.9273 22.44 15.2189 21.0375 14.0714 19.89C12.9098 18.7283 11.4648 18.02 9.87809 17.8217C9.83559 17.8217 9.77892 17.8075 9.73642 17.8075L11.7906 15.215C11.9889 14.96 12.2014 14.7192 12.4281 14.4642L13.3914 14.5917C16.4373 15.0167 18.8881 17.4108 19.3698 20.4425L19.5256 21.3775Z" fill="#ED89FB"/>
<path d="M14.7798 24.9617C14.7798 26.52 14.1848 28.0075 13.0514 29.1267C12.1873 30.005 11.0256 30.6 9.60892 30.77L6.13809 31.1525C4.23975 31.365 2.61059 29.7358 2.82309 27.8233L3.20559 24.3383C3.54559 21.2358 6.13809 19.2525 8.88642 19.1958C9.15559 19.1817 9.45308 19.1958 9.73641 19.2242C10.9406 19.38 12.1023 19.9325 13.0798 20.8958C14.0289 21.845 14.5673 22.9642 14.7231 24.14C14.7514 24.4233 14.7798 24.6925 14.7798 24.9617Z" fill="#ED89FB"/>
</svg>
