<svg width="800" height="528" fill="none" xmlns="http://www.w3.org/2000/svg"><mask id="a" style="mask-type:alpha" maskUnits="userSpaceOnUse" x="0" y="0" width="800" height="528"><path fill="#201F1F" d="M0 0h800v528H0z"/></mask><g mask="url(#a)"><circle cx="400.002" cy="400" r="389.5" fill="#171717" stroke="#C9FB40"/><circle cx="400.002" cy="400" r="294.5" stroke="#C9FB40"/><path d="m96.106 532.678-9.56 4.044-2.595-6.133 9.504-4.021c5.932-2.509 9.949-1.277 12.053 3.696l.584 1.382c2.167 5.12.358 8.904-5.426 11.351L75.579 553.61c-2.358.997-4.56 1.234-6.606.709-2.083-.508-3.677-2.071-4.784-4.686l-.608-1.437c-.685-1.621-1.015-3.067-.988-4.338.012-1.308.376-2.396 1.095-3.264.718-.869 1.488-1.564 2.31-2.085.77-.543 1.744-1.063 2.922-1.562l7.35-3.109 2.595 6.134-7.24 3.062c-1.804.764-2.41 1.845-1.819 3.245.312.737.751 1.159 1.318 1.267.514.086 1.25-.073 2.208-.478l24.425-10.332c1.878-.795 2.537-1.856 1.976-3.182-.576-1.363-1.786-1.655-3.627-.876Zm1.388-21.904L61.526 523.52l1.322 3.733c15.044-5.331 24.894-8.61 29.552-9.836 2.316-.651 4.2-.661 5.655-.03 1.403.606 2.512 2.059 3.327 4.359l.561 1.583-6.504 2.305-.16-.452c-.254-.717-.635-1.133-1.143-1.25-.508-.117-1.304-.026-2.386.272-2.62.632-13.581 4.367-32.885 11.208l-5.712-16.118 42.077-14.91 2.264 6.39Zm-50.089-11.015 39.018-4.679c2.213-.273 3.848-.169 4.906.313 1.02.493 1.772 1.565 2.256 3.216l1.23 4.203-6.62 1.94-.44-1.497c-.1-.346-.237-.597-.408-.756-.183-.196-.381-.305-.596-.325a6.183 6.183 0 0 0-.816-.011l-1.375.215c-.725.087-1.854.501-3.387 1.242l-28.64 13.643-1.94-6.622 18.236-7.968-19.619 3.247-1.805-6.161Zm42.731-13.293-43.43 10.326-3.15-13.251 6.304-1.498 1.582 6.654 37.125-8.827 1.569 6.596Zm-5.415-25.248-23.78 4.379 24.66.401 1.228 6.667-43.902 8.084-1.228-6.668 23.78-4.378-24.66-.401-1.228-6.668 43.902-8.084 1.228 6.668ZM60.2 404.569l19.62.143-.05 6.78-44.638-.325.049-6.78 17.88.13.033-4.62-17.88-.13.05-6.779 44.639.324-.05 6.78-19.62-.143-.033 4.62Z" fill="#C9FB40"/><path d="m80.69 380.766-8.439.38-.307 4.97 8.332 1.357-.374 6.049-44.218-8.206.496-8.025 44.915-3.052-.404 6.527Zm-31.71 1.465 16.361 2.756.219-3.534-16.58.778Z" fill="#C9FB40"/><path d="m80.926 374.642-44.236-5.991.91-6.719 37.517 5.081.516-3.805-37.518-5.081.91-6.719 37.518 5.081.515-3.805-37.518-5.081.91-6.719 44.236 5.991-3.76 27.767Zm6.514-40.029-23.66-4.987 22.657 9.742-1.398 6.634-43.68-9.206 1.398-6.634 23.66 4.987-22.658-9.743 1.399-6.634 43.68 9.206-1.398 6.635Zm-32.1-50.801 34.986 17.897c1.988 1.008 3.287 2.008 3.896 2.998.57.979.596 2.288.076 3.927l-1.324 4.175-6.577-2.086.471-1.487c.11-.343.137-.628.083-.855-.042-.265-.146-.466-.313-.603a6.18 6.18 0 0 0-.67-.465l-1.261-.588c-.65-.332-1.818-.619-3.504-.86l-31.378-4.666 2.086-6.577 19.578 3.566-18.09-8.256 1.94-6.12Zm37.99.008-9.717-3.648 2.341-6.235 9.662 3.627c6.029 2.263 8.094 5.923 6.196 10.978l-.527 1.405c-1.954 5.205-5.871 6.704-11.75 4.497l-25.502-9.575c-2.397-.9-4.157-2.244-5.28-4.033-1.16-1.803-1.241-4.033-.243-6.692l.548-1.461c.62-1.647 1.376-2.923 2.27-3.826.909-.941 1.922-1.479 3.041-1.614 1.12-.135 2.156-.109 3.111.078.932.137 1.997.43 3.195.879l7.471 2.805-2.34 6.235-7.36-2.762c-1.834-.689-3.019-.322-3.553 1.101-.281.749-.253 1.357.084 1.826.313.416.957.808 1.93 1.173l24.828 9.321c1.91.717 3.118.402 3.624-.946.52-1.386-.156-2.43-2.028-3.133Zm16.201-15.016L74.729 253.15l-1.624 3.612c14.555 6.547 23.94 10.987 28.153 13.321 2.123 1.13 3.492 2.426 4.107 3.886.595 1.408.392 3.225-.609 5.45l-.689 1.532-6.293-2.83.197-.438c.312-.693.324-1.257.038-1.693-.287-.436-.924-.92-1.913-1.453-2.329-1.354-12.832-6.232-31.51-14.633l7.014-15.595 40.712 18.311-2.781 6.184Zm-28.443-42.849 31.408 23.619c1.787 1.334 2.895 2.541 3.326 3.621.395 1.062.196 2.356-.597 3.882l-2.02 3.887-6.123-3.181.72-1.384c.166-.32.241-.596.227-.829.004-.268-.064-.484-.205-.647a6.23 6.23 0 0 0-.581-.573l-1.142-.796c-.583-.438-1.685-.92-3.305-1.446l-30.117-9.967 3.181-6.123 18.68 6.864-16.412-11.23 2.96-5.697Zm39.82 20.384-38.552-22.503 6.866-11.763 5.596 3.266-3.448 5.908 32.956 19.236-3.418 5.856Zm13.623-22.138-20.204-13.285 17.534 17.345-3.725 5.666-37.3-24.526 3.726-5.665 20.204 13.285-17.534-17.346 3.725-5.665 37.299 24.526-3.725 5.665Zm21.312-57.679 14.086 13.658-4.719 4.867-32.049-31.074 4.72-4.867 12.836 12.446 3.216-3.317-12.836-12.446 4.719-4.868 32.049 31.074-4.72 4.868-14.086-13.658-3.216 3.317Zm32.369-4.056-6.345-5.577-3.668 3.368 5.064 6.755-4.463 4.099-26.176-36.569 5.921-5.439 34.484 28.939-4.817 4.424Zm-23.868-20.93 9.88 13.329 2.607-2.394-12.487-10.935Z" fill="#C9FB40"/><path d="m192.502 158.333-27.713-34.996 5.316-4.209 23.503 29.681 3.011-2.384-23.504-29.681 5.315-4.209 23.504 29.681 3.01-2.384-23.503-29.681 5.315-4.209 27.713 34.996-21.967 17.395Zm32.489-24.343-13.592-19.999 9.572 22.731-5.608 3.811-25.092-36.921 5.608-3.81L209.47 119.8l-9.572-22.73 5.608-3.812 25.092 36.921-5.607 3.811Zm12.027-58.8 12.822 37.148c.735 2.104.979 3.725.731 4.861-.266 1.101-1.155 2.062-2.666 2.884l-3.848 2.092-3.296-6.062 1.371-.745c.316-.172.533-.358.652-.559.153-.22.217-.437.192-.651a6.107 6.107 0 0 0-.162-.8l-.501-1.298c-.238-.69-.882-1.706-1.93-3.049l-19.39-25.107 6.062-3.296 11.644 16.138-7.321-18.489 5.64-3.067Zm27.426 26.36-4.435-9.385 6.021-2.846 4.409 9.33c2.752 5.824 1.687 9.888-3.196 12.196l-1.356.64c-5.027 2.376-8.882.725-11.565-4.953l-11.639-24.629c-1.093-2.314-1.42-4.504-.981-6.57.422-2.102 1.918-3.76 4.485-4.973l1.411-.667c1.591-.752 3.022-1.14 4.293-1.166 1.307-.043 2.409.277 3.307.96.897.681 1.623 1.422 2.178 2.221.574.747 1.135 1.699 1.681 2.856l3.41 7.215-6.022 2.845-3.358-7.106c-.837-1.772-1.943-2.334-3.317-1.684-.724.342-1.127.798-1.212 1.369-.065.517.125 1.246.569 2.186l11.331 23.978c.871 1.844 1.958 2.459 3.26 1.844 1.338-.633 1.58-1.853.726-3.661Zm22.034.452L272.27 66.586l-3.675 1.474c5.942 14.812 9.621 24.52 11.037 29.124.746 2.287.833 4.17.262 5.649-.548 1.427-1.954 2.594-4.219 3.503l-1.559.625-2.569-6.404.445-.178c.706-.283 1.106-.681 1.203-1.194.096-.512-.028-1.303-.371-2.373-.738-2.591-4.919-13.39-12.545-32.398l15.871-6.367 16.621 41.43-6.293 2.525Zm9.181-50.568 6.263 38.796c.363 2.2.325 3.838-.113 4.915-.451 1.039-1.492 1.833-3.121 2.384l-4.15 1.401-2.208-6.537 1.478-.5c.341-.114.587-.26.738-.439.189-.19.29-.393.302-.608a6.32 6.32 0 0 0-.023-.816l-.271-1.365c-.116-.72-.576-1.832-1.379-3.334l-14.797-28.06 6.538-2.208 8.703 17.896-4.042-19.47 6.082-2.055Zm14.548 42.324-12.234-42.93 13.098-3.734 1.776 6.232-6.578 1.875L316.727 91.9l-6.52 1.858Zm25.207-6.517-5.334-23.584.594 24.656-6.613 1.496-9.847-43.54 6.613-1.496 5.334 23.584-.594-24.656 6.613-1.496 9.847 43.54-6.613 1.496Zm55.169-26.774.713 19.607-6.776.246-1.621-44.61 6.775-.246.65 17.868 4.617-.168-.65-17.868 6.776-.247 1.621 44.61-6.775.247L395.2 60.3l-4.617.168Zm24.895 19.485-.717-8.418-4.978-.108-1.023 8.38-6.059-.132 6.432-44.51 8.038.174 4.846 44.757-6.539-.143Zm-2.731-31.627-2.099 16.458 3.539.077-1.44-16.535Z" fill="#C9FB40"/><path d="m421.267 79.94 4.052-44.455 6.752.615-3.437 37.704 3.825.348 3.436-37.703 6.752.615-3.436 37.704 3.824.348 3.436-37.704 6.752.616-4.052 44.456-27.904-2.544Zm40.544 4.851 4.03-23.842-8.822 23.032-6.685-1.13 7.441-44.016 6.685 1.13-4.031 23.842 8.823-23.032 6.685 1.13-7.441 44.016-6.685-1.13Zm-47.779 298.82-16.329 35.744c-.919 2.031-1.86 3.373-2.823 4.025-.952.614-2.258.697-3.919.25l-4.23-1.138 1.793-6.663 1.507.406c.347.093.633.108.858.044.263-.054.459-.166.588-.339.129-.172.274-.402.434-.691l.533-1.285c.303-.665.537-1.844.703-3.539l3.272-31.554 6.663 1.793-2.696 19.717 7.447-18.439 6.199 1.669ZM526.846 54.722l-18.285 34.785c-1.03 1.977-2.044 3.265-3.041 3.863-.985.56-2.294.57-3.927.032l-4.16-1.37 2.159-6.554 1.482.488c.341.113.626.144.854.092.265-.039.467-.14.606-.305.138-.165.296-.387.472-.666l.603-1.255c.339-.646.638-1.81.898-3.494l5.015-31.324 6.553 2.16-3.784 19.536 8.457-17.997 6.098 2.01Zm1.176 38.655 3.828-9.648 6.191 2.457-3.807 9.592c-2.375 5.986-6.073 7.983-11.092 5.991l-1.394-.553c-5.168-2.051-6.594-5.995-4.277-11.832l10.047-25.32c.945-2.379 2.322-4.113 4.131-5.203 1.824-1.126 4.056-1.166 6.696-.118l1.45.575c1.636.65 2.897 1.43 3.783 2.34.924.927 1.443 1.95 1.557 3.072.115 1.121.069 2.157-.136 3.109-.153.929-.466 1.988-.938 3.178l-2.944 7.417-6.19-2.457 2.899-7.305c.723-1.822.378-3.013-1.035-3.574-.743-.295-1.352-.279-1.827.05-.422.305-.826.941-1.209 1.908l-9.782 24.65c-.753 1.896-.46 3.11.878 3.64 1.376.547 2.433-.11 3.171-1.969Zm17.249 18.212 16.174-34.563-3.587-1.678c-6.765 14.455-11.345 23.772-13.742 27.95-1.162 2.106-2.478 3.455-3.948 4.048-1.417.574-3.23.343-5.44-.691l-1.522-.712 2.925-6.25.435.204c.688.322 1.252.343 1.692.063.44-.28.934-.91 1.481-1.89 1.39-2.309 6.425-12.738 15.105-31.287l15.488 7.248-18.921 40.431-6.14-2.873Zm7.947 3.87 20.878-39.457 12.038 6.37-3.03 5.728-6.046-3.2-17.848 33.73-5.992-3.171Zm22.633 12.641 12.426-20.743-16.595 18.245-5.817-3.484 22.942-38.294 5.816 3.484-12.427 20.743 16.596-18.245 5.816 3.484-22.941 38.294-5.816-3.484Zm56.238 17.604-13.047 14.653-5.064-4.509 29.687-33.338 5.063 4.508-11.89 13.354 3.45 3.072 11.891-13.353 5.063 4.509-29.687 33.338-5.063-4.509 13.048-14.653-3.451-3.072Zm5.727 32.483 5.329-6.556-3.508-3.535-6.554 5.321-4.268-4.302 35.532-27.567 5.663 5.707-27.587 35.574-4.607-4.642Zm19.994-24.658-12.938 10.387 2.493 2.513 10.445-12.9Z" fill="#C9FB40"/><path d="m641.926 182.071 33.792-29.169 4.43 5.132-28.659 24.739 2.509 2.907 28.659-24.739 4.431 5.132-28.66 24.739 2.509 2.907 28.66-24.739 4.43 5.132-33.792 29.169-18.309-21.21Zm25.445 31.065 19.408-14.422-22.307 10.521-4.044-5.442 35.831-26.625 4.044 5.442-19.408 14.422 22.307-10.521 4.044 5.442-35.831 26.625-4.044-5.442Zm59.344 9.54-36.58 14.36c-2.072.822-3.681 1.133-4.827.933-1.111-.22-2.108-1.068-2.992-2.543l-2.251-3.758 5.919-3.546.802 1.339c.185.308.38.518.586.628.226.144.446.199.658.165a6.18 6.18 0 0 0 .793-.195l1.276-.555c.679-.267 1.668-.952 2.965-2.056l24.277-20.419 3.546 5.919-15.638 12.306 18.167-8.086 3.299 5.508Zm-24.734 29.263 9.193-4.82 3.093 5.898-9.14 4.793c-5.703 2.99-9.809 2.094-12.317-2.688l-.696-1.329c-2.582-4.924-1.092-8.844 4.47-11.761l24.125-12.649c2.267-1.188 4.442-1.606 6.524-1.252 2.118.335 3.836 1.76 5.155 4.275l.724 1.381c.818 1.559 1.265 2.973 1.344 4.242.096 1.304-.178 2.419-.822 3.344-.644.924-1.354 1.681-2.13 2.268-.722.604-1.65 1.204-2.783 1.798l-7.068 3.706-3.092-5.899 6.961-3.65c1.736-.91 2.251-2.038 1.545-3.384-.372-.709-.844-1.093-1.418-1.154-.52-.043-1.24.176-2.161.659l-23.487 12.315c-1.807.947-2.376 2.059-1.707 3.334.687 1.311 1.916 1.502 3.687.573Zm.425 21.934 34.801-15.653-1.624-3.612c-14.556 6.547-24.104 10.622-28.646 12.227-2.254.838-4.132 1.003-5.633.494-1.448-.489-2.672-1.846-3.673-4.072l-.689-1.532 6.292-2.83.197.438c.312.693.726 1.077 1.242 1.152.516.074 1.301-.081 2.356-.468 2.559-.844 13.177-5.466 31.855-13.867l7.014 15.595-40.711 18.311-2.781-6.183Zm50.691 6.49-38.508 7.844c-2.182.453-3.821.482-4.915.088-1.056-.409-1.893-1.416-2.509-3.021l-1.57-4.089 6.441-2.474.559 1.457c.129.336.286.576.469.719.198.181.405.273.621.276.215.003.486-.015.814-.055l1.353-.327c.715-.146 1.806-.651 3.274-1.514l27.433-15.932 2.473 6.442-17.525 9.428 19.288-4.835 2.302 5.993Zm-41.72 16.029 42.398-13.97 4.262 12.936-6.154 2.028-2.141-6.496-36.243 11.942-2.122-6.44Zm7.428 24.23 23.326-6.369-24.607 1.68-1.785-6.54 43.063-11.759 1.786 6.541-23.326 6.369 24.606-1.681 1.786 6.541-43.064 11.758-1.785-6.54Zm29.435 55.116-19.563 1.496-.517-6.76 44.51-3.404.517 6.76-17.828 1.363.352 4.607 17.828-1.364.517 6.761-44.51 3.404-.517-6.761 19.563-1.496-.352-4.606Zm-18.407 26.329 8.382-1.052-.091-4.979-8.413-.687-.111-6.059 44.732 4.648.146 8.038-44.527 6.63-.118-6.539Zm31.492-3.992-16.529-1.44.065 3.539 16.464-2.099Z" fill="#C9FB40"/><path d="m730.145 406.926 44.583 2.27-.345 6.771-37.811-1.925-.195 3.835 37.811 1.925-.345 6.771-37.811-1.925-.195 3.835 37.811 1.925-.345 6.772-44.582-2.27 1.424-27.984Zm-3.005 39.77 23.995 2.982-23.396-7.805.836-6.729 44.3 5.507-.837 6.728-23.995-2.983 23.396 7.806-.837 6.728-44.299-5.506.837-6.728Zm36.36 48.091-36.375-14.87c-2.067-.837-3.445-1.723-4.136-2.658-.652-.927-.788-2.229-.409-3.906l.967-4.272 6.73 1.522-.344 1.521c-.08.351-.083.638-.01.859.064.261.185.452.362.574.178.122.414.258.708.406l1.306.48c.676.276 1.864.463 3.565.56l31.66 1.993-1.522 6.73-19.81-1.896 18.725 6.695-1.417 6.262Zm-37.966 3.777 9.983 2.845-1.826 6.405-9.924-2.829c-6.194-1.765-8.551-5.244-7.071-10.437l.411-1.443c1.524-5.347 5.306-7.16 11.345-5.439l26.197 7.466c2.462.701 4.326 1.898 5.591 3.589 1.303 1.703 1.566 3.919.787 6.651l-.427 1.5c-.483 1.693-1.133 3.025-1.951 3.998-.829 1.012-1.795 1.631-2.9 1.857-1.104.226-2.139.284-3.107.175-.939-.06-2.024-.265-3.255-.616l-7.675-2.187 1.825-6.405 7.559 2.154c1.885.537 3.036.075 3.453-1.387.219-.769.142-1.373-.232-1.813-.347-.39-1.02-.727-2.02-1.012l-25.505-7.268c-1.962-.559-3.14-.146-3.535 1.239-.405 1.423.354 2.409 2.277 2.957Z" fill="#C9FB40"/><path d="m710.93 514.275 36.015 12.612 1.309-3.737c-15.063-5.275-24.794-8.895-29.192-10.859-2.212-.944-3.687-2.117-4.425-3.52-.713-1.352-.667-3.179.14-5.482l.555-1.586 6.512 2.281-.158.453c-.252.717-.216 1.281.107 1.69.323.41.999.838 2.03 1.283 2.437 1.15 13.32 5.11 32.649 11.879l-5.652 16.139-42.131-14.754 2.241-6.399Zm31.454 41.651-33.251-20.945c-1.89-1.182-3.094-2.293-3.613-3.334-.481-1.025-.39-2.331.275-3.918l1.691-4.04 6.365 2.664-.603 1.439c-.139.332-.191.614-.158.845.018.267.104.477.257.628.154.151.363.325.627.522l1.204.699c.618.389 1.755.779 3.413 1.169l30.837 7.446-2.665 6.364-19.181-5.298 17.282 9.837-2.48 5.922Z" fill="#C9FB40"/></g></svg>