<svg width="88" height="71" fill="none" xmlns="http://www.w3.org/2000/svg"><path d="M.503 20.917h29.443v24.057H.503V20.917Z" fill="#CCE2FF"/><mask id="a" style="mask-type:alpha" maskUnits="userSpaceOnUse" x="0" y="20" width="30" height="25"><path d="M.503 20.917h29.443v24.057H.503V20.917Z" fill="#CCE2FF"/></mask><g mask="url(#a)" fill="#66A9FF"><path d="M.882 45.75c.653 0 1.183-.532 1.183-1.188 0-.656-.53-1.189-1.183-1.189S-.3 43.906-.3 44.562c0 .657.53 1.189 1.182 1.189Zm1.183-3.625c0 .624.503 1.13 1.123 1.13s1.123-.506 1.123-1.13c0-.623-.503-1.13-1.123-1.13s-1.123.507-1.123 1.13Zm-1.183-1.01c.588 0 1.064-.48 1.064-1.07 0-.59-.476-1.07-1.064-1.07-.588 0-1.064.48-1.064 1.07 0 .59.476 1.07 1.064 1.07Zm-.828-5.528a.89.89 0 0 0 .887.892c.49 0 .887-.4.887-.892a.89.89 0 0 0-.887-.891.89.89 0 0 0-.887.891Zm2.129 2.14c0 .558.45 1.01 1.005 1.01.555 0 1.005-.452 1.005-1.01s-.45-1.01-1.005-1.01c-.555 0-1.005.452-1.005 1.01Zm2.128 2.199c0 .59.477 1.07 1.064 1.07.588 0 1.065-.48 1.065-1.07 0-.59-.477-1.07-1.065-1.07-.587 0-1.064.48-1.064 1.07Zm2.365-2.199a.89.89 0 0 0 .887.892c.49 0 .887-.4.887-.892a.89.89 0 0 0-.887-.892.89.89 0 0 0-.887.892Zm-2.01-2.199c0 .46.37.832.828.832a.83.83 0 0 0 .827-.832.83.83 0 0 0-.827-.832.83.83 0 0 0-.828.832ZM2.42 33.329a.77.77 0 0 0 .768.772.77.77 0 0 0 .768-.772.77.77 0 0 0-.768-.773.77.77 0 0 0-.769.773ZM.882 31.724a.593.593 0 0 0 .591-.594.593.593 0 0 0-.59-.595.593.593 0 0 0-.592.595c0 .328.265.594.591.594Zm.059-4.754a.296.296 0 0 0 .296-.298.296.296 0 1 0-.591 0c0 .164.132.297.295.297Zm3.961 4.1a.534.534 0 1 0 1.064 0 .534.534 0 0 0-.531-.535.534.534 0 0 0-.533.535Zm-2.128-2.258c0 .23.185.416.414.416a.415.415 0 0 0 .414-.416.415.415 0 0 0-.414-.416.415.415 0 0 0-.414.416ZM7.03 33.21a.651.651 0 1 0 1.301 0 .652.652 0 0 0-.65-.654.652.652 0 0 0-.65.654Zm2.13 2.199a.71.71 0 1 0 1.419 0 .711.711 0 0 0-.71-.713c-.392 0-.71.32-.71.713Zm13.48 8.975c0 .295.237.535.531.535.294 0 .532-.24.532-.535a.533.533 0 0 0-.532-.535.533.533 0 0 0-.532.535ZM11.524 33.21c0 .295.238.535.532.535.294 0 .532-.24.532-.535a.533.533 0 0 0-.532-.535.534.534 0 0 0-.532.535Zm-2.01-2.14c0 .23.185.416.414.416a.415.415 0 0 0 .414-.416.415.415 0 0 0-.414-.416.415.415 0 0 0-.414.416Zm-2.247-2.199c0 .197.16.357.355.357.196 0 .355-.16.355-.357a.356.356 0 0 0-.355-.357.356.356 0 0 0-.355.357Zm4.612 0c0 .131.106.238.236.238a.238.238 0 0 0 .237-.238.237.237 0 0 0-.237-.238.237.237 0 0 0-.236.238Zm15.49 15.513a.296.296 0 1 0 .591 0 .296.296 0 1 0-.591 0ZM14.007 30.951a.296.296 0 1 0 .591 0 .296.296 0 0 0-.295-.297.296.296 0 0 0-.296.297Zm11.115 11.234a.356.356 0 1 0 .71 0 .356.356 0 0 0-.355-.357.356.356 0 0 0-.355.357Zm-7.212 2.258c0 .46.37.832.827.832a.83.83 0 0 0 .828-.832.83.83 0 0 0-.828-.832.83.83 0 0 0-.828.832Zm2.364-2.199c0 .361.291.654.65.654.36 0 .65-.293.65-.654a.652.652 0 0 0-.65-.654.652.652 0 0 0-.65.654Zm2.483-2.258a.415.415 0 1 0 .828 0 .415.415 0 0 0-.414-.417.415.415 0 0 0-.414.416ZM4.311 44.384c0 .623.503 1.129 1.124 1.129.62 0 1.123-.506 1.123-1.13 0-.623-.503-1.129-1.123-1.129s-1.124.506-1.124 1.13Zm2.247-2.199c0 .59.476 1.07 1.064 1.07.588 0 1.064-.48 1.064-1.07 0-.591-.476-1.07-1.064-1.07-.588 0-1.064.479-1.064 1.07Zm6.74 2.199c0 .558.45 1.01 1.005 1.01.555 0 1.005-.452 1.005-1.01s-.45-1.01-1.005-1.01c-.555 0-1.005.452-1.005 1.01Zm-4.375-4.458c0 .525.423.951.946.951a.948.948 0 0 0 .946-.95.948.948 0 0 0-.946-.952.949.949 0 0 0-.946.951Zm6.74 2.259c0 .46.37.832.827.832a.83.83 0 0 0 .828-.832.83.83 0 0 0-.828-.833.83.83 0 0 0-.827.833Zm-4.375-4.458a.77.77 0 0 0 .768.773.77.77 0 0 0 .769-.773.77.77 0 0 0-.769-.773.77.77 0 0 0-.768.773Zm6.74 2.259a.65.65 0 1 0 1.3-.001.652.652 0 0 0-.65-.653.65.65 0 0 0-.65.654Zm-4.376-4.458a.593.593 0 1 0 1.183 0 .593.593 0 0 0-.591-.594.593.593 0 0 0-.591.594Zm6.858 2.199a.415.415 0 1 0 .828 0 .415.415 0 0 0-.413-.416.415.415 0 0 0-.414.416Zm-4.374-4.457c0 .196.159.356.354.356.196 0 .355-.16.355-.357a.356.356 0 0 0-.355-.356.356.356 0 0 0-.354.356ZM8.805 44.384c0 .623.502 1.129 1.123 1.129.62 0 1.123-.506 1.123-1.13 0-.623-.503-1.129-1.123-1.129s-1.123.506-1.123 1.13Zm2.365-2.318c0 .525.423.95.945.95a.948.948 0 0 0 .946-.95.948.948 0 0 0-.946-.951.948.948 0 0 0-.946.95Zm2.364-2.199a.77.77 0 0 0 .769.772.77.77 0 0 0 .768-.772.77.77 0 0 0-.768-.773.77.77 0 0 0-.769.773Zm2.366-2.14c0 .361.29.654.65.654.359 0 .65-.293.65-.654a.652.652 0 0 0-.65-.654c-.36 0-.65.293-.65.654Zm2.364-2.318a.474.474 0 1 0 .946 0 .474.474 0 0 0-.473-.475.474.474 0 0 0-.473.475Z"/></g><path d="m29.946 21.166 33.86-20.112.361 61.855-34.221-17.826V21.166Z" fill="#66A9FF"/><mask id="b" style="mask-type:alpha" maskUnits="userSpaceOnUse" x="29" y="1" width="36" height="62"><path d="m29.946 21.166 33.86-20.112.361 61.855-34.221-17.826V21.166Z" fill="#66A9FF"/></mask><g mask="url(#b)" fill="#0068D3"><path d="M57.02 16.608c0 .788-.635 1.427-1.419 1.427a1.423 1.423 0 0 1-1.419-1.427c0-.788.636-1.426 1.42-1.426.783 0 1.418.638 1.418 1.426Zm-4.611 0c0 .722-.583 1.308-1.3 1.308-.72 0-1.302-.586-1.302-1.308 0-.722.583-1.308 1.301-1.308s1.3.586 1.3 1.308Zm-4.493 0c0 .657-.53 1.189-1.183 1.189a1.186 1.186 0 0 1-1.182-1.189c0-.657.529-1.189 1.182-1.189.653 0 1.183.532 1.183 1.189Zm-4.73 0a.948.948 0 0 1-.946.951.948.948 0 0 1-.946-.951c0-.525.423-.95.946-.95.522 0 .946.425.946.95Zm-4.612 0a.711.711 0 0 1-.71.713.711.711 0 0 1-.709-.713c0-.394.318-.713.71-.713.392 0 .71.32.71.713Zm11.588-2.258c0 .656-.53 1.188-1.182 1.188a1.186 1.186 0 0 1-1.183-1.188c0-.657.53-1.19 1.183-1.19s1.182.533 1.182 1.19ZM62.341 2.343a1.186 1.186 0 0 1-1.182-1.188c0-.657.53-1.189 1.182-1.189.653 0 1.183.532 1.183 1.189 0 .656-.53 1.188-1.183 1.188Zm-9.932 9.807c0 .69-.556 1.248-1.242 1.248a1.245 1.245 0 0 1-1.241-1.248c0-.689.555-1.248 1.241-1.248s1.242.559 1.242 1.248Zm-2.365-2.258c0 .623-.503 1.13-1.123 1.13s-1.124-.507-1.124-1.13c0-.624.503-1.13 1.124-1.13.62 0 1.123.506 1.123 1.13Zm-2.247 2.258c0 .624-.503 1.13-1.123 1.13s-1.123-.506-1.123-1.13c0-.623.502-1.129 1.123-1.129.62 0 1.123.506 1.123 1.13Zm-2.247 2.2c0 .59-.476 1.07-1.064 1.07a1.067 1.067 0 0 1-1.064-1.07c0-.591.477-1.07 1.064-1.07.588 0 1.065.479 1.065 1.07Zm-4.61.059a.89.89 0 0 1-.888.891.89.89 0 0 1-.887-.891.89.89 0 0 1 .887-.892c.49 0 .887.4.887.892Zm13.715 0c0 .755-.608 1.367-1.36 1.367-.75 0-1.36-.612-1.36-1.367s.61-1.367 1.36-1.367c.752 0 1.36.612 1.36 1.367Zm2.247-2.259c0 .755-.609 1.367-1.36 1.367-.75 0-1.36-.612-1.36-1.367s.61-1.367 1.36-1.367c.751 0 1.36.612 1.36 1.367Zm-2.247-2.199c0 .722-.582 1.308-1.3 1.308a1.304 1.304 0 0 1-1.301-1.308c0-.722.582-1.307 1.3-1.307.72 0 1.301.585 1.301 1.307ZM52.29 7.693c0 .656-.529 1.188-1.182 1.188a1.186 1.186 0 0 1-1.182-1.188c0-.657.529-1.189 1.182-1.189.653 0 1.183.532 1.183 1.189Zm6.859 2.199c0 .755-.61 1.367-1.36 1.367-.751 0-1.36-.612-1.36-1.367s.609-1.367 1.36-1.367c.75 0 1.36.612 1.36 1.367Zm-2.247-2.199c0 .722-.582 1.307-1.3 1.307-.719 0-1.301-.585-1.301-1.307s.582-1.308 1.3-1.308c.719 0 1.301.586 1.301 1.308Zm4.375-4.517c0 .722-.582 1.307-1.3 1.307a1.304 1.304 0 0 1-1.301-1.307c0-.723.582-1.308 1.3-1.308.719 0 1.301.585 1.301 1.308ZM59.03 5.434c0 .722-.582 1.308-1.3 1.308-.719 0-1.3-.586-1.3-1.308 0-.722.581-1.307 1.3-1.307.718 0 1.3.585 1.3 1.307Zm-8.868 13.433c0-.657-.53-1.19-1.182-1.19-.653 0-1.183.533-1.183 1.19 0 .656.53 1.188 1.183 1.188s1.182-.532 1.182-1.188Zm2.247 2.199c0-.69-.556-1.248-1.242-1.248-.686 0-1.241.558-1.241 1.248 0 .689.555 1.248 1.241 1.248s1.242-.559 1.242-1.248Zm-2.365 2.258c0-.623-.503-1.129-1.123-1.129s-1.124.506-1.124 1.13c0 .623.503 1.128 1.124 1.128.62 0 1.123-.505 1.123-1.129Zm-2.247-2.258c0-.624-.503-1.13-1.123-1.13s-1.123.506-1.123 1.13c0 .623.502 1.129 1.123 1.129.62 0 1.123-.506 1.123-1.13Zm-2.247-2.199c0-.591-.476-1.07-1.064-1.07-.587 0-1.064.479-1.064 1.07 0 .59.477 1.07 1.064 1.07.588 0 1.065-.48 1.065-1.07Zm-4.61-.06a.89.89 0 0 0-.888-.891.89.89 0 0 0-.887.891.89.89 0 0 0 .887.892c.49 0 .887-.4.887-.892Zm2.364 2.259c0-.558-.45-1.01-1.005-1.01-.555 0-1.005.452-1.005 1.01s.45 1.01 1.005 1.01c.555 0 1.005-.452 1.005-1.01Zm2.246 2.199c0-.591-.476-1.07-1.064-1.07-.587 0-1.064.479-1.064 1.07 0 .59.477 1.07 1.064 1.07.588 0 1.065-.48 1.065-1.07Zm2.247 2.199c0-.624-.503-1.13-1.123-1.13s-1.123.506-1.123 1.13c0 .624.502 1.13 1.123 1.13.62 0 1.123-.506 1.123-1.13Zm-2.365 2.318a.948.948 0 0 0-.946-.951.949.949 0 0 0-.946.95.95.95 0 0 0 .946.952.948.948 0 0 0 .946-.951Zm-2.246-2.318a.89.89 0 0 0-.887-.892.89.89 0 0 0-.887.892.89.89 0 0 0 .887.892c.49 0 .887-.4.887-.892Zm-2.366-2.199a.83.83 0 0 0-.827-.832.83.83 0 0 0-.828.832c0 .46.371.832.828.832a.83.83 0 0 0 .828-.832Zm-2.246-2.199a.77.77 0 0 0-.768-.773.77.77 0 0 0-.769.773.77.77 0 0 0 .769.772.77.77 0 0 0 .768-.772Zm-2.364-2.199a.593.593 0 0 0-.592-.595.593.593 0 0 0-.591.595c0 .328.264.594.591.594a.593.593 0 0 0 .591-.594Zm-2.484 2.199a.415.415 0 0 0-.414-.416.415.415 0 0 0-.414.416.415.415 0 1 0 .828 0Zm2.484 2.199a.593.593 0 0 0-.592-.595.593.593 0 0 0-.591.595c0 .328.264.594.591.594a.593.593 0 0 0 .591-.594Zm2.246 2.318a.652.652 0 0 0-.65-.654c-.36 0-.65.293-.65.654 0 .36.29.654.65.654.359 0 .65-.293.65-.654Zm2.247 2.199a.711.711 0 0 0-.71-.713.711.711 0 0 0-.71.713c0 .394.318.713.71.713.392 0 .71-.32.71-.713Zm13.361 13.432a.711.711 0 0 0-.71-.713.712.712 0 0 0-.709.713c0 .394.318.714.71.714.392 0 .71-.32.71-.714ZM43.068 30.04a.83.83 0 0 0-.828-.832.83.83 0 0 0-.828.833c0 .459.37.832.828.832a.83.83 0 0 0 .828-.832Zm-2.484 2.2a.533.533 0 0 0-.532-.535.533.533 0 0 0-.532.535c0 .295.238.535.532.535.294 0 .532-.24.532-.535Zm-2.246-2.259a.533.533 0 0 0-.532-.535.533.533 0 0 0-.532.535c0 .295.238.535.532.535.294 0 .532-.24.532-.535ZM51.7 43.413a.534.534 0 0 0-.533-.534.534.534 0 0 0-.532.535.533.533 0 1 0 1.064-.001Zm-15.727-15.69a.415.415 0 0 0-.414-.417.415.415 0 0 0-.414.416.415.415 0 1 0 .828 0Zm17.737 17.83a.415.415 0 0 0-.414-.416.415.415 0 0 0-.414.416c0 .23.185.416.414.416a.415.415 0 0 0 .413-.416Zm-19.984-20.03a.356.356 0 0 0-.355-.356.356.356 0 0 0-.354.356c0 .197.158.357.354.357.196 0 .355-.16.355-.357Zm22.23 22.229a.356.356 0 0 0-.355-.356.356.356 0 0 0-.354.356c0 .197.158.357.354.357.196 0 .355-.16.355-.357Zm-22.348-17.83a.237.237 0 0 0-.237-.238.237.237 0 0 0-.236.238.237.237 0 1 0 .473 0Zm17.737 17.83a.237.237 0 0 0-.237-.238.237.237 0 0 0-.236.238.236.236 0 1 0 .473 0ZM35.855 32.24a.296.296 0 1 0-.592 0 .296.296 0 1 0 .591 0Zm13.361 13.432a.296.296 0 0 0-.295-.297.296.296 0 0 0-.296.297.296.296 0 1 0 .591 0ZM38.101 34.439a.356.356 0 1 0-.71 0 .356.356 0 1 0 .71 0Zm16.554-15.632c0-.755-.608-1.367-1.36-1.367-.75 0-1.36.612-1.36 1.367s.61 1.367 1.36 1.367c.752 0 1.36-.612 1.36-1.367Zm2.247 2.259c0-.755-.609-1.367-1.36-1.367-.75 0-1.36.612-1.36 1.367s.61 1.367 1.36 1.367c.751 0 1.36-.612 1.36-1.367Zm-2.247 2.199c0-.722-.582-1.308-1.3-1.308-.719 0-1.301.586-1.301 1.308 0 .722.582 1.307 1.3 1.307.72 0 1.301-.585 1.301-1.307Zm-2.365 2.258c0-.656-.529-1.188-1.182-1.188-.653 0-1.182.532-1.182 1.188 0 .657.529 1.19 1.182 1.19.653 0 1.183-.533 1.183-1.19Zm-2.246 2.2c0-.624-.503-1.13-1.123-1.13s-1.124.506-1.124 1.13c0 .623.503 1.129 1.124 1.129.62 0 1.123-.506 1.123-1.13Zm-2.365 2.258c0-.558-.45-1.01-1.005-1.01-.555 0-1.005.452-1.005 1.01s.45 1.01 1.005 1.01c.555 0 1.005-.452 1.005-1.01Zm-2.365 2.199a.83.83 0 0 0-.828-.832.83.83 0 0 0-.827.832c0 .46.37.832.827.832a.83.83 0 0 0 .828-.832Zm-2.364 2.2a.652.652 0 0 0-.651-.655c-.36 0-.65.293-.65.654 0 .361.29.654.65.654.359 0 .65-.293.65-.654Zm-2.484 2.258a.415.415 0 0 0-.414-.416.415.415 0 0 0-.414.416c0 .23.186.416.414.416a.415.415 0 0 0 .414-.416Zm14.071-8.856c0-.657-.53-1.189-1.182-1.189-.653 0-1.183.532-1.183 1.189 0 .656.53 1.189 1.183 1.189s1.182-.533 1.182-1.19Zm-2.365 2.199c0-.624-.503-1.13-1.123-1.13s-1.123.506-1.123 1.13c0 .624.503 1.13 1.123 1.13s1.123-.506 1.123-1.13Zm-2.246 2.259a1.006 1.006 0 1 0-2.01 0c0 .558.45 1.01 1.005 1.01.555 0 1.005-.452 1.005-1.01Zm4.374 4.457a.948.948 0 0 0-.945-.95.948.948 0 0 0-.946.95c0 .525.423.951.946.951a.948.948 0 0 0 .946-.95Zm-6.74-2.258a.83.83 0 0 0-.827-.832.83.83 0 0 0-.828.832c0 .46.37.832.828.832a.83.83 0 0 0 .828-.832Zm4.376 4.457a.77.77 0 0 0-.769-.772.77.77 0 0 0-.768.772.77.77 0 0 0 .768.773.77.77 0 0 0 .769-.773Zm-6.74-2.258a.652.652 0 0 0-.65-.654c-.36 0-.65.293-.65.654 0 .36.29.654.65.654.359 0 .65-.293.65-.654Zm4.374 4.458a.593.593 0 0 0-.59-.595.593.593 0 0 0-.591.595c0 .328.264.594.59.594a.593.593 0 0 0 .592-.594Zm-6.857-2.2a.415.415 0 0 0-.414-.416.415.415 0 0 0-.414.416c0 .23.185.416.414.416a.415.415 0 0 0 .414-.416Zm4.375 4.458a.356.356 0 0 0-.355-.357.356.356 0 0 0-.355.357.356.356 0 1 0 .71 0Zm7.331-11.114c0-.624-.503-1.13-1.123-1.13s-1.124.506-1.124 1.13c0 .623.503 1.129 1.124 1.129.62 0 1.123-.506 1.123-1.13Zm-2.365 2.318a.948.948 0 0 0-.946-.951.948.948 0 0 0-.946.95c0 .526.424.951.946.951a.948.948 0 0 0 .946-.95Zm-2.364 2.199a.77.77 0 0 0-.77-.773.77.77 0 0 0-.768.773.77.77 0 0 0 .769.772.77.77 0 0 0 .768-.772Zm-2.366 2.139a.652.652 0 0 0-.65-.653.65.65 0 0 0-.65.653c0 .361.29.654.65.654.36 0 .65-.293.65-.654Zm-2.364 2.318a.474.474 0 0 0-.474-.475.474.474 0 0 0-.473.475c0 .263.212.476.473.476a.474.474 0 0 0 .473-.476Z"/></g><path d="M77.506 31.852c0 17.312-5.239 31.347-11.701 31.347-6.463 0-11.702-14.035-11.702-31.347S59.343.505 65.805.505 77.506 14.54 77.506 31.852Z" fill="#9AFBD7"/><mask id="c" style="mask-type:alpha" maskUnits="userSpaceOnUse" x="54" y="0" width="24" height="64"><path d="M77.506 31.852c0 17.312-5.239 31.347-11.701 31.347-6.463 0-11.702-14.035-11.702-31.347S59.343.505 65.805.505 77.506 14.54 77.506 31.852Z" fill="#9AFBD7"/></mask><g mask="url(#c)" fill="#66A9FF" fill-opacity=".7"><path d="M54.87 43.076a.646.646 0 1 1-1.293 0 .646.646 0 0 1 1.293 0Zm1.94 2.586a.647.647 0 1 1-1.293 0 .647.647 0 0 1 1.293 0Zm5.818-2.586a.646.646 0 1 1-1.293 0 .646.646 0 0 1 1.293 0Zm1.939 2.586a.647.647 0 1 1-1.293 0 .647.647 0 0 1 1.293 0Zm-5.817-2.586a.647.647 0 1 1-1.294 0 .647.647 0 0 1 1.293 0Zm1.938 2.586a.647.647 0 1 1-1.293 0 .647.647 0 0 1 1.293 0Zm9.698-2.586a.647.647 0 1 1-1.293 0 .647.647 0 0 1 1.293 0Zm1.939 2.586a.647.647 0 1 1-1.293 0 .647.647 0 0 1 1.293 0Zm-5.818-2.586a.646.646 0 1 1-1.293 0 .646.646 0 0 1 1.293 0Zm1.939 2.586a.647.647 0 1 1-1.293 0 .647.647 0 0 1 1.293 0Zm9.698-2.586a.646.646 0 1 1-1.293 0 .646.646 0 0 1 1.293 0Zm-3.879 0a.646.646 0 1 1-1.293 0 .646.646 0 0 1 1.293 0Zm1.939 2.586a.647.647 0 1 1-1.293 0 .647.647 0 0 1 1.293 0ZM54.87 48.248a.646.646 0 1 1-1.293 0 .646.646 0 0 1 1.293 0Zm1.94 2.586a.646.646 0 1 1-1.293 0 .646.646 0 0 1 1.293 0Zm5.818-2.586a.646.646 0 1 1-1.293 0 .646.646 0 0 1 1.293 0Zm1.939 2.586a.647.647 0 1 1-1.293 0 .647.647 0 0 1 1.293 0Zm-5.817-2.586a.646.646 0 1 1-1.294 0 .646.646 0 0 1 1.293 0Zm1.938 2.586a.646.646 0 1 1-1.292 0 .646.646 0 0 1 1.292 0Zm9.698-2.586a.646.646 0 1 1-1.293 0 .646.646 0 0 1 1.293 0Zm1.939 2.586a.646.646 0 1 1-1.293 0 .646.646 0 0 1 1.293 0Zm-5.818-2.586a.646.646 0 1 1-1.293 0 .646.646 0 0 1 1.293 0Zm1.939 2.586a.646.646 0 1 1-1.292 0 .646.646 0 0 1 1.292 0Zm5.819-2.586a.646.646 0 1 1-1.293 0 .646.646 0 0 1 1.293 0ZM54.87 53.42a.647.647 0 1 1-1.293 0 .647.647 0 0 1 1.293 0Zm1.94 2.585a.646.646 0 1 1-1.293 0 .646.646 0 0 1 1.293 0Zm5.818-2.585a.647.647 0 1 1-1.293 0 .647.647 0 0 1 1.293 0Zm1.939 2.585a.647.647 0 1 1-1.293 0 .647.647 0 0 1 1.293 0ZM58.75 53.42a.647.647 0 1 1-1.294 0 .647.647 0 0 1 1.293 0Zm1.938 2.585a.646.646 0 1 1-1.292 0 .646.646 0 0 1 1.292 0Zm9.698-2.585a.647.647 0 1 1-1.293 0 .647.647 0 0 1 1.293 0Zm1.939 2.585a.646.646 0 1 1-1.293 0 .646.646 0 0 1 1.293 0Zm-5.818-2.585a.647.647 0 1 1-1.293 0 .647.647 0 0 1 1.293 0Zm1.939 2.585a.646.646 0 1 1-1.292 0 .646.646 0 0 1 1.292 0Zm5.819-2.585a.647.647 0 1 1-1.293 0 .647.647 0 0 1 1.293 0Zm-11.637 5.171a.647.647 0 1 1-1.293 0 .647.647 0 0 1 1.293 0Zm1.939 2.586a.647.647 0 1 1-1.293 0 .647.647 0 0 1 1.293 0Zm-5.817-2.586a.647.647 0 1 1-1.294 0 .647.647 0 0 1 1.293 0Zm1.938 2.586a.646.646 0 1 1-1.292 0 .646.646 0 0 1 1.292 0Zm9.698-2.586a.647.647 0 1 1-1.293 0 .647.647 0 0 1 1.293 0Zm-3.879 0a.647.647 0 1 1-1.293 0 .647.647 0 0 1 1.293 0Zm1.939 2.586a.646.646 0 1 1-1.292 0 .646.646 0 0 1 1.292 0ZM54.87 22.388a.647.647 0 1 1-1.293 0 .647.647 0 0 1 1.293 0Zm1.94 2.586a.646.646 0 1 1-1.293 0 .646.646 0 0 1 1.293 0Zm5.818-2.586a.647.647 0 1 1-1.293 0 .647.647 0 0 1 1.293 0Zm1.939 2.586a.647.647 0 1 1-1.293 0 .647.647 0 0 1 1.293 0Zm-5.817-2.586a.647.647 0 1 1-1.294 0 .647.647 0 0 1 1.293 0Zm1.938 2.586a.646.646 0 1 1-1.292 0 .646.646 0 0 1 1.292 0Zm9.698-2.586a.647.647 0 1 1-1.293 0 .647.647 0 0 1 1.293 0Zm1.939 2.586a.646.646 0 1 1-1.293 0 .646.646 0 0 1 1.293 0Zm-5.818-2.586a.647.647 0 1 1-1.293 0 .647.647 0 0 1 1.293 0Zm1.939 2.586a.646.646 0 1 1-1.292 0 .646.646 0 0 1 1.292 0Zm9.698-2.586a.646.646 0 1 1-1.293 0 .646.646 0 0 1 1.293 0Zm-3.879 0a.647.647 0 1 1-1.293 0 .647.647 0 0 1 1.293 0Zm1.939 2.586a.647.647 0 1 1-1.293 0 .647.647 0 0 1 1.293 0ZM54.87 27.56a.647.647 0 1 1-1.293 0 .647.647 0 0 1 1.293 0Zm1.94 2.586a.646.646 0 1 1-1.293 0 .646.646 0 0 1 1.293 0Zm5.818-2.586a.647.647 0 1 1-1.293 0 .647.647 0 0 1 1.293 0Zm1.939 2.586a.647.647 0 1 1-1.293 0 .647.647 0 0 1 1.293 0ZM58.75 27.56a.647.647 0 1 1-1.294 0 .647.647 0 0 1 1.293 0Zm1.938 2.586a.646.646 0 1 1-1.292 0 .646.646 0 0 1 1.292 0Zm9.698-2.586a.647.647 0 1 1-1.293 0 .647.647 0 0 1 1.293 0Zm1.939 2.586a.646.646 0 1 1-1.293 0 .646.646 0 0 1 1.293 0Zm-5.818-2.586a.647.647 0 1 1-1.293 0 .647.647 0 0 1 1.293 0Zm1.939 2.586a.646.646 0 1 1-1.292 0 .646.646 0 0 1 1.292 0Zm9.698-2.586a.646.646 0 1 1-1.293 0 .646.646 0 0 1 1.293 0Zm-3.879 0a.647.647 0 1 1-1.293 0 .647.647 0 0 1 1.293 0Zm1.939 2.586a.647.647 0 1 1-1.293 0 .647.647 0 0 1 1.293 0ZM54.87 32.732a.646.646 0 1 1-1.293 0 .646.646 0 0 1 1.293 0Zm1.94 2.586a.647.647 0 1 1-1.293 0 .647.647 0 0 1 1.293 0Zm5.818-2.586a.646.646 0 1 1-1.293 0 .646.646 0 0 1 1.293 0Zm1.939 2.586a.647.647 0 1 1-1.293 0 .647.647 0 0 1 1.293 0Zm-5.817-2.586a.647.647 0 1 1-1.294 0 .647.647 0 0 1 1.293 0Zm1.938 2.586a.647.647 0 1 1-1.293 0 .647.647 0 0 1 1.293 0Zm9.698-2.586a.647.647 0 1 1-1.293 0 .647.647 0 0 1 1.293 0Zm1.939 2.586a.647.647 0 1 1-1.293 0 .647.647 0 0 1 1.293 0Zm-5.818-2.586a.646.646 0 1 1-1.293 0 .646.646 0 0 1 1.293 0Zm1.939 2.586a.647.647 0 1 1-1.293 0 .647.647 0 0 1 1.293 0Zm9.698-2.586a.646.646 0 1 1-1.293 0 .646.646 0 0 1 1.293 0Zm-3.879 0a.646.646 0 1 1-1.293 0 .646.646 0 0 1 1.293 0Zm1.939 2.586a.647.647 0 1 1-1.293 0 .647.647 0 0 1 1.293 0ZM54.87 37.904a.646.646 0 1 1-1.293 0 .646.646 0 0 1 1.293 0Zm1.94 2.586a.647.647 0 1 1-1.293 0 .647.647 0 0 1 1.293 0Zm5.818-2.586a.646.646 0 1 1-1.293 0 .646.646 0 0 1 1.293 0Zm1.939 2.586a.647.647 0 1 1-1.293 0 .647.647 0 0 1 1.293 0Zm-5.817-2.586a.647.647 0 1 1-1.294 0 .647.647 0 0 1 1.293 0Zm1.938 2.586a.647.647 0 1 1-1.293 0 .647.647 0 0 1 1.293 0Zm9.698-2.586a.647.647 0 1 1-1.293 0 .647.647 0 0 1 1.293 0Zm1.939 2.586a.647.647 0 1 1-1.293 0 .647.647 0 0 1 1.293 0Zm-5.818-2.586a.646.646 0 1 1-1.293 0 .646.646 0 0 1 1.293 0Zm1.939 2.586a.647.647 0 1 1-1.293 0 .647.647 0 0 1 1.293 0Zm9.698-2.586a.646.646 0 1 1-1.293 0 .646.646 0 0 1 1.293 0Zm-3.879 0a.646.646 0 1 1-1.293 0 .646.646 0 0 1 1.293 0Zm1.939 2.586a.647.647 0 1 1-1.293 0 .647.647 0 0 1 1.293 0ZM62.628 1.7a.646.646 0 1 1-1.293 0 .646.646 0 0 1 1.293 0Zm1.939 2.586a.647.647 0 1 1-1.293 0 .647.647 0 0 1 1.293 0Zm-3.879 0a.646.646 0 1 1-1.292 0 .646.646 0 0 1 1.292 0ZM70.386 1.7a.647.647 0 1 1-1.293 0 .647.647 0 0 1 1.293 0Zm1.939 2.586a.646.646 0 1 1-1.293 0 .646.646 0 0 1 1.293 0ZM66.507 1.7a.646.646 0 1 1-1.293 0 .646.646 0 0 1 1.293 0Zm1.939 2.586a.646.646 0 1 1-1.293 0 .646.646 0 0 1 1.293 0ZM56.81 9.458a.646.646 0 1 1-1.293 0 .646.646 0 0 1 1.293 0Zm5.818-2.586a.646.646 0 1 1-1.293 0 .646.646 0 0 1 1.293 0Zm1.939 2.586a.647.647 0 1 1-1.293 0 .647.647 0 0 1 1.293 0ZM58.75 6.872a.647.647 0 1 1-1.294 0 .647.647 0 0 1 1.293 0Zm1.938 2.586a.646.646 0 1 1-1.292 0 .646.646 0 0 1 1.292 0Zm9.698-2.586a.647.647 0 1 1-1.293 0 .647.647 0 0 1 1.293 0Zm1.939 2.586a.646.646 0 1 1-1.293 0 .646.646 0 0 1 1.293 0Zm-5.818-2.586a.646.646 0 1 1-1.293 0 .646.646 0 0 1 1.293 0Zm1.939 2.586a.646.646 0 1 1-1.293 0 .646.646 0 0 1 1.293 0ZM54.87 12.044a.646.646 0 1 1-1.293 0 .646.646 0 0 1 1.293 0Zm1.94 2.586a.646.646 0 1 1-1.293 0 .646.646 0 0 1 1.293 0Zm5.818-2.586a.646.646 0 1 1-1.293 0 .646.646 0 0 1 1.293 0Zm1.939 2.586a.647.647 0 1 1-1.293 0 .647.647 0 0 1 1.293 0Zm-5.817-2.586a.646.646 0 1 1-1.294 0 .646.646 0 0 1 1.293 0Zm1.938 2.586a.646.646 0 1 1-1.292 0 .646.646 0 0 1 1.292 0Zm9.698-2.586a.646.646 0 1 1-1.293 0 .646.646 0 0 1 1.293 0Zm1.939 2.586a.646.646 0 1 1-1.293 0 .646.646 0 0 1 1.293 0Zm-5.818-2.586a.646.646 0 1 1-1.293 0 .646.646 0 0 1 1.293 0Zm1.939 2.586a.646.646 0 1 1-1.292 0 .646.646 0 0 1 1.292 0Zm5.819-2.586a.646.646 0 1 1-1.293 0 .646.646 0 0 1 1.293 0Zm1.939 2.586a.647.647 0 1 1-1.293 0 .647.647 0 0 1 1.293 0ZM54.87 17.216a.647.647 0 1 1-1.293 0 .647.647 0 0 1 1.293 0Zm1.94 2.586a.646.646 0 1 1-1.293 0 .646.646 0 0 1 1.293 0Zm5.818-2.586a.647.647 0 1 1-1.293 0 .647.647 0 0 1 1.293 0Zm1.939 2.586a.647.647 0 1 1-1.293 0 .647.647 0 0 1 1.293 0Zm-5.817-2.586a.647.647 0 1 1-1.294 0 .647.647 0 0 1 1.293 0Zm1.938 2.586a.646.646 0 1 1-1.292 0 .646.646 0 0 1 1.292 0Zm9.698-2.586a.647.647 0 1 1-1.293 0 .647.647 0 0 1 1.293 0Zm1.939 2.586a.646.646 0 1 1-1.293 0 .646.646 0 0 1 1.293 0Zm-5.818-2.586a.647.647 0 1 1-1.293 0 .647.647 0 0 1 1.293 0Zm1.939 2.586a.646.646 0 1 1-1.292 0 .646.646 0 0 1 1.292 0Zm9.698-2.586a.646.646 0 1 1-1.293 0 .646.646 0 0 1 1.293 0Zm-3.879 0a.647.647 0 1 1-1.293 0 .647.647 0 0 1 1.293 0Zm1.939 2.586a.647.647 0 1 1-1.293 0 .647.647 0 0 1 1.293 0Z"/></g><path d="M77.48 29.754c.011.444.019.89.023 1.337l-6.332-.108.024-1.336 6.285.107ZM73.156 7.463c.193.416.38.849.562 1.296l-6.305 5.221-.9-1.014 6.643-5.503Zm.254 48.212c.187-.429.369-.873.546-1.332l-7.168-6.376-.937.983 7.56 6.725Z" fill="#fff"/><path d="m77.502 31.057 9.791.115.025-1.336-9.839-.115c.011.443.02.888.023 1.336Zm-3.75-22.214 6.583-5.335-.9-1.016-6.24 5.057c.191.416.377.848.557 1.294ZM73.39 55.72c.189-.43.371-.874.549-1.334l4.858 4.362-.939.982-4.467-4.01Z" fill="#1F1F22"/><path d="M15.602 44.974h14.344v25.531H15.602V44.974Z" fill="#0058CC"/><path d="M25.384 52.258h4.66a3.645 3.645 0 0 1 3.644 3.645" fill="#FF4C4C"/><path d="M54.374 38.583a82.819 82.819 0 0 1-.27-6.73 82.8 82.8 0 0 1 .243-6.392H59.4a6.56 6.56 0 1 1 0 13.122h-5.027Z" fill="#FFDB5C"/><path fill-rule="evenodd" clip-rule="evenodd" d="m4.343 34.978 3.261-7.016 1.816.851-3.26 7.017-1.816-.85Zm3.924-.365 3.261-7.016 1.816.852-3.26 7.016-1.817-.852Zm3.924-.364 3.262-7.016 1.816.85-3.262 7.017-1.816-.851Z" fill="#1F1F22"/></svg>