<svg width="93" height="91" fill="none" xmlns="http://www.w3.org/2000/svg"><path d="m45.992 78.543 4.895-38.146 37.158 1.972.017 42.589-42.07-6.415Z" fill="#FFF176"/><path fill-rule="evenodd" clip-rule="evenodd" d="m78.63 41.869-19.02-1.01 1.752 13.4L48.9 55.89 46.435 75.1l17.356-2.27 1.124 8.6 19.27 2.938-1.825-13.965 5.697-.745-.007-18.886-8.117 1.061-1.302-9.963Zm1.302 9.963-18.57 2.428 2.428 18.57 18.57-2.428-2.428-18.57Z" fill="#FF9DB9"/><path fill-rule="evenodd" clip-rule="evenodd" d="m76.114 41.736-25.227-1.339-.406 3.162c4.538 4.755 7.939 10.436 11.636 18.42 3.56-8.67 7.935-15.322 13.997-20.243Z" fill="#FFFAEB"/><path d="m79.385 5.28 8.973 6.574-14.494 19.783-8.973-6.575L79.385 5.28Z" fill="#2DE09E"/><path d="M90.58 34.17C78.476 29.915 68.334 17.81 68.988 2.433 62.771 19.447 51.533 28.65 33.653 31.552c15.277 8.165 21.318 14.995 28.464 30.426C68.028 47.584 76.185 38.75 90.581 34.17Z" fill="#FEE798"/><path fill-rule="evenodd" clip-rule="evenodd" d="M77.975 26.025a32.361 32.361 0 0 1-6.547-9.886l-6.537 8.923 8.973 6.575 4.111-5.612Z" fill="#FF4C4C"/><path fill-rule="evenodd" clip-rule="evenodd" d="M69.263 1.242c1.298.309 1.925 1.597 1.813 3.032-.195 2.487-1.134 5.013-2.565 7.468.809 3.023 2.186 6.236 3.938 9.246 1.77 3.042 3.906 5.846 6.187 8.02 1.082 1.03 2.183 1.905 3.28 2.597a23.486 23.486 0 0 1 3.2-.949c2.043-.446 3.692-.405 4.891-.037 1.124.343 2.18 1.114 2.214 2.31.034 1.236-1.035 2.015-2.161 2.341-1.198.348-2.863.356-4.956-.126-1.133-.261-2.258-.714-3.36-1.32-4.405 1.84-8.77 5.125-12.397 9.225-3.342 3.777-6.006 8.185-7.493 12.685.8 2.33 1.263 4.48 1.263 6.245 0 .897-.225 1.704-.605 2.32-.353.572-.968 1.157-1.793 1.175-.941.02-1.544-.684-1.824-1.447-.28-.762-.354-1.808-.214-3.13.18-1.712.543-3.429 1.063-5.129a41.651 41.651 0 0 0-1.121-2.748c-1.59-3.547-3.832-7.38-6.428-10.862-2.6-3.486-5.525-6.583-8.467-8.69-.573-.41-1.14-.778-1.703-1.104-2.225.745-4.303 1.17-6.081 1.17-.927 0-1.736-.163-2.373-.466-.615-.294-1.194-.786-1.377-1.503-.203-.789.155-1.496.717-1.962.538-.445 1.306-.729 2.22-.87 2.333-.36 4.737.243 7.073 1.45a38.988 38.988 0 0 0 2.841-1.174c3.528-1.615 7.316-3.908 10.824-6.602 3.51-2.696 6.714-5.773 9.093-8.944.51-.68.98-1.361 1.406-2.04-.706-2.972-.895-5.843-.316-8.242.022-.09.056-.176.1-.256.685-1.215 1.88-1.975 3.11-1.683Zm-1.39 7.369c.678-1.536 1.096-3.043 1.21-4.493.032-.42-.049-.664-.117-.784-.064-.11-.126-.136-.165-.146-.063-.015-.444-.022-.838.604-.31 1.383-.33 3.02-.09 4.819Zm-.792 5.341c-.17.238-.342.476-.52.712-2.513 3.35-5.858 6.552-9.474 9.329-3.617 2.778-7.533 5.152-11.21 6.835-.503.23-1.004.45-1.501.655.172.117.345.237.516.36 3.163 2.264 6.23 5.53 8.906 9.12 2.68 3.595 4.998 7.554 6.65 11.239.108.241.214.482.317.721 1.654-4.022 4.134-7.866 7.084-11.2 3.44-3.889 7.574-7.142 11.88-9.19a24.9 24.9 0 0 1-2.472-2.077c-2.442-2.326-4.69-5.288-6.537-8.462-1.51-2.594-2.763-5.35-3.639-8.042ZM39.23 31.092c-1.328-.428-2.601-.566-3.793-.382-.69.106-1.063.289-1.23.418.047.037.118.083.224.134.304.145.804.271 1.513.271.964 0 2.071-.15 3.286-.441Zm21.637 28.58a22.95 22.95 0 0 0-.197 1.434c-.123 1.16-.03 1.853.095 2.21.014-.02.03-.043.045-.068.161-.261.307-.695.307-1.27 0-.68-.085-1.456-.25-2.306ZM84.47 32.875c.363.13.724.237 1.081.32 1.895.436 3.191.375 3.95.155.38-.11.58-.246.67-.334a.455.455 0 0 0 .036-.04.49.49 0 0 0-.067-.076c-.11-.106-.333-.25-.72-.37-.772-.236-2.054-.319-3.88.08a20.03 20.03 0 0 0-1.07.265Zm5.754.133-.001-.005a.017.017 0 0 1 .001.005Zm0-.057c0-.003.002-.005.002-.005l-.002.005Z" fill="#1F1F22"/><path d="M43.398 11.719c10.902 7.598 11.244 26.317 1.978 36.185-11.892 12.664-28.45 12.858-37.629 4.003-7.805-7.53-10.273-22.27 0-34.352 8.797-10.348 25.31-13.045 35.651-5.836Z" fill="#006FFF"/><path d="M47.084 15.161a18.05 18.05 0 0 0-2.94-2.893l-2.076 3.393 3.428 2.097 1.588-2.597Zm-36.494-.467a27.945 27.945 0 0 1 4.29-3.042l-.513 6.068-4.004-.34.228-2.686ZM1.266 31.143a25.839 25.839 0 0 1 1.039-4.15l4.862 3.293-2.253 3.327-3.648-2.47Zm2.33 15.14a23.684 23.684 0 0 1-1.85-4.824L2.3 40.5l3.477 2.013-2.182 3.77ZM51.964 30.93a28.57 28.57 0 0 1-.183 2.533l-2.332 1.262-4.97-9.188 3.534-1.912 3.951 7.305ZM34.069 9.964l2.64 3.029-7.874 6.865-2.64-3.029 7.874-6.865Zm4.705 21.78-2.552 3.104-8.07-6.635 2.552-3.103 8.07 6.634Zm-22.02-.065 3.773-1.383-3.596-9.808-3.772 1.383 3.595 9.808Zm27.184 15.857-3.477-2.012 5.233-9.042 3.477 2.013-5.233 9.041Z" fill="#00329C"/><path d="M51.54 25.253c-5.028 3.104-10.959 5.175-17.887 6.299 7.198 3.272 11.562 6.864 15.568 10.738 2.548-5.198 3.345-11.382 2.319-17.037Z" fill="#FFBD3E"/><path d="M9.77 42.675C13.887 32.3 26.338 30.47 30.71 37.769c2.7 4.51 4.02 9.82 6.591 14.404 4.455 7.943 19.064 9.003 20.563 17.986 2.904 17.394-17.994 25.519-33.044 16.03C11.162 77.579 3.995 57.23 9.77 42.676Z" fill="#1AE69B"/><path d="M10.945 69.11a42.233 42.233 0 0 1-1.5-4.185c2.859-1.665 7.181-4.205 9.32-5.54 2.57-1.608 5.356-4.688 6.428-6.028l7.634.804c-.536.67-2.491 2.732-6.027 5.625-3.184 2.605-11.168 6.926-15.855 9.325Zm10.004 14.184c-2.746-2.404-5.137-5.305-7.102-8.51 3.915-1.503 14.09-5.714 18.98-10.98 1.684-1.814 4.86-5.53 6.948-8.596 1.593 1.45 3.55 2.647 5.585 3.772-1.606 4.804-5.388 11.315-10.926 17.28-3.363 3.62-9.38 5.923-13.485 7.034ZM53.48 63.72c2.243 1.687 3.926 3.693 4.384 6.438 2.427 14.535-11.768 22.598-25.282 19.319 5.235-4.67 9.485-9.537 12.188-12.632l.002-.002.51-.584c2.683-3.066 6.658-8.58 8.198-12.54Z" fill="#2285FF"/><path d="M48.3 60.564c4.546 2.445 8.792 4.97 9.564 9.594.637 3.811.13 7.178-1.207 10.011l-10.665-1.625 2.308-17.98Zm-9.962-6.869c-10.727 6.615-23.054 5.428-30.532-1.731.171-3.235.809-6.377 1.964-9.288 4.117-10.377 16.568-12.206 20.94-4.908 1.416 2.365 2.453 4.951 3.49 7.537.939 2.344 1.878 4.688 3.1 6.867.302.538.65 1.044 1.038 1.523Z" fill="#1F1F22"/><path d="M28.407 35.211a8.948 8.948 0 0 0-1.607-.953V51.75H7.818l-.012.214c.515.493 1.053.957 1.612 1.393H26.8v4.49c.535-.067 1.07-.151 1.607-.252v-4.238h9.668a10.71 10.71 0 0 1-.774-1.185c-.079-.14-.156-.28-.233-.422h-8.66V35.211Z" fill="#006EFF"/><path d="m48.39 59.853.162.114c3.359 2.363 6.542 4.981 7.34 9.755.67 4.022.084 7.395-1.392 10.119l-1.385-.212c1.49-2.507 2.15-5.712 1.486-9.691-.674-4.037-3.25-6.363-6.4-8.615l.19-1.47Z" fill="#FFFAEB"/><path d="M40.035 52.573a14.056 14.056 0 0 1-.576-.939c-1.212-2.16-1.8-4.035-2.402-5.954l-.054-.175c-.622-1.982-1.277-4.012-2.67-6.338-2.353-3.927-6.886-5.467-11.298-4.696-4.424.774-8.785 3.87-10.929 9.272a33.97 33.97 0 0 0-2.28 9.924c.407.302.825.59 1.253.862.19-3.503.928-6.99 2.243-10.304 1.974-4.974 5.956-7.768 9.939-8.464 3.994-.7 7.93.709 9.95 4.079 1.307 2.184 1.925 4.086 2.543 6.057l.062.198c.6 1.911 1.222 3.9 2.501 6.18.2.357.413.7.635 1.032.363-.236.724-.48 1.083-.734Z" fill="#fff"/><path fill-rule="evenodd" clip-rule="evenodd" d="M38.805 75.577c-.801 1.294-2.085 2.164-3.91 2.395-3.676.468-6.397-2.031-8.106-4.916-1.724-2.91-2.642-6.542-2.642-9.119h2c0 2.206.814 5.487 2.362 8.099 1.562 2.636 3.653 4.268 6.135 3.953 1.255-.16 1.992-.709 2.46-1.465.5-.808.746-1.944.78-3.324.06-2.467-.551-5.312-1.034-7.559-.06-.277-.118-.545-.172-.802l1.957-.413c.052.247.109.51.169.786.478 2.215 1.147 5.312 1.08 8.038-.039 1.539-.31 3.085-1.08 4.327Z" fill="#fff"/></svg>