<svg width="36" height="36" viewBox="0 0 36 36" fill="none" xmlns="http://www.w3.org/2000/svg">
<path d="M2.93334 20.1333L4.46668 18.6333L17.3833 31.5333L15.8333 33.0833C14.5333 34.3833 13.1833 35.0333 11.85 35.0333C10.5167 35.0333 9.16668 34.3833 7.86668 33.0833L2.93334 28.15C0.283345 25.4833 0.283345 22.8 2.93334 20.1333Z" fill="white"/>
<path d="M20.1833 2.88333C22.8 0.266667 25.55 0.266667 28.1667 2.88333L33.1167 7.81667C35.7167 10.4333 35.7167 13.1833 33.1167 15.8L31.5833 17.3333L18.6667 4.41667L20.1833 2.88333Z" fill="white"/>
<path d="M1.65003 4.56667C3.83336 10.0167 8.81669 17.1333 13.5667 21.7833C14.25 17.4833 17.6834 14.1167 22.0167 13.5167C17.35 8.75 10.1834 3.7 4.7167 1.5C3.75003 1.13333 2.78336 1.41667 2.18336 2.01667C1.55003 2.65 1.25003 3.6 1.65003 4.56667Z" fill="white"/>
<path d="M15.0334 23.15C15.3667 23.4333 15.7 23.7167 16.0333 23.9833L19.0167 26.3667C19.0167 26.3167 19.0334 26.25 19.0334 26.1833C19.2667 24.4 20.1 22.75 21.45 21.4C22.8167 20.0333 24.5167 19.2 26.3834 18.9667C26.4334 18.9667 26.5 18.95 26.55 18.95L24.1334 15.9C23.9 15.6 23.65 15.3167 23.3834 15.0167L22.25 15.1667C18.6667 15.6667 15.7834 18.4833 15.2167 22.05L15.0334 23.15Z" fill="white"/>
<path d="M20.6167 27.3667C20.6167 29.2 21.3167 30.95 22.65 32.2667C23.6667 33.3 25.0333 34 26.7 34.2L30.7833 34.65C33.0167 34.9 34.9333 32.9833 34.6833 30.7333L34.2333 26.6333C33.8333 22.9833 30.7833 20.65 27.55 20.5833C27.2333 20.5667 26.8833 20.5833 26.55 20.6167C25.1333 20.8 23.7667 21.45 22.6167 22.5833C21.5 23.7 20.8667 25.0167 20.6833 26.4C20.65 26.7333 20.6167 27.05 20.6167 27.3667Z" fill="white"/>
</svg>
