<svg width="34" height="33" viewBox="0 0 34 33" fill="none" xmlns="http://www.w3.org/2000/svg">
<path d="M5.35 6.85847H3.63333C1.05 6.85847 0 7.85847 0 10.3251V27.0918C0 29.5585 1.05 30.5585 3.63333 30.5585H5.35C7.93333 30.5585 8.98333 29.5585 8.98333 27.0918V10.3251C8.98333 7.85847 7.93333 6.85847 5.35 6.85847Z" fill="white"/>
<path d="M10.65 27.0418V10.1085C10.65 9.4418 10.85 8.7918 11.2167 8.2418L15.7667 1.47514C16.4834 0.391804 18.2667 -0.374862 19.7834 0.191804C21.4167 0.741804 22.5 2.57514 22.15 4.20847L21.2834 9.65847C21.2167 10.1585 21.35 10.6085 21.6334 10.9585C21.9167 11.2751 22.3334 11.4751 22.7834 11.4751H29.6334C30.95 11.4751 32.0834 12.0085 32.75 12.9418C33.3834 13.8418 33.5 15.0085 33.0834 16.1918L28.9834 28.6751C28.4667 30.7418 26.2167 32.4251 23.9834 32.4251H17.4834C16.3667 32.4251 14.8 32.0418 14.0834 31.3251L11.95 29.6751C11.1334 29.0585 10.65 28.0751 10.65 27.0418Z" fill="white"/>
</svg>
