<svg width="52" height="52" fill="none" xmlns="http://www.w3.org/2000/svg"><path fill-rule="evenodd" clip-rule="evenodd" d="M26 0C11.64 0 0 11.64 0 26s11.64 26 26 26 26-11.64 26-26S40.36 0 26 0Zm5.891 34.614 3.174-16c0-1.065-1.465-.421-1.465-.421l-17.82 6.99s-.843.288-.776.821c.066.533.754.777.754.777l4.483 1.509h.001l10.763-6.835s.622-.377.6 0c0 0 .11.066-.223.377-.333.31-8.455 7.612-8.455 7.612l-.011.099-.018-.014-.554 4.906c.247.107.474-.064.474-.064l2.895-2.64 4.514 3.46c1.22.533 1.664-.577 1.664-.577Z" fill="#282828"/></svg>