<svg width="24" height="24" fill="none" xmlns="http://www.w3.org/2000/svg"><path d="M20.547 4.84a.608.608 0 0 0-.117-.32.573.573 0 0 0-.267-.2.551.551 0 0 0-.61.163 2.91 2.91 0 0 1-1.402.905 3.854 3.854 0 0 0-4.239-.782c-.49.212-.936.521-1.311.912-.376.39-.673.853-.876 1.363a4.34 4.34 0 0 0-.307 1.607v.522c-3.419-.274-5.245-2.971-5.74-4.338a.592.592 0 0 0-.197-.271.558.558 0 0 0-.85.214c-1.196 2.487-1.38 4.901-.51 6.957.76 1.8 2.292 3.234 4.464 4.184-.987.725-2.647 1.585-4.583 1.585a.558.558 0 0 0-.341.116.594.594 0 0 0-.207.305.615.615 0 0 0 .01.372.59.59 0 0 0 .22.294c1.857 1.286 3.803 1.286 5.611 1.286h.055c5.556 0 10.057-4.683 10.057-10.458v-.568c.415-.44.738-.887.937-1.467.22-.648.265-1.398.203-2.381Z" fill="#fff"/></svg>