<svg width="24" height="24" fill="none" xmlns="http://www.w3.org/2000/svg"><path d="M21.294 6.806c.14-.465 0-.806-.662-.806h-2.193c-.558 0-.813.295-.953.619 0 0-1.115 2.719-2.695 4.482-.51.513-.743.675-1.021.675-.14 0-.341-.162-.341-.627V6.806c0-.558-.161-.806-.626-.806H9.357c-.348 0-.558.258-.558.504 0 .528.79.65.87 2.138v3.228c0 .707-.126.836-.406.836-.743 0-2.551-2.729-3.624-5.853-.21-.607-.42-.852-.98-.852H2.467c-.627 0-.752.295-.752.619 0 .582.743 3.462 3.46 7.271 1.813 2.601 4.364 4.011 6.688 4.011 1.393 0 1.565-.313 1.565-.853v-1.966c0-.626.133-.752.574-.752.324 0 .882.164 2.183 1.417 1.486 1.486 1.732 2.153 2.567 2.153h2.192c.626 0 .939-.313.759-.931-.197-.615-.907-1.51-1.85-2.569-.511-.604-1.276-1.254-1.51-1.579-.324-.419-.23-.604 0-.976.002.001 2.673-3.761 2.95-5.04Z" fill="#fff"/></svg>