<svg width="52" height="52" fill="none" xmlns="http://www.w3.org/2000/svg"><path fill-rule="evenodd" clip-rule="evenodd" d="M0 26C0 11.64 11.64 0 26 0s26 11.64 26 26-11.64 26-26 26S0 40.36 0 26Zm17.029 5.266-1.408 5.172 5.17-1.41a10.362 10.362 0 0 0 5.237 1.41c5.75 0 10.411-4.66 10.411-10.41s-4.66-10.412-10.41-10.412-10.412 4.661-10.412 10.411a10.364 10.364 0 0 0 1.412 5.239Zm4.856-10.02a1 1 0 0 1 .386-.104c.14-.01.28-.012.42-.005.056.004.112.01.168.017.166.02.348.12.41.259.31.704.611 1.413.903 2.125.064.157.026.36-.097.558a4.586 4.586 0 0 1-.274.388c-.117.15-.37.427-.37.427s-.103.123-.064.276a.96.96 0 0 0 .106.213l.062.1a6.58 6.58 0 0 0 1.062 1.32l.1.098a6.258 6.258 0 0 0 1.912 1.303l.005.002.07.03c.052.023.1.045.193.083.064.028.13.05.199.069a.364.364 0 0 0 .383-.135c.752-.912.822-.972.827-.972v.002a.503.503 0 0 1 .394-.132.519.519 0 0 1 .184.043c.553.252 1.459.646 1.459.646l.606.272c.1.05.193.165.197.276l.001.012c.003.07.008.182-.015.376-.034.27-.115.594-.196.764-.057.12-.12.201-.218.314-.114.13-.198.192-.33.29l-.014.01c-.085.064-.13.093-.13.093a4.96 4.96 0 0 1-.399.23 2.073 2.073 0 0 1-.867.24l-.101.005a4.24 4.24 0 0 1-.478.008l-.592-.09a9.835 9.835 0 0 1-3.998-2.13 12.74 12.74 0 0 1-.567-.544 55.087 55.087 0 0 0-.108-.108c-.925-.921-1.626-1.916-2.052-2.855a3.64 3.64 0 0 1-.343-1.47 2.84 2.84 0 0 1 .588-1.748l.034-.045c.064-.085.131-.173.237-.273.09-.094.194-.174.307-.238Z" fill="#282828"/></svg>