<svg width="52" height="52" fill="none" xmlns="http://www.w3.org/2000/svg"><path fill-rule="evenodd" clip-rule="evenodd" d="M0 26C0 11.64 11.64 0 26 0s26 11.64 26 26-11.64 26-26 26S0 40.36 0 26Zm36.19-5.888c.356.338.615.766.747 1.24v-.002c.35 1.773.514 3.578.488 5.385a27.7 27.7 0 0 1-.489 5.363c-.132.473-.39.902-.746 1.24a2.977 2.977 0 0 1-1.306.724c-3.047.34-6.112.494-9.177.459 0 0-7.307 0-9.165-.483a3.02 3.02 0 0 1-1.309-.725 2.759 2.759 0 0 1-.756-1.238A28.345 28.345 0 0 1 14 26.712a28.398 28.398 0 0 1 .476-5.362c.136-.47.398-.898.76-1.245a3.084 3.084 0 0 1 1.305-.742 74.767 74.767 0 0 1 9.165-.459s7.344 0 9.177.483c.49.127.939.376 1.306.725Zm-12.818 3.26v6.682l6.11-3.34-6.11-3.342Z" fill="#282828"/></svg>