<svg width="74" height="75" viewBox="0 0 74 75" fill="none" xmlns="http://www.w3.org/2000/svg">
<path id="Union" fill-rule="evenodd" clip-rule="evenodd" d="M31.8497 0C30.7149 0 29.7949 0.919962 29.7949 2.05479V25.6849C29.7949 26.8198 30.7149 27.7397 31.8497 27.7397C32.9845 27.7397 33.9045 26.8198 33.9045 25.6849V2.05479C33.9045 0.919963 32.9845 0 31.8497 0ZM59.0819 7.61702C58.2794 6.81457 56.9784 6.81457 56.1759 7.61702L39.4669 24.3261C38.6645 25.1285 38.6645 26.4295 39.4669 27.232C40.2694 28.0344 41.5704 28.0344 42.3728 27.232L59.0819 10.5229C59.8843 9.72049 59.8843 8.41947 59.0819 7.61702ZM71.9179 30.8223C73.0527 30.8223 73.9727 31.7422 73.9727 32.8771C73.9727 34.0119 73.0527 34.9319 71.9179 34.9319H48.2877C47.1529 34.9319 46.2329 34.0119 46.2329 32.8771C46.2329 31.7422 47.1529 30.8223 48.2877 30.8223L71.9179 30.8223ZM67.3009 60.1092C68.1034 59.3068 68.1034 58.0057 67.3009 57.2033L50.5919 40.4943C49.7895 39.6918 48.4884 39.6918 47.686 40.4943C46.8836 41.2967 46.8836 42.5977 47.686 43.4002L64.395 60.1092C65.1975 60.9117 66.4985 60.9117 67.3009 60.1092ZM44.1777 72.9452C44.1777 74.08 43.2578 75 42.1229 75C40.9881 75 40.0681 74.08 40.0681 72.9452V49.3151C40.0681 48.1802 40.9881 47.2603 42.1229 47.2603C43.2578 47.2603 44.1777 48.1802 44.1777 49.3151L44.1777 72.9452ZM14.8088 67.3009C15.6113 68.1033 16.9123 68.1033 17.7147 67.3009L34.4238 50.5919C35.2262 49.7894 35.2262 48.4884 34.4238 47.6859C33.6213 46.8835 32.3203 46.8835 31.5178 47.6859L14.8088 64.395C14.0064 65.1974 14.0064 66.4984 14.8088 67.3009ZM2.05479 45.2051C0.919962 45.2051 0 44.2851 0 43.1503C0 42.0155 0.919963 41.0955 2.0548 41.0955L25.6849 41.0955C26.8198 41.0955 27.7397 42.0155 27.7397 43.1503C27.7397 44.2851 26.8198 45.2051 25.6849 45.2051L2.05479 45.2051ZM6.58968 15.8361C5.78723 16.6385 5.78723 17.9396 6.58968 18.742L23.2987 35.451C24.1012 36.2535 25.4022 36.2535 26.2046 35.451C27.0071 34.6486 27.0071 33.3476 26.2046 32.5451L9.4956 15.8361C8.69315 15.0337 7.39213 15.0337 6.58968 15.8361Z" fill="white"/>
</svg>
