<svg width="121" height="160" viewBox="0 0 121 160" fill="none" xmlns="http://www.w3.org/2000/svg">
<circle cx="80" cy="80" r="80" fill="#FAD85D"/>
<path d="M86.39 70.0974L83.6133 67.3208C81.63 65.3374 78.3716 65.3374 76.3883 67.3208L73.6116 70.0974C73.0591 70.6499 73.0591 71.5566 73.6116 72.1091L79.0091 77.5066C79.5616 78.0591 80.4541 78.0591 81.0066 77.5066L86.4041 72.1091C86.9425 71.5566 86.9425 70.6499 86.39 70.0974Z" fill="white"/>
<path d="M70.0982 73.6109L67.3215 76.3876C65.3382 78.3709 65.3382 81.6292 67.3215 83.6126L70.0982 86.3892C70.6507 86.9417 71.5432 86.9417 72.0957 86.3892L77.4932 80.9917C78.0457 80.4392 78.0457 79.5467 77.4932 78.9942L72.1098 73.6109C71.5573 73.0584 70.6507 73.0584 70.0982 73.6109Z" fill="white"/>
<path d="M92.6798 76.3876L89.9031 73.6109C89.3506 73.0584 88.4581 73.0584 87.9056 73.6109L82.5081 79.0084C81.9556 79.5609 81.9556 80.4534 82.5081 81.0059L87.9056 86.4034C88.4581 86.9559 89.3506 86.9559 89.9031 86.4034L92.6798 83.6267C94.6631 81.6292 94.6631 78.3709 92.6798 76.3876Z" fill="white"/>
<path d="M73.6115 89.9026L76.3881 92.6793C78.3715 94.6626 81.6298 94.6626 83.6131 92.6793L86.3898 89.9026C86.9423 89.3501 86.9423 88.4576 86.3898 87.9051L80.9923 82.5076C80.4398 81.9551 79.5473 81.9551 78.9948 82.5076L73.5973 87.9051C73.059 88.4435 73.059 89.3501 73.6115 89.9026Z" fill="white"/>
<path d="M129.916 126.076L129.625 126.38C128.989 127.044 128.383 127.378 127.808 127.381C127.233 127.384 126.623 127.077 125.977 126.459L124.215 124.772L125.722 123.197L127.268 124.677C127.692 125.083 128.051 125.131 128.346 124.823C128.522 124.64 128.584 124.46 128.533 124.282C128.482 124.104 128.321 123.886 128.052 123.627L127.849 123.434C127.541 123.139 127.235 122.928 126.93 122.803C126.626 122.678 126.171 122.584 125.566 122.522L123.227 122.276C122.376 122.181 121.703 122.026 121.208 121.81C120.723 121.604 120.181 121.215 119.584 120.643L119.237 120.311C117.562 118.707 117.397 117.202 118.743 115.796L119.047 115.478C120.32 114.149 121.635 114.134 122.993 115.434L125.145 117.495L123.596 119.113L121.718 117.315C121.217 116.836 120.796 116.774 120.455 117.13C120.271 117.323 120.209 117.522 120.27 117.729C120.332 117.954 120.531 118.227 120.868 118.55L121.114 118.785C121.509 119.163 121.849 119.415 122.135 119.541C122.42 119.667 122.894 119.77 123.556 119.849L125.881 120.082C126.647 120.169 127.287 120.329 127.801 120.563C128.316 120.816 128.848 121.205 129.397 121.731L129.743 122.063C131.14 123.4 131.197 124.738 129.916 126.076Z" fill="white"/>
<path d="M124.917 130.938L120.151 134.65L118.824 132.945L120.323 131.778L112.507 121.743L114.274 120.366L122.09 130.402L123.589 129.234L124.917 130.938Z" fill="white"/>
<path d="M100.725 128.734L102.101 131.191L103.628 130.539L102.785 127.854L104.642 127.06L108.816 141.458L106.352 142.511L98.7204 129.591L100.725 128.734ZM105.908 137.96L104.279 132.674L103.194 133.138L105.908 137.96Z" fill="white"/>
<path d="M98.1391 143.324L97.0968 139.359L96.5165 139.511C95.9878 139.65 95.8133 140.062 95.9929 140.745L96.5217 142.757C96.6099 143.092 96.7242 143.317 96.8646 143.432C97.005 143.547 97.2365 143.562 97.5588 143.477L98.1391 143.324ZM96.5578 137.309L94.8698 130.887L97.0555 130.312L100.838 144.703L97.2987 145.634C96.5507 145.83 95.9569 145.8 95.5172 145.544C95.068 145.303 94.7384 144.783 94.5282 143.984L93.857 141.431C93.6028 140.464 93.7577 139.768 94.3218 139.344C93.6154 139.226 93.1622 138.787 92.9622 138.026L91.6351 132.978C91.53 132.578 91.3659 132.242 91.1427 131.97L91.1173 131.873L93.2837 131.304C93.4865 131.499 93.6608 131.873 93.8066 132.428L94.9455 136.76C95.0337 137.096 95.1463 137.314 95.2833 137.416C95.4238 137.531 95.6616 137.544 95.9969 137.456L96.5578 137.309Z" fill="white"/>
<path d="M91.4713 147.054L85.469 147.728L85.2281 145.581L87.1162 145.369L85.6973 132.729L87.9233 132.479L89.3423 145.119L91.2304 144.907L91.4713 147.054Z" fill="white"/>
<path d="M67.9167 138.939L59.623 136.59L60.0481 135.089L68.3418 137.438L67.9167 138.939Z" fill="white"/>
<path d="M39.9649 132.845L42.496 129.62L42.024 129.249C41.594 128.912 41.1608 129.021 40.7246 129.577L39.4405 131.213C39.2264 131.486 39.1161 131.713 39.1095 131.894C39.1029 132.075 39.2307 132.269 39.4929 132.475L39.9649 132.845ZM43.8048 127.952L47.9041 122.728L49.682 124.124L40.4957 135.829L37.6165 133.57C37.0081 133.093 36.6734 132.601 36.6125 132.096C36.5328 131.592 36.7481 131.016 37.2585 130.365L38.8883 128.289C39.5057 127.502 40.1536 127.205 40.8322 127.399C40.4994 126.765 40.5757 126.138 41.0614 125.519L44.284 121.413C44.5392 121.088 44.7078 120.754 44.79 120.412L44.8517 120.333L46.6139 121.716C46.5811 121.995 46.3878 122.36 46.0338 122.812L43.2681 126.336C43.054 126.609 42.9478 126.83 42.9494 127.001C42.9428 127.182 43.0758 127.38 43.3486 127.594L43.8048 127.952Z" fill="white"/>
<path d="M32.8024 129.579L29.2345 125.879L30.7894 124.38L32.7885 126.453L35.5959 123.746L34.0271 122.119L35.6539 120.55L37.2227 122.177L40.318 119.192L38.2356 117.033L39.8624 115.464L43.5136 119.25L32.8024 129.579Z" fill="white"/>
<path d="M25.7537 116.303L32.4479 111.396C34.0717 110.206 35.4089 110.102 36.4595 111.084L38.2643 108.472L39.8605 110.65L37.4732 112.4C38.2578 113.808 37.8006 115.135 36.1015 116.381L29.4234 121.276C27.5846 122.624 26.0936 122.518 24.9507 120.959L24.726 120.652C24.1111 119.814 23.9102 119.043 24.1233 118.342C24.3284 117.629 24.8719 116.95 25.7537 116.303ZM33.9367 113.157L27.0328 118.218C26.4199 118.667 26.2671 119.101 26.5745 119.521C26.8898 119.951 27.3539 119.941 27.9669 119.492L34.8708 114.431C35.4837 113.982 35.6286 113.537 35.3054 113.096C35.0059 112.687 34.5496 112.708 33.9367 113.157Z" fill="white"/>
<path d="M31.3268 109.708L21.0527 115.179L19.9717 113.149L30.3693 107.612C30.9931 107.28 31.1921 106.902 30.9665 106.478C30.7346 106.043 30.3068 105.991 29.6831 106.323L19.2854 111.86L18.2044 109.83L28.4785 104.359C30.4909 103.287 31.9421 103.587 32.832 105.258L33.02 105.611C33.9037 107.27 33.3393 108.636 31.3268 109.708Z" fill="white"/>
<path d="M16.5508 106.366L14.7813 101.54L16.8092 100.796L17.8007 103.5L21.4623 102.158L20.6843 100.036L22.8061 99.2576L23.5842 101.379L27.6213 99.8991L26.5885 97.0825L28.7104 96.3045L30.5212 101.243L16.5508 106.366Z" fill="white"/>
<path d="M12.8547 95.281L12.7665 94.8704C12.5735 93.9708 12.6371 93.2822 12.9573 92.8044C13.2775 92.3265 13.8744 91.9939 14.7478 91.8065L17.1335 91.2945L17.5909 93.426L15.4985 93.875C14.9249 93.9981 14.6829 94.2682 14.7724 94.6854C14.8255 94.9331 14.9401 95.0858 15.1161 95.1435C15.2922 95.2012 15.5627 95.1908 15.9277 95.1125L16.2015 95.0538C16.6186 94.9642 16.9646 94.8286 17.2392 94.647C17.5139 94.4653 17.8467 94.1416 18.2377 93.6759L19.7542 91.8777C20.3099 91.2266 20.8159 90.7566 21.2721 90.4678C21.7153 90.1818 22.3411 89.952 23.1493 89.7786L23.6186 89.6779C25.887 89.1911 27.2254 89.8994 27.6338 91.8027L27.7262 92.233C28.1122 94.032 27.3862 95.1287 25.548 95.5232L22.6343 96.1484L22.1644 93.9583L24.7065 93.4128C25.3844 93.2673 25.6716 92.9534 25.5681 92.471C25.5121 92.2103 25.3817 92.0474 25.1768 91.9823C24.9561 91.9069 24.6176 91.9182 24.1613 92.0161L23.8289 92.0874C23.2944 92.2021 22.8949 92.3424 22.6305 92.5082C22.3661 92.674 22.0151 93.0085 21.5775 93.5115L20.0806 95.3055C19.5789 95.8904 19.0868 96.3301 18.6045 96.6245C18.1064 96.9087 17.4858 97.1305 16.7427 97.29L16.2734 97.3907C14.3831 97.7963 13.2435 97.0931 12.8547 95.281Z" fill="white"/>
<path d="M11.6271 88.4227L11.2312 82.3956L13.3866 82.2541L13.5111 84.15L26.2038 83.3163L26.3506 85.5515L13.6579 86.3852L13.7824 88.2811L11.6271 88.4227Z" fill="white"/>
<path d="M27.0067 69.5724L24.201 69.3318L23.8838 70.9612L26.5787 71.7711L26.1926 73.7539L11.9347 69.1237L12.4469 66.4931L27.4234 67.4326L27.0067 69.5724ZM16.4628 68.6809L21.7506 70.3013L21.9761 69.1431L16.4628 68.6809Z" fill="white"/>
<path d="M16.4001 59.1327L20.2652 60.5007L20.4654 59.935C20.6478 59.4197 20.4059 59.0441 19.7397 58.8084L17.7789 58.1143C17.4521 57.9987 17.2018 57.9666 17.028 58.0183C16.8541 58.0699 16.7116 58.2528 16.6003 58.567L16.4001 59.1327ZM22.2637 61.208L28.5232 63.4235L27.7691 65.554L13.7418 60.5891L14.963 57.1389C15.2211 56.4099 15.5798 55.9357 16.0393 55.7165C16.4907 55.4802 17.106 55.5 17.8853 55.7758L20.374 56.6567C21.3167 56.9903 21.8047 57.5096 21.8381 58.2145C22.3327 57.6965 22.9507 57.5687 23.6923 57.8312L28.6132 59.5729C29.0028 59.7108 29.3729 59.764 29.7235 59.7325L29.8178 59.7659L29.0704 61.8775C28.7952 61.9357 28.3874 61.8691 27.8469 61.6778L23.6236 60.183C23.2968 60.0674 23.0528 60.0376 22.8915 60.0936C22.7177 60.1452 22.5729 60.3345 22.4572 60.6613L22.2637 61.208Z" fill="white"/>
<path d="M17.0234 51.5686L19.8426 46.2269L21.7528 47.2351L20.866 48.9155L32.1154 54.8526L31.0699 56.8336L19.8205 50.8965L18.9336 52.5768L17.0234 51.5686Z" fill="white"/>
<path d="M36.8595 36.7247L43.4627 31.1837L44.4655 32.3787L37.8623 37.9197L36.8595 36.7247Z" fill="white"/>
<path d="M57.5976 16.9155L58.8485 20.82L59.4199 20.6369C59.9405 20.4701 60.093 20.0503 59.8774 19.3773L59.2428 17.3965C59.137 17.0663 59.0109 16.8477 58.8646 16.7406C58.7183 16.6334 58.4864 16.6307 58.169 16.7324L57.5976 16.9155ZM59.4953 22.8389L61.5211 29.1623L59.3689 29.8518L54.829 15.6813L58.3145 14.5646C59.051 14.3287 59.6455 14.3272 60.0982 14.5602C60.5595 14.7765 60.9163 15.2782 61.1685 16.0655L61.9739 18.5796C62.279 19.5319 62.1612 20.2347 61.6204 20.688C62.332 20.768 62.8079 21.1826 63.0479 21.9317L64.6405 26.9029C64.7666 27.2965 64.9483 27.6233 65.1856 27.8833L65.2161 27.9785L63.083 28.6619C62.8701 28.4781 62.6761 28.1132 62.5012 27.5672L61.1344 23.3008C61.0286 22.9707 60.9046 22.7584 60.7623 22.664C60.616 22.5569 60.3778 22.5562 60.0476 22.6619L59.4953 22.8389Z" fill="white"/>
<path d="M64.1446 12.844L69.2077 11.9583L69.5799 14.086L66.743 14.5823L67.415 18.4239L69.6412 18.0345L70.0306 20.2607L67.8044 20.6501L68.5453 24.8858L71.5005 24.3689L71.8899 26.5951L66.7085 27.5014L64.1446 12.844Z" fill="white"/>
<path d="M78.8842 14.4307L79.2045 22.7245C79.2822 24.7364 78.62 25.9028 77.218 26.2238L78.373 29.1814L75.675 29.2856L75.5608 26.3278C73.9543 26.1897 73.1104 25.0681 73.0291 22.963L72.7096 14.6891C72.6216 12.4108 73.5436 11.2344 75.4755 11.1598L75.8552 11.1451C76.8944 11.105 77.6452 11.3696 78.1075 11.9388C78.5832 12.5076 78.8421 13.3382 78.8842 14.4307ZM76.9124 22.9732L76.5821 14.4195C76.5528 13.6601 76.2783 13.2904 75.7587 13.3105C75.2258 13.331 74.974 13.7211 75.0033 14.4805L75.3335 23.0341C75.3629 23.7935 75.6507 24.1627 76.1969 24.1416C76.7032 24.1221 76.9417 23.7326 76.9124 22.9732Z" fill="white"/>
<path d="M81.9117 22.7337L83.2102 11.1663L85.4958 11.4229L84.1817 23.1294C84.1029 23.8316 84.302 24.2095 84.779 24.2631C85.2692 24.3181 85.5538 23.9945 85.6326 23.2922L86.9467 11.5858L89.2324 11.8423L87.9339 23.4097C87.6795 25.6754 86.6116 26.7027 84.7301 26.4915L84.3326 26.4469C82.4643 26.2372 81.6574 24.9994 81.9117 22.7337Z" fill="white"/>
<path d="M93.063 12.4306L98.0439 13.6996L97.5107 15.7927L94.7198 15.0817L93.757 18.861L95.9471 19.4189L95.3891 21.609L93.1991 21.051L92.1375 25.218L95.0447 25.9586L94.4867 28.1486L89.3895 26.8501L93.063 12.4306Z" fill="white"/>
<path d="M103.947 15.4995L104.336 15.6573C105.189 16.003 105.723 16.4425 105.938 16.9758C106.154 17.5092 106.094 18.1898 105.758 19.0177L104.841 21.2789L102.821 20.4598L103.625 18.4766C103.845 17.9329 103.758 17.5809 103.362 17.4206C103.128 17.3254 102.937 17.3344 102.79 17.4476C102.644 17.5608 102.5 17.7904 102.36 18.1364L102.255 18.3959C102.095 18.7913 102.012 19.1536 102.008 19.4829C102.004 19.8122 102.085 20.2694 102.251 20.8545L102.886 23.1193C103.113 23.9448 103.217 24.6274 103.2 25.1671C103.188 25.6944 103.026 26.3411 102.715 27.1072L102.535 27.5521C101.663 29.7021 100.325 30.4113 98.5215 29.6799L98.1137 29.5146C96.4085 28.8232 95.9091 27.6064 96.6155 25.8642L97.7352 23.1025L99.8111 23.9442L98.8342 26.3537C98.5737 26.9962 98.672 27.4102 99.1292 27.5955C99.3763 27.6957 99.5844 27.6794 99.7534 27.5464C99.9397 27.4062 100.121 27.1198 100.296 26.6874L100.424 26.3723C100.629 25.8657 100.737 25.4564 100.749 25.1445C100.76 24.8326 100.681 24.3543 100.51 23.7098L99.8673 21.4635C99.6653 20.7198 99.578 20.0657 99.6054 19.5013C99.6501 18.9296 99.8153 18.2916 100.101 17.5873L100.281 17.1424C101.008 15.3508 102.23 14.8031 103.947 15.4995Z" fill="white"/>
<path d="M110.201 18.2523L115.413 21.3052L114.321 23.169L112.681 22.2086L106.252 33.1841L104.319 32.0519L110.749 21.0764L109.109 20.116L110.201 18.2523Z" fill="white"/>
<path d="M117.313 41.6501L119.089 39.4645L117.92 38.2865L115.735 40.0605L114.312 38.6269L126.154 29.4351L128.042 31.337L118.849 43.1972L117.313 41.6501ZM123.976 33.4294L119.664 36.8927L120.496 37.7302L123.976 33.4294Z" fill="white"/>
<path d="M131.921 38.7414L128.623 41.1773L128.979 41.6599C129.304 42.0997 129.751 42.1096 130.319 41.6897L131.992 40.4539C132.271 40.248 132.438 40.0585 132.492 39.8856C132.547 39.7126 132.475 39.4921 132.277 39.224L131.921 38.7414ZM126.918 42.4369L121.577 46.382L120.234 44.5641L132.203 35.7233L134.377 38.6673C134.837 39.2893 135.029 39.8521 134.953 40.3555C134.896 40.8618 134.535 41.3605 133.87 41.8517L131.747 43.4202C130.942 44.0143 130.239 44.1279 129.636 43.7608C129.788 44.4606 129.548 45.0442 128.915 45.5116L124.716 48.613C124.384 48.8586 124.133 49.1354 123.962 49.4435L123.882 49.5029L122.551 47.7011C122.657 47.4406 122.941 47.14 123.402 46.7993L127.005 44.1376C127.284 43.9316 127.445 43.7461 127.489 43.5811C127.544 43.4082 127.468 43.1823 127.262 42.9034L126.918 42.4369Z" fill="white"/>
</svg>
