<svg width="64" height="64" viewBox="0 0 64 64" fill="none" xmlns="http://www.w3.org/2000/svg">
<circle cx="32" cy="32" r="32" fill="#39393E"/>
<path d="M36.5098 25.01L34.5498 23.05C33.1498 21.65 30.8498 21.65 29.4498 23.05L27.4898 25.01C27.0998 25.4 27.0998 26.04 27.4898 26.43L31.2998 30.24C31.6898 30.63 32.3198 30.63 32.7098 30.24L36.5198 26.43C36.8998 26.04 36.8998 25.4 36.5098 25.01Z" fill="white"/>
<path d="M25.01 27.49L23.05 29.45C21.65 30.85 21.65 33.15 23.05 34.55L25.01 36.51C25.4 36.9 26.03 36.9 26.42 36.51L30.23 32.7C30.62 32.31 30.62 31.68 30.23 31.29L26.43 27.49C26.04 27.1 25.4 27.1 25.01 27.49Z" fill="white"/>
<path d="M40.9491 29.45L38.9891 27.49C38.5991 27.1 37.9691 27.1 37.5791 27.49L33.7691 31.3C33.3791 31.69 33.3791 32.32 33.7691 32.71L37.5791 36.52C37.9691 36.91 38.5991 36.91 38.9891 36.52L40.9491 34.56C42.3491 33.15 42.3491 30.85 40.9491 29.45Z" fill="white"/>
<path d="M27.4891 38.99L29.4491 40.95C30.8491 42.35 33.1491 42.35 34.5491 40.95L36.5091 38.99C36.8991 38.6 36.8991 37.97 36.5091 37.58L32.6991 33.77C32.3091 33.38 31.6791 33.38 31.2891 33.77L27.4791 37.58C27.0991 37.96 27.0991 38.6 27.4891 38.99Z" fill="white"/>
</svg>
