<svg width="16" height="16" viewBox="0 0 16 16" fill="none" xmlns="http://www.w3.org/2000/svg">
<g id="Icons 16px">
<path id="Ellipse (Stroke)" fill-rule="evenodd" clip-rule="evenodd" d="M8 16C12.4183 16 16 12.4183 16 8C16 3.58172 12.4183 0 8 0C3.58172 0 0 3.58172 0 8C0 12.4183 3.58172 16 8 16Z" fill="#FF1212"/>
<g id="Vector">
<path d="M7.42871 4.57143C7.42871 4.25584 7.68455 4 8.00014 4C8.31573 4 8.57157 4.25584 8.57157 4.57143V5.14286C8.57157 5.45845 8.31573 5.71429 8.00014 5.71429C7.68455 5.71429 7.42871 5.45845 7.42871 5.14286V4.57143Z" fill="white"/>
<path d="M8.00014 6.85714C7.68455 6.85714 7.42871 7.11298 7.42871 7.42857V11.4286C7.42871 11.7442 7.68455 12 8.00014 12C8.31573 12 8.57157 11.7442 8.57157 11.4286V7.42857C8.57157 7.11298 8.31573 6.85714 8.00014 6.85714Z" fill="white"/>
</g>
</g>
</svg>
