<svg width="24" height="18" viewBox="0 0 24 18" fill="none" xmlns="http://www.w3.org/2000/svg">
<path d="M17.6951 7.995C18.1451 8.895 18.3776 9.8625 18.3776 10.875C18.3776 14.3925 15.5201 17.25 12.0026 17.25C8.48512 17.25 5.62762 14.3925 5.62762 10.875C5.62762 7.3575 8.48512 4.5 12.0026 4.5C12.0551 4.5 12.1826 4.5 12.3176 4.545C12.5726 4.6275 12.7601 4.845 12.8126 5.1075C13.1276 6.615 14.4701 7.7175 16.0151 7.7175C16.3001 7.7175 16.5776 7.68 16.8176 7.6125C17.1701 7.515 17.5301 7.68 17.6951 7.995ZM12.0026 0.75C6.87262 0.75 1.61512 5.25 0.760119 10.3725C0.692619 10.7775 0.970119 11.1675 1.37512 11.235C1.78012 11.3025 2.17012 11.025 2.23762 10.62C2.90512 6.6675 7.21762 2.25 12.0026 2.25C16.7876 2.25 21.1001 6.6675 21.7601 10.62C21.8201 10.9875 22.1426 11.25 22.5026 11.25C22.5401 11.25 22.5851 11.25 22.6301 11.2425C23.0351 11.175 23.3126 10.785 23.2451 10.38C22.3901 5.25 17.1326 0.75 12.0026 0.75Z" fill="white"/>
</svg>
