<svg width="20" height="20" viewBox="0 0 20 20" fill="none" xmlns="http://www.w3.org/2000/svg">
<g id="vuesax/bold/filter">
<g id="filter">
<path id="Vector" d="M17.1658 3.41667V5.25C17.1658 5.91667 16.7491 6.75 16.3324 7.16667L12.7491 10.3333C12.2491 10.75 11.9158 11.5833 11.9158 12.25V15.8333C11.9158 16.3333 11.5824 17 11.1658 17.25L9.99909 18C8.91576 18.6667 7.41576 17.9167 7.41576 16.5833V12.1667C7.41576 11.5833 7.08242 10.8333 6.74909 10.4167L6.35742 10.0083C6.09909 9.73333 6.04909 9.31667 6.25742 8.99167L10.5241 2.14167C10.6741 1.9 10.9408 1.75 11.2324 1.75L15.4991 1.75C16.4158 1.75 17.1658 2.5 17.1658 3.41667Z" fill="#1F1F22"/>
<path id="Vector_2" d="M8.62565 3.025L5.66732 7.76667C5.38398 8.225 4.73398 8.29167 4.35898 7.9L3.58398 7.08333C3.16732 6.66667 2.83398 5.91667 2.83398 5.41667L2.83398 3.5C2.83398 2.5 3.58398 1.75 4.50065 1.75L7.91732 1.75C8.56732 1.75 8.96732 2.46667 8.62565 3.025Z" fill="#1F1F22"/>
</g>
</g>
</svg>
