<svg width="72" height="87" viewBox="0 0 72 87" fill="none" xmlns="http://www.w3.org/2000/svg">
<path d="M70.5 36C70.5 45.473 65.838 55.4029 58.9402 64.2859C52.2823 72.8601 43.6597 80.3033 35.554 85.2204C27.4023 79.5993 18.9923 72.1353 12.5666 63.7322C5.9218 55.0426 1.5 45.4839 1.5 36C1.5 16.9462 16.9462 1.5 36 1.5C55.0538 1.5 70.5 16.9462 70.5 36Z" fill="#1F1F22" stroke="white" stroke-width="3"/>
<path d="M11.52 31.808V36H9.552V24.8C10.1067 24.8 10.7093 24.7947 11.36 24.784C12.0107 24.7733 12.544 24.768 12.96 24.768C15.6693 24.768 17.024 25.92 17.024 28.224C17.024 29.0773 16.8053 29.7813 16.368 30.336C15.9307 30.8693 15.4293 31.232 14.864 31.424L18.368 36H15.984L12.896 31.808H11.52ZM12.864 26.608C12.8107 26.608 12.7253 26.6133 12.608 26.624C12.4907 26.624 12.3253 26.6293 12.112 26.64C11.8987 26.64 11.7013 26.64 11.52 26.64V29.968H12.8C13.4293 29.968 13.9413 29.8133 14.336 29.504C14.7413 29.1947 14.944 28.7733 14.944 28.24C14.944 27.152 14.2507 26.608 12.864 26.608ZM24.547 33.984L25.075 35.28C24.3603 35.8773 23.443 36.176 22.323 36.176C21.171 36.176 20.2323 35.8293 19.507 35.136C18.803 34.4533 18.451 33.5413 18.451 32.4C18.451 31.3333 18.7977 30.4373 19.491 29.712C20.1843 28.9867 21.107 28.624 22.259 28.624C23.2083 28.624 24.0137 28.9387 24.675 29.568C25.3363 30.1973 25.667 30.9973 25.667 31.968C25.667 32.3947 25.6297 32.7253 25.555 32.96H20.355C20.4297 33.4827 20.659 33.8933 21.043 34.192C21.4377 34.4907 21.9283 34.64 22.515 34.64C23.315 34.64 23.9923 34.4213 24.547 33.984ZM22.179 30.16C21.1337 30.16 20.5043 30.6827 20.291 31.728H23.827C23.8377 31.2693 23.6883 30.896 23.379 30.608C23.0803 30.3093 22.6803 30.16 22.179 30.16ZM34.0141 39.2H32.1741V35.632C31.6195 35.9947 31.0275 36.176 30.3981 36.176C29.2568 36.176 28.3448 35.8347 27.6621 35.152C26.9901 34.4587 26.6541 33.5413 26.6541 32.4C26.6541 31.3227 27.0435 30.4267 27.8221 29.712C28.6115 28.9867 29.5981 28.624 30.7821 28.624C32.0195 28.624 33.0968 28.912 34.0141 29.488V39.2ZM30.6381 34.464C31.2568 34.464 31.7688 34.2453 32.1741 33.808V30.704C31.6941 30.4693 31.2248 30.352 30.7661 30.352C30.1048 30.352 29.5821 30.5547 29.1981 30.96C28.8141 31.3547 28.6221 31.8613 28.6221 32.48C28.6221 33.056 28.8035 33.5307 29.1661 33.904C29.5395 34.2773 30.0301 34.464 30.6381 34.464ZM40.7116 28.8H42.5516V36H40.7116V35.12C40.1356 35.824 39.3676 36.176 38.4076 36.176C37.6396 36.176 37.0263 35.92 36.5676 35.408C36.109 34.896 35.8796 34.16 35.8796 33.2V28.8H37.7196V32.816C37.7196 33.9147 38.1783 34.464 39.0956 34.464C39.725 34.464 40.2636 34.1707 40.7116 33.584V28.8ZM50.2501 33.984L50.7781 35.28C50.0635 35.8773 49.1461 36.176 48.0261 36.176C46.8741 36.176 45.9355 35.8293 45.2101 35.136C44.5061 34.4533 44.1541 33.5413 44.1541 32.4C44.1541 31.3333 44.5008 30.4373 45.1941 29.712C45.8875 28.9867 46.8101 28.624 47.9621 28.624C48.9115 28.624 49.7168 28.9387 50.3781 29.568C51.0395 30.1973 51.3701 30.9973 51.3701 31.968C51.3701 32.3947 51.3328 32.7253 51.2581 32.96H46.0581C46.1328 33.4827 46.3621 33.8933 46.7461 34.192C47.1408 34.4907 47.6315 34.64 48.2181 34.64C49.0181 34.64 49.6955 34.4213 50.2501 33.984ZM47.8821 30.16C46.8368 30.16 46.2075 30.6827 45.9941 31.728H49.5301C49.5408 31.2693 49.3915 30.896 49.0821 30.608C48.7835 30.3093 48.3835 30.16 47.8821 30.16ZM52.6121 30.816C52.6121 30.144 52.8575 29.6107 53.3481 29.216C53.8388 28.8213 54.4735 28.624 55.2521 28.624C56.4255 28.624 57.3375 28.928 57.9881 29.536L57.3001 30.848C56.7135 30.3893 56.0628 30.16 55.3481 30.16C55.0921 30.16 54.8788 30.224 54.7081 30.352C54.5375 30.4693 54.4521 30.6133 54.4521 30.784C54.4521 31.136 54.9055 31.4293 55.8121 31.664C56.1428 31.7387 56.4361 31.824 56.6921 31.92C56.9481 32.0053 57.2095 32.1333 57.4761 32.304C57.7535 32.464 57.9668 32.6773 58.1161 32.944C58.2655 33.2107 58.3401 33.52 58.3401 33.872C58.3401 34.576 58.0735 35.136 57.5401 35.552C57.0175 35.968 56.3135 36.176 55.4281 36.176C54.7988 36.176 54.1855 36.0427 53.5881 35.776C52.9801 35.4987 52.5908 35.2213 52.4201 34.944L53.3161 33.744C53.5188 33.9893 53.8548 34.1973 54.3241 34.368C54.8041 34.5493 55.2148 34.64 55.5561 34.64C55.9721 34.6827 56.2655 34.5493 56.4361 34.24C56.6068 33.92 56.4948 33.6587 56.1001 33.456C55.9401 33.3707 55.6895 33.28 55.3481 33.184C55.0175 33.088 54.7081 32.992 54.4201 32.896C54.1428 32.7893 53.8548 32.656 53.5561 32.496C53.2681 32.336 53.0388 32.1173 52.8681 31.84C52.6975 31.552 52.6121 31.2107 52.6121 30.816ZM59.8015 33.264V26.8H61.6415V28.8H63.9615V30.528H61.6415V33.152C61.6415 34.016 61.9295 34.448 62.5055 34.448C62.8682 34.448 63.2362 34.3093 63.6095 34.032L64.1695 35.456C63.5828 35.9253 62.8735 36.16 62.0415 36.16C61.2628 36.16 60.6922 35.9253 60.3295 35.456C59.9775 34.976 59.8015 34.2453 59.8015 33.264Z" fill="white"/>
<path d="M22.096 54H20.112L24.848 42.768H26.576L31.312 54H29.216L28.048 51.136H23.264L22.096 54ZM27.296 49.296L25.664 45.312L24.016 49.296H27.296ZM34.9575 49.808V54H32.9895V42.8C33.5442 42.8 34.1468 42.7947 34.7975 42.784C35.4482 42.7733 35.9815 42.768 36.3975 42.768C39.1068 42.768 40.4615 43.92 40.4615 46.224C40.4615 47.0773 40.2428 47.7813 39.8055 48.336C39.3682 48.8693 38.8668 49.232 38.3015 49.424L41.8055 54H39.4215L36.3335 49.808H34.9575ZM36.3015 44.608C36.2482 44.608 36.1628 44.6133 36.0455 44.624C35.9282 44.624 35.7628 44.6293 35.5495 44.64C35.3362 44.64 35.1388 44.64 34.9575 44.64V47.968H36.2375C36.8668 47.968 37.3788 47.8133 37.7735 47.504C38.1788 47.1947 38.3815 46.7733 38.3815 46.24C38.3815 45.152 37.6882 44.608 36.3015 44.608ZM45.1826 44.64H41.5506V42.8H50.7826V44.64H47.1506V54H45.1826V44.64Z" fill="#C9FB40"/>
</svg>
