<svg width="16" height="16" viewBox="0 0 16 16" fill="none" xmlns="http://www.w3.org/2000/svg">
<g id="Icons 16px">
<path id="Ellipse" d="M16 8C16 12.4183 12.4183 16 8 16C3.58172 16 0 12.4183 0 8C0 3.58172 3.58172 0 8 0C12.4183 0 16 3.58172 16 8Z" fill="#C9FB40"/>
<path id="Vector" fill-rule="evenodd" clip-rule="evenodd" d="M12.4754 4.76717C12.6901 4.92975 12.7297 5.2321 12.5638 5.4425L7.41773 11.9694C7.14885 12.3104 6.63703 12.3462 6.32148 12.046L3.48211 9.34509C3.28743 9.1599 3.28279 8.85511 3.47174 8.66431C3.66069 8.47351 3.97168 8.46897 4.16636 8.65415L6.80844 11.1674L11.7864 4.85375C11.9523 4.64336 12.2608 4.60459 12.4754 4.76717Z" fill="#1F1F22"/>
</g>
</svg>
