<svg width="31" height="31" fill="none" xmlns="http://www.w3.org/2000/svg"><path d="M30.833 4v4.5c0 3.067-.933 4-4 4h-4.5c-3.066 0-4-.933-4-4V4c0-3.067.934-4 4-4h4.5c3.067 0 4 .933 4 4ZM12.5 22.333v4.5c0 3.067-.933 4-4 4H4c-3.067 0-4-.933-4-4v-4.5c0-3.066.933-4 4-4h4.5c3.067 0 4 .934 4 4Z" fill="#fff"/><path d="M22.333 15a.8.8 0 0 1 .8.8v2.317c0 3.8-1.216 5.017-5.016 5.017H15.8a.8.8 0 0 1-.8-.8c0-4.434-2.067-6.5-6.5-6.5a.8.8 0 0 1-.8-.8v-2.317c0-3.8 1.217-5.017 5.017-5.017h2.316a.8.8 0 0 1 .8.8l-.033.78c0 4.434 2.1 5.72 6.533 5.72Z" fill="#fff"/></svg>