<svg width="34" height="34" fill="none" xmlns="http://www.w3.org/2000/svg"><path d="m24.183 5.033-3.266-3.277c-2.334-2.341-6.167-2.341-8.5 0L9.15 5.033a1.689 1.689 0 0 0 0 2.374l6.35 6.37c.65.652 1.7.652 2.35 0l6.35-6.37a1.705 1.705 0 0 0-.017-2.374ZM5.017 9.179 1.75 12.456c-2.333 2.34-2.333 6.186 0 8.527l3.267 3.277c.65.652 1.7.652 2.35 0l6.35-6.37a1.67 1.67 0 0 0 0-2.358L7.383 9.18a1.676 1.676 0 0 0-2.366 0Zm26.566 3.277-3.266-3.277a1.656 1.656 0 0 0-2.35 0l-6.35 6.37a1.669 1.669 0 0 0 0 2.358l6.35 6.37c.65.652 1.7.652 2.35 0L31.583 21c2.334-2.358 2.334-6.203 0-8.544ZM9.15 28.407l3.267 3.276c2.333 2.341 6.166 2.341 8.5 0l3.266-3.276a1.67 1.67 0 0 0 0-2.358l-6.35-6.37a1.656 1.656 0 0 0-2.35 0l-6.35 6.37c-.633.635-.633 1.706.017 2.358Z" fill="#fff"/></svg>