<svg width="35" height="34" fill="none" xmlns="http://www.w3.org/2000/svg"><path d="m29.81 18.813-1.303-1.275-10.979 10.965 1.318 1.318c1.105 1.105 2.252 1.657 3.385 1.657 1.134 0 2.281-.552 3.386-1.657l4.194-4.194c2.252-2.266 2.252-4.547 0-6.814ZM15.148 4.15c-2.224-2.223-4.562-2.223-6.786 0L4.155 8.345c-2.21 2.224-2.21 4.562 0 6.786l1.303 1.303 10.98-10.979-1.29-1.303Zm15.753 1.432c-1.855 4.632-6.091 10.681-10.129 14.634a8.446 8.446 0 0 0-7.182-7.027c3.966-4.052 10.058-8.344 14.705-10.214a2.015 2.015 0 0 1 2.153.44c.538.537.793 1.345.453 2.167Z" fill="#ED89FB"/><path d="M19.526 21.378c-.284.24-.567.481-.85.708l-2.536 2.026c0-.043-.014-.1-.014-.156-.199-1.516-.907-2.918-2.055-4.066a7.124 7.124 0 0 0-4.193-2.068c-.042 0-.1-.014-.142-.014l2.055-2.593c.198-.255.41-.496.637-.75l.963.127c3.046.425 5.497 2.819 5.979 5.85l.156.936Z" fill="#ED89FB"/><path d="M14.78 24.962a5.806 5.806 0 0 1-1.729 4.165c-.864.878-2.025 1.473-3.442 1.643l-3.47.383c-1.9.212-3.528-1.417-3.316-3.33l.383-3.485c.34-3.102 2.932-5.085 5.68-5.142.27-.014.567 0 .85.028 1.205.156 2.366.709 3.344 1.672.949.949 1.487 2.068 1.643 3.244.028.283.057.552.057.822Z" fill="#ED89FB"/></svg>