<svg width="36" height="36" fill="none" xmlns="http://www.w3.org/2000/svg"><path d="m2.933 20.133 1.534-1.5 12.916 12.9-1.55 1.55c-1.3 1.3-2.65 1.95-3.983 1.95-1.333 0-2.683-.65-3.983-1.95L2.933 28.15c-2.65-2.667-2.65-5.35 0-8.017Zm17.25-17.25c2.617-2.616 5.367-2.616 7.984 0l4.95 4.934c2.6 2.616 2.6 5.366 0 7.983l-1.534 1.533L18.667 4.417l1.516-1.534ZM1.65 4.567c2.183 5.45 7.167 12.566 11.917 17.216a9.937 9.937 0 0 1 8.45-8.266C17.35 8.75 10.183 3.7 4.717 1.5a2.37 2.37 0 0 0-2.534.517C1.55 2.65 1.25 3.6 1.65 4.567Z" fill="#fff"/><path d="M15.033 23.15c.334.283.667.567 1 .833l2.984 2.384c0-.05.016-.117.016-.184.234-1.783 1.067-3.433 2.417-4.783 1.367-1.367 3.067-2.2 4.933-2.433.05 0 .117-.017.167-.017l-2.417-3.05c-.233-.3-.483-.583-.75-.883l-1.133.15c-3.583.5-6.467 3.316-7.033 6.883l-.184 1.1Z" fill="#fff"/><path d="M20.617 27.367c0 1.833.7 3.583 2.033 4.9C23.667 33.3 25.033 34 26.7 34.2l4.083.45c2.234.25 4.15-1.667 3.9-3.917l-.45-4.1c-.4-3.65-3.45-5.983-6.683-6.05a6.76 6.76 0 0 0-1 .034c-1.417.183-2.783.833-3.933 1.966-1.117 1.117-1.75 2.434-1.934 3.817-.033.333-.066.65-.066.967Z" fill="#fff"/></svg>