<svg width="34" height="33" fill="none" xmlns="http://www.w3.org/2000/svg"><path d="M5.35 6.858H3.633C1.05 6.858 0 7.858 0 10.325v16.767c0 2.466 1.05 3.466 3.633 3.466H5.35c2.583 0 3.633-1 3.633-3.466V10.325c0-2.467-1.05-3.467-3.633-3.467Zm5.3 20.184V10.108c0-.666.2-1.316.567-1.866l4.55-6.767c.716-1.083 2.5-1.85 4.016-1.283 1.634.55 2.717 2.383 2.367 4.016l-.867 5.45c-.066.5.067.95.35 1.3.284.317.7.517 1.15.517h6.85c1.317 0 2.45.534 3.117 1.467.633.9.75 2.066.333 3.25l-4.1 12.483c-.516 2.067-2.766 3.75-5 3.75h-6.5c-1.116 0-2.683-.383-3.4-1.1l-2.133-1.65a3.308 3.308 0 0 1-1.3-2.633Z" fill="#fff"/></svg>