<svg width="52" height="52" viewBox="0 0 52 52" fill="none" xmlns="http://www.w3.org/2000/svg">
<path fill-rule="evenodd" clip-rule="evenodd" d="M0 26C0 11.6405 11.6405 0 26 0C40.3595 0 52 11.6405 52 26C52 40.3595 40.3595 52 26 52C11.6405 52 0 40.3595 0 26ZM17.0289 31.266L15.6214 36.4381L20.7914 35.0274C22.3808 35.9542 24.1883 36.4411 26.0282 36.4381C31.7781 36.4381 36.4391 31.7771 36.4391 26.0272C36.4391 20.2772 31.7781 15.6162 26.0282 15.6162C20.2782 15.6162 15.6172 20.2772 15.6172 26.0272C15.6142 27.8678 16.1015 29.6761 17.0289 31.266ZM21.8846 21.2465C22.005 21.1861 22.1364 21.1507 22.2708 21.1423C22.4105 21.1326 22.5506 21.1302 22.6904 21.1371C22.7466 21.1413 22.8028 21.1475 22.8591 21.1538C23.0246 21.1736 23.2068 21.2735 23.2682 21.413C23.5785 22.1168 23.8804 22.8258 24.1719 23.5379C24.2364 23.6951 24.1979 23.8981 24.0751 24.0959C23.9906 24.23 23.8992 24.3597 23.8013 24.4843C23.6836 24.6342 23.4306 24.9111 23.4306 24.9111C23.4306 24.9111 23.3276 25.034 23.3671 25.187C23.3935 25.2623 23.4292 25.334 23.4733 25.4004L23.5347 25.4993C23.8301 25.9834 24.1871 26.4272 24.5966 26.8194C24.6303 26.852 24.6637 26.8848 24.6972 26.9177C24.7879 27.0068 24.8787 27.096 24.9746 27.1797C25.462 27.6095 26.0135 27.9607 26.6091 28.2208L26.6143 28.2228C26.6399 28.234 26.6619 28.2437 26.6833 28.2531C26.7358 28.2762 26.7849 28.2979 26.8766 28.3363C26.9412 28.3639 27.0077 28.3869 27.0755 28.405C27.1456 28.4231 27.2194 28.4198 27.2877 28.3957C27.3559 28.3716 27.4154 28.3277 27.4586 28.2697C28.2113 27.3577 28.2811 27.2983 28.2863 27.2983V27.3004C28.3387 27.2516 28.4009 27.2145 28.4687 27.1917C28.5366 27.1689 28.6086 27.1609 28.6798 27.1682C28.7433 27.171 28.8058 27.1855 28.8641 27.2109C29.4169 27.4628 30.3227 27.8574 30.3227 27.8574L30.9286 28.1291C31.0296 28.1781 31.1222 28.2936 31.1264 28.405C31.1266 28.4089 31.1268 28.413 31.127 28.4172C31.1302 28.4877 31.1354 28.5988 31.1118 28.7934C31.0785 29.063 30.9973 29.3868 30.9161 29.5565C30.8588 29.6762 30.796 29.7584 30.6975 29.8709C30.5839 30.0004 30.5001 30.0625 30.3676 30.1606L30.3539 30.1707C30.2685 30.2353 30.2238 30.2644 30.2238 30.2644C30.0944 30.3468 29.9614 30.4232 29.825 30.4935C29.5571 30.6362 29.261 30.7183 28.9578 30.734C28.9241 30.7356 28.8905 30.7374 28.8569 30.7392C28.6972 30.7476 28.5381 30.7561 28.3789 30.7475L27.7866 30.6569C26.3064 30.2676 24.9375 29.5382 23.7888 28.5268C23.5925 28.3533 23.4079 28.1687 23.2222 27.983C23.1863 27.9471 23.1503 27.9111 23.1141 27.8751C22.1886 26.9537 21.4879 25.9595 21.0621 25.0204C20.8539 24.5561 20.7206 24.0595 20.7186 23.5494C20.715 22.9178 20.922 22.3032 21.3068 21.8024C21.3183 21.7874 21.3297 21.7723 21.3412 21.7571C21.4055 21.6722 21.4725 21.5836 21.5785 21.4838C21.6686 21.3904 21.7717 21.3104 21.8846 21.2465Z" fill="#282828"/>
</svg>
