<svg width="100" height="100" viewBox="0 0 100 100" fill="none" xmlns="http://www.w3.org/2000/svg">
<path d="M48.0554 83.5328L52.9506 45.3863L90.1087 47.3579L90.1258 89.947L48.0554 83.5328Z" fill="#FFF176"/>
<path fill-rule="evenodd" clip-rule="evenodd" d="M80.6936 46.8583L61.6748 45.8492L63.4265 59.2492L50.9631 60.8784L48.498 80.0875L65.8539 77.8187L66.978 86.4177L86.2489 89.3558L84.4234 75.3913L90.1202 74.6466L90.1126 55.7607L81.996 56.8217L80.6936 46.8583ZM81.996 56.8217L63.4265 59.2492L65.8539 77.8187L84.4234 75.3913L81.996 56.8217Z" fill="#FF9DB9"/>
<path fill-rule="evenodd" clip-rule="evenodd" d="M78.1771 46.7248L52.9507 45.3864L52.5449 48.5481C57.0822 53.3031 60.4834 58.9843 64.1806 66.9677C67.7408 58.2986 72.1156 51.646 78.1771 46.7248Z" fill="#FFFAEB"/>
<rect x="81.4492" y="10.2686" width="11.1237" height="24.5247" transform="rotate(36.2286 81.4492 10.2686)" fill="#2DE09E"/>
<path d="M92.6441 39.1584C80.5389 34.9052 70.3966 22.8 71.051 7.4231C64.8348 24.4359 53.5964 33.64 35.7168 36.5411C50.9932 44.7063 57.034 51.5362 64.1804 66.9677C70.0919 52.5735 78.2487 43.7388 92.6441 39.1584Z" fill="#FEE798"/>
<path fill-rule="evenodd" clip-rule="evenodd" d="M80.0375 31.0145C77.323 28.2015 75.0671 24.8681 73.4906 21.1287L66.9531 30.0517L75.9262 36.6259L80.0375 31.0145Z" fill="#FF4C4C"/>
<path d="M38.0067 37.5225C48.2605 37.5222 71.1331 22.0797 72.142 9.18522C72.3208 6.90012 70.1881 6.44894 69.0874 8.40467C66.797 17.8926 77.4373 36.867 87.3909 39.1585C95.3675 40.9949 95.1295 34.9324 87.3915 36.6223C75.6021 39.1969 63.1164 52.9335 61.7383 65.9905C61.2093 71.0033 64.1802 69.9124 64.1802 66.9679C64.1802 57.2992 48.8029 32.9415 37.3472 34.7107C34.0807 35.2152 34.7351 37.5226 38.0067 37.5225Z" stroke="#1F1F22" stroke-width="2" stroke-linecap="round" stroke-linejoin="round"/>
<path d="M45.4617 16.7079C56.3633 24.3068 56.705 43.0255 47.4391 52.8932C35.5471 65.5575 18.9889 65.7517 9.81047 56.8961C2.00593 49.3661 -0.462753 34.6271 9.81045 22.5441C18.608 12.1967 35.1207 9.49985 45.4617 16.7079Z" fill="#006FFF"/>
<path d="M49.1479 20.1508C48.284 19.0837 47.3044 18.1114 46.2078 17.2574L44.132 20.6507L47.5594 22.7474L49.1479 20.1508Z" fill="#00329C"/>
<path d="M12.6546 19.6832C13.9867 18.5333 15.4269 17.5178 16.9441 16.6418L16.4308 22.709L12.4272 22.3702L12.6546 19.6832Z" fill="#00329C"/>
<path d="M3.33008 36.132C3.55491 34.7551 3.89793 33.3679 4.36848 31.9827L9.23101 35.2757L6.97803 38.6025L3.33008 36.132Z" fill="#00329C"/>
<path d="M5.65992 51.2727C4.88268 49.7673 4.25783 48.1484 3.8096 46.4487L4.36475 45.4894L7.84217 47.502L5.65992 51.2727Z" fill="#00329C"/>
<path d="M54.0282 35.9189C54.0049 36.7644 53.9438 37.6105 53.8453 38.4528L51.5132 39.7143L46.5427 30.5262L50.0766 28.6144L54.0282 35.9189Z" fill="#00329C"/>
<path d="M36.1326 14.9537L38.7729 17.9822L30.8988 24.8471L28.2584 21.8186L36.1326 14.9537Z" fill="#00329C"/>
<path d="M40.8376 36.7334L38.2858 39.8369L30.2166 33.2026L32.7683 30.099L40.8376 36.7334Z" fill="#00329C"/>
<path d="M18.8182 36.6683L22.5906 35.2855L18.9954 25.4772L15.223 26.8599L18.8182 36.6683Z" fill="#00329C"/>
<path d="M46.0023 52.5256L42.5249 50.5129L47.7576 41.4716L51.235 43.4841L46.0023 52.5256Z" fill="#00329C"/>
<path d="M53.6031 30.2424C48.5752 33.3467 42.6445 35.417 35.7168 36.5411C42.9145 39.8127 47.2787 43.405 51.2842 47.2791C53.8328 42.0816 54.6298 35.8972 53.6031 30.2424Z" fill="#FFBD3E"/>
<path d="M11.8336 47.6648C15.9509 37.2887 28.4016 35.4594 32.7728 42.7571C35.474 47.2668 36.7927 52.5769 39.3645 57.1617C43.8196 65.104 58.4283 66.1647 59.9277 75.1469C62.8316 92.5414 41.9333 100.666 26.8833 91.1781C13.2252 82.5678 6.05816 62.2193 11.8336 47.6648Z" fill="#1AE69B"/>
<path d="M13.0082 74.0998C12.4344 72.7305 11.9328 71.3312 11.5078 69.914C14.367 68.249 18.6894 65.7095 20.8273 64.3733C23.3987 62.7662 26.1844 59.6858 27.2558 58.3466L34.8898 59.1501C34.354 59.8198 32.3987 61.8823 28.863 64.7751C25.6791 67.3801 17.6951 71.701 13.0082 74.0998Z" fill="#2285FF"/>
<path d="M23.0118 88.2829C20.2656 85.8796 17.8746 82.9784 15.9105 79.7741C19.8251 78.2698 29.9992 74.0597 34.8898 68.793C36.5737 66.9795 39.7494 63.2624 41.8379 60.1975C43.431 61.6482 45.3887 62.8444 47.4233 63.9692C45.8169 68.773 42.0353 75.2839 36.4969 81.2483C33.1343 84.8696 27.1178 87.1726 23.0118 88.2829Z" fill="#2285FF"/>
<path d="M55.543 68.7087C57.786 70.3966 59.4687 72.4018 59.9269 75.1469C62.3535 89.6827 48.1588 97.7451 34.6451 94.466C39.8798 89.7967 44.13 84.9296 46.8331 81.8343L46.8352 81.8318C47.0119 81.6296 47.1819 81.4349 47.3451 81.2483C50.0277 78.1825 54.0033 72.6675 55.543 68.7087Z" fill="#2285FF"/>
<path d="M50.362 65.5531C54.9086 67.9981 59.1549 70.5228 59.9268 75.147C60.5632 78.9586 60.0566 82.3251 58.719 85.1587L48.0547 83.5328L50.362 65.5531Z" fill="#1F1F22" stroke="#1F1F22" stroke-width="2" stroke-linecap="round" stroke-linejoin="round"/>
<path d="M40.401 58.6846C29.6743 65.2995 17.3474 64.1118 9.86914 56.9528C10.0404 53.7185 10.6778 50.5757 11.8329 47.6648C15.9503 37.2887 28.401 35.4594 32.7721 42.7571C34.1891 45.1227 35.2256 47.7086 36.2621 50.2944C37.2016 52.6381 38.1411 54.9819 39.3638 57.1617C39.6654 57.6993 40.0135 58.2055 40.401 58.6846Z" fill="#1F1F22" stroke="#1F1F22" stroke-width="2" stroke-linecap="round" stroke-linejoin="round"/>
<path d="M30.4703 40.2002C29.968 39.826 29.4296 39.5086 28.8631 39.2478V56.7394H9.88111C9.87689 56.8104 9.87292 56.8816 9.86914 56.9528C10.3842 57.4459 10.9224 57.9106 11.4813 58.3465H28.8631V62.8367C29.3976 62.7694 29.9335 62.6853 30.4703 62.5843V58.3465H40.1376C39.8544 57.9688 39.5954 57.5745 39.3638 57.1616C39.2852 57.0216 39.2078 56.8808 39.1315 56.7394H30.4703V40.2002Z" fill="#006EFF"/>
<path d="M50.4542 64.8429C50.5081 64.8807 50.562 64.9185 50.6159 64.9564C53.9749 67.3195 57.1584 69.9376 57.9554 74.7118C58.6268 78.7334 58.04 82.106 56.5642 84.8301L55.1795 84.6189C56.6696 82.1118 57.3289 78.9064 56.6646 74.9272C55.9906 70.89 53.4155 68.5641 50.2656 66.3122L50.4542 64.8429Z" fill="#FFFAEB"/>
<path d="M42.0988 57.5625C41.8969 57.2609 41.7044 56.9482 41.5222 56.6234C40.3107 54.4636 39.7226 52.588 39.121 50.6693L39.0661 50.4942C38.4443 48.5127 37.7894 46.4826 36.3963 44.1567C34.0437 40.229 29.5109 38.689 25.0984 39.4609C20.6742 40.2348 16.3132 43.3297 14.1696 48.7319C12.9015 51.9275 12.1485 55.2789 11.8887 58.656C12.2964 58.9584 12.7146 59.2458 13.1425 59.5181C13.3323 56.0154 14.0709 52.5287 15.386 49.2146C17.3597 44.2407 21.3417 41.4466 25.3239 40.75C29.318 40.0513 33.2551 41.4592 35.2736 44.8292C36.5817 47.013 37.1992 48.9158 37.8175 50.886L37.8798 51.0848C38.4786 52.9953 39.1018 54.9835 40.3808 57.2636C40.5813 57.621 40.7934 57.9648 41.0158 58.2961C41.3788 58.0607 41.7399 57.8162 42.0988 57.5625Z" fill="white"/>
<path d="M27.2109 68.9264C27.2109 73.709 30.6752 82.7524 36.8338 81.9698C42.9924 81.1872 40.6829 72.1873 39.7206 67.6221" stroke="white" stroke-width="2"/>
</svg>
