<svg width="1920" height="659" fill="none" xmlns="http://www.w3.org/2000/svg"><path d="M-.075 651.198C92.645 463.054 327.332 73.225 524.363 19.051c246.286-67.7 135.81 186.221 126.09 220.181-7.779 27.155-78.022 205.222-112.177 290.859C628.358 422.83 839.097 207.343 918.48 142.05c113.57-93.396 184.89-101.571 105.28 65.797-63.71 133.883-136.226 247.075-164.51 286.942 120.553-150.592 404.66-445.27 576.67-419.327 215.02 32.454 31.1 343.59-148.52 414.789-60.78 24.091-131.46-6.819-27.37-143.989 104.09-137.17 402.13-328.556 694.39-327.826" stroke="#CAD2F4" stroke-width="15" stroke-linecap="round" stroke-linejoin="round"/></svg>