<svg width="74" height="75" fill="none" xmlns="http://www.w3.org/2000/svg"><path fill-rule="evenodd" clip-rule="evenodd" d="M31.863 0C30.73 0 29.81.92 29.81 2.055v23.63a2.055 2.055 0 1 0 4.11 0V2.055A2.058 2.058 0 0 0 31.862 0Zm27.233 7.617a2.055 2.055 0 0 0-2.906 0l-16.71 16.71a2.055 2.055 0 1 0 2.907 2.905l16.709-16.709a2.055 2.055 0 0 0 0-2.906Zm12.836 23.205a2.055 2.055 0 0 1 0 4.11h-23.63a2.055 2.055 0 0 1 0-4.11h23.63Zm-4.617 29.287a2.055 2.055 0 0 0 0-2.906l-16.71-16.709A2.055 2.055 0 1 0 47.7 43.4l16.709 16.709a2.055 2.055 0 0 0 2.906 0ZM44.19 72.945a2.055 2.055 0 0 1-4.11 0v-23.63a2.055 2.055 0 1 1 4.11 0v23.63Zm-29.369-5.644a2.055 2.055 0 0 0 2.906 0l16.71-16.71a2.055 2.055 0 1 0-2.907-2.905L14.823 64.395a2.055 2.055 0 0 0 0 2.906ZM2.068 45.205a2.055 2.055 0 0 1 0-4.11h23.63a2.055 2.055 0 0 1 0 4.11H2.069Zm4.535-29.368a2.055 2.055 0 0 0 0 2.905l16.71 16.71a2.055 2.055 0 1 0 2.905-2.907L9.51 15.836a2.055 2.055 0 0 0-2.906 0Z" fill="#fff"/></svg>