<svg width="180" height="46" viewBox="0 0 180 46" fill="none" xmlns="http://www.w3.org/2000/svg">
<path fill-rule="evenodd" clip-rule="evenodd" d="M1.60707 21.393C0.719517 22.2805 0.719518 23.7195 1.60707 24.6071L21.393 44.393C22.2805 45.2805 23.7195 45.2805 24.6071 44.3929L44.393 24.6071C45.2805 23.7195 45.2805 22.2805 44.393 21.393L24.6071 1.60707C23.7195 0.719517 22.2805 0.719518 21.393 1.60707L1.60707 21.393ZM23.0512 36.1707C30.326 36.1707 36.2234 30.2732 36.2234 22.9984C36.2234 15.7236 30.326 9.82618 23.0512 9.82618C15.7763 9.82618 9.87892 15.7236 9.87892 22.9984C9.87892 30.2732 15.7763 36.1707 23.0512 36.1707Z" fill="#C9FB40"/>
<path fill-rule="evenodd" clip-rule="evenodd" d="M17.093 14.7676C15.8378 14.7676 14.8203 15.7851 14.8203 17.0403V29.0772C14.8203 30.3324 15.8378 31.3499 17.093 31.3499H29.1299C30.3851 31.3499 31.4027 30.3324 31.4027 29.0772V17.0403C31.4027 15.7851 30.3851 14.7676 29.1299 14.7676H17.093ZM23.0291 28.7184C26.1992 28.7184 28.7691 26.1485 28.7691 22.9783C28.7691 19.8082 26.1992 17.2383 23.0291 17.2383C19.859 17.2383 17.2891 19.8082 17.2891 22.9783C17.2891 26.1485 19.859 28.7184 23.0291 28.7184Z" fill="#C9FB40"/>
<rect x="20.5818" y="23" width="3.72064" height="3.72064" rx="0.757576" transform="rotate(-45 20.5818 23)" fill="#C9FB40"/>
<path d="M56.2477 24.1233V29.3633H53.7877V15.3633C54.481 15.3633 55.2343 15.3566 56.0477 15.3433C56.861 15.3299 57.5277 15.3233 58.0477 15.3233C61.4343 15.3233 63.1277 16.7633 63.1277 19.6433C63.1277 20.7099 62.8543 21.5899 62.3077 22.2833C61.761 22.9499 61.1343 23.4033 60.4277 23.6433L64.8077 29.3633H61.8277L57.9677 24.1233H56.2477ZM57.9277 17.6233C57.861 17.6233 57.7543 17.6299 57.6077 17.6433C57.461 17.6433 57.2543 17.6499 56.9877 17.6633C56.721 17.6633 56.4743 17.6633 56.2477 17.6633V21.8233H57.8477C58.6343 21.8233 59.2743 21.6299 59.7677 21.2433C60.2743 20.8566 60.5277 20.3299 60.5277 19.6633C60.5277 18.3033 59.661 17.6233 57.9277 17.6233ZM72.5314 26.8433L73.1914 28.4633C72.2981 29.2099 71.1514 29.5833 69.7514 29.5833C68.3114 29.5833 67.1381 29.1499 66.2314 28.2833C65.3514 27.4299 64.9114 26.2899 64.9114 24.8633C64.9114 23.5299 65.3447 22.4099 66.2114 21.5033C67.0781 20.5966 68.2314 20.1433 69.6714 20.1433C70.8581 20.1433 71.8647 20.5366 72.6914 21.3233C73.5181 22.1099 73.9314 23.1099 73.9314 24.3233C73.9314 24.8566 73.8847 25.2699 73.7914 25.5633H67.2914C67.3847 26.2166 67.6714 26.7299 68.1514 27.1033C68.6447 27.4766 69.2581 27.6633 69.9914 27.6633C70.9914 27.6633 71.8381 27.3899 72.5314 26.8433ZM69.5714 22.0633C68.2647 22.0633 67.4781 22.7166 67.2114 24.0233H71.6314C71.6447 23.4499 71.4581 22.9833 71.0714 22.6233C70.6981 22.2499 70.1981 22.0633 69.5714 22.0633ZM84.3653 33.3633H82.0653V28.9033C81.372 29.3566 80.632 29.5833 79.8453 29.5833C78.4186 29.5833 77.2786 29.1566 76.4253 28.3033C75.5853 27.4366 75.1653 26.2899 75.1653 24.8633C75.1653 23.5166 75.652 22.3966 76.6253 21.5033C77.612 20.5966 78.8453 20.1433 80.3253 20.1433C81.872 20.1433 83.2186 20.5033 84.3653 21.2233V33.3633ZM80.1453 27.4433C80.9186 27.4433 81.5586 27.1699 82.0653 26.6233V22.7433C81.4653 22.4499 80.8786 22.3033 80.3053 22.3033C79.4786 22.3033 78.8253 22.5566 78.3453 23.0633C77.8653 23.5566 77.6253 24.1899 77.6253 24.9633C77.6253 25.6833 77.852 26.2766 78.3053 26.7433C78.772 27.2099 79.3853 27.4433 80.1453 27.4433ZM92.7372 20.3633H95.0372V29.3633H92.7372V28.2633C92.0172 29.1433 91.0572 29.5833 89.8572 29.5833C88.8972 29.5833 88.1305 29.2633 87.5572 28.6233C86.9839 27.9833 86.6972 27.0633 86.6972 25.8633V20.3633H88.9972V25.3833C88.9972 26.7566 89.5705 27.4433 90.7172 27.4433C91.5039 27.4433 92.1772 27.0766 92.7372 26.3433V20.3633ZM104.66 26.8433L105.32 28.4633C104.427 29.2099 103.28 29.5833 101.88 29.5833C100.44 29.5833 99.267 29.1499 98.3603 28.2833C97.4803 27.4299 97.0403 26.2899 97.0403 24.8633C97.0403 23.5299 97.4736 22.4099 98.3403 21.5033C99.207 20.5966 100.36 20.1433 101.8 20.1433C102.987 20.1433 103.994 20.5366 104.82 21.3233C105.647 22.1099 106.06 23.1099 106.06 24.3233C106.06 24.8566 106.014 25.2699 105.92 25.5633H99.4203C99.5136 26.2166 99.8003 26.7299 100.28 27.1033C100.774 27.4766 101.387 27.6633 102.12 27.6633C103.12 27.6633 103.967 27.3899 104.66 26.8433ZM101.7 22.0633C100.394 22.0633 99.607 22.7166 99.3403 24.0233H103.76C103.774 23.4499 103.587 22.9833 103.2 22.6233C102.827 22.2499 102.327 22.0633 101.7 22.0633ZM107.613 22.8833C107.613 22.0433 107.919 21.3766 108.533 20.8833C109.146 20.3899 109.939 20.1433 110.913 20.1433C112.379 20.1433 113.519 20.5233 114.333 21.2833L113.473 22.9233C112.739 22.3499 111.926 22.0633 111.033 22.0633C110.713 22.0633 110.446 22.1433 110.233 22.3033C110.019 22.4499 109.913 22.6299 109.913 22.8433C109.913 23.2833 110.479 23.6499 111.613 23.9433C112.026 24.0366 112.393 24.1433 112.713 24.2633C113.033 24.3699 113.359 24.5299 113.693 24.7433C114.039 24.9433 114.306 25.2099 114.493 25.5433C114.679 25.8766 114.773 26.2633 114.773 26.7033C114.773 27.5833 114.439 28.2833 113.773 28.8033C113.119 29.3233 112.239 29.5833 111.133 29.5833C110.346 29.5833 109.579 29.4166 108.833 29.0833C108.073 28.7366 107.586 28.3899 107.373 28.0433L108.493 26.5433C108.746 26.8499 109.166 27.1099 109.753 27.3233C110.353 27.5499 110.866 27.6633 111.293 27.6633C111.813 27.7166 112.179 27.5499 112.393 27.1633C112.606 26.7633 112.466 26.4366 111.973 26.1833C111.773 26.0766 111.459 25.9633 111.033 25.8433C110.619 25.7233 110.233 25.6033 109.873 25.4833C109.526 25.3499 109.166 25.1833 108.793 24.9833C108.433 24.7833 108.146 24.5099 107.933 24.1633C107.719 23.8033 107.613 23.3766 107.613 22.8833ZM116.6 25.9433V17.8633H118.9V20.3633H121.8V22.5233H118.9V25.8033C118.9 26.8833 119.26 27.4233 119.98 27.4233C120.433 27.4233 120.893 27.2499 121.36 26.9033L122.06 28.6833C121.326 29.2699 120.44 29.5633 119.4 29.5633C118.426 29.5633 117.713 29.2699 117.26 28.6833C116.82 28.0833 116.6 27.1699 116.6 25.9433Z" fill="white"/>
<path d="M129.468 29.3633H126.988L132.908 15.3233H135.068L140.988 29.3633H138.368L136.908 25.7833H130.928L129.468 29.3633ZM135.968 23.4833L133.928 18.5033L131.868 23.4833H135.968ZM145.545 24.1233V29.3633H143.085V15.3633C143.778 15.3633 144.531 15.3566 145.345 15.3433C146.158 15.3299 146.825 15.3233 147.345 15.3233C150.731 15.3233 152.425 16.7633 152.425 19.6433C152.425 20.7099 152.151 21.5899 151.605 22.2833C151.058 22.9499 150.431 23.4033 149.725 23.6433L154.105 29.3633H151.125L147.265 24.1233H145.545ZM147.225 17.6233C147.158 17.6233 147.051 17.6299 146.905 17.6433C146.758 17.6433 146.551 17.6499 146.285 17.6633C146.018 17.6633 145.771 17.6633 145.545 17.6633V21.8233H147.145C147.931 21.8233 148.571 21.6299 149.065 21.2433C149.571 20.8566 149.825 20.3299 149.825 19.6633C149.825 18.3033 148.958 17.6233 147.225 17.6233ZM158.326 17.6633H153.786V15.3633H165.326V17.6633H160.786V29.3633H158.326V17.6633Z" fill="#C9FB40"/>
</svg>
