<svg width="100" height="100" fill="none" xmlns="http://www.w3.org/2000/svg"><path d="m48.055 83.533 4.896-38.147 37.158 1.972.017 42.589-42.07-6.414Z" fill="#FFF176"/><path fill-rule="evenodd" clip-rule="evenodd" d="m80.694 46.858-19.02-1.009 1.752 13.4-12.463 1.63-2.465 19.209 17.356-2.27 1.124 8.6 19.27 2.938-1.825-13.965 5.697-.744-.007-18.886-8.117 1.06-1.302-9.963Zm1.302 9.964-18.57 2.427 2.428 18.57 18.57-2.428-2.428-18.57Z" fill="#FF9DB9"/><path fill-rule="evenodd" clip-rule="evenodd" d="m78.177 46.725-25.226-1.339-.406 3.162c4.537 4.755 7.938 10.436 11.636 18.42 3.56-8.67 7.935-15.322 13.996-20.243Z" fill="#FFFAEB"/><path fill="#2DE09E" d="m81.449 10.269 8.973 6.574-14.494 19.784-8.974-6.575z"/><path d="M92.644 39.158C80.54 34.905 70.397 22.8 71.051 7.423 64.835 24.436 53.596 33.64 35.717 36.541c15.276 8.165 21.317 14.995 28.463 30.427 5.912-14.395 14.069-23.23 28.464-27.81Z" fill="#FEE798"/><path fill-rule="evenodd" clip-rule="evenodd" d="M80.037 31.015a32.363 32.363 0 0 1-6.546-9.886l-6.538 8.923 8.973 6.574 4.111-5.611Z" fill="#FF4C4C"/><path d="M38.007 37.523c10.254 0 33.126-15.443 34.135-28.338.179-2.285-1.954-2.736-3.055-.78-2.29 9.488 8.35 28.462 18.304 30.753 7.977 1.837 7.738-4.226 0-2.536-11.789 2.575-24.275 16.312-25.653 29.368-.529 5.013 2.442 3.922 2.442.978 0-9.669-15.377-34.027-26.833-32.257-3.266.504-2.612 2.812.66 2.812Z" stroke="#1F1F22" stroke-width="2" stroke-linecap="round" stroke-linejoin="round"/><path d="M45.462 16.708c10.901 7.599 11.243 26.318 1.977 36.185C35.547 65.558 18.99 65.752 9.81 56.896c-7.804-7.53-10.273-22.269 0-34.352C18.608 12.197 35.12 9.5 45.462 16.708Z" fill="#006FFF"/><path d="M49.148 20.15a18.06 18.06 0 0 0-2.94-2.893l-2.076 3.394 3.427 2.096 1.589-2.596Zm-36.493-.467a27.95 27.95 0 0 1 4.29-3.041l-.514 6.067-4.004-.339.228-2.687ZM3.33 36.132a25.842 25.842 0 0 1 1.038-4.15l4.863 3.294-2.253 3.326-3.648-2.47Zm2.33 15.141a23.686 23.686 0 0 1-1.85-4.824l.555-.96 3.477 2.013-2.182 3.77Zm48.368-15.354a28.61 28.61 0 0 1-.183 2.534l-2.332 1.261-4.97-9.188 3.534-1.912 3.951 7.305ZM36.133 14.954l2.64 3.028-7.874 6.865-2.64-3.028 7.874-6.865Zm4.705 21.779-2.552 3.104-8.07-6.634 2.552-3.104 8.07 6.634Zm-22.02-.065 3.773-1.383-3.596-9.808-3.772 1.383 3.595 9.808Zm27.184 15.858-3.477-2.013 5.233-9.041 3.477 2.012-5.233 9.042Z" fill="#00329C"/><path d="M53.603 30.242c-5.028 3.105-10.959 5.175-17.886 6.3 7.197 3.27 11.562 6.863 15.567 10.737 2.549-5.197 3.346-11.382 2.32-17.037Z" fill="#FFBD3E"/><path d="M11.834 47.665c4.117-10.376 16.568-12.206 20.939-4.908 2.701 4.51 4.02 9.82 6.591 14.405 4.456 7.942 19.064 9.003 20.564 17.985 2.904 17.394-17.995 25.519-33.045 16.031-13.658-8.61-20.825-28.959-15.05-43.513Z" fill="#1AE69B"/><path d="M13.008 74.1a42.214 42.214 0 0 1-1.5-4.186c2.859-1.665 7.181-4.204 9.32-5.54 2.57-1.608 5.356-4.688 6.428-6.027l7.634.803c-.536.67-2.491 2.732-6.027 5.625-3.184 2.605-11.168 6.926-15.855 9.325Zm10.004 14.183c-2.746-2.403-5.137-5.305-7.101-8.509 3.914-1.504 14.088-5.714 18.979-10.981 1.684-1.814 4.86-5.53 6.948-8.596 1.593 1.451 3.55 2.647 5.585 3.772-1.606 4.804-5.388 11.315-10.926 17.28-3.363 3.62-9.38 5.924-13.485 7.034Zm32.531-19.574c2.243 1.688 3.926 3.693 4.384 6.438 2.426 14.536-11.768 22.598-25.282 19.319 5.235-4.67 9.485-9.536 12.188-12.632l.002-.002.51-.584c2.683-3.066 6.658-8.58 8.198-12.54Z" fill="#2285FF"/><path d="M50.362 65.553c4.547 2.445 8.793 4.97 9.565 9.594.636 3.812.13 7.178-1.208 10.012l-10.664-1.626 2.307-17.98Zm-9.961-6.868c-10.727 6.614-23.054 5.427-30.532-1.732.171-3.235.809-6.377 1.964-9.288 4.117-10.376 16.568-12.206 20.94-4.908 1.416 2.366 2.453 4.952 3.49 7.537.939 2.344 1.878 4.688 3.1 6.868.302.537.65 1.044 1.038 1.523Z" fill="#1F1F22" stroke="#1F1F22" stroke-width="2" stroke-linecap="round" stroke-linejoin="round"/><path d="M30.47 40.2a8.954 8.954 0 0 0-1.607-.952v17.491H9.881a33.8 33.8 0 0 0-.012.214c.515.493 1.053.958 1.612 1.393h17.382v4.49c.535-.067 1.07-.15 1.607-.252v-4.238h9.668a10.702 10.702 0 0 1-.774-1.184 21.6 21.6 0 0 1-.232-.423H30.47V40.2Z" fill="#006EFF"/><path d="m50.454 64.843.162.113c3.359 2.364 6.542 4.982 7.34 9.756.67 4.021.084 7.394-1.392 10.118l-1.385-.211c1.49-2.507 2.15-5.713 1.486-9.692-.674-4.037-3.25-6.363-6.4-8.615l.19-1.47Z" fill="#FFFAEB"/><path d="M42.099 57.563a13.998 13.998 0 0 1-.577-.94c-1.211-2.16-1.8-4.035-2.401-5.954l-.055-.175c-.622-1.981-1.277-4.011-2.67-6.337-2.352-3.928-6.885-5.468-11.298-4.696-4.424.774-8.785 3.869-10.928 9.27a33.967 33.967 0 0 0-2.281 9.925c.407.302.826.59 1.254.862.19-3.503.928-6.99 2.243-10.303 1.974-4.974 5.956-7.768 9.938-8.465 3.994-.699 7.931.71 9.95 4.08 1.308 2.183 1.925 4.086 2.544 6.056l.062.199c.599 1.91 1.222 3.898 2.5 6.179.201.357.413.7.636 1.032.363-.235.724-.48 1.083-.733Z" fill="#fff"/><path d="M27.21 68.926c0 4.783 3.465 13.826 9.624 13.044 6.158-.783 3.849-9.783 2.887-14.348" stroke="#fff" stroke-width="2"/></svg>