<svg width="52" height="52" viewBox="0 0 52 52" fill="none" xmlns="http://www.w3.org/2000/svg">
<path fill-rule="evenodd" clip-rule="evenodd" d="M26 0C11.6405 0 0 11.6405 0 26C0 40.3595 11.6405 52 26 52C40.3595 52 52 40.3595 52 26C52 11.6405 40.3595 0 26 0ZM31.8913 34.6143L35.0649 18.6141L35.0648 18.6143C35.0648 17.5491 33.6001 18.1926 33.6001 18.1926L15.7805 25.183C15.7805 25.183 14.9371 25.4714 15.0037 26.004C15.0704 26.5366 15.7583 26.7807 15.7583 26.7807L20.241 28.2898L20.2424 28.2905L20.2422 28.2897L31.005 21.4548C31.005 21.4548 31.6265 21.0775 31.6043 21.4548C31.6043 21.4548 31.7152 21.5214 31.3822 21.8321C31.0495 22.1429 22.9274 29.4437 22.9274 29.4437L22.9158 29.5429L22.8984 29.5293L22.3438 34.4348C22.5914 34.5425 22.8179 34.3706 22.8179 34.3706L25.7133 31.7307L30.227 35.1913C31.4476 35.7239 31.8913 34.6143 31.8913 34.6143Z" fill="#282828"/>
</svg>
