<svg width="24" height="24" viewBox="0 0 24 24" fill="none" xmlns="http://www.w3.org/2000/svg">
<path fill-rule="evenodd" clip-rule="evenodd" d="M18.2035 18.9542L21.06 4.55271L21.0599 4.55296C21.0599 3.59419 19.7415 4.1734 19.7415 4.1734L3.70253 10.4653C3.70253 10.4653 2.9434 10.7249 3.00337 11.2043C3.06334 11.6837 3.68254 11.9033 3.68254 11.9033L7.71728 13.2616L7.71861 13.2623C7.71846 13.2618 7.71838 13.2615 7.71838 13.2615L17.4058 7.10958C17.4058 7.10958 17.9652 6.77 17.9452 7.10958C17.9452 7.10958 18.045 7.16955 17.7453 7.44916C17.4458 7.7289 10.1353 14.3002 10.1353 14.3002L10.1207 14.4251L16.7055 19.4735C17.8041 19.9529 18.2035 18.9542 18.2035 18.9542Z" fill="white"/>
</svg>
