<svg width="24" height="24" viewBox="0 0 24 24" fill="none" xmlns="http://www.w3.org/2000/svg">
<path d="M20.5465 4.84003C20.5388 4.72379 20.4984 4.61246 20.4303 4.51992C20.3621 4.42738 20.2692 4.35772 20.1632 4.31962C20.0572 4.28153 19.9427 4.27669 19.8341 4.30571C19.7254 4.33473 19.6274 4.39632 19.5522 4.4828C19.1786 4.91807 18.6922 5.23243 18.1511 5.38833C17.4215 4.67901 16.4592 4.28479 15.4598 4.28579C14.9286 4.2861 14.4028 4.39505 13.9122 4.60641C13.4216 4.81778 12.9759 5.12741 12.6006 5.51765C12.2252 5.90788 11.9276 6.37107 11.7246 6.88077C11.5216 7.39047 11.4173 7.93669 11.4176 8.48826V9.01045C7.9994 8.7363 6.17317 6.0387 5.67832 4.6715C5.63937 4.56316 5.57079 4.46899 5.48099 4.40059C5.3912 4.33218 5.28411 4.29251 5.1729 4.28646C5.06169 4.28041 4.9512 4.30823 4.85501 4.36652C4.75883 4.42481 4.68114 4.51101 4.6315 4.61454C3.43496 7.10207 3.25096 9.51603 4.12065 11.5716C4.88178 13.3719 6.41316 14.8056 8.58453 15.7562C7.59827 16.4814 5.93775 17.3406 4.0018 17.3406C3.87911 17.3405 3.75962 17.3813 3.66102 17.4571C3.56242 17.533 3.48995 17.6398 3.45431 17.7617C3.41868 17.8836 3.42179 18.0142 3.46317 18.1342C3.50455 18.2541 3.58201 18.357 3.68409 18.4277C5.54119 19.7142 7.48742 19.7142 9.29537 19.7142H9.35022C14.9055 19.7142 19.4071 15.0311 19.4071 9.25612V8.68764C19.8219 8.24852 20.1453 7.8011 20.3442 7.22075C20.5648 6.57276 20.6093 5.8227 20.5465 4.84003Z" fill="white"/>
</svg>
