<svg width="24" height="24" viewBox="0 0 24 24" fill="none" xmlns="http://www.w3.org/2000/svg">
<path d="M21.2938 6.806C21.4338 6.341 21.2938 6 20.6318 6H18.4388C17.8808 6 17.6258 6.295 17.4858 6.619C17.4858 6.619 16.3708 9.338 14.7908 11.101C14.2808 11.614 14.0478 11.776 13.7698 11.776C13.6308 11.776 13.4288 11.614 13.4288 11.149V6.806C13.4288 6.248 13.2678 6 12.8028 6H9.35684C9.00884 6 8.79884 6.258 8.79884 6.504C8.79884 7.032 9.58884 7.154 9.66984 8.642V11.87C9.66984 12.577 9.54284 12.706 9.26284 12.706C8.51984 12.706 6.71184 9.977 5.63884 6.853C5.42984 6.246 5.21884 6.001 4.65884 6.001H2.46684C1.83984 6.001 1.71484 6.296 1.71484 6.62C1.71484 7.202 2.45784 10.082 5.17584 13.891C6.98784 16.492 9.53884 17.902 11.8628 17.902C13.2558 17.902 13.4278 17.589 13.4278 17.049V15.083C13.4278 14.457 13.5608 14.331 14.0018 14.331C14.3258 14.331 14.8838 14.495 16.1848 15.748C17.6708 17.234 17.9168 17.901 18.7518 17.901H20.9438C21.5698 17.901 21.8828 17.588 21.7028 16.97C21.5058 16.355 20.7958 15.46 19.8538 14.401C19.3418 13.797 18.5768 13.147 18.3438 12.822C18.0188 12.403 18.1128 12.218 18.3438 11.846C18.3448 11.847 21.0158 8.085 21.2938 6.806Z" fill="white"/>
</svg>
