<svg width="52" height="52" viewBox="0 0 52 52" fill="none" xmlns="http://www.w3.org/2000/svg">
<path fill-rule="evenodd" clip-rule="evenodd" d="M0 26C0 11.6405 11.6405 0 26 0C40.3595 0 52 11.6405 52 26C52 40.3595 40.3595 52 26 52C11.6405 52 0 40.3595 0 26ZM36.1896 20.1116C36.5462 20.4496 36.8046 20.878 36.9372 21.3512V21.3502C37.287 23.1232 37.4506 24.9279 37.4253 26.7349C37.4369 28.5343 37.2731 30.3306 36.9363 32.0982C36.8042 32.5714 36.5461 32.9998 36.1896 33.3377C35.8229 33.6862 35.3735 33.9354 34.8837 34.062C31.8371 34.4024 28.7724 34.5556 25.7071 34.5207C25.7071 34.5207 18.3996 34.5207 16.5422 34.0385C16.0464 33.9068 15.5954 33.6579 15.2333 33.3133C14.8712 32.9688 14.6106 32.5423 14.4769 32.0748C14.148 30.3043 13.9889 28.5093 14.0006 26.7125C13.9892 24.914 14.1487 23.1185 14.4769 21.3502C14.6135 20.8807 14.8751 20.4522 15.2363 20.1048C15.6038 19.7537 16.0524 19.4989 16.5422 19.363C19.5849 19.0226 22.6456 18.8694 25.7071 18.9043C25.7071 18.9043 33.0507 18.9043 34.8837 19.3874C35.3735 19.5139 35.8229 19.7632 36.1896 20.1116ZM23.3724 23.3715V30.0544L29.4823 26.7135L23.3724 23.3715Z" fill="#282828"/>
</svg>
