<svg width="93" height="91" viewBox="0 0 93 91" fill="none" xmlns="http://www.w3.org/2000/svg">
<path d="M45.9919 78.5435L50.8871 40.3971L88.0452 42.3686L88.0623 84.9577L45.9919 78.5435Z" fill="#FFF176"/>
<path fill-rule="evenodd" clip-rule="evenodd" d="M78.6296 41.8689L59.6108 40.8599L61.3625 54.2598L48.8991 55.889L46.4341 75.0981L63.7899 72.8293L64.914 81.4284L84.1849 84.3665L82.3595 70.4019L88.0562 69.6572L88.0487 50.7713L79.932 51.8324L78.6296 41.8689ZM79.932 51.8324L61.3625 54.2598L63.7899 72.8293L82.3595 70.4019L79.932 51.8324Z" fill="#FF9DB9"/>
<path fill-rule="evenodd" clip-rule="evenodd" d="M76.1136 41.7356L50.8872 40.3971L50.4814 43.5588C55.0187 48.3138 58.42 53.9951 62.1171 61.9785C65.6774 53.3093 70.0521 46.6567 76.1136 41.7356Z" fill="#FFFAEB"/>
<path d="M79.3853 5.2793L88.3584 11.8535L73.8641 31.6367L64.8909 25.0625L79.3853 5.2793Z" fill="#2DE09E"/>
<path d="M90.5806 34.1692C78.4754 29.916 68.3332 17.8108 68.9875 2.43384C62.7713 19.4466 51.5329 28.6508 33.6533 31.5518C48.9297 39.717 54.9706 46.547 62.117 61.9785C68.0284 47.5843 76.1852 38.7495 90.5806 34.1692Z" fill="#FEE798"/>
<path fill-rule="evenodd" clip-rule="evenodd" d="M77.975 26.0252C75.2605 23.2123 73.0046 19.8788 71.4281 16.1394L64.8906 25.0624L73.8637 31.6366L77.975 26.0252Z" fill="#FF4C4C"/>
<path fill-rule="evenodd" clip-rule="evenodd" d="M69.2625 1.24241C70.5611 1.55074 71.1883 2.83856 71.076 4.27395C70.8814 6.76128 69.9422 9.28699 68.5109 11.7424C69.3195 14.7647 70.6972 17.9783 72.4489 20.9879C74.2196 24.0301 76.3553 26.8345 78.6364 29.0074C79.7184 30.038 80.8194 30.9135 81.9167 31.6051C82.9803 31.208 84.0489 30.8889 85.1151 30.656C87.1586 30.2097 88.8083 30.2511 90.0075 30.6185C91.1306 30.9625 92.1878 31.7328 92.2208 32.9284C92.2549 34.165 91.1858 34.9439 90.0598 35.2705C88.8623 35.6177 87.1968 35.6256 85.1036 35.1437C83.971 34.883 82.846 34.4302 81.7435 33.8241C77.3387 35.6635 72.9744 38.9486 69.3466 43.0489C66.0048 46.8257 63.341 51.2345 61.8538 55.7342C62.6538 58.0633 63.1172 60.2146 63.1172 61.9786C63.1172 62.8764 62.8917 63.6832 62.5123 64.2981C62.1586 64.8714 61.5442 65.4564 60.7188 65.4737C59.7775 65.4934 59.1746 64.79 58.8948 64.0271C58.6154 63.2652 58.5413 62.2188 58.6808 60.8962C58.8614 59.1852 59.2243 57.468 59.7441 55.7684C59.4225 54.887 59.0477 53.9672 58.623 53.0197C57.0334 49.4734 54.791 45.6405 52.1949 42.1585C49.5951 38.6715 46.6696 35.5753 43.7276 33.4686C43.1551 33.0587 42.5872 32.6899 42.0254 32.3642C39.8002 33.1091 37.7216 33.5332 35.9437 33.5332C35.0168 33.5333 34.2075 33.371 33.5708 33.0676C32.9558 32.7744 32.3775 32.282 32.1936 31.5652C31.991 30.776 32.3493 30.0689 32.9113 29.6035C33.449 29.1582 34.2172 28.8744 35.1315 28.7332C37.4642 28.3729 39.8679 28.9764 42.2043 30.1826C43.1176 29.849 44.0679 29.4568 45.045 29.0095C48.5729 27.3941 52.3607 25.1011 55.8691 22.4068C59.3793 19.7111 62.5828 16.6345 64.9618 13.4633C65.4721 12.7831 65.9419 12.1019 66.3675 11.4224C65.6624 8.45051 65.473 5.58031 66.0523 3.18073C66.0739 3.09123 66.1078 3.00515 66.1529 2.92491C66.8369 1.70969 68.0318 0.950172 69.2625 1.24241ZM67.8733 8.61072C68.5508 7.07539 68.9686 5.56751 69.0821 4.11793C69.1149 3.69821 69.0345 3.45383 68.9656 3.33433C68.9022 3.22438 68.8399 3.19765 68.8005 3.1883C68.738 3.17345 68.3572 3.16617 67.9634 3.79226C67.6538 5.17499 67.6327 6.81115 67.8733 8.61072ZM67.0811 13.9521C66.9119 14.1903 66.7387 14.4275 66.5616 14.6635C64.0478 18.0144 60.7031 21.2162 57.0873 23.993C53.4697 26.7711 49.5537 29.1447 45.8776 30.8279C45.3737 31.0586 44.8726 31.2772 44.3758 31.4825C44.5485 31.5997 44.7206 31.7198 44.8919 31.8425C48.055 34.1074 51.1218 37.3732 53.7983 40.9631C56.4785 44.5579 58.7964 48.5168 60.448 52.2016C60.5562 52.443 60.6618 52.6837 60.7646 52.9234C62.4195 48.901 64.899 45.0574 67.8487 41.7236C71.2899 37.8344 75.4228 34.5806 79.7286 32.5339C78.8823 31.9157 78.0559 31.2165 77.257 30.4556C74.8152 28.1297 72.5677 25.1679 70.7204 21.994C69.2106 19.4 67.9568 16.6449 67.0811 13.9521ZM39.2299 31.092C37.9015 30.6644 36.6286 30.5257 35.4368 30.7097C34.747 30.8163 34.3739 30.999 34.2069 31.1279C34.2537 31.1648 34.3248 31.2114 34.4313 31.2622C34.7354 31.4071 35.2347 31.5333 35.9436 31.5332C36.9082 31.5332 38.015 31.3822 39.2299 31.092ZM60.8668 59.6716C60.786 60.1508 60.7201 60.6292 60.6698 61.1061C60.5474 62.266 60.6397 62.9586 60.7647 63.3167C60.7795 63.296 60.7947 63.2731 60.8102 63.2479C60.9713 62.9869 61.1172 62.5531 61.1172 61.9786C61.1172 61.2971 61.032 60.5224 60.8668 59.6716ZM84.4708 32.8753C84.834 33.0056 85.1948 33.1124 85.5523 33.1947C87.4473 33.631 88.7433 33.5698 89.5028 33.3496C89.882 33.2396 90.0828 33.1036 90.1721 33.0156C90.1882 32.9997 90.1998 32.9865 90.2081 32.9761C90.1958 32.958 90.1751 32.9325 90.1411 32.9C90.0304 32.7942 89.8079 32.6491 89.4217 32.5307C88.6492 32.2941 87.3674 32.2113 85.5419 32.61C85.1858 32.6877 84.8286 32.7763 84.4708 32.8753ZM90.2251 33.0079C90.225 33.008 90.2244 33.0066 90.2237 33.0035C90.2248 33.0063 90.2252 33.0078 90.2251 33.0079ZM90.2249 32.9512C90.2258 32.9481 90.2266 32.9465 90.2268 32.9465C90.227 32.9465 90.2265 32.948 90.2249 32.9512Z" fill="#1F1F22"/>
<path d="M43.3982 11.7185C54.2998 19.3175 54.6416 38.0361 45.3757 47.9038C33.4836 60.5682 16.9254 60.7623 7.747 51.9067C-0.0575359 44.3767 -2.52622 29.6378 7.74699 17.5547C16.5445 7.20736 33.0572 4.51047 43.3982 11.7185Z" fill="#006FFF"/>
<path d="M47.0839 15.1614C46.2201 14.0943 45.2404 13.122 44.1438 12.2681L42.068 15.6614L45.4955 17.758L47.0839 15.1614Z" fill="#00329C"/>
<path d="M10.5906 14.6938C11.9227 13.5439 13.3629 12.5284 14.8802 11.6524L14.3668 17.7196L10.3632 17.3808L10.5906 14.6938Z" fill="#00329C"/>
<path d="M1.26611 31.1426C1.49094 29.7657 1.83397 28.3785 2.30452 26.9934L7.16705 30.2864L4.91406 33.6131L1.26611 31.1426Z" fill="#00329C"/>
<path d="M3.59595 46.2833C2.81872 44.7779 2.19387 43.1591 1.74564 41.4593L2.30079 40.5001L5.77821 42.5126L3.59595 46.2833Z" fill="#00329C"/>
<path d="M51.9642 30.9296C51.9409 31.775 51.8799 32.6212 51.7813 33.4634L49.4493 34.7249L44.4788 25.5368L48.0126 23.6251L51.9642 30.9296Z" fill="#00329C"/>
<path d="M34.0686 9.96436L36.7089 12.9929L28.8348 19.8577L26.1945 16.8292L34.0686 9.96436Z" fill="#00329C"/>
<path d="M38.7736 31.744L36.2219 34.8476L28.1527 28.2132L30.7043 25.1096L38.7736 31.744Z" fill="#00329C"/>
<path d="M16.7542 31.6789L20.5266 30.2961L16.9314 20.4878L13.159 21.8705L16.7542 31.6789Z" fill="#00329C"/>
<path d="M43.9384 47.5362L40.4609 45.5236L45.6936 36.4822L49.1711 38.4948L43.9384 47.5362Z" fill="#00329C"/>
<path d="M51.5396 25.2532C46.5118 28.3574 40.5811 30.4278 33.6533 31.5518C40.851 34.8235 45.2152 38.4157 49.2207 42.2899C51.7693 37.0924 52.5663 30.908 51.5396 25.2532Z" fill="#FFBD3E"/>
<path d="M9.77009 42.6755C13.8874 32.2994 26.3382 30.4701 30.7093 37.7679C33.4105 42.2776 34.7292 47.5877 37.301 52.1724C41.7562 60.1147 56.3648 61.1754 57.8643 70.1576C60.7681 87.5522 39.8699 95.6768 24.8198 86.1889C11.1617 77.5785 3.9947 57.23 9.77009 42.6755Z" fill="#1AE69B"/>
<path d="M10.9452 69.1106C10.3714 67.7412 9.86986 66.342 9.44482 64.9248C12.304 63.2597 16.6265 60.7202 18.7643 59.3841C21.3357 57.7769 24.1214 54.6966 25.1928 53.3573L32.8268 54.1609C32.2911 54.8305 30.3357 56.893 26.8 59.7859C23.6161 62.3909 15.6321 66.7117 10.9452 69.1106Z" fill="#2285FF"/>
<path d="M20.9488 83.2936C18.2026 80.8903 15.8116 77.9891 13.8475 74.7849C17.7621 73.2806 27.9362 69.0705 32.8268 63.8037C34.5107 61.9902 37.6864 58.2732 39.7749 55.2082C41.368 56.6589 43.3257 57.8551 45.3603 58.9799C43.7539 63.7837 39.9723 70.2947 34.4339 76.2591C31.0713 79.8803 25.0548 82.1833 20.9488 83.2936Z" fill="#2285FF"/>
<path d="M53.48 63.7194C55.723 65.4073 57.4057 67.4126 57.8639 70.1577C60.2905 84.6934 46.0958 92.7559 32.5822 89.4768C37.8169 84.8074 42.0671 79.9404 44.7701 76.8451L44.7723 76.8426C44.9489 76.6403 45.1189 76.4456 45.2821 76.2591C47.9647 73.1933 51.9403 67.6783 53.48 63.7194Z" fill="#2285FF"/>
<path d="M48.2995 60.5638C52.8461 63.0089 57.0924 65.5336 57.8643 70.1577C58.5007 73.9693 57.9941 77.3359 56.6565 80.1695L45.9922 78.5436L48.2995 60.5638Z" fill="#1F1F22"/>
<path d="M38.338 53.6954C27.6113 60.3102 15.2844 59.1226 7.80615 51.9635C7.97743 48.7292 8.61482 45.5865 9.76993 42.6755C13.8873 32.2994 26.338 30.4701 30.7091 37.7679C32.1261 40.1335 33.1626 42.7193 34.1991 45.3052C35.1386 47.6489 36.0781 49.9926 37.3008 52.1724C37.6024 52.7101 37.9506 53.2162 38.338 53.6954Z" fill="#1F1F22"/>
<path d="M28.4073 35.211C27.905 34.8367 27.3666 34.5193 26.8001 34.2585V51.7501H7.81812C7.8139 51.8212 7.80993 51.8923 7.80615 51.9635C8.32123 52.4566 8.85937 52.9214 9.41835 53.3572H26.8001V57.8475C27.3346 57.7801 27.8705 57.696 28.4073 57.595V53.3572H38.0746C37.7914 52.9795 37.5324 52.5852 37.3008 52.1724C37.2222 52.0323 37.1448 51.8915 37.0685 51.7501H28.4073V35.211Z" fill="#006EFF"/>
<path d="M48.3902 59.8535C48.4441 59.8913 48.498 59.9291 48.5519 59.967C51.9109 62.3302 55.0945 64.9482 55.8915 69.7224C56.5628 73.744 55.976 77.1166 54.5003 79.8407L53.1155 79.6295C54.6056 77.1224 55.2649 73.9171 54.6006 69.9379C53.9267 65.9006 51.3515 63.5748 48.2017 61.3229L48.3902 59.8535Z" fill="#FFFAEB"/>
<path d="M40.0353 52.5731C39.8335 52.2715 39.641 51.9589 39.4587 51.634C38.2472 49.4743 37.6591 47.5986 37.0575 45.6799L37.0026 45.5048C36.3808 43.5233 35.726 41.4932 34.3328 39.1673C31.9802 35.2396 27.4474 33.6996 23.035 34.4715C18.6107 35.2454 14.2497 38.3403 12.1061 43.7425C10.8381 46.9381 10.085 50.2895 9.8252 53.6666C10.2329 53.969 10.6511 54.2564 11.079 54.5287C11.2688 51.026 12.0074 47.5393 13.3225 44.2252C15.2962 39.2514 19.2782 36.4572 23.2605 35.7606C27.2545 35.0619 31.1916 36.4698 33.2102 39.8398C34.5182 42.0237 35.1357 43.9265 35.754 45.8966L35.8163 46.0954C36.4152 48.006 37.0383 49.9941 38.3174 52.2743C38.5178 52.6316 38.7299 52.9754 38.9523 53.3067C39.3154 53.0713 39.6765 52.8268 40.0353 52.5731Z" fill="white"/>
<path fill-rule="evenodd" clip-rule="evenodd" d="M38.8047 75.5768C38.0037 76.8708 36.7202 77.7407 34.8959 77.9725C31.2189 78.4398 28.4982 75.9408 26.7886 73.0555C25.0647 70.1461 24.147 66.5143 24.147 63.9371H26.147C26.147 66.1425 26.9614 69.4237 28.5092 72.036C30.0714 74.6724 32.1621 76.3038 34.6437 75.9885C35.8987 75.829 36.636 75.2805 37.1041 74.5242C37.6044 73.7158 37.8498 72.58 37.8839 71.2004C37.9449 68.7331 37.333 65.8885 36.8496 63.6413C36.79 63.3642 36.7324 63.0961 36.6782 62.839L38.6352 62.4265C38.6871 62.673 38.7438 62.9355 38.8035 63.2118C39.2819 65.4275 39.9507 68.5242 39.8833 71.2498C39.8452 72.7887 39.5733 74.3349 38.8047 75.5768Z" fill="white"/>
</svg>
