<svg width="116" height="96" viewBox="0 0 116 96" fill="none" xmlns="http://www.w3.org/2000/svg">
<path d="M94.932 46.4384C94.932 60.0118 83.9452 71.0153 70.3923 71.0153C56.8394 71.0153 45.8525 60.0118 45.8525 46.4384C45.8525 32.865 56.8394 21.8616 70.3923 21.8616C83.9452 21.8616 94.932 32.865 94.932 46.4384Z" fill="#FFC700"/>
<path d="M51.6146 62.2616C50.7844 61.2745 50.0305 60.221 49.3618 59.1102C49.6423 58.9549 49.9652 58.8664 50.3088 58.8664C51.3877 58.8664 52.2623 59.7381 52.2623 60.8134C52.2623 61.3884 52.0122 61.9052 51.6146 62.2616Z" fill="#FFE600"/>
<path d="M55.9261 66.2928C54.8198 65.4828 53.7837 64.5824 52.8286 63.6023C53.2032 63.21 53.7322 62.9654 54.3185 62.9654C55.4541 62.9654 56.3747 63.883 56.3747 65.0148C56.3747 65.4981 56.2069 65.9424 55.9261 66.2928Z" fill="#FFE600"/>
<path d="M87.0036 64.5287C86.2899 65.1864 85.5372 65.8023 84.7493 66.3724C84.0357 66.1531 83.5171 65.4906 83.5171 64.7074C83.5171 63.7453 84.2996 62.9654 85.2649 62.9654C86.1696 62.9654 86.9138 63.6506 87.0036 64.5287Z" fill="#FFE600"/>
<path d="M90.4678 60.5764C90.0369 61.1889 89.5788 61.7808 89.0953 62.3503C89.0865 62.3505 89.0777 62.3505 89.0689 62.3505C88.274 62.3505 87.6296 61.7082 87.6296 60.9159C87.6296 60.1236 88.274 59.4813 89.0689 59.4813C89.7465 59.4813 90.3147 59.9479 90.4678 60.5764Z" fill="#FFE600"/>
<path d="M93.0038 56.0046C92.7256 56.6633 92.4196 57.3073 92.0872 57.9351C91.8744 57.7301 91.7421 57.4427 91.7421 57.1244C91.7421 56.5019 92.2484 55.9972 92.873 55.9972C92.9172 55.9972 92.9609 55.9997 93.0038 56.0046Z" fill="#FFE600"/>
<path d="M53.7016 34.1703C53.7016 34.4533 53.9318 34.6827 54.2157 34.6827C54.4996 34.6827 54.7298 34.4533 54.7298 34.1703C54.7298 33.8874 54.4996 33.658 54.2157 33.658C53.9318 33.658 53.7016 33.8874 53.7016 34.1703Z" fill="#FFE600"/>
<path d="M58.2254 38.5767C58.6796 38.5767 59.0479 38.2097 59.0479 37.7569C59.0479 37.3041 58.6796 36.9371 58.2254 36.9371C57.7711 36.9371 57.4029 37.3041 57.4029 37.7569C57.4029 38.2097 57.7711 38.5767 58.2254 38.5767Z" fill="#FFE600"/>
<path d="M59.6647 45.5449C59.6647 46.3372 59.0203 46.9795 58.2254 46.9795C57.4304 46.9795 56.786 46.3372 56.786 45.5449C56.786 44.7526 57.4304 44.1103 58.2254 44.1103C59.0203 44.1103 59.6647 44.7526 59.6647 45.5449Z" fill="#FFE600"/>
<path d="M58.2254 54.7675C59.1339 54.7675 59.8703 54.0334 59.8703 53.1279C59.8703 52.2224 59.1339 51.4883 58.2254 51.4883C57.3169 51.4883 56.5804 52.2224 56.5804 53.1279C56.5804 54.0334 57.3169 54.7675 58.2254 54.7675Z" fill="#FFE600"/>
<path d="M58.2254 62.9654C59.361 62.9654 60.2816 62.0478 60.2816 60.9159C60.2816 59.784 59.361 58.8664 58.2254 58.8664C57.0897 58.8664 56.1691 59.784 56.1691 60.9159C56.1691 62.0478 57.0897 62.9654 58.2254 62.9654Z" fill="#FFE600"/>
<path d="M54.3185 59.0714C53.2964 59.0714 52.4679 58.2456 52.4679 57.2269C52.4679 56.2082 53.2964 55.3823 54.3185 55.3823C55.3406 55.3823 56.1691 56.2082 56.1691 57.2269C56.1691 58.2456 55.3406 59.0714 54.3185 59.0714Z" fill="#FFE600"/>
<path d="M54.2157 51.0785C55.0674 51.0785 55.7579 50.3903 55.7579 49.5414C55.7579 48.6924 55.0674 48.0042 54.2157 48.0042C53.364 48.0042 52.6735 48.6924 52.6735 49.5414C52.6735 50.3903 53.364 51.0785 54.2157 51.0785Z" fill="#FFE600"/>
<path d="M52.0566 53.2304C52.0566 54.1925 51.2741 54.9724 50.3088 54.9724C49.3436 54.9724 48.561 54.1925 48.561 53.2304C48.561 52.2683 49.3436 51.4883 50.3088 51.4883C51.2741 51.4883 52.0566 52.2683 52.0566 53.2304Z" fill="#FFE600"/>
<path d="M50.3088 46.9795C51.047 46.9795 51.6454 46.3831 51.6454 45.6474C51.6454 44.9116 51.047 44.3152 50.3088 44.3152C49.5707 44.3152 48.9723 44.9116 48.9723 45.6474C48.9723 46.3831 49.5707 46.9795 50.3088 46.9795Z" fill="#FFE600"/>
<path d="M54.3185 42.8806C53.7507 42.8806 53.2904 42.4218 53.2904 41.8558C53.2904 41.2899 53.7507 40.8311 54.3185 40.8311C54.8863 40.8311 55.3466 41.2899 55.3466 41.8558C55.3466 42.4218 54.8863 42.8806 54.3185 42.8806Z" fill="#FFE600"/>
<path d="M51.0285 37.8594C51.0285 38.2555 50.7063 38.5767 50.3088 38.5767C49.9114 38.5767 49.5892 38.2555 49.5892 37.8594C49.5892 37.4632 49.9114 37.1421 50.3088 37.1421C50.7063 37.1421 51.0285 37.4632 51.0285 37.8594Z" fill="#FFE600"/>
<path d="M63.9828 65.0148C63.9828 66.1467 63.0622 67.0643 61.9266 67.0643C60.791 67.0643 59.8703 66.1467 59.8703 65.0148C59.8703 63.883 60.791 62.9654 61.9266 62.9654C63.0622 62.9654 63.9828 63.883 63.9828 65.0148Z" fill="#FFE600"/>
<path d="M63.9828 60.8134C63.9828 61.8887 64.8574 62.7604 65.9363 62.7604C67.0151 62.7604 67.8897 61.8887 67.8897 60.8134C67.8897 59.7381 67.0151 58.8664 65.9363 58.8664C64.8574 58.8664 63.9828 59.7381 63.9828 60.8134Z" fill="#FFE600"/>
<path d="M63.7772 57.2269C63.7772 58.2456 62.9487 59.0714 61.9266 59.0714C60.9045 59.0714 60.076 58.2456 60.076 57.2269C60.076 56.2082 60.9045 55.3823 61.9266 55.3823C62.9487 55.3823 63.7772 56.2082 63.7772 57.2269Z" fill="#FFE600"/>
<path d="M60.4872 49.5414C60.4872 50.3903 61.1777 51.0785 62.0294 51.0785C62.8811 51.0785 63.5716 50.3903 63.5716 49.5414C63.5716 48.6924 62.8811 48.0042 62.0294 48.0042C61.1777 48.0042 60.4872 48.6924 60.4872 49.5414Z" fill="#FFE600"/>
<path d="M65.9363 54.9724C64.971 54.9724 64.1884 54.1925 64.1884 53.2304C64.1884 52.2683 64.971 51.4883 65.9363 51.4883C66.9015 51.4883 67.6841 52.2683 67.6841 53.2304C67.6841 54.1925 66.9015 54.9724 65.9363 54.9724Z" fill="#FFE600"/>
<path d="M67.8897 57.0219C67.8897 58.0406 68.7182 58.8664 69.7403 58.8664C70.7624 58.8664 71.5909 58.0406 71.5909 57.0219C71.5909 56.0032 70.7624 55.1774 69.7403 55.1774C68.7182 55.1774 67.8897 56.0032 67.8897 57.0219Z" fill="#FFE600"/>
<path d="M73.5443 54.7675C72.6926 54.7675 72.0022 54.0793 72.0022 53.2304C72.0022 52.3815 72.6926 51.6933 73.5443 51.6933C74.3961 51.6933 75.0865 52.3815 75.0865 53.2304C75.0865 54.0793 74.3961 54.7675 73.5443 54.7675Z" fill="#FFE600"/>
<path d="M68.5065 49.4389C68.5065 50.2312 69.151 50.8735 69.9459 50.8735C70.7409 50.8735 71.3853 50.2312 71.3853 49.4389C71.3853 48.6466 70.7409 48.0042 69.9459 48.0042C69.151 48.0042 68.5065 48.6466 68.5065 49.4389Z" fill="#FFE600"/>
<path d="M65.9363 46.9795C65.1981 46.9795 64.5997 46.3831 64.5997 45.6474C64.5997 44.9116 65.1981 44.3152 65.9363 44.3152C66.6744 44.3152 67.2728 44.9116 67.2728 45.6474C67.2728 46.3831 66.6744 46.9795 65.9363 46.9795Z" fill="#FFE600"/>
<path d="M61.9266 42.8806C62.4944 42.8806 62.9547 42.4218 62.9547 41.8558C62.9547 41.2899 62.4944 40.8311 61.9266 40.8311C61.3588 40.8311 60.8985 41.2899 60.8985 41.8558C60.8985 42.4218 61.3588 42.8806 61.9266 42.8806Z" fill="#FFE600"/>
<path d="M62.5435 34.1703C62.5435 34.4533 62.3133 34.6827 62.0294 34.6827C61.7455 34.6827 61.5153 34.4533 61.5153 34.1703C61.5153 33.8874 61.7455 33.658 62.0294 33.658C62.3133 33.658 62.5435 33.8874 62.5435 34.1703Z" fill="#FFE600"/>
<path d="M68.9178 41.7534C68.9178 42.2627 69.3321 42.6756 69.8431 42.6756C70.3541 42.6756 70.7684 42.2627 70.7684 41.7534C70.7684 41.244 70.3541 40.8311 69.8431 40.8311C69.3321 40.8311 68.9178 41.244 68.9178 41.7534Z" fill="#FFE600"/>
<path d="M65.9363 38.5767C65.5388 38.5767 65.2166 38.2555 65.2166 37.8594C65.2166 37.4632 65.5388 37.1421 65.9363 37.1421C66.3337 37.1421 66.6559 37.4632 66.6559 37.8594C66.6559 38.2555 66.3337 38.5767 65.9363 38.5767Z" fill="#FFE600"/>
<path d="M72.619 45.4424C72.619 46.065 73.1254 46.5696 73.75 46.5696C74.3746 46.5696 74.8809 46.065 74.8809 45.4424C74.8809 44.8199 74.3746 44.3152 73.75 44.3152C73.1254 44.3152 72.619 44.8199 72.619 45.4424Z" fill="#FFE600"/>
<path d="M77.554 50.4636C76.8726 50.4636 76.3203 49.9131 76.3203 49.2339C76.3203 48.5548 76.8726 48.0042 77.554 48.0042C78.2354 48.0042 78.7877 48.5548 78.7877 49.2339C78.7877 49.9131 78.2354 50.4636 77.554 50.4636Z" fill="#FFE600"/>
<path d="M80.4327 45.4424C80.4327 45.9518 80.847 46.3647 81.358 46.3647C81.8691 46.3647 82.2834 45.9518 82.2834 45.4424C82.2834 44.9331 81.8691 44.5201 81.358 44.5201C80.847 44.5201 80.4327 44.9331 80.4327 45.4424Z" fill="#FFE600"/>
<path d="M77.6568 42.4707C77.2593 42.4707 76.9371 42.1495 76.9371 41.7534C76.9371 41.3572 77.2593 41.0361 77.6568 41.0361C78.0543 41.0361 78.3765 41.3572 78.3765 41.7534C78.3765 42.1495 78.0543 42.4707 77.6568 42.4707Z" fill="#FFE600"/>
<path d="M73.0303 37.9618C73.0303 38.3014 73.3065 38.5767 73.6472 38.5767C73.9878 38.5767 74.264 38.3014 74.264 37.9618C74.264 37.6223 73.9878 37.347 73.6472 37.347C73.3065 37.347 73.0303 37.6223 73.0303 37.9618Z" fill="#FFE600"/>
<path d="M81.4609 38.3717C81.2337 38.3717 81.0496 38.1882 81.0496 37.9618C81.0496 37.7355 81.2337 37.552 81.4609 37.552C81.688 37.552 81.8721 37.7355 81.8721 37.9618C81.8721 38.1882 81.688 38.3717 81.4609 38.3717Z" fill="#FFE600"/>
<path d="M84.7508 41.5484C84.7508 41.8314 84.981 42.0608 85.2649 42.0608C85.5488 42.0608 85.779 41.8314 85.779 41.5484C85.779 41.2654 85.5488 41.0361 85.2649 41.0361C84.981 41.0361 84.7508 41.2654 84.7508 41.5484Z" fill="#FFE600"/>
<path d="M67.8897 64.7074C67.8897 65.7827 68.7643 66.6544 69.8431 66.6544C70.922 66.6544 71.7965 65.7827 71.7965 64.7074C71.7965 63.6321 70.922 62.7604 69.8431 62.7604C68.7643 62.7604 67.8897 63.6321 67.8897 64.7074Z" fill="#FFE600"/>
<path d="M73.6472 62.7604C72.6251 62.7604 71.7965 61.9346 71.7965 60.9159C71.7965 59.8972 72.6251 59.0714 73.6472 59.0714C74.6692 59.0714 75.4978 59.8972 75.4978 60.9159C75.4978 61.9346 74.6692 62.7604 73.6472 62.7604Z" fill="#FFE600"/>
<path d="M77.554 58.6615C76.6455 58.6615 75.909 57.9274 75.909 57.0219C75.909 56.1164 76.6455 55.3823 77.554 55.3823C78.4625 55.3823 79.199 56.1164 79.199 57.0219C79.199 57.9274 78.4625 58.6615 77.554 58.6615Z" fill="#FFE600"/>
<path d="M81.358 54.5626C80.6199 54.5626 80.0215 53.9661 80.0215 53.2304C80.0215 52.4947 80.6199 51.8982 81.358 51.8982C82.0962 51.8982 82.6946 52.4947 82.6946 53.2304C82.6946 53.9661 82.0962 54.5626 81.358 54.5626Z" fill="#FFE600"/>
<path d="M85.1621 50.4636C84.5943 50.4636 84.134 50.0048 84.134 49.4389C84.134 48.8729 84.5943 48.4141 85.1621 48.4141C85.7299 48.4141 86.1902 48.8729 86.1902 49.4389C86.1902 50.0048 85.7299 50.4636 85.1621 50.4636Z" fill="#FFE600"/>
<path d="M88.4521 45.5449C88.4521 45.8845 88.7283 46.1597 89.0689 46.1597C89.4096 46.1597 89.6858 45.8845 89.6858 45.5449C89.6858 45.2053 89.4096 44.93 89.0689 44.93C88.7283 44.93 88.4521 45.2053 88.4521 45.5449Z" fill="#FFE600"/>
<path d="M77.6568 66.6544C76.578 66.6544 75.7034 65.7827 75.7034 64.7074C75.7034 63.6321 76.578 62.7604 77.6568 62.7604C78.7357 62.7604 79.6102 63.6321 79.6102 64.7074C79.6102 65.7827 78.7357 66.6544 77.6568 66.6544Z" fill="#FFE600"/>
<path d="M79.8159 60.711C79.8159 61.6165 80.5524 62.3505 81.4609 62.3505C82.3694 62.3505 83.1058 61.6165 83.1058 60.711C83.1058 59.8055 82.3694 59.0714 81.4609 59.0714C80.5524 59.0714 79.8159 59.8055 79.8159 60.711Z" fill="#FFE600"/>
<path d="M85.2649 58.2516C84.5267 58.2516 83.9283 57.6552 83.9283 56.9194C83.9283 56.1837 84.5267 55.5873 85.2649 55.5873C86.0031 55.5873 86.6015 56.1837 86.6015 56.9194C86.6015 57.6552 86.0031 58.2516 85.2649 58.2516Z" fill="#FFE600"/>
<path d="M88.0408 53.2304C88.0408 53.8529 88.5472 54.3576 89.1718 54.3576C89.7964 54.3576 90.3027 53.8529 90.3027 53.2304C90.3027 52.6079 89.7964 52.1032 89.1718 52.1032C88.5472 52.1032 88.0408 52.6079 88.0408 53.2304Z" fill="#FFE600"/>
<path d="M92.9758 50.0537C92.5215 50.0537 92.1533 49.6867 92.1533 49.2339C92.1533 48.7812 92.5215 48.4141 92.9758 48.4141C93.43 48.4141 93.7983 48.7812 93.7983 49.2339C93.7983 49.6867 93.43 50.0537 92.9758 50.0537Z" fill="#FFE600"/>
<path d="M75.8393 59.6269C78.6628 55.4883 83.323 52.1842 90.222 52.347C100.805 52.5967 110.483 62.341 106.961 75.1198C101.669 94.3273 74.3011 94.8722 51.2113 94.3273C32.4682 93.885 10.3004 94.326 6.33375 78.8074C4.33343 70.9816 9.06076 65.182 13.912 63.5612C17.9481 62.2126 21.0333 62.7636 23.1928 64.1486C24.3702 54.1784 30.7482 40.1073 48.6551 39.3153C65.1525 38.5856 73.0056 49.6204 75.8393 59.6269Z" fill="#E5F9FF"/>
<path d="M12.856 88.0524C12.2731 87.6518 11.7195 87.2242 11.1976 86.7677C11.2585 86.76 11.3206 86.7561 11.3835 86.7561C12.1399 86.7561 12.7641 87.3215 12.856 88.0524Z" fill="#A0CEFF"/>
<path d="M26.3345 92.8236C24.9635 92.5955 23.6296 92.3277 22.3431 92.0123C22.6229 91.2105 23.3862 90.6352 24.2839 90.6352C25.4187 90.6352 26.3388 91.5546 26.3388 92.6888C26.3388 92.7341 26.3373 92.779 26.3345 92.8236Z" fill="#A0CEFF"/>
<path d="M34.6616 93.7612C33.3765 93.6707 32.1044 93.5618 30.852 93.4292C30.7394 93.167 30.6769 92.8781 30.6769 92.5747C30.6769 91.3775 31.6481 90.407 32.846 90.407C34.0439 90.407 35.0151 91.3775 35.0151 92.5747C35.0151 93.0127 34.8851 93.4203 34.6616 93.7612Z" fill="#A0CEFF"/>
<path d="M43.3881 94.1525C42.19 94.1204 40.99 94.0829 39.7934 94.0358C39.5167 93.6583 39.3533 93.1926 39.3533 92.6888C39.3533 91.4286 40.3755 90.407 41.6365 90.407C42.8975 90.407 43.9197 91.4286 43.9197 92.6888C43.9197 93.2458 43.7199 93.7563 43.3881 94.1525Z" fill="#A0CEFF"/>
<path d="M51.467 94.3333C51.3818 94.3314 51.2966 94.3294 51.2115 94.3274C50.431 94.309 49.6446 94.292 48.8537 94.2755C48.3517 93.8785 48.0296 93.2642 48.0296 92.5747C48.0296 91.3775 49.0007 90.407 50.1986 90.407C51.3966 90.407 52.3677 91.3775 52.3677 92.5747C52.3677 93.2986 52.0126 93.9396 51.467 94.3333Z" fill="#A0CEFF"/>
<path d="M59.8244 94.4462C59.1088 94.4458 58.3942 94.4423 57.6812 94.4365C57.0958 94.0746 56.7059 93.4272 56.7059 92.6888C56.7059 91.5546 57.6259 90.6352 58.7608 90.6352C59.8957 90.6352 60.8157 91.5546 60.8157 92.6888C60.8157 93.4339 60.4186 94.0863 59.8244 94.4462Z" fill="#A0CEFF"/>
<path d="M77.1963 93.6023C76.4013 93.6954 75.5996 93.7791 74.7923 93.8543C74.4812 93.5629 74.2868 93.1485 74.2868 92.6888C74.2868 91.8066 75.0024 91.0915 75.8851 91.0915C76.7678 91.0915 77.4834 91.8066 77.4834 92.6888C77.4834 93.0285 77.3772 93.3435 77.1963 93.6023Z" fill="#A0CEFF"/>
<path d="M85.5393 92.1829C84.7701 92.3625 83.989 92.5288 83.1972 92.6826C83.2577 92.0459 83.7943 91.5479 84.4473 91.5479C84.9151 91.5479 85.3233 91.8036 85.5393 92.1829Z" fill="#A0CEFF"/>
<path d="M37.1842 63.482C36.869 63.482 36.6134 63.2266 36.6134 62.9115C36.6134 62.5965 36.869 62.3411 37.1842 62.3411C37.4994 62.3411 37.755 62.5965 37.755 62.9115C37.755 63.2266 37.4994 63.482 37.1842 63.482Z" fill="#A0CEFF"/>
<path d="M42.5498 66.9046C42.5498 67.4087 42.1409 67.8173 41.6365 67.8173C41.1321 67.8173 40.7232 67.4087 40.7232 66.9046C40.7232 66.4006 41.1321 65.9919 41.6365 65.9919C42.1409 65.9919 42.5498 66.4006 42.5498 66.9046Z" fill="#A0CEFF"/>
<path d="M41.6365 77.1727C42.5192 77.1727 43.2347 76.4575 43.2347 75.5754C43.2347 74.6933 42.5192 73.9782 41.6365 73.9782C40.7538 73.9782 40.0382 74.6933 40.0382 75.5754C40.0382 76.4575 40.7538 77.1727 41.6365 77.1727Z" fill="#A0CEFF"/>
<path d="M43.4631 84.018C43.4631 85.0262 42.6453 85.8434 41.6365 85.8434C40.6277 85.8434 39.8099 85.0262 39.8099 84.018C39.8099 83.0098 40.6277 82.1926 41.6365 82.1926C42.6453 82.1926 43.4631 83.0098 43.4631 84.018Z" fill="#A0CEFF"/>
<path d="M37.2983 90.6352C36.1635 90.6352 35.2434 89.7157 35.2434 88.5816C35.2434 87.4474 36.1635 86.528 37.2983 86.528C38.4332 86.528 39.3533 87.4474 39.3533 88.5816C39.3532 89.7157 38.4332 90.6352 37.2983 90.6352Z" fill="#A0CEFF"/>
<path d="M37.1842 81.7362C38.1299 81.7362 38.8966 80.97 38.8966 80.0249C38.8966 79.0797 38.1299 78.3136 37.1842 78.3136C36.2384 78.3136 35.4717 79.0797 35.4717 80.0249C35.4717 80.97 36.2384 81.7362 37.1842 81.7362Z" fill="#A0CEFF"/>
<path d="M34.7868 84.1321C34.7868 85.2033 33.9178 86.0716 32.846 86.0716C31.7742 86.0716 30.9053 85.2033 30.9053 84.1321C30.9053 83.0609 31.7742 82.1926 32.846 82.1926C33.9178 82.1926 34.7868 83.0609 34.7868 84.1321Z" fill="#A0CEFF"/>
<path d="M28.622 90.407C29.7569 90.407 30.6769 89.4876 30.6769 88.3534C30.6769 87.2192 29.7569 86.2998 28.622 86.2998C27.4871 86.2998 26.5671 87.2192 26.5671 88.3534C26.5671 89.4876 27.4871 90.407 28.622 90.407Z" fill="#A0CEFF"/>
<path d="M26.1105 84.1321C26.1105 85.0772 25.3438 85.8434 24.398 85.8434C23.4523 85.8434 22.6856 85.0772 22.6856 84.1321C22.6856 83.187 23.4523 82.4208 24.398 82.4208C25.3438 82.4208 26.1105 83.187 26.1105 84.1321Z" fill="#A0CEFF"/>
<path d="M28.3937 81.508C29.2764 81.508 29.992 80.7929 29.992 79.9108C29.992 79.0287 29.2764 78.3136 28.3937 78.3136C27.511 78.3136 26.7954 79.0287 26.7954 79.9108C26.7954 80.7929 27.511 81.508 28.3937 81.508Z" fill="#A0CEFF"/>
<path d="M34.3301 75.6895C34.3301 76.5086 33.6657 77.1727 32.846 77.1727C32.0264 77.1727 31.3619 76.5086 31.3619 75.6895C31.3619 74.8704 32.0264 74.2063 32.846 74.2063C33.6657 74.2063 34.3301 74.8704 34.3301 75.6895Z" fill="#A0CEFF"/>
<path d="M36.1567 71.4682C36.1567 72.0983 36.6678 72.6091 37.2983 72.6091C37.9289 72.6091 38.4399 72.0983 38.4399 71.4682C38.44 70.8381 37.9289 70.3273 37.2983 70.3273C36.6678 70.3273 36.1567 70.8381 36.1567 71.4682Z" fill="#A0CEFF"/>
<path d="M28.5079 72.3809C29.0753 72.3809 29.5353 71.9212 29.5353 71.3541C29.5353 70.787 29.0753 70.3273 28.5079 70.3273C27.9404 70.3273 27.4804 70.787 27.4804 71.3541C27.4804 71.9212 27.9404 72.3809 28.5079 72.3809Z" fill="#A0CEFF"/>
<path d="M33.6451 67.0187C33.6451 67.4598 33.2874 67.8173 32.846 67.8173C32.4047 67.8173 32.0469 67.4598 32.0469 67.0187C32.0469 66.5777 32.4047 66.2201 32.846 66.2201C33.2874 66.2201 33.6451 66.5777 33.6451 67.0187Z" fill="#A0CEFF"/>
<path d="M24.1697 76.7163C24.8633 76.7163 25.4255 76.1544 25.4255 75.4613C25.4255 74.7682 24.8633 74.2063 24.1697 74.2063C23.4761 74.2063 22.9139 74.7682 22.9139 75.4613C22.9139 76.1544 23.4761 76.7163 24.1697 76.7163Z" fill="#A0CEFF"/>
<path d="M21.3157 79.6826C21.3157 80.4387 20.7023 81.0517 19.9457 81.0517C19.1891 81.0517 18.5758 80.4387 18.5758 79.6826C18.5758 78.9265 19.1891 78.3136 19.9457 78.3136C20.7023 78.3136 21.3157 78.9265 21.3157 79.6826Z" fill="#A0CEFF"/>
<path d="M15.7217 76.4881C16.2892 76.4881 16.7492 76.0284 16.7492 75.4613C16.7492 74.8942 16.2892 74.4345 15.7217 74.4345C15.1543 74.4345 14.6942 74.8942 14.6942 75.4613C14.6942 76.0284 15.1543 76.4881 15.7217 76.4881Z" fill="#A0CEFF"/>
<path d="M20.6307 71.3541C20.6307 71.7952 20.2729 72.1527 19.8315 72.1527C19.3902 72.1527 19.0324 71.7952 19.0324 71.3541C19.0324 70.913 19.3902 70.5555 19.8315 70.5555C20.2729 70.5555 20.6307 70.913 20.6307 71.3541Z" fill="#A0CEFF"/>
<path d="M24.2839 67.8173C24.6622 67.8173 24.9688 67.5109 24.9688 67.1328C24.9688 66.7547 24.6622 66.4483 24.2839 66.4483C23.9056 66.4483 23.5989 66.7547 23.5989 67.1328C23.5989 67.5109 23.9056 67.8173 24.2839 67.8173Z" fill="#A0CEFF"/>
<path d="M16.0642 67.1328C16.0642 67.3849 15.8597 67.5892 15.6075 67.5892C15.3554 67.5892 15.1509 67.3849 15.1509 67.1328C15.1509 66.8808 15.3554 66.6764 15.6075 66.6764C15.8597 66.6764 16.0642 66.8808 16.0642 67.1328Z" fill="#A0CEFF"/>
<path d="M11.3835 71.6964C11.6988 71.6964 11.9544 71.441 11.9544 71.1259C11.9544 70.8109 11.6988 70.5555 11.3835 70.5555C11.0683 70.5555 10.8127 70.8109 10.8127 71.1259C10.8127 71.441 11.0683 71.6964 11.3835 71.6964Z" fill="#A0CEFF"/>
<path d="M19.9457 90.1788C20.9545 90.1788 21.7723 89.3615 21.7723 88.3534C21.7723 87.3452 20.9545 86.528 19.9457 86.528C18.9369 86.528 18.1191 87.3452 18.1191 88.3534C18.1191 89.3615 18.9369 90.1788 19.9457 90.1788Z" fill="#A0CEFF"/>
<path d="M15.7217 85.6152C16.5414 85.6152 17.2058 84.9512 17.2058 84.1321C17.2058 83.313 16.5414 82.6489 15.7217 82.6489C14.902 82.6489 14.2376 83.313 14.2376 84.1321C14.2376 84.9512 14.902 85.6152 15.7217 85.6152Z" fill="#A0CEFF"/>
<path d="M12.6393 79.9108C12.6393 80.5409 12.1282 81.0517 11.4977 81.0517C10.8672 81.0517 10.3561 80.5409 10.3561 79.9108C10.3561 79.2807 10.8672 78.7699 11.4977 78.7699C12.1282 78.7699 12.6393 79.2807 12.6393 79.9108Z" fill="#A0CEFF"/>
<path d="M7.1596 76.26C7.53786 76.26 7.84453 75.9535 7.84453 75.5754C7.84453 75.1974 7.53786 74.8909 7.1596 74.8909C6.78127 74.8909 6.47461 75.1974 6.47461 75.5754C6.47461 75.9535 6.78127 76.26 7.1596 76.26Z" fill="#A0CEFF"/>
<path d="M47.8012 88.5816C47.8012 89.7157 46.8812 90.6352 45.7463 90.6352C44.6114 90.6352 43.6914 89.7157 43.6914 88.5816C43.6914 87.4474 44.6114 86.528 45.7463 86.528C46.8812 86.528 47.8012 87.4474 47.8012 88.5816Z" fill="#A0CEFF"/>
<path d="M44.1481 80.0249C44.1481 80.97 44.9147 81.7362 45.8605 81.7362C46.8062 81.7362 47.5729 80.97 47.5729 80.0249C47.5729 79.0797 46.8062 78.3136 45.8605 78.3136C44.9147 78.3136 44.1481 79.0797 44.1481 80.0249Z" fill="#A0CEFF"/>
<path d="M50.1986 86.0716C49.1268 86.0716 48.2579 85.2033 48.2579 84.1321C48.2579 83.0609 49.1268 82.1926 50.1986 82.1926C51.2705 82.1926 52.1394 83.0609 52.1394 84.1321C52.1394 85.2033 51.2705 86.0716 50.1986 86.0716Z" fill="#A0CEFF"/>
<path d="M52.3677 88.3534C52.3677 89.4876 53.2878 90.407 54.4226 90.407C55.5575 90.407 56.4775 89.4876 56.4775 88.3534C56.4775 87.2192 55.5575 86.2998 54.4226 86.2998C53.2878 86.2998 52.3677 87.2192 52.3677 88.3534Z" fill="#A0CEFF"/>
<path d="M58.6466 85.8434C57.7009 85.8434 56.9342 85.0772 56.9342 84.1321C56.9342 83.187 57.7009 82.4208 58.6466 82.4208C59.5924 82.4208 60.3591 83.187 60.3591 84.1321C60.3591 85.0772 59.5924 85.8434 58.6466 85.8434Z" fill="#A0CEFF"/>
<path d="M53.0527 79.9108C53.0527 80.7929 53.7683 81.508 54.651 81.508C55.5337 81.508 56.2492 80.7929 56.2492 79.9108C56.2492 79.0287 55.5337 78.3136 54.651 78.3136C53.7683 78.3136 53.0527 79.0287 53.0527 79.9108Z" fill="#A0CEFF"/>
<path d="M50.1986 77.1727C49.379 77.1727 48.7145 76.5086 48.7145 75.6895C48.7145 74.8704 49.379 74.2063 50.1986 74.2063C51.0183 74.2063 51.6827 74.8704 51.6827 75.6895C51.6827 76.5086 51.0183 77.1727 50.1986 77.1727Z" fill="#A0CEFF"/>
<path d="M45.7463 72.6091C46.3769 72.6091 46.8879 72.0983 46.8879 71.4682C46.8879 70.8381 46.3769 70.3273 45.7463 70.3273C45.1158 70.3273 44.6047 70.8381 44.6047 71.4682C44.6047 72.0983 45.1158 72.6091 45.7463 72.6091Z" fill="#A0CEFF"/>
<path d="M46.4313 62.9115C46.4313 63.2266 46.1757 63.482 45.8605 63.482C45.5453 63.482 45.2897 63.2266 45.2897 62.9115C45.2897 62.5965 45.5453 62.3411 45.8605 62.3411C46.1757 62.3411 46.4313 62.5965 46.4313 62.9115Z" fill="#A0CEFF"/>
<path d="M53.5093 71.3541C53.5093 71.9212 53.9693 72.3809 54.5368 72.3809C55.1043 72.3809 55.5643 71.9212 55.5643 71.3541C55.5643 70.787 55.1043 70.3273 54.5368 70.3273C53.9693 70.3273 53.5093 70.787 53.5093 71.3541Z" fill="#A0CEFF"/>
<path d="M50.1986 67.8173C49.7573 67.8173 49.3995 67.4598 49.3995 67.0187C49.3995 66.5777 49.7573 66.2201 50.1986 66.2201C50.64 66.2201 50.9978 66.5777 50.9978 67.0187C50.9978 67.4598 50.64 67.8173 50.1986 67.8173Z" fill="#A0CEFF"/>
<path d="M57.6192 75.4613C57.6192 76.1544 58.1814 76.7163 58.8749 76.7163C59.5685 76.7163 60.1307 76.1544 60.1307 75.4613C60.1307 74.7682 59.5685 74.2063 58.8749 74.2063C58.1814 74.2063 57.6192 74.7682 57.6192 75.4613Z" fill="#A0CEFF"/>
<path d="M63.0989 81.0517C62.3423 81.0517 61.729 80.4387 61.729 79.6826C61.729 78.9265 62.3423 78.3136 63.0989 78.3136C63.8556 78.3136 64.4689 78.9265 64.4689 79.6826C64.4689 80.4387 63.8556 81.0517 63.0989 81.0517Z" fill="#A0CEFF"/>
<path d="M66.2955 75.4613C66.2955 76.0284 66.7555 76.4881 67.3229 76.4881C67.8904 76.4881 68.3504 76.0284 68.3504 75.4613C68.3504 74.8942 67.8904 74.4345 67.3229 74.4345C66.7555 74.4345 66.2955 74.8942 66.2955 75.4613Z" fill="#A0CEFF"/>
<path d="M63.2131 72.1527C62.7718 72.1527 62.414 71.7952 62.414 71.3541C62.414 70.913 62.7718 70.5555 63.2131 70.5555C63.6544 70.5555 64.0123 70.913 64.0123 71.3541C64.0123 71.7952 63.6544 72.1527 63.2131 72.1527Z" fill="#A0CEFF"/>
<path d="M58.0758 67.1328C58.0758 67.5109 58.3825 67.8173 58.7608 67.8173C59.1391 67.8173 59.4458 67.5109 59.4458 67.1328C59.4458 66.7547 59.1391 66.4483 58.7608 66.4483C58.3825 66.4483 58.0758 66.7547 58.0758 67.1328Z" fill="#A0CEFF"/>
<path d="M67.4371 67.5892C67.1849 67.5892 66.9805 67.3849 66.9805 67.1328C66.9805 66.8808 67.1849 66.6764 67.4371 66.6764C67.6893 66.6764 67.8937 66.8808 67.8937 67.1328C67.8937 67.3849 67.6893 67.5892 67.4371 67.5892Z" fill="#A0CEFF"/>
<path d="M71.0903 71.1259C71.0903 71.441 71.3459 71.6964 71.6611 71.6964C71.9763 71.6964 72.2319 71.441 72.2319 71.1259C72.2319 70.8109 71.9763 70.5555 71.6611 70.5555C71.3459 70.5555 71.0903 70.8109 71.0903 71.1259Z" fill="#A0CEFF"/>
<path d="M88.7854 89.2661C88.344 89.2661 87.9863 88.9085 87.9863 88.4675C87.9863 88.0264 88.344 87.6688 88.7854 87.6688C89.2267 87.6688 89.5845 88.0264 89.5845 88.4675C89.5845 88.9085 89.2267 89.2661 88.7854 89.2661Z" fill="#A0CEFF"/>
<path d="M63.0989 90.1788C62.0902 90.1788 61.2723 89.3615 61.2723 88.3534C61.2723 87.3452 62.0902 86.528 63.0989 86.528C64.1077 86.528 64.9255 87.3452 64.9255 88.3534C64.9255 89.3615 64.1077 90.1788 63.0989 90.1788Z" fill="#A0CEFF"/>
<path d="M67.3229 85.6152C66.5033 85.6152 65.8388 84.9512 65.8388 84.1321C65.8388 83.313 66.5033 82.6489 67.3229 82.6489C68.1426 82.6489 68.8071 83.313 68.8071 84.1321C68.8071 84.9512 68.1426 85.6152 67.3229 85.6152Z" fill="#A0CEFF"/>
<path d="M78.8533 88.4675C78.8533 89.1606 79.4155 89.7224 80.1091 89.7224C80.8026 89.7224 81.3649 89.1606 81.3649 88.4675C81.3649 87.7744 80.8026 87.2125 80.1091 87.2125C79.4155 87.2125 78.8533 87.7744 78.8533 88.4675Z" fill="#A0CEFF"/>
<path d="M71.5469 81.0517C70.9164 81.0517 70.4053 80.5409 70.4053 79.9108C70.4053 79.2807 70.9164 78.7699 71.5469 78.7699C72.1775 78.7699 72.6886 79.2807 72.6886 79.9108C72.6886 80.5409 72.1775 81.0517 71.5469 81.0517Z" fill="#A0CEFF"/>
<path d="M83.6481 84.1321C83.6481 84.5732 84.0059 84.9307 84.4473 84.9307C84.8886 84.9307 85.2464 84.5732 85.2464 84.1321C85.2464 83.691 84.8886 83.3335 84.4473 83.3335C84.0059 83.3335 83.6481 83.691 83.6481 84.1321Z" fill="#A0CEFF"/>
<path d="M75.8851 76.26C75.5068 76.26 75.2001 75.9535 75.2001 75.5754C75.2001 75.1974 75.5068 74.8909 75.8851 74.8909C76.2634 74.8909 76.5701 75.1974 76.5701 75.5754C76.5701 75.9535 76.2634 76.26 75.8851 76.26Z" fill="#A0CEFF"/>
<path d="M65.6105 92.4606C65.6105 93.4688 66.4283 94.286 67.4371 94.286C68.4459 94.286 69.2637 93.4688 69.2637 92.4606C69.2637 91.4524 68.4459 90.6352 67.4371 90.6352C66.4283 90.6352 65.6105 91.4524 65.6105 92.4606Z" fill="#A0CEFF"/>
<path d="M71.6611 89.7224C70.8414 89.7224 70.177 89.0584 70.177 88.2393C70.177 87.4202 70.8414 86.7561 71.6611 86.7561C72.4808 86.7561 73.1452 87.4202 73.1452 88.2393C73.1452 89.0584 72.4808 89.7224 71.6611 89.7224Z" fill="#A0CEFF"/>
<path d="M74.7435 84.1321C74.7435 84.8252 75.3057 85.3871 75.9993 85.3871C76.6928 85.3871 77.255 84.8252 77.255 84.1321C77.255 83.439 76.6928 82.8771 75.9993 82.8771C75.3057 82.8771 74.7435 83.439 74.7435 84.1321Z" fill="#A0CEFF"/>
<path d="M80.2233 80.5953C79.7188 80.5953 79.31 80.1867 79.31 79.6826C79.31 79.1785 79.7188 78.7699 80.2233 78.7699C80.7276 78.7699 81.1365 79.1785 81.1365 79.6826C81.1365 80.1867 80.7276 80.5953 80.2233 80.5953Z" fill="#A0CEFF"/>
<path fill-rule="evenodd" clip-rule="evenodd" d="M72.5034 72.9743C72.0732 74.0375 71.2738 75.1874 69.9304 75.1557C68.8406 75.13 68.0305 74.4932 67.5105 73.6483C67.0052 72.8272 66.7242 71.7492 66.6152 70.578C66.3961 68.222 66.8449 65.1809 68.0335 62.194C68.5306 60.9448 69.1628 59.6937 69.9382 58.4978C69.7073 57.7216 69.445 56.9398 69.1495 56.1589C67.4695 51.7186 64.7374 47.3607 60.6566 44.1963C56.5917 41.0443 51.1306 39.0301 43.8874 39.3505C30.2022 39.9558 23.5393 48.5626 20.7787 56.9567C20.1293 58.9313 19.7001 60.8857 19.4497 62.7089C20.4165 63.4291 21.1938 64.3026 21.783 65.2345C22.8105 66.8598 23.2923 68.7047 23.1842 70.2949C23.0777 71.8612 22.3499 73.435 20.7011 73.9425C20.0833 74.1327 19.4946 73.9803 19.0327 73.6284C18.6122 73.308 18.3101 72.8387 18.0869 72.354C17.6362 71.3754 17.3513 69.9893 17.2332 68.3921C17.1316 67.0185 17.1495 65.4332 17.3171 63.7208C16.9894 63.5475 16.6407 63.3952 16.2709 63.2677C14.5434 62.672 12.2769 62.5902 9.417 63.5458C5.01024 65.0181 0.633505 70.3303 2.49065 77.5959C4.33358 84.8059 10.3911 88.4265 18.6388 90.2815C25.9886 91.9345 34.7968 92.1183 43.2909 92.2956C44.3408 92.3175 45.3859 92.3393 46.4229 92.3638C57.9781 92.6364 70.4698 92.6292 80.717 90.194C90.9609 87.7596 98.6821 82.9748 101.185 73.8902C104.51 61.8273 95.4137 52.6195 85.3865 52.3828C79.111 52.2348 74.806 55.116 72.1161 58.8491C73.0632 62.3664 73.4119 65.7457 73.3064 68.4672C73.2371 70.254 72.9698 71.8214 72.5034 72.9743ZM70.641 61.2755C70.3626 61.8226 70.1132 62.3772 69.8918 62.9336C68.7999 65.6773 68.4214 68.4011 68.6066 70.3929C68.6999 71.3956 68.9289 72.1373 69.2138 72.6001C69.484 73.0392 69.7444 73.1507 69.9774 73.1562L69.9783 73.1563C69.9875 73.1569 70.0435 73.1602 70.1623 73.0443C70.3007 72.9092 70.476 72.6526 70.6494 72.224C70.9954 71.3688 71.2433 70.0569 71.3079 68.3896C71.3866 66.36 71.1904 63.8985 70.641 61.2755ZM71.4044 56.5181C74.445 52.9179 79.0292 50.2323 85.4335 50.3834C96.572 50.6462 106.832 60.9271 103.114 74.4217C100.324 84.5446 91.7151 89.6361 81.1796 92.1398C70.6474 94.6427 57.9104 94.6354 46.3758 94.3632C45.344 94.3389 44.2994 94.3172 43.246 94.2954C34.7879 94.1203 25.7614 93.9334 18.2 92.2328C9.68638 90.318 2.67671 86.3998 0.552954 78.0911C-1.59054 69.7052 3.48738 63.4182 8.78309 61.6488C11.9872 60.5783 14.7114 60.6144 16.9228 61.3769C17.1509 61.4556 17.3727 61.5417 17.5882 61.6347C17.8641 59.927 18.2857 58.1352 18.8788 56.3318C21.8206 47.3868 29.0575 38.0044 43.7989 37.3524C51.4917 37.0121 57.4239 39.1588 61.8821 42.6158C66.3243 46.0604 69.245 50.7596 71.0201 55.4512C71.1546 55.8068 71.2827 56.1626 71.4044 56.5181ZM19.2117 65.1659C19.1501 66.2847 19.1595 67.322 19.2278 68.2448C19.3379 69.7335 19.5958 70.8494 19.9035 71.5174C20.0277 71.7872 20.1362 71.931 20.2025 71.9992C20.6971 71.8008 21.1157 71.2351 21.1888 70.1591C21.2647 69.0421 20.9211 67.6139 20.0925 66.3032C19.8412 65.9057 19.5477 65.5229 19.2117 65.1659Z" fill="#6FAEFF"/>
<path fill-rule="evenodd" clip-rule="evenodd" d="M68.4111 14.1511V0.657959L71.4111 0.657959V14.1511L68.4111 14.1511ZM38.6498 13.0069L48.1765 22.548L46.0536 24.6677L36.5269 15.1266L38.6498 13.0069ZM91.6457 22.548L101.172 13.0069L103.295 15.1266L93.7686 24.6677L91.6457 22.548ZM102.15 44.9384H115.622V47.9384H102.15V44.9384Z" fill="#FFD600"/>
</svg>
