<svg width="321" height="15" viewBox="0 0 321 15" fill="none" xmlns="http://www.w3.org/2000/svg">
<path d="M0.00390625 7.5C0.00390625 5.567 1.57091 4 3.50391 4H316.504C318.437 4 320.004 5.567 320.004 7.5C320.004 9.433 318.437 11 316.504 11H3.50391C1.57091 11 0.00390625 9.433 0.00390625 7.5Z" fill="#F7F7F7"/>
<path fill-rule="evenodd" clip-rule="evenodd" d="M316.504 5H3.50391C2.12319 5 1.00391 6.11929 1.00391 7.5C1.00391 8.88071 2.1232 10 3.50391 10H316.504C317.885 10 319.004 8.88071 319.004 7.5C319.004 6.11929 317.885 5 316.504 5ZM3.50391 4C1.57091 4 0.00390625 5.567 0.00390625 7.5C0.00390625 9.433 1.57091 11 3.50391 11H316.504C318.437 11 320.004 9.433 320.004 7.5C320.004 5.567 318.437 4 316.504 4H3.50391Z" fill="#E2E2E2"/>
<path d="M0 7.5C0 5.567 1.567 4 3.5 4H269.5C271.433 4 273 5.567 273 7.5C273 9.433 271.433 11 269.5 11H3.49999C1.567 11 0 9.433 0 7.5Z" fill="#ED89FB"/>
<path d="M281.004 7.5C281.004 11.6421 277.646 15 273.504 15C269.362 15 266.004 11.6421 266.004 7.5C266.004 3.35786 269.362 0 273.504 0C277.646 0 281.004 3.35786 281.004 7.5Z" fill="#ED89FB"/>
<path fill-rule="evenodd" clip-rule="evenodd" d="M273.504 14C277.094 14 280.004 11.0899 280.004 7.5C280.004 3.91015 277.094 1 273.504 1C269.914 1 267.004 3.91015 267.004 7.5C267.004 11.0899 269.914 14 273.504 14ZM273.504 15C277.646 15 281.004 11.6421 281.004 7.5C281.004 3.35786 277.646 0 273.504 0C269.362 0 266.004 3.35786 266.004 7.5C266.004 11.6421 269.362 15 273.504 15Z" fill="white"/>
</svg>
