<svg width="160" height="160" fill="none" xmlns="http://www.w3.org/2000/svg"><circle cx="80" cy="80" r="80" fill="#FAD85D"/><path d="m86.388 70.097-2.777-2.776c-1.983-1.984-5.241-1.984-7.225 0l-2.776 2.776a1.428 1.428 0 0 0 0 2.012l5.397 5.398a1.41 1.41 0 0 0 1.998 0l5.397-5.398a1.441 1.441 0 0 0-.014-2.012ZM70.096 73.61l-2.776 2.778c-1.984 1.983-1.984 5.241 0 7.225l2.776 2.776a1.41 1.41 0 0 0 1.998 0l5.397-5.397a1.41 1.41 0 0 0 0-1.998l-5.383-5.383a1.428 1.428 0 0 0-2.012 0Zm22.584 2.778-2.777-2.777a1.41 1.41 0 0 0-1.997 0l-5.398 5.397a1.41 1.41 0 0 0 0 1.998l5.398 5.397a1.41 1.41 0 0 0 1.997 0l2.777-2.776c1.983-1.998 1.983-5.256 0-7.24ZM73.612 89.903l2.776 2.776c1.983 1.984 5.242 1.984 7.225 0l2.777-2.776a1.41 1.41 0 0 0 0-1.998l-5.398-5.397a1.41 1.41 0 0 0-1.997 0l-5.398 5.397c-.538.538-.538 1.445.015 1.998Zm72.288-7.428-4.09-.284-.042.598c-.038.545.296.843 1.001.892l2.075.144c.346.024.595-.012.749-.108.154-.096.242-.31.265-.643l.042-.599Zm-6.205-.432-6.624-.46.157-2.255 14.844 1.033-.254 3.65c-.054.772-.273 1.325-.657 1.66-.371.348-.97.493-1.794.436l-2.634-.183c-.997-.07-1.607-.44-1.827-1.11-.338.632-.9.92-1.684.865l-5.208-.362a2.61 2.61 0 0 0-1.112.143l-.1-.007.155-2.234c.25-.13.661-.175 1.233-.135l4.469.31c.346.025.589-.012.729-.109.154-.096.243-.317.267-.663l.04-.579Zm7.519 8.236-1.06 5.03-2.113-.446.593-2.818-3.816-.803-.466 2.211-2.211-.466.465-2.211-4.207-.886-.619 2.935-2.211-.466 1.084-5.147 14.561 3.067Zm-7.037 13.27-7.814-2.798c-1.895-.679-2.73-1.729-2.504-3.15l-3.175-.032.91-2.542 2.787.998c.727-1.439 2.083-1.803 4.066-1.092l7.795 2.792c2.147.768 2.894 2.063 2.242 3.883l-.128.358c-.351.979-.876 1.577-1.577 1.793-.705.229-1.572.159-2.602-.21Zm-7.189-5.018 8.059 2.887c.715.256 1.161.139 1.336-.35.18-.502-.088-.881-.803-1.138l-8.059-2.886c-.715-.256-1.165-.127-1.35.388-.171.477.102.843.817 1.1Zm-1.424 4.156 10.274 5.471-1.081 2.031-10.398-5.537c-.624-.332-1.049-.287-1.274.137-.232.435-.036.819.588 1.151l10.397 5.537-1.081 2.03-10.274-5.471c-2.012-1.071-2.574-2.443-1.684-4.114l.188-.353c.884-1.659 2.332-1.953 4.345-.882Zm5.408 14.236-3.024 4.156-1.746-1.27 1.694-2.329-3.154-2.294-1.329 1.827-1.828-1.329 1.329-1.828-3.477-2.529-1.765 2.426-1.827-1.33 3.094-4.253 12.033 8.753Zm-7.054 9.153-.291.304c-.636.664-1.242.998-1.817 1.001-.575.003-1.185-.304-1.831-.922l-1.762-1.687 1.507-1.575 1.546 1.48c.424.406.783.454 1.078.146.176-.183.238-.363.187-.541-.051-.178-.212-.396-.481-.655l-.203-.193c-.308-.295-.614-.506-.919-.631-.304-.125-.759-.219-1.364-.281l-2.339-.246c-.851-.095-1.524-.25-2.019-.466-.485-.206-1.027-.595-1.624-1.167l-.347-.332c-1.676-1.604-1.84-3.109-.494-4.515l.304-.318c1.272-1.329 2.588-1.344 3.946-.044l2.152 2.061-1.549 1.618-1.878-1.798c-.501-.479-.922-.541-1.263-.185-.184.193-.246.392-.185.599.062.225.261.498.598.821l.246.235c.395.378.735.63 1.021.756.285.126.759.229 1.421.308l2.325.233c.765.087 1.406.247 1.92.481.515.253 1.046.642 1.595 1.168l.347.332c1.397 1.337 1.454 2.675.173 4.013Zm-5.003 4.862-4.765 3.712-1.328-1.705 1.499-1.167-7.816-10.035 1.767-1.377 7.816 10.036 1.499-1.168 1.328 1.704Zm-24.19-2.204 1.376 2.457 1.527-.652-.843-2.685 1.857-.794 4.174 14.398-2.464 1.053-7.632-12.92 2.005-.857Zm5.183 9.226-1.629-5.286-1.085.464 2.714 4.822Zm-7.771 5.364-1.042-3.965-.58.152c-.53.139-.704.551-.524 1.234l.529 2.012c.088.335.202.56.343.675.14.115.371.13.694.045l.58-.153Zm-1.581-6.015-1.688-6.422 2.186-.575 3.782 14.391-3.54.931c-.747.196-1.341.166-1.78-.09-.45-.241-.78-.761-.99-1.56l-.67-2.553c-.255-.967-.1-1.663.464-2.087-.707-.118-1.16-.557-1.36-1.318l-1.327-5.048a2.61 2.61 0 0 0-.492-1.008l-.026-.097 2.167-.569c.203.195.377.569.523 1.124l1.139 4.332c.088.336.2.554.337.656.14.115.379.128.714.04l.56-.147Zm-5.085 9.745-6.002.674-.24-2.147 1.887-.212-1.419-12.64 2.226-.25 1.42 12.64 1.887-.212.241 2.147Zm-23.556-8.115-8.294-2.349.425-1.501 8.294 2.349-.425 1.501Zm-27.952-6.094 2.531-3.225-.472-.371c-.43-.337-.863-.228-1.3.328l-1.284 1.636c-.214.273-.324.5-.33.681-.007.181.12.375.383.581l.472.37Zm3.84-4.893 4.1-5.224 1.777 1.396-9.186 11.705-2.88-2.259c-.608-.477-.942-.969-1.003-1.474-.08-.504.135-1.08.646-1.731l1.63-2.076c.617-.787 1.265-1.084 1.943-.89-.333-.634-.256-1.261.23-1.88l3.222-4.106c.255-.325.424-.659.506-1.001l.062-.079 1.762 1.383c-.033.279-.226.644-.58 1.096l-2.766 3.524c-.214.273-.32.494-.319.665-.006.181.127.379.4.593l.456.358ZM32.8 129.579l-3.567-3.7 1.554-1.499 2 2.073 2.807-2.707-1.569-1.627 1.627-1.569 1.569 1.627 3.095-2.985-2.082-2.159 1.626-1.569 3.652 3.786L32.8 129.579Zm-7.046-13.276 6.694-4.907c1.624-1.19 2.96-1.294 4.011-.312l1.805-2.612 1.596 2.178-2.387 1.75c.785 1.408.328 2.735-1.371 3.981l-6.679 4.895c-1.838 1.348-3.33 1.242-4.472-.317l-.225-.307c-.615-.838-.816-1.609-.603-2.31.205-.713.749-1.392 1.63-2.039Zm8.183-3.146-6.904 5.061c-.613.449-.766.883-.459 1.303.316.43.78.42 1.393-.029l6.904-5.061c.613-.449.758-.894.434-1.335-.3-.409-.755-.388-1.368.061Zm-2.61-3.449-10.274 5.471-1.081-2.03 10.397-5.537c.624-.332.823-.71.598-1.134-.232-.435-.66-.487-1.284-.155l-10.398 5.537-1.08-2.03 10.274-5.471c2.012-1.072 3.463-.772 4.353.899l.188.353c.884 1.659.32 3.025-1.693 4.097Zm-14.777-3.342-1.769-4.826 2.028-.744.992 2.704 3.661-1.342-.778-2.122 2.122-.778.778 2.121 4.037-1.48-1.032-2.817 2.121-.777 1.811 4.938-13.97 5.123Zm-3.695-11.085-.088-.41c-.194-.9-.13-1.589.19-2.067.32-.478.917-.81 1.79-.998l2.387-.511.457 2.131-2.093.449c-.573.123-.815.393-.726.81.053.248.168.4.344.459.176.057.447.047.812-.032l.273-.058c.418-.09.764-.225 1.038-.407.275-.182.608-.505.999-.971l1.516-1.798c.556-.651 1.062-1.121 1.518-1.41.443-.286 1.07-.516 1.877-.69l.47-.1c2.268-.487 3.606.221 4.015 2.125l.092.43c.386 1.799-.34 2.896-2.178 3.29l-2.914.625-.47-2.19 2.542-.545c.678-.146.966-.46.862-.942-.056-.26-.186-.424-.391-.489-.22-.075-.56-.064-1.016.034l-.332.071c-.535.115-.934.255-1.198.421-.265.166-.616.5-1.053 1.004l-1.497 1.793c-.502.585-.994 1.025-1.476 1.32-.499.284-1.12.505-1.862.665l-.47.1c-1.89.406-3.03-.297-3.418-2.109Zm-1.228-6.858-.396-6.027 2.156-.142.124 1.896 12.693-.834.147 2.236-12.693.833.124 1.896-2.155.142Zm15.378-18.851-2.806-.24-.317 1.63 2.695.81-.386 1.982-14.258-4.63.512-2.63 14.976.939-.416 2.14Zm-10.544-.891 5.288 1.62.225-1.158-5.513-.462Zm-.061-9.548 3.865 1.368.2-.566c.183-.515-.06-.89-.725-1.127l-1.961-.694c-.327-.115-.577-.147-.751-.096-.174.052-.316.235-.428.549l-.2.566Zm5.864 2.075 6.26 2.215-.755 2.131-14.027-4.965 1.221-3.45c.258-.73.617-1.203 1.076-1.422.452-.237 1.067-.217 1.846.059l2.489.88c.943.334 1.43.854 1.464 1.559.495-.519 1.113-.646 1.854-.384l4.921 1.742c.39.138.76.191 1.11.16l.095.033-.748 2.111c-.275.059-.683-.008-1.223-.2l-4.223-1.494c-.327-.116-.571-.145-.732-.09-.174.052-.32.241-.435.568l-.193.547Zm-5.243-9.639 2.82-5.342 1.91 1.008-.887 1.68 11.25 5.938-1.046 1.98-11.25-5.936-.886 1.68-1.91-1.008Zm19.84-14.844 6.604-5.541 1.002 1.195-6.603 5.54-1.002-1.194ZM57.6 16.916l1.25 3.904.572-.183c.52-.167.673-.587.457-1.26l-.634-1.98c-.106-.33-.232-.55-.378-.656-.147-.108-.379-.11-.696-.009l-.572.184Zm1.897 5.923 2.026 6.323-2.152.69-4.54-14.17 3.485-1.117c.737-.236 1.331-.238 1.784-.005.462.216.818.718 1.07 1.505l.806 2.515c.305.952.187 1.655-.354 2.108.712.08 1.188.495 1.428 1.244l1.593 4.97c.126.395.307.721.545.981l.03.096-2.133.683c-.213-.184-.407-.549-.582-1.095l-1.367-4.266c-.105-.33-.23-.543-.372-.637-.146-.107-.384-.108-.714-.002l-.553.177Zm4.65-9.995 5.063-.886.372 2.128-2.837.496.672 3.842 2.226-.39.39 2.227-2.227.39.741 4.235 2.955-.517.39 2.226-5.181.906-2.564-14.657Zm14.737 1.586.32 8.294c.078 2.012-.584 3.179-1.986 3.5l1.155 2.957-2.698.105-.114-2.958c-1.607-.138-2.45-1.26-2.532-3.365l-.32-8.274c-.087-2.278.835-3.455 2.766-3.53l.38-.014c1.04-.04 1.79.225 2.252.794.476.569.735 1.4.777 2.492Zm-1.972 8.543-.33-8.553c-.03-.76-.304-1.13-.823-1.11-.533.021-.785.411-.756 1.17l.33 8.554c.03.76.318 1.129.864 1.108.506-.02.745-.41.715-1.169Zm5.002-.239 1.298-11.568 2.286.257-1.314 11.706c-.08.703.12 1.08.597 1.134.49.055.775-.269.854-.97l1.314-11.707 2.285.256-1.298 11.568c-.255 2.265-1.322 3.293-3.204 3.081l-.397-.044c-1.869-.21-2.676-1.448-2.421-3.713ZM93.063 12.43l4.98 1.27-.532 2.093-2.791-.711-.963 3.779 2.19.558-.558 2.19-2.19-.558-1.061 4.167 2.907.74-.558 2.19-5.097-1.298 3.673-14.42Zm10.882 3.07.389.157c.853.346 1.387.785 1.602 1.319.216.533.156 1.214-.18 2.042l-.917 2.26-2.02-.818.804-1.983c.22-.544.133-.896-.262-1.056-.235-.096-.426-.087-.573.027-.146.113-.29.342-.43.688l-.105.26c-.16.395-.243.758-.247 1.087-.004.33.077.786.243 1.372l.635 2.264c.227.826.331 1.508.314 2.048-.012.527-.174 1.174-.485 1.94l-.18.445c-.872 2.15-2.209 2.86-4.014 2.128l-.407-.165c-1.705-.692-2.205-1.909-1.498-3.65l1.12-2.762 2.075.841-.977 2.41c-.26.642-.162 1.056.295 1.242.247.1.455.083.624-.05.187-.14.368-.426.543-.859l.128-.315c.205-.506.313-.916.325-1.227.011-.312-.068-.79-.239-1.435l-.643-2.247c-.202-.743-.289-1.397-.262-1.962.045-.571.21-1.21.496-1.914l.18-.445c.727-1.791 1.949-2.339 3.666-1.643Zm6.256 2.752 5.212 3.053-1.092 1.864-1.64-.96-6.429 10.975-1.933-1.132 6.43-10.976-1.64-.96 1.092-1.864Zm7.112 23.398 1.776-2.185-1.169-1.179-2.185 1.774-1.423-1.433 11.842-9.192 1.888 1.902-9.193 11.86-1.536-1.547Zm6.663-8.22-4.312 3.463.832.837 3.48-4.3Zm7.943 5.311-3.298 2.436.356.483c.325.44.772.45 1.34.03l1.673-1.236c.279-.206.446-.395.5-.568.055-.173-.017-.394-.215-.662l-.356-.483Zm-5.003 3.696-5.341 3.945-1.343-1.818 11.969-8.84 2.174 2.943c.46.622.652 1.185.576 1.688-.057.507-.418 1.006-1.083 1.497l-2.123 1.568c-.805.594-1.508.708-2.111.34.152.7-.088 1.284-.721 1.752l-4.198 3.101a2.62 2.62 0 0 0-.755.83l-.08.06-1.331-1.802c.106-.26.39-.561.851-.902l3.603-2.661c.279-.206.44-.392.484-.557.055-.173-.021-.399-.227-.678l-.344-.466Zm10.856.953 2.859 5.32-1.903 1.023-.899-1.674-11.205 6.02-1.06-1.973 11.205-6.02-.899-1.674 1.902-1.023Zm1.214 18.564.895 8.574-1.551.162-.896-8.573 1.552-.163Z" fill="#fff"/></svg>