<svg width="88" height="71" viewBox="0 0 88 71" fill="none" xmlns="http://www.w3.org/2000/svg">
<path d="M0.503418 20.9171H29.9456V44.9739H0.503418L0.503418 20.9171Z" fill="#CCE2FF"/>
<mask id="mask0_252_758" style="mask-type:alpha" maskUnits="userSpaceOnUse" x="0" y="20" width="30" height="25">
<path d="M0.503418 20.9171H29.9456V44.9739H0.503418L0.503418 20.9171Z" fill="#CCE2FF"/>
</mask>
<g mask="url(#mask0_252_758)">
<path d="M0.88215 45.7508C1.5352 45.7508 2.0646 45.2185 2.0646 44.562C2.0646 43.9055 1.5352 43.3733 0.88215 43.3733C0.229104 43.3733 -0.300293 43.9055 -0.300293 44.562C-0.300293 45.2185 0.229104 45.7508 0.88215 45.7508Z" fill="#66A9FF"/>
<path d="M2.0646 42.1252C2.0646 42.7489 2.56752 43.2545 3.18792 43.2545C3.80831 43.2545 4.31124 42.7489 4.31124 42.1252C4.31124 41.5015 3.80831 40.9959 3.18792 40.9959C2.56752 40.9959 2.0646 41.5015 2.0646 42.1252Z" fill="#66A9FF"/>
<path d="M0.88215 41.1148C1.46989 41.1148 1.94635 40.6358 1.94635 40.0449C1.94635 39.4541 1.46989 38.9751 0.88215 38.9751C0.294409 38.9751 -0.182049 39.4541 -0.182049 40.0449C-0.182049 40.6358 0.294409 41.1148 0.88215 41.1148Z" fill="#66A9FF"/>
<path d="M0.05444 35.5873C0.05444 36.0796 0.451488 36.4788 0.941272 36.4788C1.43106 36.4788 1.82811 36.0796 1.82811 35.5873C1.82811 35.0949 1.43106 34.6957 0.941272 34.6957C0.451488 34.6957 0.05444 35.0949 0.05444 35.5873Z" fill="#66A9FF"/>
<path d="M2.18284 37.7269C2.18284 38.285 2.63283 38.7374 3.18792 38.7374C3.74301 38.7374 4.19299 38.285 4.19299 37.7269C4.19299 37.1689 3.74301 36.7165 3.18792 36.7165C2.63283 36.7165 2.18284 37.1689 2.18284 37.7269Z" fill="#66A9FF"/>
<path d="M4.31124 39.9261C4.31124 40.5169 4.7877 40.9959 5.37544 40.9959C5.96318 40.9959 6.43964 40.5169 6.43964 39.9261C6.43964 39.3352 5.96318 38.8562 5.37544 38.8562C4.7877 38.8562 4.31124 39.3352 4.31124 39.9261Z" fill="#66A9FF"/>
<path d="M6.67613 37.7269C6.67613 38.2193 7.07317 38.6185 7.56296 38.6185C8.05274 38.6185 8.44979 38.2193 8.44979 37.7269C8.44979 37.2346 8.05274 36.8354 7.56296 36.8354C7.07317 36.8354 6.67613 37.2346 6.67613 37.7269Z" fill="#66A9FF"/>
<path d="M4.66597 35.5278C4.66597 35.9874 5.03655 36.3599 5.49368 36.3599C5.95082 36.3599 6.32139 35.9874 6.32139 35.5278C6.32139 35.0683 5.95082 34.6957 5.49368 34.6957C5.03655 34.6957 4.66597 35.0683 4.66597 35.5278Z" fill="#66A9FF"/>
<path d="M2.41933 33.3287C2.41933 33.7554 2.76344 34.1014 3.18792 34.1014C3.6124 34.1014 3.9565 33.7554 3.9565 33.3287C3.9565 32.902 3.6124 32.5561 3.18792 32.5561C2.76344 32.5561 2.41933 32.902 2.41933 33.3287Z" fill="#66A9FF"/>
<path d="M0.88215 31.724C1.20867 31.724 1.47337 31.4579 1.47337 31.1296C1.47337 30.8013 1.20867 30.5352 0.88215 30.5352C0.555627 30.5352 0.290929 30.8013 0.290929 31.1296C0.290929 31.4579 0.555627 31.724 0.88215 31.724Z" fill="#66A9FF"/>
<path d="M0.941272 26.9691C1.10453 26.9691 1.23689 26.8361 1.23689 26.6719C1.23689 26.5078 1.10453 26.3748 0.941272 26.3748C0.778011 26.3748 0.645661 26.5078 0.645661 26.6719C0.645661 26.8361 0.778011 26.9691 0.941272 26.9691Z" fill="#66A9FF"/>
<path d="M4.90246 31.0702C4.90246 31.3656 5.14069 31.6051 5.43456 31.6051C5.72843 31.6051 5.96666 31.3656 5.96666 31.0702C5.96666 30.7747 5.72843 30.5352 5.43456 30.5352C5.14069 30.5352 4.90246 30.7747 4.90246 31.0702Z" fill="#66A9FF"/>
<path d="M2.77406 28.8116C2.77406 29.0414 2.95935 29.2277 3.18792 29.2277C3.41648 29.2277 3.60177 29.0414 3.60177 28.8116C3.60177 28.5818 3.41648 28.3956 3.18792 28.3956C2.95935 28.3956 2.77406 28.5818 2.77406 28.8116Z" fill="#66A9FF"/>
<path d="M7.03086 33.2098C7.03086 33.5709 7.32203 33.8636 7.6812 33.8636C8.04038 33.8636 8.33155 33.5709 8.33155 33.2098C8.33155 32.8488 8.04038 32.5561 7.6812 32.5561C7.32203 32.5561 7.03086 32.8488 7.03086 33.2098Z" fill="#66A9FF"/>
<path d="M9.15926 35.409C9.15926 35.8029 9.4769 36.1222 9.86873 36.1222C10.2606 36.1222 10.5782 35.8029 10.5782 35.409C10.5782 35.0151 10.2606 34.6957 9.86873 34.6957C9.4769 34.6957 9.15926 35.0151 9.15926 35.409Z" fill="#66A9FF"/>
<path d="M22.6391 44.3837C22.6391 44.6792 22.8773 44.9187 23.1712 44.9187C23.4651 44.9187 23.7033 44.6792 23.7033 44.3837C23.7033 44.0883 23.4651 43.8488 23.1712 43.8488C22.8773 43.8488 22.6391 44.0883 22.6391 44.3837Z" fill="#66A9FF"/>
<path d="M11.5241 33.2098C11.5241 33.5053 11.7624 33.7448 12.0562 33.7448C12.3501 33.7448 12.5883 33.5053 12.5883 33.2098C12.5883 32.9144 12.3501 32.6749 12.0562 32.6749C11.7624 32.6749 11.5241 32.9144 11.5241 33.2098Z" fill="#66A9FF"/>
<path d="M9.51399 31.0702C9.51399 31.2999 9.69928 31.4862 9.92785 31.4862C10.1564 31.4862 10.3417 31.2999 10.3417 31.0702C10.3417 30.8404 10.1564 30.6541 9.92785 30.6541C9.69928 30.6541 9.51399 30.8404 9.51399 31.0702Z" fill="#66A9FF"/>
<path d="M7.26735 28.871C7.26735 29.068 7.42617 29.2277 7.62208 29.2277C7.818 29.2277 7.97681 29.068 7.97681 28.871C7.97681 28.6741 7.818 28.5144 7.62208 28.5144C7.42617 28.5144 7.26735 28.6741 7.26735 28.871Z" fill="#66A9FF"/>
<path d="M11.8789 28.871C11.8789 29.0024 11.9848 29.1088 12.1154 29.1088C12.246 29.1088 12.3519 29.0024 12.3519 28.871C12.3519 28.7397 12.246 28.6333 12.1154 28.6333C11.9848 28.6333 11.8789 28.7397 11.8789 28.871Z" fill="#66A9FF"/>
<path d="M27.3689 44.3837C27.3689 44.5479 27.5012 44.6809 27.6645 44.6809C27.8278 44.6809 27.9601 44.5479 27.9601 44.3837C27.9601 44.2196 27.8278 44.0866 27.6645 44.0866C27.5012 44.0866 27.3689 44.2196 27.3689 44.3837Z" fill="#66A9FF"/>
<path d="M14.0073 30.9513C14.0073 31.1154 14.1396 31.2485 14.3029 31.2485C14.4662 31.2485 14.5985 31.1154 14.5985 30.9513C14.5985 30.7872 14.4662 30.6541 14.3029 30.6541C14.1396 30.6541 14.0073 30.7872 14.0073 30.9513Z" fill="#66A9FF"/>
<path d="M25.1222 42.1846C25.1222 42.3816 25.2811 42.5412 25.477 42.5412C25.6729 42.5412 25.8317 42.3816 25.8317 42.1846C25.8317 41.9877 25.6729 41.828 25.477 41.828C25.2811 41.828 25.1222 41.9877 25.1222 42.1846Z" fill="#66A9FF"/>
<path d="M17.9093 44.4432C17.9093 44.9027 18.2799 45.2753 18.7371 45.2753C19.1942 45.2753 19.5648 44.9027 19.5648 44.4432C19.5648 43.9836 19.1942 43.6111 18.7371 43.6111C18.2799 43.6111 17.9093 43.9836 17.9093 44.4432Z" fill="#66A9FF"/>
<path d="M20.2742 42.2441C20.2742 42.6051 20.5654 42.8978 20.9246 42.8978C21.2837 42.8978 21.5749 42.6051 21.5749 42.2441C21.5749 41.883 21.2837 41.5903 20.9246 41.5903C20.5654 41.5903 20.2742 41.883 20.2742 42.2441Z" fill="#66A9FF"/>
<path d="M22.7574 39.9855C22.7574 40.2153 22.9427 40.4015 23.1712 40.4015C23.3998 40.4015 23.5851 40.2153 23.5851 39.9855C23.5851 39.7557 23.3998 39.5695 23.1712 39.5695C22.9427 39.5695 22.7574 39.7557 22.7574 39.9855Z" fill="#66A9FF"/>
<path d="M4.31124 44.3837C4.31124 45.0074 4.81417 45.513 5.43456 45.513C6.05496 45.513 6.55788 45.0074 6.55788 44.3837C6.55788 43.7601 6.05496 43.2545 5.43456 43.2545C4.81417 43.2545 4.31124 43.7601 4.31124 44.3837Z" fill="#66A9FF"/>
<path d="M6.55788 42.1846C6.55788 42.7755 7.03434 43.2545 7.62208 43.2545C8.20982 43.2545 8.68628 42.7755 8.68628 42.1846C8.68628 41.5938 8.20982 41.1148 7.62208 41.1148C7.03434 41.1148 6.55788 41.5938 6.55788 42.1846Z" fill="#66A9FF"/>
<path d="M13.2978 44.3837C13.2978 44.9418 13.7478 45.3941 14.3029 45.3941C14.858 45.3941 15.308 44.9418 15.308 44.3837C15.308 43.8257 14.858 43.3733 14.3029 43.3733C13.7478 43.3733 13.2978 43.8257 13.2978 44.3837Z" fill="#66A9FF"/>
<path d="M8.92277 39.9261C8.92277 40.4513 9.34629 40.877 9.86873 40.877C10.3912 40.877 10.8147 40.4513 10.8147 39.9261C10.8147 39.4009 10.3912 38.9751 9.86873 38.9751C9.34629 38.9751 8.92277 39.4009 8.92277 39.9261Z" fill="#66A9FF"/>
<path d="M15.6627 42.1846C15.6627 42.6442 16.0333 43.0167 16.4904 43.0167C16.9475 43.0167 17.3181 42.6442 17.3181 42.1846C17.3181 41.7251 16.9475 41.3525 16.4904 41.3525C16.0333 41.3525 15.6627 41.7251 15.6627 42.1846Z" fill="#66A9FF"/>
<path d="M11.2877 37.7269C11.2877 38.1537 11.6318 38.4996 12.0562 38.4996C12.4807 38.4996 12.8248 38.1537 12.8248 37.7269C12.8248 37.3002 12.4807 36.9543 12.0562 36.9543C11.6318 36.9543 11.2877 37.3002 11.2877 37.7269Z" fill="#66A9FF"/>
<path d="M18.0276 39.9855C18.0276 40.3466 18.3188 40.6393 18.6779 40.6393C19.0371 40.6393 19.3283 40.3466 19.3283 39.9855C19.3283 39.6244 19.0371 39.3317 18.6779 39.3317C18.3188 39.3317 18.0276 39.6244 18.0276 39.9855Z" fill="#66A9FF"/>
<path d="M13.6525 35.5278C13.6525 35.8561 13.9172 36.1222 14.2438 36.1222C14.5703 36.1222 14.835 35.8561 14.835 35.5278C14.835 35.1996 14.5703 34.9335 14.2438 34.9335C13.9172 34.9335 13.6525 35.1996 13.6525 35.5278Z" fill="#66A9FF"/>
<path d="M20.5107 37.7269C20.5107 37.9567 20.696 38.143 20.9246 38.143C21.1531 38.143 21.3384 37.9567 21.3384 37.7269C21.3384 37.4972 21.1531 37.3109 20.9246 37.3109C20.696 37.3109 20.5107 37.4972 20.5107 37.7269Z" fill="#66A9FF"/>
<path d="M16.1357 33.2693C16.1357 33.4662 16.2945 33.6259 16.4904 33.6259C16.6863 33.6259 16.8451 33.4662 16.8451 33.2693C16.8451 33.0723 16.6863 32.9127 16.4904 32.9127C16.2945 32.9127 16.1357 33.0723 16.1357 33.2693Z" fill="#66A9FF"/>
<path d="M8.80453 44.3837C8.80453 45.0074 9.30745 45.513 9.92785 45.513C10.5482 45.513 11.0512 45.0074 11.0512 44.3837C11.0512 43.7601 10.5482 43.2545 9.92785 43.2545C9.30745 43.2545 8.80453 43.7601 8.80453 44.3837Z" fill="#66A9FF"/>
<path d="M11.1694 42.0657C11.1694 42.591 11.5929 43.0167 12.1154 43.0167C12.6378 43.0167 13.0613 42.591 13.0613 42.0657C13.0613 41.5405 12.6378 41.1148 12.1154 41.1148C11.5929 41.1148 11.1694 41.5405 11.1694 42.0657Z" fill="#66A9FF"/>
<path d="M13.5343 39.8666C13.5343 40.2934 13.8784 40.6393 14.3029 40.6393C14.7274 40.6393 15.0715 40.2934 15.0715 39.8666C15.0715 39.4399 14.7274 39.094 14.3029 39.094C13.8784 39.094 13.5343 39.4399 13.5343 39.8666Z" fill="#66A9FF"/>
<path d="M15.8992 37.7269C15.8992 38.088 16.1904 38.3807 16.5495 38.3807C16.9087 38.3807 17.1999 38.088 17.1999 37.7269C17.1999 37.3659 16.9087 37.0732 16.5495 37.0732C16.1904 37.0732 15.8992 37.3659 15.8992 37.7269Z" fill="#66A9FF"/>
<path d="M18.2641 35.409C18.2641 35.6716 18.4758 35.8844 18.7371 35.8844C18.9983 35.8844 19.21 35.6716 19.21 35.409C19.21 35.1464 18.9983 34.9335 18.7371 34.9335C18.4758 34.9335 18.2641 35.1464 18.2641 35.409Z" fill="#66A9FF"/>
</g>
<path d="M29.9458 21.1657L63.8055 1.05383L64.1672 62.909L29.9458 45.0834V21.1657Z" fill="#66A9FF"/>
<mask id="mask1_252_758" style="mask-type:alpha" maskUnits="userSpaceOnUse" x="29" y="1" width="36" height="62">
<path d="M29.9458 21.1657L63.8055 1.05383L64.1672 62.909L29.9458 45.0834V21.1657Z" fill="#66A9FF"/>
</mask>
<g mask="url(#mask1_252_758)">
<path d="M57.0203 16.608C57.0203 17.3958 56.385 18.0345 55.6014 18.0345C54.8177 18.0345 54.1824 17.3958 54.1824 16.608C54.1824 15.8202 54.8177 15.1816 55.6014 15.1816C56.385 15.1816 57.0203 15.8202 57.0203 16.608Z" fill="#0068D3"/>
<path d="M52.4088 16.608C52.4088 17.3302 51.8264 17.9156 51.1081 17.9156C50.3897 17.9156 49.8074 17.3302 49.8074 16.608C49.8074 15.8859 50.3897 15.3004 51.1081 15.3004C51.8264 15.3004 52.4088 15.8859 52.4088 16.608Z" fill="#0068D3"/>
<path d="M47.9155 16.608C47.9155 17.2645 47.3861 17.7967 46.733 17.7967C46.08 17.7967 45.5506 17.2645 45.5506 16.608C45.5506 15.9515 46.08 15.4193 46.733 15.4193C47.3861 15.4193 47.9155 15.9515 47.9155 16.608Z" fill="#0068D3"/>
<path d="M43.1857 16.608C43.1857 17.1332 42.7622 17.559 42.2397 17.559C41.7173 17.559 41.2938 17.1332 41.2938 16.608C41.2938 16.0828 41.7173 15.6571 42.2397 15.6571C42.7622 15.6571 43.1857 16.0828 43.1857 16.608Z" fill="#0068D3"/>
<path d="M38.5742 16.608C38.5742 17.0019 38.2565 17.3212 37.8647 17.3212C37.4729 17.3212 37.1552 17.0019 37.1552 16.608C37.1552 16.2141 37.4729 15.8948 37.8647 15.8948C38.2565 15.8948 38.5742 16.2141 38.5742 16.608Z" fill="#0068D3"/>
<path d="M50.1621 14.3495C50.1621 15.006 49.6327 15.5382 48.9797 15.5382C48.3266 15.5382 47.7972 15.006 47.7972 14.3495C47.7972 13.693 48.3266 13.1608 48.9797 13.1608C49.6327 13.1608 50.1621 13.693 50.1621 14.3495Z" fill="#0068D3"/>
<path d="M62.3413 2.34349C61.6882 2.34349 61.1588 1.81128 61.1588 1.15477C61.1588 0.498268 61.6882 -0.0339356 62.3413 -0.0339355C62.9943 -0.0339355 63.5237 0.498268 63.5237 1.15477C63.5237 1.81128 62.9943 2.34349 62.3413 2.34349Z" fill="#0068D3"/>
<path d="M52.4088 12.1504C52.4088 12.8397 51.8529 13.3985 51.1672 13.3985C50.4815 13.3985 49.9256 12.8397 49.9256 12.1504C49.9256 11.461 50.4815 10.9022 51.1672 10.9022C51.8529 10.9022 52.4088 11.461 52.4088 12.1504Z" fill="#0068D3"/>
<path d="M50.0439 9.8918C50.0439 10.5155 49.5409 11.0211 48.9206 11.0211C48.3002 11.0211 47.7972 10.5155 47.7972 9.8918C47.7972 9.26812 48.3002 8.76253 48.9206 8.76253C49.5409 8.76253 50.0439 9.26812 50.0439 9.8918Z" fill="#0068D3"/>
<path d="M47.7972 12.1504C47.7972 12.774 47.2943 13.2796 46.6739 13.2796C46.0535 13.2796 45.5506 12.774 45.5506 12.1504C45.5506 11.5267 46.0535 11.0211 46.6739 11.0211C47.2943 11.0211 47.7972 11.5267 47.7972 12.1504Z" fill="#0068D3"/>
<path d="M45.5506 14.3495C45.5506 14.9403 45.0741 15.4193 44.4864 15.4193C43.8986 15.4193 43.4222 14.9403 43.4222 14.3495C43.4222 13.7586 43.8986 13.2796 44.4864 13.2796C45.0741 13.2796 45.5506 13.7586 45.5506 14.3495Z" fill="#0068D3"/>
<path d="M40.9391 14.4089C40.9391 14.9013 40.542 15.3004 40.0522 15.3004C39.5624 15.3004 39.1654 14.9013 39.1654 14.4089C39.1654 13.9165 39.5624 13.5174 40.0522 13.5174C40.542 13.5174 40.9391 13.9165 40.9391 14.4089Z" fill="#0068D3"/>
<path d="M54.6554 14.4089C54.6554 15.1639 54.0466 15.7759 53.2956 15.7759C52.5446 15.7759 51.9358 15.1639 51.9358 14.4089C51.9358 13.6539 52.5446 13.0419 53.2956 13.0419C54.0466 13.0419 54.6554 13.6539 54.6554 14.4089Z" fill="#0068D3"/>
<path d="M56.902 12.1504C56.902 12.9053 56.2932 13.5174 55.5422 13.5174C54.7912 13.5174 54.1824 12.9053 54.1824 12.1504C54.1824 11.3954 54.7912 10.7833 55.5422 10.7833C56.2932 10.7833 56.902 11.3954 56.902 12.1504Z" fill="#0068D3"/>
<path d="M54.6554 9.95124C54.6554 10.6734 54.0731 11.2588 53.3547 11.2588C52.6364 11.2588 52.054 10.6734 52.054 9.95124C52.054 9.22908 52.6364 8.64366 53.3547 8.64366C54.0731 8.64366 54.6554 9.22908 54.6554 9.95124Z" fill="#0068D3"/>
<path d="M52.2905 7.69269C52.2905 8.34919 51.7611 8.8814 51.1081 8.8814C50.455 8.8814 49.9256 8.34919 49.9256 7.69269C49.9256 7.03618 50.455 6.50398 51.1081 6.50398C51.7611 6.50398 52.2905 7.03618 52.2905 7.69269Z" fill="#0068D3"/>
<path d="M59.1487 9.8918C59.1487 10.6468 58.5399 11.2588 57.7889 11.2588C57.0379 11.2588 56.4291 10.6468 56.4291 9.8918C56.4291 9.13682 57.0379 8.52479 57.7889 8.52479C58.5399 8.52479 59.1487 9.13682 59.1487 9.8918Z" fill="#0068D3"/>
<path d="M56.902 7.69269C56.902 8.41485 56.3197 9.00027 55.6014 9.00027C54.883 9.00027 54.3007 8.41485 54.3007 7.69269C54.3007 6.97053 54.883 6.3851 55.6014 6.3851C56.3197 6.3851 56.902 6.97053 56.902 7.69269Z" fill="#0068D3"/>
<path d="M61.2771 3.17558C61.2771 3.89774 60.6948 4.48317 59.9764 4.48317C59.2581 4.48317 58.6757 3.89774 58.6757 3.17558C58.6757 2.45343 59.2581 1.868 59.9764 1.868C60.6948 1.868 61.2771 2.45343 61.2771 3.17558Z" fill="#0068D3"/>
<path d="M59.0304 5.43414C59.0304 6.15629 58.4481 6.74172 57.7298 6.74172C57.0114 6.74172 56.4291 6.15629 56.4291 5.43414C56.4291 4.71198 57.0114 4.12655 57.7298 4.12655C58.4481 4.12655 59.0304 4.71198 59.0304 5.43414Z" fill="#0068D3"/>
<path d="M50.1621 18.8666C50.1621 18.2101 49.6327 17.6779 48.9797 17.6779C48.3266 17.6779 47.7972 18.2101 47.7972 18.8666C47.7972 19.5231 48.3266 20.0553 48.9797 20.0553C49.6327 20.0553 50.1621 19.5231 50.1621 18.8666Z" fill="#0068D3"/>
<path d="M52.4088 21.0657C52.4088 20.3764 51.8529 19.8175 51.1672 19.8175C50.4815 19.8175 49.9256 20.3764 49.9256 21.0657C49.9256 21.755 50.4815 22.3138 51.1672 22.3138C51.8529 22.3138 52.4088 21.755 52.4088 21.0657Z" fill="#0068D3"/>
<path d="M50.0439 23.3242C50.0439 22.7006 49.5409 22.195 48.9206 22.195C48.3002 22.195 47.7972 22.7006 47.7972 23.3242C47.7972 23.9479 48.3002 24.4535 48.9206 24.4535C49.5409 24.4535 50.0439 23.9479 50.0439 23.3242Z" fill="#0068D3"/>
<path d="M47.7972 21.0657C47.7972 20.442 47.2943 19.9364 46.6739 19.9364C46.0535 19.9364 45.5506 20.442 45.5506 21.0657C45.5506 21.6894 46.0535 22.195 46.6739 22.195C47.2943 22.195 47.7972 21.6894 47.7972 21.0657Z" fill="#0068D3"/>
<path d="M45.5506 18.8666C45.5506 18.2757 45.0741 17.7967 44.4864 17.7967C43.8986 17.7967 43.4222 18.2757 43.4222 18.8666C43.4222 19.4574 43.8986 19.9364 44.4864 19.9364C45.0741 19.9364 45.5506 19.4574 45.5506 18.8666Z" fill="#0068D3"/>
<path d="M40.9391 18.8071C40.9391 18.3148 40.542 17.9156 40.0522 17.9156C39.5624 17.9156 39.1654 18.3148 39.1654 18.8071C39.1654 19.2995 39.5624 19.6987 40.0522 19.6987C40.542 19.6987 40.9391 19.2995 40.9391 18.8071Z" fill="#0068D3"/>
<path d="M43.3039 21.0657C43.3039 20.5077 42.854 20.0553 42.2989 20.0553C41.7438 20.0553 41.2938 20.5077 41.2938 21.0657C41.2938 21.6237 41.7438 22.0761 42.2989 22.0761C42.854 22.0761 43.3039 21.6237 43.3039 21.0657Z" fill="#0068D3"/>
<path d="M45.5506 23.2648C45.5506 22.6739 45.0741 22.195 44.4864 22.195C43.8986 22.195 43.4222 22.6739 43.4222 23.2648C43.4222 23.8557 43.8986 24.3346 44.4864 24.3346C45.0741 24.3346 45.5506 23.8557 45.5506 23.2648Z" fill="#0068D3"/>
<path d="M47.7972 25.4639C47.7972 24.8402 47.2943 24.3346 46.6739 24.3346C46.0535 24.3346 45.5506 24.8402 45.5506 25.4639C45.5506 26.0876 46.0535 26.5932 46.6739 26.5932C47.2943 26.5932 47.7972 26.0876 47.7972 25.4639Z" fill="#0068D3"/>
<path d="M45.4323 27.7819C45.4323 27.2567 45.0088 26.8309 44.4864 26.8309C43.964 26.8309 43.5404 27.2567 43.5404 27.7819C43.5404 28.3071 43.964 28.7329 44.4864 28.7329C45.0088 28.7329 45.4323 28.3071 45.4323 27.7819Z" fill="#0068D3"/>
<path d="M43.1857 25.4639C43.1857 24.9715 42.7887 24.5724 42.2989 24.5724C41.8091 24.5724 41.412 24.9715 41.412 25.4639C41.412 25.9563 41.8091 26.3555 42.2989 26.3555C42.7887 26.3555 43.1857 25.9563 43.1857 25.4639Z" fill="#0068D3"/>
<path d="M40.8208 23.2648C40.8208 22.8052 40.4502 22.4327 39.9931 22.4327C39.536 22.4327 39.1654 22.8052 39.1654 23.2648C39.1654 23.7244 39.536 24.0969 39.9931 24.0969C40.4502 24.0969 40.8208 23.7244 40.8208 23.2648Z" fill="#0068D3"/>
<path d="M38.5742 21.0657C38.5742 20.639 38.2301 20.293 37.8056 20.293C37.3811 20.293 37.037 20.639 37.037 21.0657C37.037 21.4924 37.3811 21.8384 37.8056 21.8384C38.2301 21.8384 38.5742 21.4924 38.5742 21.0657Z" fill="#0068D3"/>
<path d="M36.2093 18.8666C36.2093 18.5383 35.9446 18.2722 35.6181 18.2722C35.2915 18.2722 35.0268 18.5383 35.0268 18.8666C35.0268 19.1948 35.2915 19.4609 35.6181 19.4609C35.9446 19.4609 36.2093 19.1948 36.2093 18.8666Z" fill="#0068D3"/>
<path d="M33.7261 21.0657C33.7261 20.8359 33.5409 20.6496 33.3123 20.6496C33.0837 20.6496 32.8984 20.8359 32.8984 21.0657C32.8984 21.2955 33.0837 21.4817 33.3123 21.4817C33.5409 21.4817 33.7261 21.2955 33.7261 21.0657Z" fill="#0068D3"/>
<path d="M36.2093 23.2648C36.2093 22.9365 35.9446 22.6704 35.6181 22.6704C35.2915 22.6704 35.0268 22.9365 35.0268 23.2648C35.0268 23.5931 35.2915 23.8592 35.6181 23.8592C35.9446 23.8592 36.2093 23.5931 36.2093 23.2648Z" fill="#0068D3"/>
<path d="M38.4559 25.5828C38.4559 25.2217 38.1648 24.929 37.8056 24.929C37.4464 24.929 37.1552 25.2217 37.1552 25.5828C37.1552 25.9439 37.4464 26.2366 37.8056 26.2366C38.1648 26.2366 38.4559 25.9439 38.4559 25.5828Z" fill="#0068D3"/>
<path d="M40.7026 27.7819C40.7026 27.388 40.3849 27.0687 39.9931 27.0687C39.6013 27.0687 39.2836 27.388 39.2836 27.7819C39.2836 28.1758 39.6013 28.4951 39.9931 28.4951C40.3849 28.4951 40.7026 28.1758 40.7026 27.7819Z" fill="#0068D3"/>
<path d="M54.0642 41.2143C54.0642 40.8204 53.7465 40.5011 53.3547 40.5011C52.9629 40.5011 52.6453 40.8204 52.6453 41.2143C52.6453 41.6082 52.9629 41.9276 53.3547 41.9276C53.7465 41.9276 54.0642 41.6082 54.0642 41.2143Z" fill="#0068D3"/>
<path d="M43.0675 30.0405C43.0675 29.5809 42.6969 29.2084 42.2397 29.2084C41.7826 29.2084 41.412 29.5809 41.412 30.0405C41.412 30.5 41.7826 30.8726 42.2397 30.8726C42.6969 30.8726 43.0675 30.5 43.0675 30.0405Z" fill="#0068D3"/>
<path d="M40.5843 32.2396C40.5843 31.9441 40.3461 31.7047 40.0522 31.7047C39.7584 31.7047 39.5201 31.9441 39.5201 32.2396C39.5201 32.535 39.7584 32.7745 40.0522 32.7745C40.3461 32.7745 40.5843 32.535 40.5843 32.2396Z" fill="#0068D3"/>
<path d="M38.3377 29.981C38.3377 29.6856 38.0995 29.4461 37.8056 29.4461C37.5117 29.4461 37.2735 29.6856 37.2735 29.981C37.2735 30.2765 37.5117 30.5159 37.8056 30.5159C38.0995 30.5159 38.3377 30.2765 38.3377 29.981Z" fill="#0068D3"/>
<path d="M51.6993 43.4135C51.6993 43.118 51.4611 42.8785 51.1672 42.8785C50.8733 42.8785 50.6351 43.118 50.6351 43.4135C50.6351 43.7089 50.8733 43.9484 51.1672 43.9484C51.4611 43.9484 51.6993 43.7089 51.6993 43.4135Z" fill="#0068D3"/>
<path d="M35.9728 27.7225C35.9728 27.4927 35.7875 27.3064 35.5589 27.3064C35.3304 27.3064 35.1451 27.4927 35.1451 27.7225C35.1451 27.9522 35.3304 28.1385 35.5589 28.1385C35.7875 28.1385 35.9728 27.9522 35.9728 27.7225Z" fill="#0068D3"/>
<path d="M53.7095 45.5531C53.7095 45.3234 53.5242 45.1371 53.2956 45.1371C53.067 45.1371 52.8817 45.3234 52.8817 45.5531C52.8817 45.7829 53.067 45.9692 53.2956 45.9692C53.5242 45.9692 53.7095 45.7829 53.7095 45.5531Z" fill="#0068D3"/>
<path d="M33.7261 25.5234C33.7261 25.3264 33.5673 25.1667 33.3714 25.1667C33.1755 25.1667 33.0167 25.3264 33.0167 25.5234C33.0167 25.7203 33.1755 25.88 33.3714 25.88C33.5673 25.88 33.7261 25.7203 33.7261 25.5234Z" fill="#0068D3"/>
<path d="M55.9561 47.7523C55.9561 47.5553 55.7973 47.3956 55.6014 47.3956C55.4054 47.3956 55.2466 47.5553 55.2466 47.7523C55.2466 47.9492 55.4054 48.1089 55.6014 48.1089C55.7973 48.1089 55.9561 47.9492 55.9561 47.7523Z" fill="#0068D3"/>
<path d="M33.6079 29.9216C33.6079 29.7903 33.502 29.6838 33.3714 29.6838C33.2408 29.6838 33.1349 29.7903 33.1349 29.9216C33.1349 30.0529 33.2408 30.1593 33.3714 30.1593C33.502 30.1593 33.6079 30.0529 33.6079 29.9216Z" fill="#0068D3"/>
<path d="M51.3446 47.7523C51.3446 47.621 51.2387 47.5145 51.1081 47.5145C50.9775 47.5145 50.8716 47.621 50.8716 47.7523C50.8716 47.8836 50.9775 47.99 51.1081 47.99C51.2387 47.99 51.3446 47.8836 51.3446 47.7523Z" fill="#0068D3"/>
<path d="M35.8545 32.2396C35.8545 32.0754 35.7222 31.9424 35.5589 31.9424C35.3957 31.9424 35.2633 32.0754 35.2633 32.2396C35.2633 32.4037 35.3957 32.5368 35.5589 32.5368C35.7222 32.5368 35.8545 32.4037 35.8545 32.2396Z" fill="#0068D3"/>
<path d="M49.2162 45.672C49.2162 45.5079 49.0838 45.3748 48.9206 45.3748C48.7573 45.3748 48.6249 45.5079 48.6249 45.672C48.6249 45.8361 48.7573 45.9692 48.9206 45.9692C49.0838 45.9692 49.2162 45.8361 49.2162 45.672Z" fill="#0068D3"/>
<path d="M38.1012 34.4387C38.1012 34.2417 37.9424 34.0821 37.7465 34.0821C37.5505 34.0821 37.3917 34.2417 37.3917 34.4387C37.3917 34.6356 37.5505 34.7953 37.7465 34.7953C37.9424 34.7953 38.1012 34.6356 38.1012 34.4387Z" fill="#0068D3"/>
<path d="M54.6554 18.8071C54.6554 18.0522 54.0466 17.4401 53.2956 17.4401C52.5446 17.4401 51.9358 18.0522 51.9358 18.8071C51.9358 19.5621 52.5446 20.1742 53.2956 20.1742C54.0466 20.1742 54.6554 19.5621 54.6554 18.8071Z" fill="#0068D3"/>
<path d="M56.902 21.0657C56.902 20.3107 56.2932 19.6987 55.5422 19.6987C54.7912 19.6987 54.1824 20.3107 54.1824 21.0657C54.1824 21.8207 54.7912 22.4327 55.5422 22.4327C56.2932 22.4327 56.902 21.8207 56.902 21.0657Z" fill="#0068D3"/>
<path d="M54.6554 23.2648C54.6554 22.5426 54.0731 21.9572 53.3547 21.9572C52.6364 21.9572 52.054 22.5426 52.054 23.2648C52.054 23.987 52.6364 24.5724 53.3547 24.5724C54.0731 24.5724 54.6554 23.987 54.6554 23.2648Z" fill="#0068D3"/>
<path d="M52.2905 25.5234C52.2905 24.8668 51.7611 24.3346 51.1081 24.3346C50.455 24.3346 49.9256 24.8668 49.9256 25.5234C49.9256 26.1799 50.455 26.7121 51.1081 26.7121C51.7611 26.7121 52.2905 26.1799 52.2905 25.5234Z" fill="#0068D3"/>
<path d="M50.0439 27.7225C50.0439 27.0988 49.5409 26.5932 48.9206 26.5932C48.3002 26.5932 47.7972 27.0988 47.7972 27.7225C47.7972 28.3462 48.3002 28.8517 48.9206 28.8517C49.5409 28.8517 50.0439 28.3462 50.0439 27.7225Z" fill="#0068D3"/>
<path d="M47.679 29.981C47.679 29.423 47.229 28.9706 46.6739 28.9706C46.1188 28.9706 45.6688 29.423 45.6688 29.981C45.6688 30.5391 46.1188 30.9914 46.6739 30.9914C47.229 30.9914 47.679 30.5391 47.679 29.981Z" fill="#0068D3"/>
<path d="M45.3141 32.1801C45.3141 31.7206 44.9435 31.348 44.4864 31.348C44.0293 31.348 43.6587 31.7206 43.6587 32.1801C43.6587 32.6397 44.0293 33.0122 44.4864 33.0122C44.9435 33.0122 45.3141 32.6397 45.3141 32.1801Z" fill="#0068D3"/>
<path d="M42.9492 34.3793C42.9492 34.0182 42.658 33.7255 42.2989 33.7255C41.9397 33.7255 41.6485 34.0182 41.6485 34.3793C41.6485 34.7403 41.9397 35.033 42.2989 35.033C42.658 35.033 42.9492 34.7403 42.9492 34.3793Z" fill="#0068D3"/>
<path d="M40.4661 36.6378C40.4661 36.408 40.2808 36.2218 40.0522 36.2218C39.8237 36.2218 39.6384 36.408 39.6384 36.6378C39.6384 36.8676 39.8237 37.0539 40.0522 37.0539C40.2808 37.0539 40.4661 36.8676 40.4661 36.6378Z" fill="#0068D3"/>
<path d="M54.5372 27.7819C54.5372 27.1254 54.0078 26.5932 53.3547 26.5932C52.7017 26.5932 52.1723 27.1254 52.1723 27.7819C52.1723 28.4384 52.7017 28.9706 53.3547 28.9706C54.0078 28.9706 54.5372 28.4384 54.5372 27.7819Z" fill="#0068D3"/>
<path d="M52.1723 29.981C52.1723 29.3573 51.6693 28.8517 51.049 28.8517C50.4286 28.8517 49.9256 29.3573 49.9256 29.981C49.9256 30.6047 50.4286 31.1103 51.049 31.1103C51.6693 31.1103 52.1723 30.6047 52.1723 29.981Z" fill="#0068D3"/>
<path d="M49.9256 32.2396C49.9256 31.6815 49.4756 31.2292 48.9206 31.2292C48.3655 31.2292 47.9155 31.6815 47.9155 32.2396C47.9155 32.7976 48.3655 33.25 48.9206 33.25C49.4756 33.25 49.9256 32.7976 49.9256 32.2396Z" fill="#0068D3"/>
<path d="M54.3007 36.6972C54.3007 36.172 53.8772 35.7463 53.3547 35.7463C52.8323 35.7463 52.4088 36.172 52.4088 36.6972C52.4088 37.2224 52.8323 37.6482 53.3547 37.6482C53.8772 37.6482 54.3007 37.2224 54.3007 36.6972Z" fill="#0068D3"/>
<path d="M47.5607 34.4387C47.5607 33.9791 47.1902 33.6066 46.733 33.6066C46.2759 33.6066 45.9053 33.9791 45.9053 34.4387C45.9053 34.8982 46.2759 35.2708 46.733 35.2708C47.1902 35.2708 47.5607 34.8982 47.5607 34.4387Z" fill="#0068D3"/>
<path d="M51.9358 38.8964C51.9358 38.4696 51.5917 38.1237 51.1672 38.1237C50.7427 38.1237 50.3986 38.4696 50.3986 38.8964C50.3986 39.3231 50.7427 39.669 51.1672 39.669C51.5917 39.669 51.9358 39.3231 51.9358 38.8964Z" fill="#0068D3"/>
<path d="M45.1959 36.6378C45.1959 36.2767 44.9047 35.984 44.5455 35.984C44.1863 35.984 43.8952 36.2767 43.8952 36.6378C43.8952 36.9989 44.1863 37.2916 44.5455 37.2916C44.9047 37.2916 45.1959 36.9989 45.1959 36.6378Z" fill="#0068D3"/>
<path d="M49.5709 41.0955C49.5709 40.7672 49.3062 40.5011 48.9797 40.5011C48.6532 40.5011 48.3885 40.7672 48.3885 41.0955C48.3885 41.4237 48.6532 41.6898 48.9797 41.6898C49.3062 41.6898 49.5709 41.4237 49.5709 41.0955Z" fill="#0068D3"/>
<path d="M42.7127 38.8964C42.7127 38.6666 42.5274 38.4803 42.2989 38.4803C42.0703 38.4803 41.885 38.6666 41.885 38.8964C41.885 39.1261 42.0703 39.3124 42.2989 39.3124C42.5274 39.3124 42.7127 39.1261 42.7127 38.8964Z" fill="#0068D3"/>
<path d="M47.0878 43.354C47.0878 43.1571 46.9289 42.9974 46.733 42.9974C46.5371 42.9974 46.3783 43.1571 46.3783 43.354C46.3783 43.551 46.5371 43.7106 46.733 43.7106C46.9289 43.7106 47.0878 43.551 47.0878 43.354Z" fill="#0068D3"/>
<path d="M54.4189 32.2396C54.4189 31.6159 53.916 31.1103 53.2956 31.1103C52.6752 31.1103 52.1723 31.6159 52.1723 32.2396C52.1723 32.8633 52.6752 33.3688 53.2956 33.3688C53.916 33.3688 54.4189 32.8633 54.4189 32.2396Z" fill="#0068D3"/>
<path d="M52.054 34.5576C52.054 34.0324 51.6305 33.6066 51.1081 33.6066C50.5856 33.6066 50.1621 34.0324 50.1621 34.5576C50.1621 35.0828 50.5856 35.5085 51.1081 35.5085C51.6305 35.5085 52.054 35.0828 52.054 34.5576Z" fill="#0068D3"/>
<path d="M49.6891 36.7567C49.6891 36.3299 49.345 35.984 48.9206 35.984C48.4961 35.984 48.152 36.3299 48.152 36.7567C48.152 37.1834 48.4961 37.5293 48.9206 37.5293C49.345 37.5293 49.6891 37.1834 49.6891 36.7567Z" fill="#0068D3"/>
<path d="M47.3243 38.8964C47.3243 38.5353 47.0331 38.2426 46.6739 38.2426C46.3147 38.2426 46.0236 38.5353 46.0236 38.8964C46.0236 39.2574 46.3147 39.5501 46.6739 39.5501C47.0331 39.5501 47.3243 39.2574 47.3243 38.8964Z" fill="#0068D3"/>
<path d="M44.9594 41.2143C44.9594 40.9517 44.7476 40.7389 44.4864 40.7389C44.2252 40.7389 44.0134 40.9517 44.0134 41.2143C44.0134 41.4769 44.2252 41.6898 44.4864 41.6898C44.7476 41.6898 44.9594 41.4769 44.9594 41.2143Z" fill="#0068D3"/>
</g>
<path d="M77.5063 31.852C77.5063 49.1643 72.2674 63.1987 65.8049 63.1987C59.3424 63.1987 54.1035 49.1643 54.1035 31.852C54.1035 14.5397 59.3424 0.505249 65.8049 0.505249C72.2674 0.505249 77.5063 14.5397 77.5063 31.852Z" fill="#9AFBD7"/>
<mask id="mask2_252_758" style="mask-type:alpha" maskUnits="userSpaceOnUse" x="54" y="0" width="24" height="64">
<path d="M77.5063 31.852C77.5063 49.1643 72.2674 63.1987 65.8049 63.1987C59.3424 63.1987 54.1035 49.1643 54.1035 31.852C54.1035 14.5397 59.3424 0.505249 65.8049 0.505249C72.2674 0.505249 77.5063 14.5397 77.5063 31.852Z" fill="#9AFBD7"/>
</mask>
<g mask="url(#mask2_252_758)">
<path d="M54.8701 43.0756C54.8701 43.4327 54.5807 43.7221 54.2236 43.7221C53.8666 43.7221 53.5771 43.4327 53.5771 43.0756C53.5771 42.7186 53.8666 42.4291 54.2236 42.4291C54.5807 42.4291 54.8701 42.7186 54.8701 43.0756Z" fill="#66A9FF" fill-opacity="0.7"/>
<path d="M56.8096 45.6616C56.8096 46.0186 56.5202 46.3081 56.1631 46.3081C55.8061 46.3081 55.5166 46.0186 55.5166 45.6616C55.5166 45.3045 55.8061 45.0151 56.1631 45.0151C56.5202 45.0151 56.8096 45.3045 56.8096 45.6616Z" fill="#66A9FF" fill-opacity="0.7"/>
<path d="M62.628 43.0756C62.628 43.4327 62.3386 43.7221 61.9815 43.7221C61.6245 43.7221 61.335 43.4327 61.335 43.0756C61.335 42.7186 61.6245 42.4291 61.9815 42.4291C62.3386 42.4291 62.628 42.7186 62.628 43.0756Z" fill="#66A9FF" fill-opacity="0.7"/>
<path d="M64.5675 45.6616C64.5675 46.0186 64.278 46.3081 63.921 46.3081C63.5639 46.3081 63.2745 46.0186 63.2745 45.6616C63.2745 45.3045 63.5639 45.0151 63.921 45.0151C64.278 45.0151 64.5675 45.3045 64.5675 45.6616Z" fill="#66A9FF" fill-opacity="0.7"/>
<path d="M58.7491 43.0756C58.7491 43.4327 58.4596 43.7221 58.1026 43.7221C57.7455 43.7221 57.4561 43.4327 57.4561 43.0756C57.4561 42.7186 57.7455 42.4291 58.1026 42.4291C58.4596 42.4291 58.7491 42.7186 58.7491 43.0756Z" fill="#66A9FF" fill-opacity="0.7"/>
<path d="M60.6885 45.6616C60.6885 46.0186 60.3991 46.3081 60.042 46.3081C59.685 46.3081 59.3956 46.0186 59.3956 45.6616C59.3956 45.3045 59.685 45.0151 60.042 45.0151C60.3991 45.0151 60.6885 45.3045 60.6885 45.6616Z" fill="#66A9FF" fill-opacity="0.7"/>
<path d="M70.3859 43.0756C70.3859 43.4327 70.0964 43.7221 69.7394 43.7221C69.3823 43.7221 69.0929 43.4327 69.0929 43.0756C69.0929 42.7186 69.3823 42.4291 69.7394 42.4291C70.0964 42.4291 70.3859 42.7186 70.3859 43.0756Z" fill="#66A9FF" fill-opacity="0.7"/>
<path d="M72.3253 45.6616C72.3253 46.0186 72.0359 46.3081 71.6788 46.3081C71.3218 46.3081 71.0324 46.0186 71.0324 45.6616C71.0324 45.3045 71.3218 45.0151 71.6788 45.0151C72.0359 45.0151 72.3253 45.3045 72.3253 45.6616Z" fill="#66A9FF" fill-opacity="0.7"/>
<path d="M66.5069 43.0756C66.5069 43.4327 66.2175 43.7221 65.8604 43.7221C65.5034 43.7221 65.214 43.4327 65.214 43.0756C65.214 42.7186 65.5034 42.4291 65.8604 42.4291C66.2175 42.4291 66.5069 42.7186 66.5069 43.0756Z" fill="#66A9FF" fill-opacity="0.7"/>
<path d="M68.4464 45.6616C68.4464 46.0186 68.157 46.3081 67.7999 46.3081C67.4429 46.3081 67.1534 46.0186 67.1534 45.6616C67.1534 45.3045 67.4429 45.0151 67.7999 45.0151C68.157 45.0151 68.4464 45.3045 68.4464 45.6616Z" fill="#66A9FF" fill-opacity="0.7"/>
<path d="M78.1437 43.0756C78.1437 43.4327 77.8543 43.7221 77.4973 43.7221C77.1402 43.7221 76.8508 43.4327 76.8508 43.0756C76.8508 42.7186 77.1402 42.4291 77.4973 42.4291C77.8543 42.4291 78.1437 42.7186 78.1437 43.0756Z" fill="#66A9FF" fill-opacity="0.7"/>
<path d="M74.2648 43.0756C74.2648 43.4327 73.9754 43.7221 73.6183 43.7221C73.2613 43.7221 72.9718 43.4327 72.9718 43.0756C72.9718 42.7186 73.2613 42.4291 73.6183 42.4291C73.9754 42.4291 74.2648 42.7186 74.2648 43.0756Z" fill="#66A9FF" fill-opacity="0.7"/>
<path d="M76.2043 45.6616C76.2043 46.0186 75.9148 46.3081 75.5578 46.3081C75.2007 46.3081 74.9113 46.0186 74.9113 45.6616C74.9113 45.3045 75.2007 45.0151 75.5578 45.0151C75.9148 45.0151 76.2043 45.3045 76.2043 45.6616Z" fill="#66A9FF" fill-opacity="0.7"/>
<path d="M54.8701 48.2476C54.8701 48.6046 54.5807 48.894 54.2236 48.894C53.8666 48.894 53.5771 48.6046 53.5771 48.2476C53.5771 47.8905 53.8666 47.6011 54.2236 47.6011C54.5807 47.6011 54.8701 47.8905 54.8701 48.2476Z" fill="#66A9FF" fill-opacity="0.7"/>
<path d="M56.8096 50.8335C56.8096 51.1906 56.5202 51.48 56.1631 51.48C55.8061 51.48 55.5166 51.1906 55.5166 50.8335C55.5166 50.4765 55.8061 50.187 56.1631 50.187C56.5202 50.187 56.8096 50.4765 56.8096 50.8335Z" fill="#66A9FF" fill-opacity="0.7"/>
<path d="M62.628 48.2476C62.628 48.6046 62.3386 48.894 61.9815 48.894C61.6245 48.894 61.335 48.6046 61.335 48.2476C61.335 47.8905 61.6245 47.6011 61.9815 47.6011C62.3386 47.6011 62.628 47.8905 62.628 48.2476Z" fill="#66A9FF" fill-opacity="0.7"/>
<path d="M64.5675 50.8335C64.5675 51.1906 64.278 51.48 63.921 51.48C63.5639 51.48 63.2745 51.1906 63.2745 50.8335C63.2745 50.4765 63.5639 50.187 63.921 50.187C64.278 50.187 64.5675 50.4765 64.5675 50.8335Z" fill="#66A9FF" fill-opacity="0.7"/>
<path d="M58.7491 48.2476C58.7491 48.6046 58.4596 48.894 58.1026 48.894C57.7455 48.894 57.4561 48.6046 57.4561 48.2476C57.4561 47.8905 57.7455 47.6011 58.1026 47.6011C58.4596 47.6011 58.7491 47.8905 58.7491 48.2476Z" fill="#66A9FF" fill-opacity="0.7"/>
<path d="M60.6885 50.8335C60.6885 51.1906 60.3991 51.48 60.042 51.48C59.685 51.48 59.3956 51.1906 59.3956 50.8335C59.3956 50.4765 59.685 50.187 60.042 50.187C60.3991 50.187 60.6885 50.4765 60.6885 50.8335Z" fill="#66A9FF" fill-opacity="0.7"/>
<path d="M70.3859 48.2476C70.3859 48.6046 70.0964 48.894 69.7394 48.894C69.3823 48.894 69.0929 48.6046 69.0929 48.2476C69.0929 47.8905 69.3823 47.6011 69.7394 47.6011C70.0964 47.6011 70.3859 47.8905 70.3859 48.2476Z" fill="#66A9FF" fill-opacity="0.7"/>
<path d="M72.3253 50.8335C72.3253 51.1906 72.0359 51.48 71.6788 51.48C71.3218 51.48 71.0324 51.1906 71.0324 50.8335C71.0324 50.4765 71.3218 50.187 71.6788 50.187C72.0359 50.187 72.3253 50.4765 72.3253 50.8335Z" fill="#66A9FF" fill-opacity="0.7"/>
<path d="M66.5069 48.2476C66.5069 48.6046 66.2175 48.894 65.8604 48.894C65.5034 48.894 65.214 48.6046 65.214 48.2476C65.214 47.8905 65.5034 47.6011 65.8604 47.6011C66.2175 47.6011 66.5069 47.8905 66.5069 48.2476Z" fill="#66A9FF" fill-opacity="0.7"/>
<path d="M68.4464 50.8335C68.4464 51.1906 68.157 51.48 67.7999 51.48C67.4429 51.48 67.1534 51.1906 67.1534 50.8335C67.1534 50.4765 67.4429 50.187 67.7999 50.187C68.157 50.187 68.4464 50.4765 68.4464 50.8335Z" fill="#66A9FF" fill-opacity="0.7"/>
<path d="M74.2648 48.2476C74.2648 48.6046 73.9754 48.894 73.6183 48.894C73.2613 48.894 72.9718 48.6046 72.9718 48.2476C72.9718 47.8905 73.2613 47.6011 73.6183 47.6011C73.9754 47.6011 74.2648 47.8905 74.2648 48.2476Z" fill="#66A9FF" fill-opacity="0.7"/>
<path d="M54.8701 53.4195C54.8701 53.7765 54.5807 54.066 54.2236 54.066C53.8666 54.066 53.5771 53.7765 53.5771 53.4195C53.5771 53.0624 53.8666 52.773 54.2236 52.773C54.5807 52.773 54.8701 53.0624 54.8701 53.4195Z" fill="#66A9FF" fill-opacity="0.7"/>
<path d="M56.8096 56.0054C56.8096 56.3625 56.5202 56.6519 56.1631 56.6519C55.8061 56.6519 55.5166 56.3625 55.5166 56.0054C55.5166 55.6484 55.8061 55.3589 56.1631 55.3589C56.5202 55.3589 56.8096 55.6484 56.8096 56.0054Z" fill="#66A9FF" fill-opacity="0.7"/>
<path d="M62.628 53.4195C62.628 53.7765 62.3386 54.066 61.9815 54.066C61.6245 54.066 61.335 53.7765 61.335 53.4195C61.335 53.0624 61.6245 52.773 61.9815 52.773C62.3386 52.773 62.628 53.0624 62.628 53.4195Z" fill="#66A9FF" fill-opacity="0.7"/>
<path d="M64.5675 56.0054C64.5675 56.3625 64.278 56.6519 63.921 56.6519C63.5639 56.6519 63.2745 56.3625 63.2745 56.0054C63.2745 55.6484 63.5639 55.3589 63.921 55.3589C64.278 55.3589 64.5675 55.6484 64.5675 56.0054Z" fill="#66A9FF" fill-opacity="0.7"/>
<path d="M58.7491 53.4195C58.7491 53.7765 58.4596 54.066 58.1026 54.066C57.7455 54.066 57.4561 53.7765 57.4561 53.4195C57.4561 53.0624 57.7455 52.773 58.1026 52.773C58.4596 52.773 58.7491 53.0624 58.7491 53.4195Z" fill="#66A9FF" fill-opacity="0.7"/>
<path d="M60.6885 56.0054C60.6885 56.3625 60.3991 56.6519 60.042 56.6519C59.685 56.6519 59.3956 56.3625 59.3956 56.0054C59.3956 55.6484 59.685 55.3589 60.042 55.3589C60.3991 55.3589 60.6885 55.6484 60.6885 56.0054Z" fill="#66A9FF" fill-opacity="0.7"/>
<path d="M70.3859 53.4195C70.3859 53.7765 70.0964 54.066 69.7394 54.066C69.3823 54.066 69.0929 53.7765 69.0929 53.4195C69.0929 53.0624 69.3823 52.773 69.7394 52.773C70.0964 52.773 70.3859 53.0624 70.3859 53.4195Z" fill="#66A9FF" fill-opacity="0.7"/>
<path d="M72.3253 56.0054C72.3253 56.3625 72.0359 56.6519 71.6788 56.6519C71.3218 56.6519 71.0324 56.3625 71.0324 56.0054C71.0324 55.6484 71.3218 55.3589 71.6788 55.3589C72.0359 55.3589 72.3253 55.6484 72.3253 56.0054Z" fill="#66A9FF" fill-opacity="0.7"/>
<path d="M66.5069 53.4195C66.5069 53.7765 66.2175 54.066 65.8604 54.066C65.5034 54.066 65.214 53.7765 65.214 53.4195C65.214 53.0624 65.5034 52.773 65.8604 52.773C66.2175 52.773 66.5069 53.0624 66.5069 53.4195Z" fill="#66A9FF" fill-opacity="0.7"/>
<path d="M68.4464 56.0054C68.4464 56.3625 68.157 56.6519 67.7999 56.6519C67.4429 56.6519 67.1534 56.3625 67.1534 56.0054C67.1534 55.6484 67.4429 55.3589 67.7999 55.3589C68.157 55.3589 68.4464 55.6484 68.4464 56.0054Z" fill="#66A9FF" fill-opacity="0.7"/>
<path d="M74.2648 53.4195C74.2648 53.7765 73.9754 54.066 73.6183 54.066C73.2613 54.066 72.9718 53.7765 72.9718 53.4195C72.9718 53.0624 73.2613 52.773 73.6183 52.773C73.9754 52.773 74.2648 53.0624 74.2648 53.4195Z" fill="#66A9FF" fill-opacity="0.7"/>
<path d="M62.628 58.5914C62.628 58.9484 62.3386 59.2379 61.9815 59.2379C61.6245 59.2379 61.335 58.9484 61.335 58.5914C61.335 58.2343 61.6245 57.9449 61.9815 57.9449C62.3386 57.9449 62.628 58.2343 62.628 58.5914Z" fill="#66A9FF" fill-opacity="0.7"/>
<path d="M64.5675 61.1773C64.5675 61.5344 64.278 61.8238 63.921 61.8238C63.5639 61.8238 63.2745 61.5344 63.2745 61.1773C63.2745 60.8203 63.5639 60.5308 63.921 60.5308C64.278 60.5308 64.5675 60.8203 64.5675 61.1773Z" fill="#66A9FF" fill-opacity="0.7"/>
<path d="M58.7491 58.5914C58.7491 58.9484 58.4596 59.2379 58.1026 59.2379C57.7455 59.2379 57.4561 58.9484 57.4561 58.5914C57.4561 58.2343 57.7455 57.9449 58.1026 57.9449C58.4596 57.9449 58.7491 58.2343 58.7491 58.5914Z" fill="#66A9FF" fill-opacity="0.7"/>
<path d="M60.6885 61.1773C60.6885 61.5344 60.3991 61.8238 60.042 61.8238C59.685 61.8238 59.3956 61.5344 59.3956 61.1773C59.3956 60.8203 59.685 60.5308 60.042 60.5308C60.3991 60.5308 60.6885 60.8203 60.6885 61.1773Z" fill="#66A9FF" fill-opacity="0.7"/>
<path d="M70.3859 58.5914C70.3859 58.9484 70.0964 59.2379 69.7394 59.2379C69.3823 59.2379 69.0929 58.9484 69.0929 58.5914C69.0929 58.2343 69.3823 57.9449 69.7394 57.9449C70.0964 57.9449 70.3859 58.2343 70.3859 58.5914Z" fill="#66A9FF" fill-opacity="0.7"/>
<path d="M66.5069 58.5914C66.5069 58.9484 66.2175 59.2379 65.8604 59.2379C65.5034 59.2379 65.214 58.9484 65.214 58.5914C65.214 58.2343 65.5034 57.9449 65.8604 57.9449C66.2175 57.9449 66.5069 58.2343 66.5069 58.5914Z" fill="#66A9FF" fill-opacity="0.7"/>
<path d="M68.4464 61.1773C68.4464 61.5344 68.157 61.8238 67.7999 61.8238C67.4429 61.8238 67.1534 61.5344 67.1534 61.1773C67.1534 60.8203 67.4429 60.5308 67.7999 60.5308C68.157 60.5308 68.4464 60.8203 68.4464 61.1773Z" fill="#66A9FF" fill-opacity="0.7"/>
<path d="M54.8701 22.388C54.8701 22.745 54.5807 23.0345 54.2236 23.0345C53.8666 23.0345 53.5771 22.745 53.5771 22.388C53.5771 22.0309 53.8666 21.7415 54.2236 21.7415C54.5807 21.7415 54.8701 22.0309 54.8701 22.388Z" fill="#66A9FF" fill-opacity="0.7"/>
<path d="M56.8096 24.9739C56.8096 25.331 56.5202 25.6204 56.1631 25.6204C55.8061 25.6204 55.5166 25.331 55.5166 24.9739C55.5166 24.6169 55.8061 24.3274 56.1631 24.3274C56.5202 24.3274 56.8096 24.6169 56.8096 24.9739Z" fill="#66A9FF" fill-opacity="0.7"/>
<path d="M62.628 22.388C62.628 22.745 62.3386 23.0345 61.9815 23.0345C61.6245 23.0345 61.335 22.745 61.335 22.388C61.335 22.0309 61.6245 21.7415 61.9815 21.7415C62.3386 21.7415 62.628 22.0309 62.628 22.388Z" fill="#66A9FF" fill-opacity="0.7"/>
<path d="M64.5675 24.9739C64.5675 25.331 64.278 25.6204 63.921 25.6204C63.5639 25.6204 63.2745 25.331 63.2745 24.9739C63.2745 24.6169 63.5639 24.3274 63.921 24.3274C64.278 24.3274 64.5675 24.6169 64.5675 24.9739Z" fill="#66A9FF" fill-opacity="0.7"/>
<path d="M58.7491 22.388C58.7491 22.745 58.4596 23.0345 58.1026 23.0345C57.7455 23.0345 57.4561 22.745 57.4561 22.388C57.4561 22.0309 57.7455 21.7415 58.1026 21.7415C58.4596 21.7415 58.7491 22.0309 58.7491 22.388Z" fill="#66A9FF" fill-opacity="0.7"/>
<path d="M60.6885 24.9739C60.6885 25.331 60.3991 25.6204 60.042 25.6204C59.685 25.6204 59.3956 25.331 59.3956 24.9739C59.3956 24.6169 59.685 24.3274 60.042 24.3274C60.3991 24.3274 60.6885 24.6169 60.6885 24.9739Z" fill="#66A9FF" fill-opacity="0.7"/>
<path d="M70.3859 22.388C70.3859 22.745 70.0964 23.0345 69.7394 23.0345C69.3823 23.0345 69.0929 22.745 69.0929 22.388C69.0929 22.0309 69.3823 21.7415 69.7394 21.7415C70.0964 21.7415 70.3859 22.0309 70.3859 22.388Z" fill="#66A9FF" fill-opacity="0.7"/>
<path d="M72.3253 24.9739C72.3253 25.331 72.0359 25.6204 71.6788 25.6204C71.3218 25.6204 71.0324 25.331 71.0324 24.9739C71.0324 24.6169 71.3218 24.3274 71.6788 24.3274C72.0359 24.3274 72.3253 24.6169 72.3253 24.9739Z" fill="#66A9FF" fill-opacity="0.7"/>
<path d="M66.5069 22.388C66.5069 22.745 66.2175 23.0345 65.8604 23.0345C65.5034 23.0345 65.214 22.745 65.214 22.388C65.214 22.0309 65.5034 21.7415 65.8604 21.7415C66.2175 21.7415 66.5069 22.0309 66.5069 22.388Z" fill="#66A9FF" fill-opacity="0.7"/>
<path d="M68.4464 24.9739C68.4464 25.331 68.157 25.6204 67.7999 25.6204C67.4429 25.6204 67.1534 25.331 67.1534 24.9739C67.1534 24.6169 67.4429 24.3274 67.7999 24.3274C68.157 24.3274 68.4464 24.6169 68.4464 24.9739Z" fill="#66A9FF" fill-opacity="0.7"/>
<path d="M78.1437 22.388C78.1437 22.745 77.8543 23.0345 77.4973 23.0345C77.1402 23.0345 76.8508 22.745 76.8508 22.388C76.8508 22.0309 77.1402 21.7415 77.4973 21.7415C77.8543 21.7415 78.1437 22.0309 78.1437 22.388Z" fill="#66A9FF" fill-opacity="0.7"/>
<path d="M74.2648 22.388C74.2648 22.745 73.9754 23.0345 73.6183 23.0345C73.2613 23.0345 72.9718 22.745 72.9718 22.388C72.9718 22.0309 73.2613 21.7415 73.6183 21.7415C73.9754 21.7415 74.2648 22.0309 74.2648 22.388Z" fill="#66A9FF" fill-opacity="0.7"/>
<path d="M76.2043 24.9739C76.2043 25.331 75.9148 25.6204 75.5578 25.6204C75.2007 25.6204 74.9113 25.331 74.9113 24.9739C74.9113 24.6169 75.2007 24.3274 75.5578 24.3274C75.9148 24.3274 76.2043 24.6169 76.2043 24.9739Z" fill="#66A9FF" fill-opacity="0.7"/>
<path d="M54.8701 27.5599C54.8701 27.9169 54.5807 28.2064 54.2236 28.2064C53.8666 28.2064 53.5771 27.9169 53.5771 27.5599C53.5771 27.2028 53.8666 26.9134 54.2236 26.9134C54.5807 26.9134 54.8701 27.2028 54.8701 27.5599Z" fill="#66A9FF" fill-opacity="0.7"/>
<path d="M56.8096 30.1458C56.8096 30.5029 56.5202 30.7923 56.1631 30.7923C55.8061 30.7923 55.5166 30.5029 55.5166 30.1458C55.5166 29.7888 55.8061 29.4994 56.1631 29.4994C56.5202 29.4994 56.8096 29.7888 56.8096 30.1458Z" fill="#66A9FF" fill-opacity="0.7"/>
<path d="M62.628 27.5599C62.628 27.9169 62.3386 28.2064 61.9815 28.2064C61.6245 28.2064 61.335 27.9169 61.335 27.5599C61.335 27.2028 61.6245 26.9134 61.9815 26.9134C62.3386 26.9134 62.628 27.2028 62.628 27.5599Z" fill="#66A9FF" fill-opacity="0.7"/>
<path d="M64.5675 30.1458C64.5675 30.5029 64.278 30.7923 63.921 30.7923C63.5639 30.7923 63.2745 30.5029 63.2745 30.1458C63.2745 29.7888 63.5639 29.4994 63.921 29.4994C64.278 29.4994 64.5675 29.7888 64.5675 30.1458Z" fill="#66A9FF" fill-opacity="0.7"/>
<path d="M58.7491 27.5599C58.7491 27.9169 58.4596 28.2064 58.1026 28.2064C57.7455 28.2064 57.4561 27.9169 57.4561 27.5599C57.4561 27.2028 57.7455 26.9134 58.1026 26.9134C58.4596 26.9134 58.7491 27.2028 58.7491 27.5599Z" fill="#66A9FF" fill-opacity="0.7"/>
<path d="M60.6885 30.1458C60.6885 30.5029 60.3991 30.7923 60.042 30.7923C59.685 30.7923 59.3956 30.5029 59.3956 30.1458C59.3956 29.7888 59.685 29.4994 60.042 29.4994C60.3991 29.4994 60.6885 29.7888 60.6885 30.1458Z" fill="#66A9FF" fill-opacity="0.7"/>
<path d="M70.3859 27.5599C70.3859 27.9169 70.0964 28.2064 69.7394 28.2064C69.3823 28.2064 69.0929 27.9169 69.0929 27.5599C69.0929 27.2028 69.3823 26.9134 69.7394 26.9134C70.0964 26.9134 70.3859 27.2028 70.3859 27.5599Z" fill="#66A9FF" fill-opacity="0.7"/>
<path d="M72.3253 30.1458C72.3253 30.5029 72.0359 30.7923 71.6788 30.7923C71.3218 30.7923 71.0324 30.5029 71.0324 30.1458C71.0324 29.7888 71.3218 29.4994 71.6788 29.4994C72.0359 29.4994 72.3253 29.7888 72.3253 30.1458Z" fill="#66A9FF" fill-opacity="0.7"/>
<path d="M66.5069 27.5599C66.5069 27.9169 66.2175 28.2064 65.8604 28.2064C65.5034 28.2064 65.214 27.9169 65.214 27.5599C65.214 27.2028 65.5034 26.9134 65.8604 26.9134C66.2175 26.9134 66.5069 27.2028 66.5069 27.5599Z" fill="#66A9FF" fill-opacity="0.7"/>
<path d="M68.4464 30.1458C68.4464 30.5029 68.157 30.7923 67.7999 30.7923C67.4429 30.7923 67.1534 30.5029 67.1534 30.1458C67.1534 29.7888 67.4429 29.4994 67.7999 29.4994C68.157 29.4994 68.4464 29.7888 68.4464 30.1458Z" fill="#66A9FF" fill-opacity="0.7"/>
<path d="M78.1437 27.5599C78.1437 27.9169 77.8543 28.2064 77.4973 28.2064C77.1402 28.2064 76.8508 27.9169 76.8508 27.5599C76.8508 27.2028 77.1402 26.9134 77.4973 26.9134C77.8543 26.9134 78.1437 27.2028 78.1437 27.5599Z" fill="#66A9FF" fill-opacity="0.7"/>
<path d="M74.2648 27.5599C74.2648 27.9169 73.9754 28.2064 73.6183 28.2064C73.2613 28.2064 72.9718 27.9169 72.9718 27.5599C72.9718 27.2028 73.2613 26.9134 73.6183 26.9134C73.9754 26.9134 74.2648 27.2028 74.2648 27.5599Z" fill="#66A9FF" fill-opacity="0.7"/>
<path d="M76.2043 30.1458C76.2043 30.5029 75.9148 30.7923 75.5578 30.7923C75.2007 30.7923 74.9113 30.5029 74.9113 30.1458C74.9113 29.7888 75.2007 29.4994 75.5578 29.4994C75.9148 29.4994 76.2043 29.7888 76.2043 30.1458Z" fill="#66A9FF" fill-opacity="0.7"/>
<path d="M54.8701 32.7318C54.8701 33.0889 54.5807 33.3783 54.2236 33.3783C53.8666 33.3783 53.5771 33.0889 53.5771 32.7318C53.5771 32.3748 53.8666 32.0853 54.2236 32.0853C54.5807 32.0853 54.8701 32.3748 54.8701 32.7318Z" fill="#66A9FF" fill-opacity="0.7"/>
<path d="M56.8096 35.3178C56.8096 35.6748 56.5202 35.9643 56.1631 35.9643C55.8061 35.9643 55.5166 35.6748 55.5166 35.3178C55.5166 34.9607 55.8061 34.6713 56.1631 34.6713C56.5202 34.6713 56.8096 34.9607 56.8096 35.3178Z" fill="#66A9FF" fill-opacity="0.7"/>
<path d="M62.628 32.7318C62.628 33.0889 62.3386 33.3783 61.9815 33.3783C61.6245 33.3783 61.335 33.0889 61.335 32.7318C61.335 32.3748 61.6245 32.0853 61.9815 32.0853C62.3386 32.0853 62.628 32.3748 62.628 32.7318Z" fill="#66A9FF" fill-opacity="0.7"/>
<path d="M64.5675 35.3178C64.5675 35.6748 64.278 35.9643 63.921 35.9643C63.5639 35.9643 63.2745 35.6748 63.2745 35.3178C63.2745 34.9607 63.5639 34.6713 63.921 34.6713C64.278 34.6713 64.5675 34.9607 64.5675 35.3178Z" fill="#66A9FF" fill-opacity="0.7"/>
<path d="M58.7491 32.7318C58.7491 33.0889 58.4596 33.3783 58.1026 33.3783C57.7455 33.3783 57.4561 33.0889 57.4561 32.7318C57.4561 32.3748 57.7455 32.0853 58.1026 32.0853C58.4596 32.0853 58.7491 32.3748 58.7491 32.7318Z" fill="#66A9FF" fill-opacity="0.7"/>
<path d="M60.6885 35.3178C60.6885 35.6748 60.3991 35.9643 60.042 35.9643C59.685 35.9643 59.3956 35.6748 59.3956 35.3178C59.3956 34.9607 59.685 34.6713 60.042 34.6713C60.3991 34.6713 60.6885 34.9607 60.6885 35.3178Z" fill="#66A9FF" fill-opacity="0.7"/>
<path d="M70.3859 32.7318C70.3859 33.0889 70.0964 33.3783 69.7394 33.3783C69.3823 33.3783 69.0929 33.0889 69.0929 32.7318C69.0929 32.3748 69.3823 32.0853 69.7394 32.0853C70.0964 32.0853 70.3859 32.3748 70.3859 32.7318Z" fill="#66A9FF" fill-opacity="0.7"/>
<path d="M72.3253 35.3178C72.3253 35.6748 72.0359 35.9643 71.6788 35.9643C71.3218 35.9643 71.0324 35.6748 71.0324 35.3178C71.0324 34.9607 71.3218 34.6713 71.6788 34.6713C72.0359 34.6713 72.3253 34.9607 72.3253 35.3178Z" fill="#66A9FF" fill-opacity="0.7"/>
<path d="M66.5069 32.7318C66.5069 33.0889 66.2175 33.3783 65.8604 33.3783C65.5034 33.3783 65.214 33.0889 65.214 32.7318C65.214 32.3748 65.5034 32.0853 65.8604 32.0853C66.2175 32.0853 66.5069 32.3748 66.5069 32.7318Z" fill="#66A9FF" fill-opacity="0.7"/>
<path d="M68.4464 35.3178C68.4464 35.6748 68.157 35.9643 67.7999 35.9643C67.4429 35.9643 67.1534 35.6748 67.1534 35.3178C67.1534 34.9607 67.4429 34.6713 67.7999 34.6713C68.157 34.6713 68.4464 34.9607 68.4464 35.3178Z" fill="#66A9FF" fill-opacity="0.7"/>
<path d="M78.1437 32.7318C78.1437 33.0889 77.8543 33.3783 77.4973 33.3783C77.1402 33.3783 76.8508 33.0889 76.8508 32.7318C76.8508 32.3748 77.1402 32.0853 77.4973 32.0853C77.8543 32.0853 78.1437 32.3748 78.1437 32.7318Z" fill="#66A9FF" fill-opacity="0.7"/>
<path d="M74.2648 32.7318C74.2648 33.0889 73.9754 33.3783 73.6183 33.3783C73.2613 33.3783 72.9718 33.0889 72.9718 32.7318C72.9718 32.3748 73.2613 32.0853 73.6183 32.0853C73.9754 32.0853 74.2648 32.3748 74.2648 32.7318Z" fill="#66A9FF" fill-opacity="0.7"/>
<path d="M76.2043 35.3178C76.2043 35.6748 75.9148 35.9643 75.5578 35.9643C75.2007 35.9643 74.9113 35.6748 74.9113 35.3178C74.9113 34.9607 75.2007 34.6713 75.5578 34.6713C75.9148 34.6713 76.2043 34.9607 76.2043 35.3178Z" fill="#66A9FF" fill-opacity="0.7"/>
<path d="M54.8701 37.9037C54.8701 38.2608 54.5807 38.5502 54.2236 38.5502C53.8666 38.5502 53.5771 38.2608 53.5771 37.9037C53.5771 37.5467 53.8666 37.2572 54.2236 37.2572C54.5807 37.2572 54.8701 37.5467 54.8701 37.9037Z" fill="#66A9FF" fill-opacity="0.7"/>
<path d="M56.8096 40.4897C56.8096 40.8467 56.5202 41.1362 56.1631 41.1362C55.8061 41.1362 55.5166 40.8467 55.5166 40.4897C55.5166 40.1326 55.8061 39.8432 56.1631 39.8432C56.5202 39.8432 56.8096 40.1326 56.8096 40.4897Z" fill="#66A9FF" fill-opacity="0.7"/>
<path d="M62.628 37.9037C62.628 38.2608 62.3386 38.5502 61.9815 38.5502C61.6245 38.5502 61.335 38.2608 61.335 37.9037C61.335 37.5467 61.6245 37.2572 61.9815 37.2572C62.3386 37.2572 62.628 37.5467 62.628 37.9037Z" fill="#66A9FF" fill-opacity="0.7"/>
<path d="M64.5675 40.4897C64.5675 40.8467 64.278 41.1362 63.921 41.1362C63.5639 41.1362 63.2745 40.8467 63.2745 40.4897C63.2745 40.1326 63.5639 39.8432 63.921 39.8432C64.278 39.8432 64.5675 40.1326 64.5675 40.4897Z" fill="#66A9FF" fill-opacity="0.7"/>
<path d="M58.7491 37.9037C58.7491 38.2608 58.4596 38.5502 58.1026 38.5502C57.7455 38.5502 57.4561 38.2608 57.4561 37.9037C57.4561 37.5467 57.7455 37.2572 58.1026 37.2572C58.4596 37.2572 58.7491 37.5467 58.7491 37.9037Z" fill="#66A9FF" fill-opacity="0.7"/>
<path d="M60.6885 40.4897C60.6885 40.8467 60.3991 41.1362 60.042 41.1362C59.685 41.1362 59.3956 40.8467 59.3956 40.4897C59.3956 40.1326 59.685 39.8432 60.042 39.8432C60.3991 39.8432 60.6885 40.1326 60.6885 40.4897Z" fill="#66A9FF" fill-opacity="0.7"/>
<path d="M70.3859 37.9037C70.3859 38.2608 70.0964 38.5502 69.7394 38.5502C69.3823 38.5502 69.0929 38.2608 69.0929 37.9037C69.0929 37.5467 69.3823 37.2572 69.7394 37.2572C70.0964 37.2572 70.3859 37.5467 70.3859 37.9037Z" fill="#66A9FF" fill-opacity="0.7"/>
<path d="M72.3253 40.4897C72.3253 40.8467 72.0359 41.1362 71.6788 41.1362C71.3218 41.1362 71.0324 40.8467 71.0324 40.4897C71.0324 40.1326 71.3218 39.8432 71.6788 39.8432C72.0359 39.8432 72.3253 40.1326 72.3253 40.4897Z" fill="#66A9FF" fill-opacity="0.7"/>
<path d="M66.5069 37.9037C66.5069 38.2608 66.2175 38.5502 65.8604 38.5502C65.5034 38.5502 65.214 38.2608 65.214 37.9037C65.214 37.5467 65.5034 37.2572 65.8604 37.2572C66.2175 37.2572 66.5069 37.5467 66.5069 37.9037Z" fill="#66A9FF" fill-opacity="0.7"/>
<path d="M68.4464 40.4897C68.4464 40.8467 68.157 41.1362 67.7999 41.1362C67.4429 41.1362 67.1534 40.8467 67.1534 40.4897C67.1534 40.1326 67.4429 39.8432 67.7999 39.8432C68.157 39.8432 68.4464 40.1326 68.4464 40.4897Z" fill="#66A9FF" fill-opacity="0.7"/>
<path d="M78.1437 37.9037C78.1437 38.2608 77.8543 38.5502 77.4973 38.5502C77.1402 38.5502 76.8508 38.2608 76.8508 37.9037C76.8508 37.5467 77.1402 37.2572 77.4973 37.2572C77.8543 37.2572 78.1437 37.5467 78.1437 37.9037Z" fill="#66A9FF" fill-opacity="0.7"/>
<path d="M74.2648 37.9037C74.2648 38.2608 73.9754 38.5502 73.6183 38.5502C73.2613 38.5502 72.9718 38.2608 72.9718 37.9037C72.9718 37.5467 73.2613 37.2572 73.6183 37.2572C73.9754 37.2572 74.2648 37.5467 74.2648 37.9037Z" fill="#66A9FF" fill-opacity="0.7"/>
<path d="M76.2043 40.4897C76.2043 40.8467 75.9148 41.1362 75.5578 41.1362C75.2007 41.1362 74.9113 40.8467 74.9113 40.4897C74.9113 40.1326 75.2007 39.8432 75.5578 39.8432C75.9148 39.8432 76.2043 40.1326 76.2043 40.4897Z" fill="#66A9FF" fill-opacity="0.7"/>
<path d="M62.628 1.70032C62.628 2.05737 62.3386 2.34681 61.9815 2.34681C61.6245 2.34681 61.335 2.05737 61.335 1.70032C61.335 1.34328 61.6245 1.05383 61.9815 1.05383C62.3386 1.05383 62.628 1.34328 62.628 1.70032Z" fill="#66A9FF" fill-opacity="0.7"/>
<path d="M64.5675 4.28628C64.5675 4.64333 64.278 4.93277 63.921 4.93277C63.5639 4.93277 63.2745 4.64333 63.2745 4.28628C63.2745 3.92923 63.5639 3.63979 63.921 3.63979C64.278 3.63979 64.5675 3.92923 64.5675 4.28628Z" fill="#66A9FF" fill-opacity="0.7"/>
<path d="M60.6885 4.28628C60.6885 4.64333 60.3991 4.93277 60.042 4.93277C59.685 4.93277 59.3956 4.64333 59.3956 4.28628C59.3956 3.92923 59.685 3.63979 60.042 3.63979C60.3991 3.63979 60.6885 3.92923 60.6885 4.28628Z" fill="#66A9FF" fill-opacity="0.7"/>
<path d="M70.3859 1.70032C70.3859 2.05737 70.0964 2.34681 69.7394 2.34681C69.3823 2.34681 69.0929 2.05737 69.0929 1.70032C69.0929 1.34328 69.3823 1.05383 69.7394 1.05383C70.0964 1.05383 70.3859 1.34328 70.3859 1.70032Z" fill="#66A9FF" fill-opacity="0.7"/>
<path d="M72.3253 4.28628C72.3253 4.64333 72.0359 4.93277 71.6788 4.93277C71.3218 4.93277 71.0324 4.64333 71.0324 4.28628C71.0324 3.92923 71.3218 3.63979 71.6788 3.63979C72.0359 3.63979 72.3253 3.92923 72.3253 4.28628Z" fill="#66A9FF" fill-opacity="0.7"/>
<path d="M66.5069 1.70032C66.5069 2.05737 66.2175 2.34681 65.8604 2.34681C65.5034 2.34681 65.214 2.05737 65.214 1.70032C65.214 1.34328 65.5034 1.05383 65.8604 1.05383C66.2175 1.05383 66.5069 1.34328 66.5069 1.70032Z" fill="#66A9FF" fill-opacity="0.7"/>
<path d="M68.4464 4.28628C68.4464 4.64333 68.157 4.93277 67.7999 4.93277C67.4429 4.93277 67.1534 4.64333 67.1534 4.28628C67.1534 3.92923 67.4429 3.63979 67.7999 3.63979C68.157 3.63979 68.4464 3.92923 68.4464 4.28628Z" fill="#66A9FF" fill-opacity="0.7"/>
<path d="M56.8096 9.45819C56.8096 9.81524 56.5202 10.1047 56.1631 10.1047C55.8061 10.1047 55.5166 9.81524 55.5166 9.45819C55.5166 9.10115 55.8061 8.8117 56.1631 8.8117C56.5202 8.8117 56.8096 9.10115 56.8096 9.45819Z" fill="#66A9FF" fill-opacity="0.7"/>
<path d="M62.628 6.87224C62.628 7.22928 62.3386 7.51873 61.9815 7.51873C61.6245 7.51873 61.335 7.22928 61.335 6.87224C61.335 6.51519 61.6245 6.22575 61.9815 6.22575C62.3386 6.22575 62.628 6.51519 62.628 6.87224Z" fill="#66A9FF" fill-opacity="0.7"/>
<path d="M64.5675 9.45819C64.5675 9.81524 64.278 10.1047 63.921 10.1047C63.5639 10.1047 63.2745 9.81524 63.2745 9.45819C63.2745 9.10115 63.5639 8.8117 63.921 8.8117C64.278 8.8117 64.5675 9.10115 64.5675 9.45819Z" fill="#66A9FF" fill-opacity="0.7"/>
<path d="M58.7491 6.87224C58.7491 7.22928 58.4596 7.51873 58.1026 7.51873C57.7455 7.51873 57.4561 7.22928 57.4561 6.87224C57.4561 6.51519 57.7455 6.22575 58.1026 6.22575C58.4596 6.22575 58.7491 6.51519 58.7491 6.87224Z" fill="#66A9FF" fill-opacity="0.7"/>
<path d="M60.6885 9.45819C60.6885 9.81524 60.3991 10.1047 60.042 10.1047C59.685 10.1047 59.3956 9.81524 59.3956 9.45819C59.3956 9.10115 59.685 8.8117 60.042 8.8117C60.3991 8.8117 60.6885 9.10115 60.6885 9.45819Z" fill="#66A9FF" fill-opacity="0.7"/>
<path d="M70.3859 6.87224C70.3859 7.22928 70.0964 7.51873 69.7394 7.51873C69.3823 7.51873 69.0929 7.22928 69.0929 6.87224C69.0929 6.51519 69.3823 6.22575 69.7394 6.22575C70.0964 6.22575 70.3859 6.51519 70.3859 6.87224Z" fill="#66A9FF" fill-opacity="0.7"/>
<path d="M72.3253 9.45819C72.3253 9.81524 72.0359 10.1047 71.6788 10.1047C71.3218 10.1047 71.0324 9.81524 71.0324 9.45819C71.0324 9.10115 71.3218 8.8117 71.6788 8.8117C72.0359 8.8117 72.3253 9.10115 72.3253 9.45819Z" fill="#66A9FF" fill-opacity="0.7"/>
<path d="M66.5069 6.87224C66.5069 7.22928 66.2175 7.51873 65.8604 7.51873C65.5034 7.51873 65.214 7.22928 65.214 6.87224C65.214 6.51519 65.5034 6.22575 65.8604 6.22575C66.2175 6.22575 66.5069 6.51519 66.5069 6.87224Z" fill="#66A9FF" fill-opacity="0.7"/>
<path d="M68.4464 9.45819C68.4464 9.81524 68.157 10.1047 67.7999 10.1047C67.4429 10.1047 67.1534 9.81524 67.1534 9.45819C67.1534 9.10115 67.4429 8.8117 67.7999 8.8117C68.157 8.8117 68.4464 9.10115 68.4464 9.45819Z" fill="#66A9FF" fill-opacity="0.7"/>
<path d="M54.8701 12.0442C54.8701 12.4012 54.5807 12.6906 54.2236 12.6906C53.8666 12.6906 53.5771 12.4012 53.5771 12.0442C53.5771 11.6871 53.8666 11.3977 54.2236 11.3977C54.5807 11.3977 54.8701 11.6871 54.8701 12.0442Z" fill="#66A9FF" fill-opacity="0.7"/>
<path d="M56.8096 14.6301C56.8096 14.9872 56.5202 15.2766 56.1631 15.2766C55.8061 15.2766 55.5166 14.9872 55.5166 14.6301C55.5166 14.2731 55.8061 13.9836 56.1631 13.9836C56.5202 13.9836 56.8096 14.2731 56.8096 14.6301Z" fill="#66A9FF" fill-opacity="0.7"/>
<path d="M62.628 12.0442C62.628 12.4012 62.3386 12.6906 61.9815 12.6906C61.6245 12.6906 61.335 12.4012 61.335 12.0442C61.335 11.6871 61.6245 11.3977 61.9815 11.3977C62.3386 11.3977 62.628 11.6871 62.628 12.0442Z" fill="#66A9FF" fill-opacity="0.7"/>
<path d="M64.5675 14.6301C64.5675 14.9872 64.278 15.2766 63.921 15.2766C63.5639 15.2766 63.2745 14.9872 63.2745 14.6301C63.2745 14.2731 63.5639 13.9836 63.921 13.9836C64.278 13.9836 64.5675 14.2731 64.5675 14.6301Z" fill="#66A9FF" fill-opacity="0.7"/>
<path d="M58.7491 12.0442C58.7491 12.4012 58.4596 12.6906 58.1026 12.6906C57.7455 12.6906 57.4561 12.4012 57.4561 12.0442C57.4561 11.6871 57.7455 11.3977 58.1026 11.3977C58.4596 11.3977 58.7491 11.6871 58.7491 12.0442Z" fill="#66A9FF" fill-opacity="0.7"/>
<path d="M60.6885 14.6301C60.6885 14.9872 60.3991 15.2766 60.042 15.2766C59.685 15.2766 59.3956 14.9872 59.3956 14.6301C59.3956 14.2731 59.685 13.9836 60.042 13.9836C60.3991 13.9836 60.6885 14.2731 60.6885 14.6301Z" fill="#66A9FF" fill-opacity="0.7"/>
<path d="M70.3859 12.0442C70.3859 12.4012 70.0964 12.6906 69.7394 12.6906C69.3823 12.6906 69.0929 12.4012 69.0929 12.0442C69.0929 11.6871 69.3823 11.3977 69.7394 11.3977C70.0964 11.3977 70.3859 11.6871 70.3859 12.0442Z" fill="#66A9FF" fill-opacity="0.7"/>
<path d="M72.3253 14.6301C72.3253 14.9872 72.0359 15.2766 71.6788 15.2766C71.3218 15.2766 71.0324 14.9872 71.0324 14.6301C71.0324 14.2731 71.3218 13.9836 71.6788 13.9836C72.0359 13.9836 72.3253 14.2731 72.3253 14.6301Z" fill="#66A9FF" fill-opacity="0.7"/>
<path d="M66.5069 12.0442C66.5069 12.4012 66.2175 12.6906 65.8604 12.6906C65.5034 12.6906 65.214 12.4012 65.214 12.0442C65.214 11.6871 65.5034 11.3977 65.8604 11.3977C66.2175 11.3977 66.5069 11.6871 66.5069 12.0442Z" fill="#66A9FF" fill-opacity="0.7"/>
<path d="M68.4464 14.6301C68.4464 14.9872 68.157 15.2766 67.7999 15.2766C67.4429 15.2766 67.1534 14.9872 67.1534 14.6301C67.1534 14.2731 67.4429 13.9836 67.7999 13.9836C68.157 13.9836 68.4464 14.2731 68.4464 14.6301Z" fill="#66A9FF" fill-opacity="0.7"/>
<path d="M74.2648 12.0442C74.2648 12.4012 73.9754 12.6906 73.6183 12.6906C73.2613 12.6906 72.9718 12.4012 72.9718 12.0442C72.9718 11.6871 73.2613 11.3977 73.6183 11.3977C73.9754 11.3977 74.2648 11.6871 74.2648 12.0442Z" fill="#66A9FF" fill-opacity="0.7"/>
<path d="M76.2043 14.6301C76.2043 14.9872 75.9148 15.2766 75.5578 15.2766C75.2007 15.2766 74.9113 14.9872 74.9113 14.6301C74.9113 14.2731 75.2007 13.9836 75.5578 13.9836C75.9148 13.9836 76.2043 14.2731 76.2043 14.6301Z" fill="#66A9FF" fill-opacity="0.7"/>
<path d="M54.8701 17.2161C54.8701 17.5731 54.5807 17.8626 54.2236 17.8626C53.8666 17.8626 53.5771 17.5731 53.5771 17.2161C53.5771 16.859 53.8666 16.5696 54.2236 16.5696C54.5807 16.5696 54.8701 16.859 54.8701 17.2161Z" fill="#66A9FF" fill-opacity="0.7"/>
<path d="M56.8096 19.802C56.8096 20.1591 56.5202 20.4485 56.1631 20.4485C55.8061 20.4485 55.5166 20.1591 55.5166 19.802C55.5166 19.445 55.8061 19.1555 56.1631 19.1555C56.5202 19.1555 56.8096 19.445 56.8096 19.802Z" fill="#66A9FF" fill-opacity="0.7"/>
<path d="M62.628 17.2161C62.628 17.5731 62.3386 17.8626 61.9815 17.8626C61.6245 17.8626 61.335 17.5731 61.335 17.2161C61.335 16.859 61.6245 16.5696 61.9815 16.5696C62.3386 16.5696 62.628 16.859 62.628 17.2161Z" fill="#66A9FF" fill-opacity="0.7"/>
<path d="M64.5675 19.802C64.5675 20.1591 64.278 20.4485 63.921 20.4485C63.5639 20.4485 63.2745 20.1591 63.2745 19.802C63.2745 19.445 63.5639 19.1555 63.921 19.1555C64.278 19.1555 64.5675 19.445 64.5675 19.802Z" fill="#66A9FF" fill-opacity="0.7"/>
<path d="M58.7491 17.2161C58.7491 17.5731 58.4596 17.8626 58.1026 17.8626C57.7455 17.8626 57.4561 17.5731 57.4561 17.2161C57.4561 16.859 57.7455 16.5696 58.1026 16.5696C58.4596 16.5696 58.7491 16.859 58.7491 17.2161Z" fill="#66A9FF" fill-opacity="0.7"/>
<path d="M60.6885 19.802C60.6885 20.1591 60.3991 20.4485 60.042 20.4485C59.685 20.4485 59.3956 20.1591 59.3956 19.802C59.3956 19.445 59.685 19.1555 60.042 19.1555C60.3991 19.1555 60.6885 19.445 60.6885 19.802Z" fill="#66A9FF" fill-opacity="0.7"/>
<path d="M70.3859 17.2161C70.3859 17.5731 70.0964 17.8626 69.7394 17.8626C69.3823 17.8626 69.0929 17.5731 69.0929 17.2161C69.0929 16.859 69.3823 16.5696 69.7394 16.5696C70.0964 16.5696 70.3859 16.859 70.3859 17.2161Z" fill="#66A9FF" fill-opacity="0.7"/>
<path d="M72.3253 19.802C72.3253 20.1591 72.0359 20.4485 71.6788 20.4485C71.3218 20.4485 71.0324 20.1591 71.0324 19.802C71.0324 19.445 71.3218 19.1555 71.6788 19.1555C72.0359 19.1555 72.3253 19.445 72.3253 19.802Z" fill="#66A9FF" fill-opacity="0.7"/>
<path d="M66.5069 17.2161C66.5069 17.5731 66.2175 17.8626 65.8604 17.8626C65.5034 17.8626 65.214 17.5731 65.214 17.2161C65.214 16.859 65.5034 16.5696 65.8604 16.5696C66.2175 16.5696 66.5069 16.859 66.5069 17.2161Z" fill="#66A9FF" fill-opacity="0.7"/>
<path d="M68.4464 19.802C68.4464 20.1591 68.157 20.4485 67.7999 20.4485C67.4429 20.4485 67.1534 20.1591 67.1534 19.802C67.1534 19.445 67.4429 19.1555 67.7999 19.1555C68.157 19.1555 68.4464 19.445 68.4464 19.802Z" fill="#66A9FF" fill-opacity="0.7"/>
<path d="M78.1437 17.2161C78.1437 17.5731 77.8543 17.8626 77.4973 17.8626C77.1402 17.8626 76.8508 17.5731 76.8508 17.2161C76.8508 16.859 77.1402 16.5696 77.4973 16.5696C77.8543 16.5696 78.1437 16.859 78.1437 17.2161Z" fill="#66A9FF" fill-opacity="0.7"/>
<path d="M74.2648 17.2161C74.2648 17.5731 73.9754 17.8626 73.6183 17.8626C73.2613 17.8626 72.9718 17.5731 72.9718 17.2161C72.9718 16.859 73.2613 16.5696 73.6183 16.5696C73.9754 16.5696 74.2648 16.859 74.2648 17.2161Z" fill="#66A9FF" fill-opacity="0.7"/>
<path d="M76.2043 19.802C76.2043 20.1591 75.9148 20.4485 75.5578 20.4485C75.2007 20.4485 74.9113 20.1591 74.9113 19.802C74.9113 19.445 75.2007 19.1555 75.5578 19.1555C75.9148 19.1555 76.2043 19.445 76.2043 19.802Z" fill="#66A9FF" fill-opacity="0.7"/>
</g>
<path d="M77.4803 29.7543C77.4912 30.1975 77.4987 30.6433 77.5027 31.0913L71.1709 30.9828L71.1955 29.6466L77.4803 29.7543Z" fill="white"/>
<path d="M73.1564 7.46326C73.3486 7.87949 73.5357 8.31169 73.7176 8.75911L67.4131 13.9801L66.5122 12.9656L73.1564 7.46326Z" fill="white"/>
<path d="M73.4102 55.675C73.5972 55.2463 73.779 54.802 73.9555 54.343L66.7883 47.9675L65.8506 48.9505L73.4102 55.675Z" fill="white"/>
<path d="M77.5023 31.0572L87.293 31.1724L87.3176 29.8362L77.4794 29.7205C77.4905 30.1636 77.4981 30.6093 77.5023 31.0572Z" fill="#1F1F22"/>
<path d="M73.7516 8.8433L80.3353 3.50787L79.4355 2.49243L73.1958 7.5491C73.3861 7.96502 73.5715 8.39667 73.7516 8.8433Z" fill="#1F1F22"/>
<path d="M73.3907 55.7194C73.5786 55.2905 73.7613 54.846 73.9386 54.3865L78.7967 58.7477L77.8584 59.7301L77.8572 59.7291L73.3907 55.7194Z" fill="#1F1F22"/>
<path d="M15.6021 44.9739H29.9457V70.5053H15.6021V44.9739Z" fill="#0058CC"/>
<path d="M25.3843 52.2583H30.0435C32.0566 52.2583 33.6885 53.8902 33.6885 55.9033C-nan -nan -nan -nan 33.6885 55.9033Lnan nanCnan nan -nan -nan -nan -nanL-nan -nanC-nan -nan nan nan nan nanL33.6885 55.9033C-nan -nan -nan -nan 30.0435 59.5482V59.5482H25.3843V52.2583Z" fill="#FF4C4C"/>
<path d="M54.3739 38.5829C54.1968 36.4147 54.1035 34.1626 54.1035 31.8521C54.1035 29.662 54.1874 27.5244 54.3469 25.4611H59.4007C63.0242 25.4611 65.9616 28.3985 65.9616 32.022C65.9616 35.6455 63.0242 38.5829 59.4007 38.5829H54.3739Z" fill="#FFDB5C"/>
<path fill-rule="evenodd" clip-rule="evenodd" d="M4.34262 34.9781L7.60395 27.9619L9.42013 28.8133L6.15881 35.8294L4.34262 34.9781Z" fill="#1F1F22"/>
<path fill-rule="evenodd" clip-rule="evenodd" d="M8.26694 34.6133L11.5283 27.5972L13.3444 28.4486L10.0831 35.4647L8.26694 34.6133Z" fill="#1F1F22"/>
<path fill-rule="evenodd" clip-rule="evenodd" d="M12.1913 34.2487L15.4526 27.2326L17.2688 28.0839L14.0074 35.1001L12.1913 34.2487Z" fill="#1F1F22"/>
</svg>
